<svg xmlns="http://www.w3.org/2000/svg" viewBox="0 0 68.83 65.75"><defs><style>.cls-1{fill:none;stroke:#fff;stroke-linecap:round;stroke-linejoin:round;stroke-width:2px;}</style></defs><g id="Layer_2" data-name="Layer 2"><g id="Artwork"><path class="cls-1" d="M42.24,1h0a2.61,2.61,0,0,1-2.61,2.61h-.84A3.43,3.43,0,0,0,35.36,7h0a3.43,3.43,0,0,0,3.43,3.42h8.87a3.44,3.44,0,0,1,3.43,3.43h0a3.44,3.44,0,0,1-3.43,3.43h-17a4.79,4.79,0,0,0-4.8,4.79h0a4.8,4.8,0,0,0,4.8,4.8H67.83V39A25.77,25.77,0,0,1,42.06,64.75h0A25.77,25.77,0,0,1,16.29,39V26.91H7.71A6.72,6.72,0,0,0,1,33.62H1a6.72,6.72,0,0,0,6.71,6.72H10.5"/></g></g></svg>