<svg xmlns="http://www.w3.org/2000/svg" viewBox="0 0 62.58 52.53"><defs><style>.cls-1{fill:none;stroke:#fff;stroke-linecap:round;stroke-linejoin:round;stroke-width:2px;}</style></defs><g id="Layer_2" data-name="Layer 2"><g id="Artwork"><path class="cls-1" d="M38,2.41a17.46,17.46,0,0,1,19.23,3.7c6.82,6.82,5,16.09-1.79,22.91"/><path class="cls-1" d="M18.32,30.28,29.54,19.21a1.25,1.25,0,0,1,1.7-.06L38.12,25c4.41,3.7,10.37-.41,7.18-3.6l-14-14L31,7l-.59-.58L30,6.13a17.49,17.49,0,0,0-24.73,0C-1.51,12.93.28,22.2,7.1,29h0l0,0h0l0,.05,0,0a.46.46,0,0,0,.07.07l.08.08.09.09L7.1,29h0l0,0h0l0,.05,0,0,.07.07.08.08,6.11,5.9,2.21,2.21a3.16,3.16,0,0,0,4.48,0l3.6-3.6"/><path class="cls-1" d="M31.3,26.33l-11,10.93a3.18,3.18,0,0,0,0,4.54h0a3.18,3.18,0,0,0,4.45,0l11-11"/><path class="cls-1" d="M40.33,35.35c-3.17,3.16-7.92,7.88-10.9,10.86a3.23,3.23,0,0,1-4.51,0h0a3.21,3.21,0,0,1,0-4.59L35.78,30.8"/><path class="cls-1" d="M39.94,35.74,29.46,46.18a3.12,3.12,0,0,0,0,4.47h0a3.14,3.14,0,0,0,4.4,0L55.48,29"/></g></g></svg>