<svg xmlns="http://www.w3.org/2000/svg" viewBox="0 0 54.15 52.53"><defs><style>.cls-1{fill:none;stroke:#fff;stroke-linecap:round;stroke-linejoin:round;stroke-width:2px;}</style></defs><g id="Layer_2" data-name="Layer 2"><g id="Artwork"><path class="cls-1" d="M4.71,17.72A21.68,21.68,0,0,0,5.86,43.53a21.55,21.55,0,0,1-4.22,8,25.25,25.25,0,0,0,10.07-3,21.52,21.52,0,0,0,11,3,21.75,21.75,0,0,0,7.77-1.43,20.19,20.19,0,0,0,8.2-5.94,7.11,7.11,0,0,0,1-1.38,21.66,21.66,0,1,1,8.68-6.41,21.65,21.65,0,0,0,4.23,8,24,24,0,0,1-6.61-1.43"/></g></g></svg>