<svg xmlns="http://www.w3.org/2000/svg" viewBox="0 0 54.93 54.93"><defs><style>.cls-1{fill:none;stroke:#fff;stroke-linecap:round;stroke-linejoin:round;stroke-width:2px;}</style></defs><g id="Layer_2" data-name="Layer 2"><g id="Artwork"><path class="cls-1" d="M53.61,23.36A26.47,26.47,0,1,1,27.46,1c.32,0,9.43,0,4.23,3.86-3.83,2.83-8.59,2.06-8.75,4.58-.14,2.13,2.25,3.33,6.1,4.25s3,4.45-1.21,3.73-14.65,2.37-8.57,5.74-2.74,9.11,5.52,9.11c5.72,0,10.51.59,8,8.69-1.35,4.31,7.08,4.19,6.65-5.3S37,13.75,48.15,19.22c5.69,2.8,4.84-1,2-5.39h0a26.54,26.54,0,0,0-12-10.57"/></g></g></svg>