<?xml version="1.0" encoding="utf-8"?>
<!-- Generator: Adobe Illustrator 24.2.0, SVG Export Plug-In . SVG Version: 6.00 Build 0)  -->
<svg xmlns="http://www.w3.org/2000/svg" xmlns:xlink="http://www.w3.org/1999/xlink" version="1.1" id="Layer_1" x="0px" y="0px" viewBox="0 0 528.5 540" style="enable-background:new 0 0 528.5 540;" xml:space="preserve">
<style type="text/css">
	.st0{fill:#FFFFFF;}
</style>
<g>
	<g>
		<g>
			<path class="st0" d="M163.3,63.7c1.9,1.2,4.7,2.1,8.3,2.8c3.5,0.9,7.3,1.2,11.1,1.2c3.8,0,7.1-0.5,10.2-1.4c3.1-0.9,5.7-2.4,8-4     c2.1-1.7,4-3.8,5.2-6.4c1.2-2.6,1.9-5.2,1.9-8.5c0-3.8-1.2-7.1-3.3-10.2c-2.1-2.8-5.9-5.2-11.1-6.9L183.4,27     c-3.8-1.2-6.6-2.6-8-4c-1.4-1.4-2.1-3.1-2.1-5.2c0-2.8,1.2-5.2,3.3-6.4c2.4-1.4,5.4-2.1,9.7-2.1c5.2,0,9.7,0.9,14,2.8     c1.2,0.5,2.1,0.9,2.8,0.9c1.2,0,1.7-0.7,1.7-2.4V7.8c0-0.9-0.2-1.9-0.7-2.4c-0.5-0.7-1.2-1.4-2.1-1.9c-0.7-0.5-1.9-0.9-3.1-1.2     c-1.2-0.5-2.6-0.7-4-1.2c-1.4-0.2-3.1-0.7-4.7-0.7c-1.7-0.5-3.3-0.5-5-0.5c-3.3,0-6.2,0.5-9,1.2c-2.8,0.9-5.4,2.1-7.6,3.8     c-2.1,1.7-3.8,3.5-5.2,5.9c-1.4,2.4-1.9,5-1.9,8c0,3.8,1.2,7.3,3.5,10.4c2.4,3.3,6.2,5.7,11.6,7.3L187,40     c3.5,1.2,5.9,2.4,7.3,3.8c1.4,1.4,1.9,3.1,1.9,5c0,2.8-1.2,5.2-3.8,6.9c-2.6,1.7-5.9,2.4-10.6,2.4c-2.8,0-5.7-0.2-8.5-0.9     c-2.8-0.5-5.4-1.4-8-2.6c-0.7-0.2-1.4-0.5-1.9-0.7c-0.5-0.2-0.9-0.2-1.4-0.2c-1.2,0-1.7,0.7-1.7,2.4v3.5c0,0.7,0.2,1.4,0.5,2.1     C161.4,62.5,162.1,63,163.3,63.7L163.3,63.7z"/>
			<path class="st0" d="M40.9,28.6c-2.6-0.5-5.2-0.5-7.6-0.5c-7.3,0-13.3,1.9-17.7,5.7C11.1,37.6,9,42.6,9,48.8     c0,5.9,1.7,10.4,5.2,14c3.5,3.5,8.3,5.2,14.4,5.2c8.5,0,15.6-3.3,21.3-9.9c0.7,1.7,1.4,3.1,2.1,4.3c0.7,1.2,1.7,2.4,2.6,3.3     c0.7,0.7,1.4,0.9,2.1,0.9c0.5,0,1.2-0.2,1.9-0.7l4.5-3.1c0.9-0.7,1.4-1.4,1.4-2.1c0-0.5-0.2-0.9-0.5-1.7     c-0.9-1.9-1.9-3.5-2.4-5.2c-0.5-1.7-0.7-3.8-0.7-6.4V23.7c0-7.8-1.9-13.7-5.9-17.7S45,0,36.2,0c-4,0-7.8,0.5-11.4,1.4     c-3.3,0.9-6.4,1.9-9,3.3c-0.9,0.5-1.7,0.9-1.9,1.4c-0.5,0.5-0.5,1.4-0.5,2.6v3.5c0,1.4,0.5,2.4,1.4,2.4c0.2,0,0.7,0,1.2-0.2     c0.5-0.2,1.4-0.5,2.6-0.9c2.6-0.9,5.2-1.9,7.8-2.4c2.6-0.7,5.2-0.9,7.8-0.9c5.7,0,9.5,1.2,11.8,3.3c2.4,2.1,3.3,6.2,3.3,11.6v5.2     C46.4,29.6,43.8,29.1,40.9,28.6L40.9,28.6z M49.2,41.4c0,2.4-0.2,4.5-0.7,6.2c-0.5,1.7-1.2,3.3-2.4,4.5c-1.9,2.1-4.3,3.8-6.9,4.5     c-2.6,0.9-5.2,1.4-7.6,1.4c-3.3,0-5.9-0.9-7.6-2.6c-1.7-1.7-2.6-4.3-2.6-7.6c0-3.5,1.2-6.4,3.5-8.3c2.4-1.9,5.9-2.8,10.6-2.8     c2.1,0,4.5,0.2,6.9,0.5c2.4,0.2,4.5,0.7,6.6,1.2V41.4L49.2,41.4z"/>
			<path class="st0" d="M85.7,62.5c0.5,1.4,0.9,2.4,1.4,2.8c0.5,0.5,1.4,0.7,2.8,0.7h6.2c1.4,0,2.4-0.2,2.8-0.7     c0.5-0.5,0.9-1.4,1.4-2.8l11.1-46.6l11.4,46.6c0.2,1.4,0.7,2.4,1.4,2.8c0.5,0.5,1.7,0.7,2.8,0.7h6.2c1.2,0,2.1-0.2,2.8-0.7     c0.5-0.5,1.2-1.4,1.4-2.8L155,6.6c0.2-0.7,0.5-1.4,0.5-1.7c0-0.5,0.2-0.7,0.2-1.2c0-1.2-0.5-1.7-1.7-1.7h-6.6     c-1.4,0-2.4,0.2-2.8,0.7c-0.5,0.5-0.9,1.4-1.4,2.8l-12.5,48.5L119,5.4c-0.2-1.4-0.7-2.4-1.4-2.8c-0.5-0.5-1.7-0.7-2.8-0.7h-5.9     c-1.4,0-2.4,0.2-2.8,0.7s-0.9,1.4-1.4,2.8L93.2,53.2L81.2,5.4c-0.5-1.4-0.9-2.4-1.4-2.8c-0.5-0.5-1.4-0.7-2.8-0.7h-7.1     c-1.2,0-1.7,0.5-1.7,1.7c0,0.5,0.2,1.4,0.7,2.8L85.7,62.5L85.7,62.5z"/>
		</g>
		<g>
			<path class="st0" d="M192.9,97.5c-26.5,11.4-55.6,16.8-81.9,16.8c-39,0-76.9-10.6-107.4-28.6C0.9,84-1.2,86.9,1.2,89     c28.4,25.6,65.8,40.9,107.4,40.9c29.6,0,64.1-9.2,88-27C200.2,100.1,196.9,95.8,192.9,97.5L192.9,97.5z"/>
			<path class="st0" d="M178,87.6c-2.1,1.4-1.7,3.5,0.5,3.3c7.6-0.9,24.8-3.1,27.7,0.9c3.1,3.8-3.3,19.9-6.2,27.2     c-0.9,2.1,0.9,3.1,3.1,1.4c12.8-10.6,16.1-33.1,13.5-36.2C213.9,80.7,191.5,78.1,178,87.6L178,87.6z"/>
		</g>
	</g>
	<g>
		<path class="st0" d="M273.6,51.1c-0.5,0-0.9-0.2-0.9-0.9v-39c0-0.5,0.2-0.9,0.9-0.9h1.2c0.7,0,0.9,0.2,0.9,0.9l0.2,2.4    c1.7-1.4,3.5-2.4,5.2-3.1c1.7-0.7,3.3-0.9,5.2-0.9c3.8,0,6.6,1.4,8.8,4c2.1,2.6,3.3,6.4,3.3,10.9c0,4.7-1.2,8.5-3.3,11.4    c-2.4,2.8-5.2,4.3-9.2,4.3c-3.5,0-6.6-1.4-9.7-4v14.2c0,0.5-0.2,0.9-0.9,0.9H273.6L273.6,51.1z M285.4,36.9c3.1,0,5.4-0.9,7.1-3.1    c1.7-2.1,2.4-5.2,2.4-9.2c0-8-3.1-12.1-9.2-12.1c-3.1,0-6.4,1.2-9.5,3.8v16.8c1.7,1.4,3.1,2.4,4.5,3.1    C282.1,36.4,283.8,36.9,285.4,36.9L285.4,36.9z"/>
		<path class="st0" d="M312.4,39.8c-2.6,0-4.7-0.7-6.4-2.4c-1.7-1.4-2.4-3.5-2.4-6.2c0-2.8,0.9-5,2.8-6.6c1.9-1.7,4.5-2.4,7.8-2.4    c2.6,0,5.2,0.5,8.3,1.4v-4.7c0-2.4-0.5-4-1.7-5c-1.2-0.9-2.8-1.4-5.4-1.4c-2.6,0-5.4,0.5-8.3,1.4c-0.2,0-0.7,0.2-0.9,0.2    c-0.5,0-0.5-0.2-0.5-0.7v-1.2c0-0.2,0-0.5,0.2-0.7c0.2-0.2,0.2-0.2,0.5-0.5c3.1-1.2,6.2-1.9,9.7-1.9c3.3,0,5.9,0.7,7.6,2.1    c1.7,1.4,2.4,3.5,2.4,6.4v20.4c0,0.5-0.2,0.9-0.9,0.9H324c-0.5,0-0.9-0.2-0.9-0.9l-0.2-2.4C319.5,38.6,315.9,39.8,312.4,39.8    L312.4,39.8z M312.9,36.9c1.4,0,3.1-0.2,4.7-0.9c1.7-0.7,3.3-1.4,5.2-2.6v-7.1c-2.6-0.7-5-0.9-7.6-0.9c-5.4,0-8,2.1-8,6.2    c0,1.7,0.5,3.1,1.4,4C309.6,36.4,311,36.9,312.9,36.9L312.9,36.9z"/>
		<path class="st0" d="M335.8,39.3c-0.5,0-0.9-0.2-0.9-0.9V11.1c0-0.5,0.2-0.9,0.9-0.9h1.2c0.7,0,0.9,0.2,0.9,0.9l0.2,3.3    c1.4-1.7,2.8-2.8,4.3-3.3c1.4-0.7,3.1-0.9,4.7-0.9c0.7,0,1.2,0,1.4,0c0.5,0,0.9,0.2,0.9,0.9v1.4c0,0.2,0,0.2-0.2,0.5    c0,0.2-0.2,0.2-0.5,0.2c-0.2,0-0.7,0-0.9,0c-0.2,0-0.7,0-1.2,0c-1.7,0-3.3,0.2-4.7,0.9c-1.4,0.7-2.6,1.7-4,3.1v21.1    c0,0.5-0.2,0.9-0.9,0.9H335.8L335.8,39.3z"/>
		<path class="st0" d="M364.7,39.5c-2.4,0-4-0.7-5.2-1.9c-1.2-1.2-1.9-2.8-1.9-5.2V13.3h-4.5c-0.5,0-0.9-0.2-0.9-0.9v-0.5    c0-0.2,0-0.5,0.2-0.7c0-0.2,0.2-0.2,0.7-0.2l4.7-0.5l0.5-7.6c0-0.2,0.2-0.5,0.2-0.7c0.2-0.2,0.2-0.2,0.7-0.2h0.9    c0.5,0,0.9,0.2,0.9,0.9v7.6h8.3c0.5,0,0.9,0.2,0.9,0.9v1.2c0,0.5-0.2,0.9-0.9,0.9h-8.3v19.2c0,1.7,0.2,2.6,0.9,3.3    c0.7,0.7,1.9,0.9,3.3,0.9c1.2,0,2.1,0,2.8-0.2c0.5,0,0.7-0.2,0.9-0.2c0.2,0,0.5,0,0.5,0c0.5,0,0.7,0.2,0.7,0.7v0.9    c0,0.7-0.2,0.9-0.7,1.2C368.2,39.3,366.6,39.5,364.7,39.5L364.7,39.5z"/>
		<path class="st0" d="M377.5,39.3c-0.5,0-0.9-0.2-0.9-0.9V11.1c0-0.5,0.2-0.9,0.9-0.9h1.2c0.7,0,0.9,0.2,0.9,0.9l0.2,2.4    c1.9-1.4,3.8-2.4,5.9-3.1c2.1-0.7,4-1.2,5.9-1.2c2.8,0,5,0.7,6.4,2.1c1.4,1.4,2.1,3.5,2.1,6.6v20.1c0,0.5-0.2,0.9-0.9,0.9h-1.7    c-0.5,0-0.9-0.2-0.9-0.9V19.6c0-2.6-0.5-4.3-1.4-5.4c-0.9-1.2-2.6-1.7-4.5-1.7c-3.8,0-7.6,1.2-11.1,3.8v22.2    c0,0.5-0.2,0.9-0.9,0.9h-1.2V39.3z"/>
		<path class="st0" d="M421.5,40c-4.5,0-8-1.2-10.2-3.8c-2.4-2.6-3.5-6.4-3.5-11.6c0-4.7,1.2-8.5,3.5-11.1c2.4-2.6,5.7-4,9.7-4    c3.5,0,6.2,0.9,8,3.1c1.9,1.9,2.8,4.7,2.8,8.5c0,1.4,0,2.6-0.2,3.5c0,0.5-0.5,0.9-0.9,0.9h-19.4c0,4,0.9,7.1,2.6,9    c1.7,1.9,4.5,2.8,8,2.8c2.8,0,5.4-0.5,7.8-1.4c0.5-0.2,0.9-0.2,0.9-0.2c0.2,0,0.2,0,0.5,0.2c0,0.2,0.2,0.2,0.2,0.5v0.9    c0,0.7-0.2,0.9-0.7,1.2C427.6,39.3,424.8,40,421.5,40L421.5,40z M428.6,22.7c0-0.5,0-1.2,0-1.9c0-2.8-0.7-4.7-1.9-6.2    c-1.4-1.4-3.3-2.1-5.9-2.1c-6.2,0-9.2,3.3-9.7,10.2H428.6L428.6,22.7z"/>
		<path class="st0" d="M439.7,39.3c-0.5,0-0.9-0.2-0.9-0.9V11.1c0-0.5,0.2-0.9,0.9-0.9h1.2c0.7,0,0.9,0.2,0.9,0.9l0.2,3.3    c1.4-1.7,2.8-2.8,4.3-3.3c1.4-0.7,3.1-0.9,4.7-0.9c0.7,0,1.2,0,1.4,0c0.5,0,0.9,0.2,0.9,0.9v1.4c0,0.2,0,0.2-0.2,0.5    c0,0.2-0.2,0.2-0.5,0.2c-0.2,0-0.7,0-0.9,0c-0.2,0-0.7,0-1.2,0c-1.7,0-3.3,0.2-4.7,0.9c-1.4,0.7-2.6,1.7-4,3.1v21.1    c0,0.5-0.2,0.9-0.9,0.9H439.7L439.7,39.3z"/>
		<path class="st0" d="M273.6,102.9c-0.5,0-0.9-0.2-0.9-0.9V75c0-0.5,0.2-0.9,0.9-0.9h1.2c0.7,0,0.9,0.2,0.9,0.9l0.2,2.4    c1.9-1.4,3.8-2.4,5.9-3.1c2.1-0.7,4-1.2,5.9-1.2c2.8,0,5,0.7,6.4,2.1c1.4,1.4,2.1,3.5,2.1,6.6V102c0,0.5-0.2,0.9-0.9,0.9h-1.7    c-0.5,0-0.9-0.2-0.9-0.9V83.3c0-2.6-0.5-4.3-1.4-5.4c-0.9-1.2-2.6-1.7-4.5-1.7c-3.8,0-7.6,1.2-11.1,3.8v22.2    c0,0.5-0.2,0.9-0.9,0.9h-1.2V102.9z"/>
		<path class="st0" d="M317.6,103.9c-4.5,0-8-1.2-10.2-3.8c-2.4-2.6-3.5-6.4-3.5-11.6c0-4.7,1.2-8.5,3.5-11.1c2.4-2.6,5.7-4,9.7-4    c3.5,0,6.2,0.9,8,3.1c1.9,1.9,2.8,4.7,2.8,8.5c0,1.4,0,2.6-0.2,3.5c0,0.5-0.5,0.9-0.9,0.9h-19.4c0,4,0.9,7.1,2.6,9    c1.7,1.9,4.5,2.8,8,2.8c2.8,0,5.4-0.5,7.8-1.4c0.5-0.2,0.9-0.2,0.9-0.2c0.2,0,0.2,0,0.5,0.2c0,0.2,0.2,0.2,0.2,0.5v0.9    c0,0.7-0.2,0.9-0.7,1.2C324,103.2,320.9,103.9,317.6,103.9L317.6,103.9z M324.7,86.4c0-0.5,0-1.2,0-1.9c0-2.8-0.7-4.7-1.9-6.2    c-1.4-1.4-3.3-2.1-5.9-2.1c-6.2,0-9.2,3.3-9.7,10.2H324.7L324.7,86.4z"/>
		<path class="st0" d="M344.1,103.4c-2.4,0-4-0.7-5.2-1.9c-1.2-1.2-1.9-2.8-1.9-5.2V76.9h-4.5c-0.5,0-0.9-0.2-0.9-0.9v-0.5    c0-0.2,0-0.5,0.2-0.7c0-0.2,0.2-0.2,0.7-0.2l4.7-0.5l0.5-7.6c0-0.2,0.2-0.5,0.2-0.7c0.2-0.2,0.2-0.2,0.7-0.2h0.9    c0.5,0,0.9,0.2,0.9,0.9v7.6h8.3c0.5,0,0.9,0.2,0.9,0.9v1.2c0,0.5-0.2,0.9-0.9,0.9h-8.3v19.2c0,1.7,0.2,2.6,0.9,3.3    c0.7,0.7,1.9,0.9,3.3,0.9c1.2,0,2.1,0,2.8-0.2c0.5,0,0.7-0.2,0.9-0.2c0.2,0,0.5,0,0.5,0c0.5,0,0.7,0.2,0.7,0.7v0.9    c0,0.7-0.2,0.9-0.7,1.2C347.7,103.2,346,103.4,344.1,103.4L344.1,103.4z"/>
		<path class="st0" d="M362.8,102.9c-0.5,0-0.9-0.2-1.2-0.7l-9-26.7c-0.2-0.5-0.2-0.7-0.2-0.9c0-0.2,0.2-0.5,0.7-0.5h1.9    c0.5,0,0.7,0.2,0.9,0.7l7.8,24.4l6.9-24.4c0.2-0.5,0.5-0.7,1.2-0.7h2.1c0.5,0,0.9,0.2,1.2,0.7l6.9,24.4l8-24.6    c0.2-0.5,0.5-0.7,0.9-0.7h1.7c0.5,0,0.7,0.2,0.7,0.5c0,0.2,0,0.5-0.2,0.9l-9.5,26.7c-0.2,0.5-0.5,0.7-1.2,0.7h-1.9    c-0.5,0-0.9-0.2-1.2-0.7l-6.9-24.4l-6.9,24.4c-0.2,0.5-0.5,0.7-1.2,0.7h-1.7V102.9z"/>
		<path class="st0" d="M410.4,103.9c-4.3,0-7.6-1.4-9.9-4c-2.4-2.6-3.5-6.4-3.5-11.4c0-4.7,1.2-8.5,3.5-11.4c2.4-2.6,5.7-4,9.9-4    c4.3,0,7.6,1.4,9.9,4c2.4,2.6,3.5,6.4,3.5,11.4c0,4.7-1.2,8.5-3.5,11.4C417.9,102.5,414.6,103.9,410.4,103.9L410.4,103.9z     M410.4,100.8c6.6,0,9.9-4,9.9-12.3c0-8.3-3.3-12.3-9.9-12.3c-6.6,0-9.9,4-9.9,12.3C400.4,96.8,403.7,100.8,410.4,100.8    L410.4,100.8z"/>
		<path class="st0" d="M432.1,102.9c-0.5,0-0.9-0.2-0.9-0.9V75c0-0.5,0.2-0.9,0.9-0.9h1.2c0.7,0,0.9,0.2,0.9,0.9l0.2,3.3    c1.4-1.7,2.8-2.8,4.3-3.3c1.4-0.7,3.1-0.9,4.7-0.9c0.7,0,1.2,0,1.4,0c0.5,0,0.9,0.2,0.9,0.9v1.4c0,0.2,0,0.2-0.2,0.5    c-0.2,0.2-0.2,0.2-0.5,0.2c-0.2,0-0.7,0-0.9,0c-0.2,0-0.7,0-1.2,0c-1.7,0-3.3,0.2-4.7,0.9c-1.4,0.7-2.6,1.7-4,3.1v21.1    c0,0.5-0.2,0.9-0.9,0.9h-1.2V102.9z"/>
		<path class="st0" d="M451.8,102.9c-0.5,0-0.9-0.2-0.9-0.9V61.3c0-0.5,0.2-0.9,0.9-0.9h1.7c0.5,0,0.9,0.2,0.9,0.9v25.6l13.7-12.3    c0.5-0.5,0.9-0.5,1.4-0.5h2.1c0.5,0,0.7,0.2,0.7,0.5c0,0.2-0.2,0.5-0.7,0.9l-14,12.3l15.1,14c0.2,0.2,0.5,0.5,0.5,0.7    c0,0.5-0.2,0.5-0.7,0.5h-2.4c-0.5,0-0.9-0.2-1.2-0.5l-14.7-13.7V102c0,0.5-0.2,0.9-0.9,0.9H451.8L451.8,102.9z"/>
	</g>
	<path class="st0" d="M45.1,421.2c-12.3,0-21.5-3.4-27.8-10.3c-6.3-6.9-9.4-17-9.4-30.5c0-13.3,3.3-23.5,9.8-30.5   c6.5-7,15.9-10.5,28.1-10.5c5.6,0,11,0.8,16.3,2.5c0.5,0.2,0.8,0.4,1,0.7c0.2,0.3,0.3,0.8,0.3,1.5v2.5c0,1-0.5,1.5-1.4,1.5   c-0.4,0-1.5-0.2-3.3-0.7c-1.7-0.5-3.7-0.8-6-1.1c-2.3-0.3-4.4-0.4-6.2-0.4c-10.5,0-18.3,2.7-23.5,8.2c-5.2,5.5-7.8,13.7-7.8,24.8   v2.9c0,21.9,10.2,32.9,30.5,32.9c5,0,9.9-0.7,14.7-2c1.4-0.4,2.3-0.6,2.7-0.6c0.9,0,1.4,0.5,1.4,1.5v2.5c0,0.7-0.1,1.2-0.3,1.5   c-0.2,0.3-0.6,0.5-1,0.7C57.4,420.3,51.3,421.2,45.1,421.2L45.1,421.2z M101.3,421.7c-8.4,0-15-2.7-19.7-8.1   c-4.7-5.4-7-12.9-7-22.6c0-9.6,2.3-17.2,7-22.5c4.7-5.4,11.2-8,19.7-8c8.4,0,15,2.7,19.7,8c4.7,5.4,7,12.9,7,22.5   c0,9.7-2.3,17.2-7,22.6C116.3,419,109.7,421.7,101.3,421.7L101.3,421.7z M101.3,415.7c13.3,0,19.9-8.2,19.9-24.7   c0-16.4-6.6-24.6-19.9-24.6c-13.3,0-19.9,8.2-19.9,24.6C81.4,407.5,88,415.7,101.3,415.7L101.3,415.7z M144.6,420   c-1.2,0-1.7-0.6-1.7-1.7v-54.4c0-1.1,0.6-1.7,1.7-1.7h2.3c1.2,0,1.9,0.6,2,1.7l0.4,4.9c3.8-2.7,7.7-4.7,11.8-6.2   c4.1-1.5,8.2-2.2,12.1-2.2c5.6,0,9.9,1.5,12.8,4.4c2.9,2.9,4.4,7.3,4.4,13v40.4c0,1.1-0.6,1.7-1.7,1.7h-3.1c-1.1,0-1.7-0.6-1.7-1.7   v-37.6c0-5-1-8.6-2.9-10.9c-1.9-2.3-5-3.4-9.2-3.4c-7.7,0-15.1,2.4-22.4,7.3v44.5c0,1.1-0.6,1.7-1.7,1.7H144.6L144.6,420z    M222.8,421.7c-3.1,0-6.1-0.3-9.1-0.9c-3-0.6-5.8-1.4-8.2-2.5c-0.9-0.4-1.4-1.2-1.4-2.3v-2c0-0.9,0.4-1.4,1.3-1.4   c0.1,0,0.5,0.1,1.1,0.2s1.7,0.5,3.3,1c4.3,1.3,8.8,2,13.6,2c4.7,0,8.2-0.9,10.7-2.8c2.5-1.9,3.7-4.6,3.7-8.2c0-2.1-0.7-3.8-2.2-5.3   c-1.5-1.5-4-2.8-7.5-4.1l-10.5-3.9c-8.2-3.1-12.3-8.1-12.3-15.1c0-4.8,1.8-8.6,5.3-11.6c3.6-2.9,8.2-4.4,14-4.4   c5.1,0,10.2,1,15.1,2.9c0.9,0.4,1.4,1.2,1.4,2.3v1.7c0,1-0.4,1.5-1.2,1.5c-0.5,0-1.5-0.2-2.9-0.6c-4.8-1.3-9-2-12.7-2   c-4.1,0-7.3,0.8-9.4,2.5c-2.1,1.6-3.2,4.1-3.2,7.3c0,2.6,0.7,4.6,2.2,6c1.5,1.4,4.4,3,8.8,4.6l9.2,3.5c4.3,1.6,7.4,3.6,9.4,5.9   c2,2.3,2.9,5.2,2.9,8.7c0,5.2-1.9,9.3-5.7,12.3C234.4,420.2,229.3,421.7,222.8,421.7L222.8,421.7z M273.2,421.7   c-5.5,0-9.7-1.5-12.7-4.5c-2.9-3-4.4-7.4-4.4-13.1v-40.2c0-1.1,0.6-1.7,1.7-1.7h3.1c1.1,0,1.7,0.6,1.7,1.7v37.5c0,5.1,1,8.7,2.9,11   c1.9,2.3,4.9,3.4,9.1,3.4c3.8,0,7.3-0.6,10.6-1.7c3.3-1.2,6.8-3,10.6-5.6v-44.5c0-1.1,0.6-1.7,1.7-1.7h3.1c1.2,0,1.7,0.6,1.7,1.7   v54.4c0,1.1-0.6,1.7-1.7,1.7h-2.3c-1.1,0-1.8-0.6-2-1.7l-0.4-4.6C288.6,419,281,421.7,273.2,421.7L273.2,421.7z M330,420.3   c-3.1,0-5.5-0.9-7.2-2.7c-1.7-1.8-2.6-4.3-2.6-7.5v-73.5c0-1.1,0.6-1.7,1.7-1.7h3.1c1.2,0,1.7,0.6,1.7,1.7v73.3   c0,1.7,0.3,2.9,1,3.6c0.7,0.7,1.8,1,3.5,1c0.5,0,1,0,1.6-0.1c0.6-0.1,1.1-0.1,1.4-0.1c1.1,0,1.6,0.5,1.6,1.6v2.2   c0,0.9-0.5,1.5-1.5,1.7C333.2,420.1,331.7,420.3,330,420.3L330,420.3z M366.8,420.6c-4.5,0-8-1.2-10.4-3.6   c-2.4-2.4-3.6-5.9-3.6-10.5v-38.6h-9.1c-1.2,0-1.7-0.6-1.7-1.7V365c0-0.6,0.1-1.1,0.3-1.4c0.2-0.3,0.7-0.5,1.4-0.6l9.3-0.8   l0.8-15.2c0.1-0.6,0.2-1.1,0.5-1.3c0.3-0.3,0.7-0.4,1.2-0.4h2.1c1.1,0,1.7,0.6,1.7,1.7v15.1h16.7c1.1,0,1.7,0.6,1.7,1.7v2.3   c0,1.2-0.6,1.7-1.7,1.7h-16.7v38.3c0,3.1,0.7,5.4,2,6.7c1.3,1.3,3.6,2,6.7,2c2.2,0,4.2-0.2,5.9-0.6c0.8-0.1,1.5-0.3,2-0.4   c0.5-0.1,0.9-0.2,1.1-0.2c0.8,0,1.3,0.5,1.3,1.4v1.7c0,1.3-0.4,2.1-1.3,2.4C374.2,420.1,370.7,420.6,366.8,420.6L366.8,420.6z    M392.8,420c-1.1,0-1.7-0.6-1.7-1.7v-54.4c0-1.1,0.6-1.7,1.7-1.7h3.1c1.1,0,1.7,0.6,1.7,1.7v54.4c0,1.1-0.6,1.7-1.7,1.7H392.8   L392.8,420z M394.4,349.7c-1.5,0-2.7-0.5-3.6-1.4c-0.9-0.9-1.3-2.2-1.3-3.7c0-1.5,0.4-2.8,1.3-3.7c0.9-0.9,2.1-1.4,3.6-1.4   c1.5,0,2.7,0.5,3.6,1.4c0.9,0.9,1.3,2.1,1.3,3.7c0,1.5-0.4,2.8-1.3,3.7C397.1,349.3,395.9,349.7,394.4,349.7L394.4,349.7z    M417.7,420c-1.2,0-1.7-0.6-1.7-1.7v-54.4c0-1.1,0.6-1.7,1.7-1.7h2.3c1.2,0,1.9,0.6,2,1.7l0.4,4.9c3.8-2.7,7.7-4.7,11.8-6.2   c4.1-1.5,8.2-2.2,12.1-2.2c5.6,0,9.9,1.5,12.8,4.4c2.9,2.9,4.4,7.3,4.4,13v40.4c0,1.1-0.6,1.7-1.7,1.7h-3.1c-1.1,0-1.7-0.6-1.7-1.7   v-37.6c0-5-1-8.6-2.9-10.9c-1.9-2.3-5-3.4-9.2-3.4c-7.7,0-15.1,2.4-22.4,7.3v44.5c0,1.1-0.6,1.7-1.7,1.7H417.7L417.7,420z    M501.6,445c-3.2,0-6.4-0.3-9.4-1c-3.1-0.7-5.7-1.6-8.1-2.7c-0.8-0.4-1.3-1.2-1.3-2.4v-1.6c0-1,0.4-1.5,1.3-1.5   c0.2,0,0.5,0,0.8,0.1c0.3,0.1,0.8,0.2,1.4,0.4c5.4,1.8,10.4,2.6,14.9,2.6c7.1,0,12.3-1.8,15.7-5.3c3.3-3.5,5-9.1,5-16.7v-5.6   c-2.8,2.4-6,4.3-9.4,5.6c-3.5,1.4-6.7,2.1-9.9,2.1c-7.4,0-13.3-2.6-17.7-7.9c-4.4-5.3-6.7-12.2-6.7-20.9c0-9.3,2.2-16.6,6.6-22   c4.4-5.4,10.4-8,18-8c7.2,0,13.6,2.6,19.2,7.7l0.5-4.3c0.2-1.1,0.8-1.7,2-1.7h2.3c1.1,0,1.7,0.6,1.7,1.7v53.5   c0,9-2.3,15.9-6.9,20.6C517,442.7,510.4,445,501.6,445L501.6,445z M504.2,413.2c5.7,0,11.7-2.4,17.8-7.3v-32   c-3.1-2.6-6.2-4.5-9.1-5.7c-2.9-1.2-6-1.8-9.3-1.8c-6.1,0-10.7,2-13.9,6c-3.1,4-4.7,9.9-4.7,17.7c0,7.5,1.6,13.3,4.9,17.2   C493.2,411.2,498,413.2,504.2,413.2L504.2,413.2z"/>
	<path class="st0" d="M11.8,538.3c-1.1,0-1.7-0.6-1.7-1.7v-76.2c0-1.1,0.6-1.7,1.7-1.7h25.8c7.3,0,13.1,2.1,17.4,6.4   c4.3,4.3,6.5,10,6.5,17.3c0,7.1-2.2,12.8-6.5,17.1c-4.3,4.3-10.1,6.4-17.4,6.4H16.7v30.7c0,1.1-0.6,1.7-1.7,1.7H11.8L11.8,538.3z    M37.3,499.8c11.3,0,17-5.8,17-17.5c0-11.7-5.7-17.6-17-17.6H16.7v35H37.3L37.3,499.8z M89.5,539.6c-5.3,0-9.5-1.5-12.6-4.5   c-3.1-3-4.7-7.1-4.7-12.1c0-5.6,1.9-10,5.7-13.2c3.8-3.2,9-4.8,15.6-4.8c5.1,0,10.6,0.9,16.4,2.6v-9.7c0-4.7-1.1-8-3.3-10.1   c-2.2-2-5.9-3.1-11-3.1c-5.2,0-10.8,1-16.8,2.9c-0.7,0.2-1.3,0.3-1.7,0.3c-0.8,0-1.1-0.5-1.1-1.5v-1.8c0-0.6,0.1-1.1,0.3-1.4   c0.2-0.3,0.6-0.6,1.1-0.9c6.1-2.4,12.5-3.6,19.2-3.6c6.7,0,11.7,1.4,15,4.3c3.3,2.8,4.9,7.1,4.9,12.9v40.7c0,1.1-0.6,1.7-1.7,1.7   h-2.4c-1.1,0-1.8-0.6-1.8-1.7l-0.5-4.9C103.6,536.9,96.7,539.6,89.5,539.6L89.5,539.6z M90.5,533.6c2.9,0,6-0.6,9.4-1.8   c3.4-1.2,6.8-2.9,10.2-5v-14.4c-5.1-1.4-10.1-2.1-14.9-2.1c-10.7,0-16.1,4.1-16.1,12.4c0,3.5,1,6.2,2.9,8.1   C83.9,532.7,86.7,533.6,90.5,533.6L90.5,533.6z M136.1,538.3c-1.2,0-1.7-0.6-1.7-1.7v-54.4c0-1.1,0.6-1.7,1.7-1.7h2.2   c1.2,0,1.9,0.6,2,1.7l0.6,6.7c2.9-3.2,5.8-5.5,8.6-6.8c2.8-1.3,5.9-2,9.5-2c1.2,0,2.2,0,3,0.1c1.1,0.1,1.7,0.7,1.7,1.8v2.9   c0,0.3-0.1,0.6-0.3,0.9c-0.2,0.3-0.5,0.4-0.9,0.4c-0.6,0-1.2,0-1.7-0.1c-0.5,0-1.3-0.1-2.4-0.1c-3.5,0-6.6,0.7-9.4,2   c-2.7,1.3-5.3,3.4-7.9,6.3v42.3c0,1.1-0.6,1.7-1.7,1.7H136.1L136.1,538.3z M191.7,539c-4.5,0-8-1.2-10.4-3.6s-3.6-5.9-3.6-10.5   v-38.6h-9.1c-1.2,0-1.7-0.6-1.7-1.7v-1.1c0-0.6,0.1-1.1,0.3-1.4c0.2-0.3,0.7-0.5,1.4-0.6l9.3-0.8l0.8-15.2c0.1-0.6,0.2-1.1,0.5-1.3   c0.3-0.3,0.7-0.4,1.2-0.4h2.1c1.1,0,1.7,0.6,1.7,1.7v15.1h16.7c1.1,0,1.7,0.6,1.7,1.7v2.3c0,1.2-0.6,1.7-1.7,1.7h-16.7v38.3   c0,3.1,0.7,5.4,2,6.7s3.6,2,6.7,2c2.2,0,4.2-0.2,5.9-0.6c0.8-0.1,1.5-0.3,2-0.4c0.5-0.1,0.9-0.2,1.1-0.2c0.8,0,1.3,0.5,1.3,1.4v1.7   c0,1.3-0.4,2.1-1.3,2.4C199.1,538.5,195.6,539,191.7,539L191.7,539z M217.3,538.3c-1.2,0-1.7-0.6-1.7-1.7v-54.4   c0-1.1,0.6-1.7,1.7-1.7h2.3c1.2,0,1.9,0.6,2,1.7l0.4,4.9c3.8-2.7,7.7-4.7,11.8-6.2c4.1-1.5,8.2-2.2,12.1-2.2   c5.6,0,9.9,1.5,12.8,4.4c2.9,2.9,4.4,7.3,4.4,13v40.4c0,1.1-0.6,1.7-1.7,1.7h-3.1c-1.1,0-1.7-0.6-1.7-1.7V499c0-5-1-8.6-2.9-10.9   c-1.9-2.3-5-3.4-9.2-3.4c-7.7,0-15.1,2.4-22.4,7.3v44.5c0,1.1-0.6,1.7-1.7,1.7H217.3L217.3,538.3z M305.3,540   c-9.1,0-16-2.6-20.6-7.8c-4.6-5.2-6.9-12.8-6.9-23c0-9.6,2.3-17.1,7-22.5c4.6-5.3,11.1-8,19.5-8c7,0,12.3,2,16,6   c3.7,4,5.6,9.7,5.6,17.1c0,3.1-0.1,5.4-0.4,6.9c-0.2,1.1-0.9,1.7-2,1.7h-39c0.1,8,1.8,14,5.3,17.8c3.5,3.8,8.8,5.7,16,5.7   c5.5,0,10.8-1,15.7-2.9c1-0.4,1.7-0.6,2.1-0.6c0.3,0,0.6,0.1,0.8,0.4c0.2,0.3,0.3,0.6,0.3,1v1.7c0,1.2-0.4,2-1.3,2.4   C318,538.7,311.9,540,305.3,540L305.3,540z M319.5,505.2c0.1-1.1,0.1-2.3,0.1-3.8c0-5.5-1.3-9.7-4-12.5c-2.7-2.8-6.6-4.3-11.8-4.3   c-12.1,0-18.5,6.9-19.2,20.6H319.5L319.5,505.2z M342.1,538.3c-1.2,0-1.7-0.6-1.7-1.7v-54.4c0-1.1,0.6-1.7,1.7-1.7h2.2   c1.2,0,1.9,0.6,2,1.7l0.6,6.7c2.9-3.2,5.8-5.5,8.6-6.8c2.8-1.3,5.9-2,9.5-2c1.2,0,2.2,0,3,0.1c1.1,0.1,1.7,0.7,1.7,1.8v2.9   c0,0.3-0.1,0.6-0.3,0.9c-0.2,0.3-0.5,0.4-0.9,0.4c-0.6,0-1.2,0-1.7-0.1c-0.5,0-1.3-0.1-2.4-0.1c-3.5,0-6.6,0.7-9.4,2   c-2.7,1.3-5.3,3.4-7.9,6.3v42.3c0,1.1-0.6,1.7-1.7,1.7H342.1L342.1,538.3z"/>
	<path class="st0" d="M26.5,298.2l-2.7-8.6H11l-2.5,8.6H0l13.2-37.5h8.9l13.2,37.5H26.5L26.5,298.2z M12.8,283.8h9.4l-4.8-15.7   L12.8,283.8L12.8,283.8z M58.1,298.2l-0.7-2.4c-2.2,2-4.9,3-8,3c-2.3,0-4.3-0.6-6-1.7c-1.7-1.1-3.1-2.8-4-5c-1-2.2-1.4-4.7-1.4-7.6   c0-4.5,1.1-8.1,3.2-10.7c2.1-2.7,4.9-4,8.4-4c2.9,0,5.3,0.8,7.4,2.4v-14H65v40H58.1L58.1,298.2z M52.1,292.9c1.7,0,3.4-0.5,5-1.5   v-14.3c-1.5-0.9-3.3-1.3-5.4-1.3c-1.9,0-3.3,0.7-4.3,2.1s-1.4,3.6-1.4,6.5c0,2.9,0.5,5,1.5,6.4C48.5,292.2,50.1,292.9,52.1,292.9   L52.1,292.9z M79.5,298.2L69,270.6h8.4l5.9,20.6l6-20.6h8.2L87,298.2H79.5L79.5,298.2z M117.3,298.2l-0.6-2.4   c-1.1,1-2.4,1.8-3.9,2.4c-1.5,0.6-2.9,0.9-4.2,0.9c-2.7,0-4.8-0.8-6.4-2.3c-1.6-1.5-2.4-3.5-2.4-6.1c0-1.7,0.4-3.2,1.3-4.6   c0.9-1.3,2.1-2.3,3.7-3.1c1.6-0.8,3.5-1.1,5.7-1.1c1.7,0,3.7,0.2,5.7,0.7V280c0-1.7-0.3-2.8-1-3.4c-0.7-0.6-1.9-0.9-3.8-0.9   c-3,0-6.2,0.6-9.8,1.7v-5.2c1.3-0.7,3-1.2,5-1.7c2-0.4,4.1-0.6,6.2-0.6c3.7,0,6.4,0.7,8.1,2.2c1.7,1.5,2.6,3.8,2.6,7.1v19.1H117.3   L117.3,298.2z M110.7,293.8c0.9,0,1.8-0.2,2.8-0.6c1-0.4,1.8-0.9,2.7-1.6v-4.7c-1.6-0.2-3-0.4-4.3-0.4c-3.2,0-4.7,1.3-4.7,3.8   c0,1.1,0.3,2,0.9,2.6C108.7,293.5,109.6,293.8,110.7,293.8L110.7,293.8z M148.7,298.2v-18.1c0-1.5-0.3-2.6-1-3.2   c-0.7-0.7-1.6-1-3-1c-2,0-4,0.6-5.9,1.8v20.5H131v-27.7h6.5l0.8,3c3.2-2.5,6.7-3.8,10.4-3.8c2.6,0,4.5,0.7,5.9,2.1   c1.4,1.4,2.1,3.4,2.1,5.9v20.4H148.7L148.7,298.2z M184,297.1c-1,0.6-2.1,1-3.5,1.3c-1.4,0.3-2.8,0.5-4.3,0.5   c-4.4,0-7.8-1.2-10.1-3.7c-2.3-2.5-3.5-6-3.5-10.6c0-4.6,1.2-8.1,3.7-10.7c2.5-2.6,5.9-3.8,10.2-3.8c2.6,0,5.1,0.6,7.3,1.7v5.3   c-2.1-0.6-4.1-0.9-5.8-0.9c-2.5,0-4.4,0.6-5.6,1.9c-1.2,1.3-1.8,3.3-1.8,6.1v0.8c0,2.7,0.6,4.8,1.8,6c1.2,1.3,3,1.9,5.5,1.9   c1.8,0,3.8-0.3,6.2-1V297.1L184,297.1z M195.6,286.3c0.1,2.4,0.9,4.1,2.2,5.2c1.3,1.1,3.3,1.6,6.1,1.6c2.4,0,5.2-0.4,8.4-1.3v5.3   c-1.3,0.7-2.8,1.2-4.5,1.5c-1.8,0.4-3.6,0.5-5.4,0.5c-4.6,0-8.1-1.2-10.5-3.7c-2.4-2.5-3.6-6.1-3.6-10.9c0-4.6,1.2-8.2,3.6-10.8   c2.4-2.6,5.7-3.8,9.9-3.8c3.6,0,6.3,1,8.3,2.9c1.9,2,2.9,4.8,2.9,8.4c0,0.8-0.1,1.7-0.2,2.7c-0.1,1-0.2,1.8-0.4,2.5H195.6   L195.6,286.3z M201.5,275.3c-1.8,0-3.2,0.5-4.2,1.6c-1,1.1-1.6,2.6-1.7,4.6h10.6v-0.9C206.1,277,204.6,275.3,201.5,275.3   L201.5,275.3z M237.6,298.2l-0.7-2.4c-2.2,2-4.9,3-8,3c-2.3,0-4.3-0.6-6-1.7c-1.7-1.1-3.1-2.8-4-5c-1-2.2-1.4-4.7-1.4-7.6   c0-4.5,1.1-8.1,3.2-10.7c2.1-2.7,4.9-4,8.4-4c2.9,0,5.3,0.8,7.4,2.4v-14h7.9v40H237.6L237.6,298.2z M231.6,292.9   c1.7,0,3.4-0.5,5-1.5v-14.3c-1.5-0.9-3.3-1.3-5.4-1.3c-1.9,0-3.3,0.7-4.3,2.1c-0.9,1.4-1.4,3.6-1.4,6.5c0,2.9,0.5,5,1.5,6.4   C228,292.2,229.5,292.9,231.6,292.9L231.6,292.9z"/>
</g>
</svg>
