<?xml version="1.0" encoding="utf-8"?>
<!-- Generator: Adobe Illustrator 24.1.2, SVG Export Plug-In . SVG Version: 6.00 Build 0)  -->
<svg version="1.1" id="Layer_1" xmlns="http://www.w3.org/2000/svg" xmlns:xlink="http://www.w3.org/1999/xlink" x="0px" y="0px"
	 viewBox="0 0 288.4 85" style="enable-background:new 0 0 288.4 85;" xml:space="preserve">
<style type="text/css">
	.st0{fill:#FFFFFF;}
</style>
<path class="st0" d="M59,84.3L39.4,33.6c0,0-0.6-1.6-1.7-3.5l0-0.1l0,0l-0.1-0.2c0-0.1-0.1-0.2-0.1-0.2c-1.2-1.9-3.1-4.5-5.5-5.7
	c2.8-2.2,4.5-4.6,5.1-7.1l0.1-0.3c0.1-0.5,0.2-1,0.2-1.6c0-1.1-0.1-2.1-0.2-3.1l0,0l0-0.1c-0.2-1.2-0.5-2.2-0.9-3.2
	c0,0-0.1-0.2-0.1-0.2l0,0c-0.7-1.7-1.8-3.1-3.2-4.2c-0.2-0.2-0.5-0.3-0.7-0.5l-0.1-0.1l0,0C30,2.2,27.7,1.4,25.1,1l-0.1,0l0,0
	c-1.2-0.2-2.6-0.3-3.9-0.3l-0.1,0c-0.1,0-0.2,0-0.2,0c-0.1,0-0.2,0-0.3,0H0.6l0,51H24L11.1,84.5h10l4.4-11.7l0.1-0.2h18.9l0.1,0
	l0.1,0.1l4.5,11.7l0,0l10,0L59,84.3z M19.1,64.6l1.7-4.3l0,6.4L19.1,64.6z M20.8,83.8l-1.2-2.1l1.2-1.2L20.8,83.8z M19.5,81.9
	l1.3,2.3h-3.5L19.5,81.9z M15.6,73.9l3.2-3.9l-0.1,5.1L15.6,73.9z M15.8,73.2l3.1-7.9l-0.1,4.2L15.8,73.2z M19.1,74.8l1.7-6.6l0,4.7
	L19.1,74.8z M18.9,74.2l0.1-4.5l1.6-2L18.9,74.2z M19.1,65.1l1.7,2L19,69.2L19.1,65.1z M19,75.3l1.8-2l0,2.8L19,75.3z M20.8,77.9
	l-2.4,0.6l2.4-2V77.9z M18.6,75.4l-0.8,2.9l-2.2-4.1L18.6,75.4z M18.2,78.3l0.7-2.8l1.8,0.7L18.2,78.3z M19.3,81.6l-2.2,2.3l0.8-4.7
	L19.3,81.6z M20.7,80.1l-1.2,1.3L18.2,79L20.7,80.1z M18.3,78.8l2.5-0.6l0,1.7L18.3,78.8z M17.7,78.6l-4.2,0.3l1.8-4.6L17.7,78.6z
	 M17.7,79.1L16.8,84L15,81.3L17.7,79.1z M14.8,81.5l1.8,2.7h-5L14.8,81.5z M17.5,78.9l-2.6,2.2l-1.3-1.9L17.5,78.9z M14.7,81.3
	l-3.1,2.6l1.8-4.5L14.7,81.3z M25.8,71l-0.2,0.7l-0.1-0.9L25.8,71z M24.7,1.2l-1.6,1.4l-1.7-1.7C22.5,0.9,23.6,1,24.7,1.2 M23.3,2.8
	l1.6-1.4l0.3,3.4L23.3,2.8z M30.7,6.6l1.2-2.8c0.2,0.2,0.5,0.3,0.7,0.5c1.3,1,2.3,2.3,3,3.9L30.7,6.6z M39.1,33.7l2.7,6.9l-2.5,0.3
	l-1.5-10.1C38.6,32.4,39.1,33.7,39.1,33.7 M49.8,64.5l0.1-3.1l1.9,4.9L49.8,64.5L49.8,64.5L49.8,64.5z M56.6,79.1l0.1-0.1l0.6,1.6
	L56.6,79.1z M57.9,84.2h-4.7L54,83L57.9,84.2z M49.6,81.7l-0.2,1.1l0-1.1L49.6,81.7z M47.9,77.4l-1.2,0l-1.5-4L47.9,77.4z
	 M42.6,64.3l1.2-0.6l0.6,7.1L42.6,64.3z M44.3,72.3h-4.7l1-3.2L44.3,72.3z M33.4,68.7l-1.5,3.3l-1-2.1L33.4,68.7z M26.5,71.6
	l-0.8,0.5l0.3-0.8L26.5,71.6z M25.2,71.4l-0.4-1.1l0.3,0.3L25.2,71.4z M21.9,72.1l-0.8,3l0-2.2L21.9,72.1z M21.1,60.4l1.6,4.5
	l-1.6,1.9L21.1,60.4z M19.5,50.2l0.8,1.1h-6.3L19.5,50.2z M17.7,47.8l1.6,2.1l-6.1,1.2L17.7,47.8z M13.9,45.6l-1.3,5.3l-2.1-7.2
	L13.9,45.6z M12.2,51.3l-3.6,0l0.5-2.1L12.2,51.3z M0.9,43.1v-5.9l2,3.9L0.9,43.1z M0.9,36.1v-9.8l4.3,2.9L0.9,36.1z M0.9,25.3v-8.5
	l1.5,4.3L0.9,25.3z M0.9,15.3V12l0.6,2L0.9,15.3z M0.9,10.6V6.3h3.5L0.9,10.6z M0.9,6V1.1L4.5,6H0.9z M5.9,4.7l1.6-3.6l1.3,3.6
	L5.9,4.7z M11.3,2.6l0.2-1.6l5.7,1.8L11.3,2.6z M35.5,8.4l-3.6,3l-1.2-4.5L35.5,8.4z M31.6,25.7l0.1-1l0.7,2.7L31.6,25.7z
	 M34.9,32.8l-1.2-2.6l3.5,0L34.9,32.8z M38.9,41.2l0.1,0l0.1,0.4L38.9,41.2z M49,62.8l0.6-1.4L49.5,64L49,62.8z M49.7,69.5l0.1-4.3
	l1.6,3.4L49.7,69.5z M56.5,78.8L56.5,78.8L56.5,78.8L56.5,78.8z M56.1,79.8l0.3-0.4l1.5,3.1L56.1,79.8z M55.3,81.1L56,80l2.3,3.6
	L55.3,81.1z M48.8,77.6L48.7,78l-0.3-0.4L48.8,77.6z M49.2,77.3L49.2,77.3L49.2,77.3L49.2,77.3z M49.3,69.7l-4.4,2.4l2.4-5.5
	L49.3,69.7z M41.5,64.9l-1.1,3.7l-2.4-2L41.5,64.9z M31.8,68.3l-1.1,1.3l-0.2-0.4L31.8,68.3z M27.3,71.3l-0.2,0.1L27.3,71.3
	L27.3,71.3z M21.2,75.8l0.9-3.6l0.6,2.3L21.2,75.8z M27.1,54.2l-2.4,3.6l-0.1-1.4L27.1,54.2z M24.5,58.1l-2.9,1.1l2.8-2.5L24.5,58.1
	z M21,49.6l-1.3,0.3l-1.4-1.8L21,49.6z M14.3,43.6l-0.4,1.7l-3.1-1.7H14.3z M14.2,45.5l0.4-1.7l2.6,3.4L14.2,45.5z M10.1,43.8
	l-1.2,4.9L6.3,47L10.1,43.8z M2.7,44.9l-1.1,3.5l0.8-3.6L2.7,44.9z M3.4,38.7l-0.4,2l-1.9-3.6L3.4,38.7z M5.5,4.9l-0.8,1L1.5,1.6
	L5.5,4.9z M10.2,10v3.2l-0.6-0.7L10.2,10z M10.2,22.3v6.5l-1.4-2L10.2,22.3z M10.2,29.5v3.1l-2.9-0.8L10.2,29.5z M10,43.5l-3.9,3.2
	l-2.2-4.3L10,43.5z M1.2,16.4L2.4,17l0.5,1.5L1.2,16.4z M5.8,7.7L3.6,9.8L5,6.7L5.8,7.7z M6.1,5h2.5L7.4,6.2L6.1,5z M8.2,10.5
	l1.9-1.5l-0.7,3.1L8.2,10.5z M9.4,13.7l0.2-0.8l0.5,0.7L9.4,13.7z M8.3,18.3l1-4.3l0.8-0.1L8.3,18.3z M7.3,31.4l1.4-4.3l1.5,2.1
	L7.3,31.4z M8,35.2l-0.9-3.2l0-0.1l3,0.8L8,35.2z M6.1,32.7l-2,4.6l0.8-3.7L6.1,32.7z M7.1,19.7l-3.8-0.5l-0.6-2L7.1,19.7z M5.9,8
	L7,9.4l-3.3,0.8L5.9,8z M7.3,9.3l-0.7-2l0.8-0.8L10,8.7L7.3,9.3z M7.7,10.3H4.4l2.8-0.7L7.7,10.3z M7.5,9.6L9.8,9L8,10.3h0L7.5,9.6z
	 M8.4,26.8L6.3,28l1.4-2.2L8.4,26.8z M7.8,35.8L7.8,35.8l0.4,1L7.8,35.8z M6.4,30.7l-0.6-0.9l0.2-0.7L6.4,30.7z M6.9,32.5l0.9,2.9
	l-0.1,0.1l-0.9-2.6L6.9,32.5z M6.7,32.1l-0.1,0.3l-0.1-0.2L6.7,32.1z M6.6,31.6l0.1,0.3L6.5,32L6,30.7L6.6,31.6z M4.9,38.7l1.7-5.4
	l0.9,2.4L4.9,38.7z M7.6,20.1L6.8,24l-3.3-4.5L7.6,20.1z M6.2,27.6l0.7-2.9l0.6,0.9L6.2,27.6z M5.4,14.6L9,14l-1.2,5.5L5.4,14.6z
	 M2.5,14.8l2-1.5L5,14.4L2.5,14.8z M5.2,14.2l-0.5-1.1l2.6-1.9L5.2,14.2z M5.5,14.3l2.4-3.6l1.1,3L5.5,14.3z M4.6,12.9l-1.1-2.3h4.2
	L4.6,12.9z M5.1,14.7l2.3,4.8l-5.2-4.3L5.1,14.7z M6.7,24.4L5.9,28l-2.3-7.9L6.7,24.4z M6.3,32.2l-1.3,1l0.6-2.8L6.3,32.2z
	 M3.8,38.6l2.6-6l0.1,0.3l-2,6.2L3.8,38.6z M9.8,43.2l-5.9-1l0.8-2.6L9.8,43.2z M4.8,39.3l2.8-3.3l2.1,6.1L10,43L4.8,39.3z
	 M6.9,31.5L6.9,31.5l-0.9-3l2.3-1.4L6.9,31.5z M7.9,25.6l2-3.2l-1.3,4.1L7.9,25.6z M7.7,25.3l-0.7-1l0.9-4.1l2.2,1.3L7.7,25.3z
	 M9.4,12.6l-0.2,0.8l-0.8-2.1L9.4,12.6z M6.1,7.8l0.3-0.3l0.4,1.2L6.1,7.8z M3.2,10.8l1.1,2.3L2,14.8L1.8,14L3.2,10.8z M6.5,19.1
	l-3.9-2.2l-0.4-1.4L6.5,19.1z M5.6,29.1l0,0.2l0-0.1L5.6,29.1z M1.3,36l4.1-6.5l0.1,0.3l-0.8,3.6L1.3,36z M4.4,39.4l-0.6,0.7l0-1.2
	L4.4,39.4z M4.3,39.9l-0.5,1.5l0-0.9L4.3,39.9z M10.2,33.1v9.5L10,42.1l-1.9-6.5L10.2,33.1z M10.2,21.2L8,19.9l2.2-5.5V21.2z
	 M7.6,6.3l1.3-1.3l1.1,3.3L7.6,6.3z M7.2,6.3L6.6,7L6,5.3L7.2,6.3z M6,7.6L5.2,6.4l0.5-1.2l0.7,1.9L6,7.6z M5.1,5.8L5,6.2L4.9,6.1
	L5.1,5.8z M4.8,6.4l0.1,0.1L4.4,7.5L4.8,6.4z M3.1,10.3l-2,0.5l3.2-4L3.1,10.3z M3,10.6l-1.3,3l-0.7-2.5L3,10.6z M1.8,15l-0.7,0.5
	l0.5-1.1L1.8,15L1.8,15z M1.8,15.3l0.4,1.4L1,15.9L1.8,15.3z M3,19.3l-0.5,1.3l-1.4-3.9L3,19.3z M3.2,19.8l2.6,8.7l-0.3,0.5
	l-2.7-7.8L3.2,19.8z M4.5,33.9l-1,4.6L1,36.6L4.5,33.9z M3.5,40.8l0,0.9l-0.3-0.6L3.5,40.8z M3.3,40.6l0.2-0.8l0,0.6L3.3,40.6z
	 M3.5,42.3l-0.7,2.3l-0.3-0.2l0.7-2.9L3.5,42.3z M5.8,46.6L3,44.8l0.7-2.1L5.8,46.6z M9.2,5h1.5l-0.4,3.2L9.2,5z M11,4.8l0.2-1.7
	l1.9,2.9L11,4.8z M19,6.5l2.8-2.4l3.2,1L19,6.5z M22.3,7.9l2.9-2.4l-0.7,3.2L22.3,7.9z M30.4,12.9l1.4-1.1L34,14L30.4,12.9z
	 M34.1,15l0.4-0.5l1.5,1.5L34.1,15z M33.1,16.2l0.9-1l2.3,1.2L33.1,16.2z M32.6,18.5l0.3-2.1l3.4,0.3L32.6,18.5z M40.3,48.7
	l-0.8-5.2l2.8,5.9L40.3,48.7z M40.8,52.1L40.4,49l2.1,0.7L40.8,52.1z M43.3,54.5l-0.3-3.9l1.7,3.5L43.3,54.5z M43.3,59.8l0.1-0.4
	l0.1,0.7L43.3,59.8z M43.4,54.7l1.2-0.3l-0.3,1.1L43.4,54.7z M44.2,55.8l-0.6,2.1L43.3,55L44.2,55.8z M46,57.4l-2.3,0.9l0.7-2.4
	L46,57.4z M41.6,57.2l1.4-2.2l0.3,3.6l-0.3,0.9L41.6,57.2z M43.2,60.1l0.3,0.5l0,0.2l-0.9,1.2L43.2,60.1z M45.8,57.8l-2,2.7
	l-0.2-1.8L45.8,57.8z M46.3,57.8l1.7,3.6l-2.7,1.3L46.3,57.8z M44.5,55.7l0.3-1.1l1.1,2.4L44.5,55.7z M34.4,66.6l-0.7,1.6l-0.8-0.6
	L34.4,66.6z M26,66.9l-0.7,0.8l-0.2-4.2L26,66.9z M25.7,49l-1.4,1.9l-0.1-1.6L25.7,49z M24.1,51.1l-2.3-1.3l2.2-0.4L24.1,51.1z
	 M10.5,32.7v-3.3h11c1.5,0,2.8,0.3,3.9,0.8c0,0,0.1,0,0.1,0l0.2,0.1c0.6,0.3,1.1,0.6,1.5,1c1.4,1.3,2.1,3.1,2.1,5.3
	c0,1-0.2,1.8-0.5,2.6l-0.1,0.3c-0.2,0.4-0.4,0.8-0.7,1.1c-0.3,0.4-0.6,0.7-1,1c-0.8,0.6-1.8,1.1-3,1.4L23.5,43
	c-0.8,0.2-1.8,0.3-2.7,0.3H10.5V32.7L10.5,32.7L10.5,32.7z M10.5,28.7v-7.1l3.3,1.9L10.5,28.7z M10.5,13.7L10.5,13.7L10.5,13.7
	l0.1-0.2l-0.1,0l0-4.6H19c2.5,0,4.5,0.5,5.8,1.4c1.3,0.9,1.9,2.5,1.9,4.7c0,0.2,0,0.4,0,0.6l0,0.4c-0.2,1.5-1,2.8-2.4,3.6
	c-0.4,0.3-0.9,0.5-1.3,0.7l-0.1,0c-1.5,0.6-3.2,0.9-5.3,0.9h-7V13.7z M19.2,6.8l5.7-1.4L22,7.8L19.2,6.8z M22.6,9
	c-0.4-0.1-0.9-0.2-1.3-0.3l0.3-0.3L22.6,9z M24.2,9.6l-2.4-1.3L22,8.1L24.4,9L24.2,9.6z M21.7,8l-0.2,0.2l-1.3-0.7L21.7,8z
	 M20.9,8.7c-0.6-0.1-1.2-0.1-1.9-0.1h-0.7l0.4-1.7l2.6,1.4L20.9,8.7z M29.2,9.2l-1.7,0.6l-1.7-4.1L29.2,9.2z M27.1,15.7l3-2.5
	l2.3,2.9L27.1,15.7z M31.4,13.5l2.9,0.9l-0.4,0.5L31.4,13.5z M33.7,15.1l-0.9,1l-2.1-2.6L33.7,15.1z M32.6,16.7l-0.3,1.9l-2.5,1.2
	L32.6,16.7z M40.1,54.7l0.6-1.8l0.5,3.5L40.1,54.7z M35.1,64.7l-2.6,2.8l-4-2.8H35.1z M25.1,62.3l3.5-4.3l-0.5,6.4L25.1,62.3z
	 M30.2,69.1l-2.7,1.8l-0.6-2.1l1.4-3.9L30.2,69.1z M28.6,56.9l0.1,0.5l0,0.1l-2.8,0.4L28.6,56.9z M25.8,48.7L24.2,49l-0.3-5
	L25.8,48.7z M24.1,29.4c-0.8-0.2-1.7-0.3-2.6-0.3l-0.4-1.4L24.1,29.4z M20.9,27.7l0.4,1.3h-1.2L20.9,27.7z M20.7,27.4l-0.9,1.5
	L18.1,26L20.7,27.4z M17.7,25.8l1.9,3.2H11L17.7,25.8z M17.5,25.6l-6.8,3.2l3.3-5.2L17.5,25.6z M31.2,11.5l-2.7,0.3l0.5-1.1
	L31.2,11.5z M27.9,10l1.4-0.5l-0.4,0.9L27.9,10z M28.7,10.6l-0.4,1l-0.6-1.4L28.7,10.6z M27.1,15.3l1.3-3.1l1.5,0.8L27.1,15.3z
	 M29.4,19.9l-2.3-4l5.5,0.5L29.4,19.9z M31.3,23.7l-0.2,0l0.1-0.2L31.3,23.7z M31.2,30.2l1.8,0l-2.2,4.1l0.3-3.9L31.2,30.2z
	 M30.7,37.9l3.5-3.9l1.6,6L30.7,37.9z M36,41.4l0.1-0.5l0.1,0.4L36,41.4z M37.4,44.9l1.8-1.7l0.7,5L37.4,44.9z M39.8,48.5l-1.6-0.6
	l-0.6-2.4L39.8,48.5z M40,48.8l-1.1,1.4l-0.5-2L40,48.8z M35.2,46.9l1.9-1.7l0.7,2.6L35.2,46.9z M35.2,46.6l1.1-4.6l0.8,2.9
	L35.2,46.6z M35.6,44l0.4-2.3l0.2,0L35.6,44z M35.7,41.4L31.4,42l4.4-1.5L35.7,41.4z M28.9,52.1l-1.5-0.3l-0.9-2.4L28.9,52.1z
	 M23.2,23.3l-2.3,3.9l-2.7-1.5L23.2,23.3z M21.5,22.6l-5.3-0.6l1.2-0.4L21.5,22.6z M23,23l-5.2,2.5l-1.9-3.3L23,23z M29.2,20.1
	L29,20.2l-0.9-1.9L29.2,20.1z M28.5,26.7l2.3,3.2l-5,0L28.5,26.7z M26,23.6l-0.5,5.7l-1.2-4.3L26,23.6z M23.6,22.7l-0.5-2.1l2.8,1
	L23.6,22.7z M21.4,26.8l2.1-3.5l0.4,1.5L21.4,26.8z M25.8,23.3l-1.6,1.3l-0.4-1.5L25.8,23.3z M26.6,21.6l2.3-1.1l1.4,2.9L26.6,21.6z
	 M28.7,26.5l1.8-2.1l0.5,5.1L28.7,26.5z M28.5,26.3l-2.1-2.9l4,0.5l0,0.1L28.5,26.3z M26.3,23.1l0.1-1.3l3.4,1.7L26.3,23.1z
	 M23.3,20.4c0.4-0.2,0.7-0.4,1.1-0.6c1-0.6,1.7-1.5,2.1-2.5l-0.3,4L23.3,20.4z M26.1,21.9L26,23.1l-2-0.2L26.1,21.9z M28.3,26.5
	l-2.6,3.1l0.5-6L28.3,26.5z M26.4,21.4l0.4-5.1l1.9,4L26.4,21.4z M23.3,22.7l-4.9-1.3c1.7-0.1,3.1-0.4,4.3-0.8L23.3,22.7z M24,25.1
	l1.3,4.6l-4.2-2.4L24,25.1z M30.2,42.1l0.3-3.9l5,2L30.2,42.1z M34.6,47.5c-0.3,0.7-0.9,2.4-1.9,5L31.8,50L34.6,47.5z M29.3,48
	l-2.8,0.6l1.7-1.6L29.3,48z M29.6,45.3l-1.5,1.4l-3.7-3.2L29.6,45.3z M31.5,49.9l-2,1.8l0.3-3.4L31.5,49.9z M29.8,47.9l0.2-2.1
	l0.7,1.9L29.8,47.9z M29.9,48.2l0.8-0.2l0.5,1.4L29.9,48.2z M29.7,45.6l-0.2,2.3l-1.2-1L29.7,45.6z M34.4,47.3l-2.7,2.4L31,48
	L34.4,47.3z M30.9,47.7l-0.9-2.3l4.5,1.5L30.9,47.7z M30,45.1l0.2-2.3l4.1,3.8L30,45.1z M29.9,42.2l-1.6-1.5l2-2.3L29.9,42.2
	L29.9,42.2z M24.4,43.2l5.4-0.7l0.1,0.1L29.7,45L24.4,43.2z M29.5,48.3l-0.3,3.7l-2.9-3.1L29.5,48.3z M28.1,53.4l1-0.9L29,53.9
	L28.1,53.4z M29,56.7l0.5-0.2L29,57.1L29,56.7z M29.9,56.1l-0.8,0.3l0.2-2.1l1.4,0.8L29.9,56.1z M31.4,55.8L31,57.1l-1.8,0.3l0.8-1
	L31.4,55.8z M30.4,55.9l0.5-0.6l0.5,0.3L30.4,55.9z M29.3,54l0.1-1.6l3.1,0.5l-1.6,2L29.3,54z M31.6,50.2l0.9,2.5l-3.1-0.5
	L31.6,50.2z M27.3,31c-0.4-0.3-0.8-0.6-1.2-0.9l4.8,0L30.5,35l-1.1,1.9c0-0.1,0-0.2,0-0.3C29.5,34.2,28.8,32.3,27.3,31 M30.5,35.6
	l-0.2,2.1l-0.8-0.3L30.5,35.6z M28.9,39.5l0.1-0.2c0.2-0.5,0.3-1,0.4-1.6l0.8,0.3L28.9,39.5z M25.3,42.8c0.7-0.3,1.3-0.6,1.8-1
	c0.3-0.3,0.7-0.6,0.9-0.9l1.5,1.4L25.3,42.8z M27.9,46.8l-1.8,1.7l-2-5L27.9,46.8z M29,54.2l-0.2,2.3l0,0l-0.7-2.8L29,54.2z
	 M28.9,58.2l0.7,2.5l-1.1,2.9L28.9,58.2z M30.8,57.4l-1.1,2.9l-0.7-2.6L30.8,57.4z M32.3,53.6l-0.7,1.8l-0.5-0.3L32.3,53.6z
	 M30.2,42.5L30.2,42.5l5.4-0.8l-0.8,5.1L30.2,42.5z M30.6,37.6l0.2-2.5l2.4-4.6l0.9,3.2L30.6,37.6z M30.7,24.5l0.6,1.2l-0.2,2.7
	L30.7,24.5z M30.7,23.7l-0.1,0l-1.5-3.2l0.2-0.1l1.7,2.9L30.7,23.7z M26.6,12.7l1.4-0.4L26.9,15C26.9,14.1,26.8,13.4,26.6,12.7
	 M25.6,10.7L28,12l-1.4,0.4C26.3,11.7,26,11.2,25.6,10.7 M12.7,21.5H15l-0.2,0.3L12.7,21.5z M15,22.1l0.6,0.1l1.8,3.1l-3.2-1.8
	L15,22.1z M15.5,21.5h1.1l-0.9,0.3L15.5,21.5z M15.2,21.8l0.1-0.2l0.1,0.2L15.2,21.8z M14.7,22l-0.8,1.2l-3-1.7L14.7,22z M26,49.1
	l1.1,2.7l-2.6-0.4l-0.1,0L26,49.1z M25.2,51.7l2,0.3l0.4,1L25.2,51.7z M28.8,52.3l-0.9,0.8l0-0.1l0,0l-0.4-1L28.8,52.3z M38,48.2
	l0.5,2l-3.1-2.9L38,48.2z M38.7,50.7l0.9,3.3l-3.9-6.1L38.7,50.7z M39.9,54.3L39,51l1.5,1.4L39.9,54.3z M39,50.6l1.2-1.5l0.4,2.9
	L39,50.6z M37.3,44.5l-0.8-2.9l2-0.3L37.3,44.5z M36.4,41.3l-0.2-0.9l1.9,0.6L36.4,41.3z M30.8,24L30.8,24l0.6,0l-0.1,1.2L30.8,24z
	 M31.6,22.6l-0.3,0.4l-1.2-2L31.6,22.6z M29.1,10.5l0.4-1l1.8,1.8L29.1,10.5z M24.9,10l2.5,0.1l0.7,1.6L24.9,10z M23.7,43.8l0.3,5.3
	l-2.5,0.5L23.7,43.8z M27.6,53.4l-3,2.7l-0.3-4.5L27.6,53.4z M27.8,53.7l0.7,2.9L25,57.9L27.8,53.7z M28,64.7l-1.8,2l-1.2-4L28,64.7
	z M27.9,65.2l-1.1,3.1L26.4,67L27.9,65.2z M32.3,67.7l-1.9,1.3l-1.7-3.8L32.3,67.7z M35,65.9l0.5-1.1l0.5,0.4L35,65.9z M35,65.3
	l-0.4,0.9l-1.1,0.7L35,65.3z M36.7,64.7l-0.5,0.3l-0.4-0.3H36.7z M37.1,64.8l0.4,1.3l-1-0.9L37.1,64.8z M28.5,64.4
	c0.3-0.9,6.2-16.3,6.5-17l6.5,17H28.5z M39.8,54.8l2.2,8.3l-0.3,1.1l-6.1-15.9L39.8,54.8z M43,54.7l-1.4,2.2l-0.6-4.1L43,54.7z
	 M42,62l-1.7-6.4l1,1.6L42,62z M43,59.8l-0.7,2.3l-0.6-4.4L43,59.8z M37.6,44.4l1.1-3l0.5,1.1l0.1,0.4L37.6,44.4z M36.1,40.1
	l0.5-3.1l1.8,3.8L36.1,40.1z M35.9,39.5l-1.6-5.8l0.4-0.5l1.6,3.3L35.9,39.5z M34.3,33.5l-0.8-3.1l1.2,2.6L34.3,33.5z M31.2,29.9
	l0.3-3.7l1.3,2.7l0.3,1L31.2,29.9z M31.5,23.5l-0.1-0.2l0.2-0.2L31.5,23.5z M29.6,20.2l2.6-1.2l-0.5,3.4L29.6,20.2z M30.1,12.8
	l-1.4-0.7l2.6-0.3L30.1,12.8z M25.8,5.4l4.5,1.4L29.4,9L25.8,5.4z M24.5,9.7l0.1-0.6l1.9,0.7L24.5,9.7z M10.5,8.4L11,5.1l2.3,1.2
	L10.5,8.4z M16.1,7.5l2.3-0.5L18,8.5L16.1,7.5z M15.7,7.3l-1.5-0.8l3.7,0.3L15.7,7.3z M14,6.2l1.4-1.1l2.5,1.4L14,6.2z M15.3,7.4
	l-4.3,1l2.6-2L15.3,7.4z M11.3,8.6l4.4-1.1l2,1.1H11.3z M15.6,4.9l2.5-1.9l0.3,3.4L15.6,4.9z M11.7,2.8L17.8,3l-2.4,1.8L11.7,2.8z
	 M15.1,5l-1.5,1.1l-2-3L15.1,5z M9.3,4.8L11,3.1l-0.2,1.7L9.3,4.8z M20.8,43.6c0.9,0,1.7-0.1,2.4-0.2l-5.5,4.1l-2.9-3.9H20.8z
	 M23.5,43.5l-2.3,5.9L18,47.6L23.5,43.5z M28.5,57.8L25,62l-0.2-3.7L28.5,57.8z M24.3,69.5L24.3,69.5l0-0.1L24.3,69.5z M23,64.9
	l1.8-2.2L25,68l-0.7,0.8L23,64.9z M21.2,67.1l1.6-1.9l1.4,3.9L24,69.3L21.2,67.1z M23.5,70.3l1.6,1.9l-2.7-0.7L23.5,70.3z
	 M23.8,69.5l-0.3,0.4L22,68.1L23.8,69.5z M23.3,70l-1.1,1.2l-1-3.7L23.3,70z M23.6,70l0.4-0.4l0.4,0.3l0.6,1.8L23.6,70z M25.1,68.4
	l0.1,1.8l-0.5-0.4l-0.2-0.7L25.1,68.4z M26.7,69.3l0.5,1.8l-0.5,0.4l-0.6-0.5L26.7,69.3z M30.3,69.3l0.2,0.5l-2.9,1.4l0-0.1
	L30.3,69.3z M33.4,68.4l-2.2,1.1l1.4-1.6L33.4,68.4z M34.8,66.3l1.4-0.9l1.3,1.1L34,68.2L34.8,66.3z M41.1,64.7l-3.3,1.6l-0.4-1.6
	H41.1z M41.8,64.7l0.4-0.2l-1,2.2L41.8,64.7z M41.9,64.3l0.2-0.7l0.1,0.6L41.9,64.3z M43.6,61.3l0.2,2.2L42.6,64l-0.2-1.2L43.6,61.3
	z M46,58.1l-0.9,4.5l-1.2-1.8L46,58.1z M48.4,61.6l1.1-0.5l-0.6,1.5L48.4,61.6z M49.5,64.9l-0.1,4.4l-1.9-3L49.5,64.9z M48.4,62.2
	l0.3,0.7l-0.3,0.6L48.4,62.2z M47.6,65.9l0.7-1.6l1,0.4L47.6,65.9z M48.5,64l0.4-0.8l0.6,1.2L48.5,64z M45.5,62.9l2.5-1.2l0.1,2.2
	L45.5,62.9z M48.1,64.2L47.3,66l-1.8-2.8L48.1,64.2z M55.3,78.2l0.4-0.4l0.2,0.5L55.3,78.2z M53.4,79.9l-1.9,1.9l-0.6-4L53.4,79.9z
	 M49.6,75.1l0.1-4.9l0.9,1.4L49.6,75.1z M54.1,77.1l-3.3,0.1l0.8-4L54.1,77.1z M50.9,71.6l0.7-2.5L52,70l-0.5,2.6L50.9,71.6z
	 M49.5,76.3L49.5,76.3l1.2-4.4l0.7,1l-0.9,4.2L49.5,76.3z M49.5,77.3l0-0.6l0.7,0.6L49.5,77.3z M49.5,77.6l1,0L50,79.9l-0.5-0.8
	L49.5,77.6z M50.6,78.1l0.5,3.4l-0.9-1.4L50.6,78.1z M54.8,78.4l-1.2,1.3l-2.4-2L54.8,78.4z M51.7,77.5l2.6-0.1l0.5,0.7L51.7,77.5z
	 M55,78.6l0.8,1.2l-0.8,1.2l-1.3-1.1L55,78.6z M55.1,78.1l-0.5-0.7l0.9,0l0.1,0.2L55.1,78.1z M54.4,77.1l-2.7-4.2l0.5-2.5l3.1,6.7
	L54.4,77.1z M49.7,69.8l1.6-0.9l-0.7,2.4L49.7,69.8z M49.2,77.6l0,1.1l-0.3-0.4L49.2,77.6L49.2,77.6z M48.2,77.3l-2.9-4.2l3.8,3.2
	l-0.3,0.9L48.2,77.3z M49.5,79.6l0.5,0.7l-0.3,1.2l-0.2-0.1L49.5,79.6z M51.1,81.9l-1.1-0.3l0.2-1L51.1,81.9z M54.9,81.2l-1,1.5
	L51.6,82l1.9-2L54.9,81.2z M56.1,78.7l0.2,0.4L56,79.5l-0.6-1L56.1,78.7z M55.8,77.4L55.8,77.4L55.8,77.4L55.8,77.4z M52.1,69.5
	l-0.4-0.9l0.7-0.4L52.1,69.5z M51.5,68.3l-1.5-3.1l1.9,1.7L51.5,68.3z M48.3,61.3l-1.4-3.1l2.7,2.5L48.3,61.3z M46.5,57.6l-1-2.2
	l3.2,4.2L46.5,57.6z M42.9,49.8l2.8,1l-0.9,3L42.9,49.8z M40.9,52.4l1.7-2.4l0.4,4.3L40.9,52.4z M39.5,42.7l-0.1-0.2l-0.2-1.3
	l2.3-0.3L39.5,42.7z M35,33.1l2.3-2.5l-0.8,5.6L35,33.1z M33.6,29.9l-0.5-1.1l-1.2-4.5l5.3,5.6L33.6,29.9z M32,22.2l0.5-3.3l3.8-1.8
	L32,22.2z M34.5,14.1l-2.3-2.4l4.3,0.1L34.5,14.1z M29.6,9.2l0.9-2.1l1.1,4L29.6,9.2z M27.2,9.7l-2.5-0.9l0.7-3.2L27.2,9.7z
	 M18.7,6.4L18.4,3l3.1,1L18.7,6.4z M8.1,0.9h3.2l-0.2,1.6L8.1,0.9z M9,4.6L7.8,1l3.1,1.7L9,4.6z M1.1,0.9h6.2L5.6,4.7L1.1,0.9z
	 M5.1,28.8L0.9,26l1.6-4.5L5.1,28.8z M2.8,41.5l-0.6,2.7l-1.3-0.8L2.8,41.5z M5.8,47L1,51l1.9-5.9L5.8,47z M6,47.2l2.1,4.1h-7
	L6,47.2z M12.4,51.1l-3.2-2.2l1.2-4.8L12.4,51.1z M17.5,47.6l-4.6,3.4l1.3-5.3L17.5,47.6z M21.3,49.8l2.5,1.4h-3L21.3,49.8z
	 M24.4,56.3l-3.1,2.8l2.8-7.2L24.4,56.3z M21.3,59.6l3.2-1.2l0.2,3.6L21.3,59.6z M22.9,64.6l-1.6-4.7l3.5,2.4L22.9,64.6z M22,71.5
	l-0.9,1l0-4.3L22,71.5z M22.8,74.8l0.6,2.3l-2.2-0.9L22.8,74.8z M25.1,72.5L23,74.3l-0.7-2.6L25.1,72.5L25.1,72.5z M26.1,67.2
	l0.5,1.6l-0.7,2l-0.4-0.3l-0.1-2.3L26.1,67.2z M26.9,71.9l0.5,0.4H26L26.9,71.9z M27.4,71.6l0.1,0.4l-0.4-0.3L27.4,71.6z M30.6,70.1
	l1,2.2h-3.8l-0.2-0.8L30.6,70.1z M33.7,68.6l5.2,3.6h-6.9L33.7,68.6z M37.6,66.7l1.5,5.4L34,68.5L37.6,66.7z M45,62.9L44,63.3
	l-0.2-2.2L45,62.9z M45.1,63.1l1.6,2.5l-2.6-2.1L45.1,63.1z M49.4,70l-0.1,6.1l-4.4-3.6L49.4,70z M49.2,79.2l0,2.1l-1-0.3l0.7-2.4
	L49.2,79.2z M51.1,82.2l-1.7,1.7l0.4-2.1L51.1,82.2z M51.4,82.3l1.4,1.9h-3.2L51.4,82.3z M58.3,84l-4.1-1.2l0.9-1.4L58.3,84z
	 M56.3,78.4l-0.4-0.8l0.2-0.2l0.4,1L56.3,78.4z M55.7,77.1L52.3,70l0.3-1.4l3.3,8.5L55.7,77.1z M51.8,68.3l0.3-1.1l0.3,0.7
	L51.8,68.3z M44.9,54.2l0.9-3.1l3.4,8.7L44.9,54.2z M45.6,50.5l-2.8-0.9l-0.7-7.9L45.6,50.5z M39.7,42.9l2.2-2l0.7,8.1L39.7,42.9z
	 M38.7,41l-2.1-4.4l0.8-5.5l1.4,9.9L38.7,41z M31.8,23.6l0.1-0.9l4.6-5.5C35.9,19.4,34.3,21.5,31.8,23.6 M34.7,14.3l2-2.2
	c0.1,0.9,0.2,1.8,0.2,2.8c0,0.5,0,1-0.1,1.5L34.7,14.3z M32.2,11.5l3.6-2.9c0,0,0,0,0,0c0.4,0.9,0.6,1.9,0.8,3L32.2,11.5z M30.4,6.5
	L26,5.1l5.6-1.3L30.4,6.5z M31.4,3.5l-5.9,1.4l0,0l-0.3-3.6C27.6,1.7,29.7,2.4,31.4,3.5 M22,3.9L23,3l1.8,1.8L22,3.9z M18.5,2.8
	L21,0.9l1.8,1.9l-1.2,1L18.5,2.8z M18.2,2.7l-5.8-1.8h8c0.1,0,0.1,0,0.2,0L18.2,2.7z M2.1,44.5l-1.3,5.6v-6.5L2.1,44.5z M8.8,49
	l-0.5,2l-1.8-3.5L8.8,49z M21,49.9l-0.5,1.2l-0.7-1L21,49.9z M23.2,77.9l-2.1,5.7l0-3.4L23.2,77.9z M21.1,78.1l2.1-0.5l-2.1,2.2
	V78.1z M21.1,77.8v-1.3l2.1,0.8L21.1,77.8z M25.1,72.8l-1.5,4L23,74.6L25.1,72.8z M40.3,68.9l-0.9,3l-1.4-5L40.3,68.9z M40.6,68.8
	l1.8-4.1l2,7.4L40.6,68.8z M47.1,66.3l-2.4,5.5l-0.7-8L47.1,66.3z M48.1,77.6l0.5,0.8L48,80.7l-1.1-3L48.1,77.6z M53.7,83L53,84.1
	l-1.3-1.7L53.7,83z M36.7,29.1l-4.5-4.7C34.2,25.5,35.7,27.5,36.7,29.1 M49.1,81.6l0,2l-0.9-2.3L49.1,81.6z"/>
<g>
	<path class="st0" d="M1.4,0.7c0,0.4-0.3,0.7-0.7,0.7C0.3,1.4,0,1.1,0,0.7C0,0.3,0.3,0,0.7,0C1.1,0,1.4,0.3,1.4,0.7"/>
	<path class="st0" d="M11,8.8c0,0.4-0.3,0.7-0.7,0.7c-0.4,0-0.7-0.3-0.7-0.7c0-0.4,0.3-0.7,0.7-0.7C10.7,8.1,11,8.4,11,8.8"/>
	<path class="st0" d="M1.5,51.4c0,0.4-0.3,0.7-0.7,0.7c-0.4,0-0.7-0.3-0.7-0.7c0-0.4,0.3-0.7,0.7-0.7C1.1,50.7,1.5,51,1.5,51.4"/>
	<path class="st0" d="M11,21.3c0,0.4-0.3,0.7-0.7,0.7c-0.4,0-0.7-0.3-0.7-0.7c0-0.4,0.3-0.7,0.7-0.7C10.7,20.6,11,20.9,11,21.3"/>
	<path class="st0" d="M11,43.4c0,0.4-0.3,0.7-0.7,0.7c-0.4,0-0.7-0.3-0.7-0.7c0-0.4,0.3-0.7,0.7-0.7C10.7,42.7,11,43,11,43.4"/>
	<path class="st0" d="M11,29.2c0,0.4-0.3,0.7-0.7,0.7c-0.4,0-0.7-0.3-0.7-0.7c0-0.4,0.3-0.7,0.7-0.7C10.7,28.5,11,28.8,11,29.2"/>
	<path class="st0" d="M35.7,47.1c0,0.4-0.3,0.7-0.7,0.7c-0.4,0-0.7-0.3-0.7-0.7c0-0.4,0.3-0.7,0.7-0.7
		C35.4,46.4,35.7,46.7,35.7,47.1"/>
	<path class="st0" d="M29,64.6c0,0.4-0.3,0.7-0.7,0.7c-0.4,0-0.7-0.3-0.7-0.7c0-0.4,0.3-0.7,0.7-0.7C28.7,63.9,29,64.2,29,64.6"/>
	<path class="st0" d="M42.4,64.6c0,0.4-0.3,0.7-0.7,0.7c-0.4,0-0.7-0.3-0.7-0.7c0-0.4,0.3-0.7,0.7-0.7
		C42.1,63.9,42.4,64.2,42.4,64.6"/>
	<path class="st0" d="M26.2,72.4c0,0.4-0.3,0.7-0.7,0.7c-0.4,0-0.7-0.3-0.7-0.7c0-0.4,0.3-0.7,0.7-0.7C25.8,71.7,26.2,72,26.2,72.4"
		/>
	<path class="st0" d="M45.4,72.4c0,0.4-0.3,0.7-0.7,0.7c-0.4,0-0.7-0.3-0.7-0.7c0-0.4,0.3-0.7,0.7-0.7C45.1,71.7,45.4,72,45.4,72.4"
		/>
	<path class="st0" d="M11.9,84.3c0,0.4-0.3,0.7-0.7,0.7s-0.7-0.3-0.7-0.7c0-0.4,0.3-0.7,0.7-0.7S11.9,84,11.9,84.3"/>
	<path class="st0" d="M21.8,84.3c0,0.4-0.3,0.7-0.7,0.7c-0.4,0-0.7-0.3-0.7-0.7c0-0.4,0.3-0.7,0.7-0.7C21.5,83.6,21.8,84,21.8,84.3"
		/>
	<path class="st0" d="M49.9,84.3c0,0.4-0.3,0.7-0.7,0.7c-0.4,0-0.7-0.3-0.7-0.7c0-0.4,0.3-0.7,0.7-0.7C49.6,83.6,49.9,84,49.9,84.3"
		/>
	<path class="st0" d="M59.6,84.3c0,0.4-0.3,0.7-0.7,0.7c-0.4,0-0.7-0.3-0.7-0.7c0-0.4,0.3-0.7,0.7-0.7C59.3,83.6,59.6,84,59.6,84.3"
		/>
	<path class="st0" d="M32.3,23.9c0,0.4-0.3,0.7-0.7,0.7c-0.4,0-0.7-0.3-0.7-0.7c0-0.4,0.3-0.7,0.7-0.7C32,23.2,32.3,23.5,32.3,23.9"
		/>
	<path class="st0" d="M22,49.6c0,0.4-0.3,0.7-0.7,0.7c-0.4,0-0.7-0.3-0.7-0.7c0-0.4,0.3-0.7,0.7-0.7C21.6,48.9,22,49.2,22,49.6"/>
	<path class="st0" d="M25.4,58.1c0,0.4-0.3,0.7-0.7,0.7c-0.4,0-0.7-0.3-0.7-0.7c0-0.4,0.3-0.7,0.7-0.7
		C25.1,57.4,25.4,57.7,25.4,58.1"/>
	<path class="st0" d="M19.6,75.3c0,0.4-0.3,0.7-0.7,0.7c-0.4,0-0.7-0.3-0.7-0.7c0-0.4,0.3-0.7,0.7-0.7
		C19.2,74.6,19.6,74.9,19.6,75.3"/>
	<path class="st0" d="M50.3,69.8c0,0.4-0.3,0.7-0.7,0.7c-0.4,0-0.7-0.3-0.7-0.7c0-0.4,0.3-0.7,0.7-0.7C49.9,69,50.3,69.4,50.3,69.8"
		/>
	<path class="st0" d="M45.5,54.3c0,0.4-0.3,0.7-0.7,0.7c-0.4,0-0.7-0.3-0.7-0.7c0-0.4,0.3-0.7,0.7-0.7
		C45.1,53.6,45.5,53.9,45.5,54.3"/>
	<path class="st0" d="M35.3,33c0,0.4-0.3,0.7-0.7,0.7c-0.4,0-0.7-0.3-0.7-0.7c0-0.4,0.3-0.7,0.7-0.7C35,32.3,35.3,32.6,35.3,33"/>
	<path class="st0" d="M24.1,23c0,0.4-0.3,0.7-0.7,0.7c-0.4,0-0.7-0.3-0.7-0.7c0-0.4,0.3-0.7,0.7-0.7C23.8,22.3,24.1,22.6,24.1,23"/>
	<path class="st0" d="M32.4,11.6c0,0.4-0.3,0.7-0.7,0.7c-0.4,0-0.7-0.3-0.7-0.7c0-0.4,0.3-0.7,0.7-0.7
		C32.1,10.9,32.4,11.2,32.4,11.6"/>
	<path class="st0" d="M22.5,4c0,0.4-0.3,0.7-0.7,0.7c-0.4,0-0.7-0.3-0.7-0.7c0-0.4,0.3-0.7,0.7-0.7C22.2,3.3,22.5,3.6,22.5,4"/>
	<path class="st0" d="M5.9,14.5c0,0.4-0.3,0.7-0.7,0.7c-0.4,0-0.7-0.3-0.7-0.7c0-0.4,0.3-0.7,0.7-0.7C5.6,13.8,5.9,14.1,5.9,14.5"/>
	<path class="st0" d="M5.4,33.4c0,0.4-0.3,0.7-0.7,0.7c-0.4,0-0.7-0.3-0.7-0.7c0-0.4,0.3-0.7,0.7-0.7C5.1,32.7,5.4,33.1,5.4,33.4"/>
</g>
<g>
	<path class="st0" d="M87.6,35.7H73.2V0.8h13.6c3.6,0,6.4,0.8,8.4,2.4c2,1.6,3,4,3,7.4c0,2.2-1.2,4.3-3.7,6.2
		c3.6,1.9,5.4,4.8,5.4,8.7c0,3.2-1.1,5.7-3.3,7.5C94.3,34.8,91.3,35.7,87.6,35.7 M85.8,6.4h-6V15h4.9c2,0,3.5-0.4,4.7-1.1
		c1.2-0.7,1.7-1.8,1.7-3.3c0-1.6-0.5-2.7-1.4-3.3C88.9,6.7,87.6,6.4,85.8,6.4 M87.5,20.4h-7.6v9.8H87c1.8,0,3.2-0.4,4.3-1.2
		c1.1-0.8,1.6-2,1.6-3.5c0-1.6-0.5-2.9-1.5-3.7C90.5,20.9,89.2,20.4,87.5,20.4"/>
	<path class="st0" d="M105.7,31.3V0.8h6.7v31.4c0,1.6-0.2,2.9-0.7,4c-0.5,1-1.3,1.9-2.5,2.6c-1.1,0.7-2.8,1.4-4.9,2.1l-2.7-4.9
		c1.3-0.4,2.2-0.8,2.7-1.2c0.5-0.4,0.9-0.8,1.1-1.3C105.6,33,105.7,32.3,105.7,31.3"/>
	<path class="st0" d="M118.7,33.4l1.5-5.4c1.3,0.6,2.7,1.2,4.3,1.7c1.6,0.5,3.1,0.7,4.4,0.7c2.1,0,3.6-0.3,4.7-1
		c1.1-0.6,1.6-1.6,1.6-2.8c0-0.9-0.4-1.6-1.3-2.3c-0.8-0.7-2.1-1.5-3.9-2.5l-1.5-0.9c-2.3-1.4-4.1-2.5-5.5-3.5
		c-1.4-1-2.5-2.2-3.5-3.5c-1-1.4-1.5-2.9-1.5-4.5c0-1.8,0.5-3.4,1.4-4.8c1-1.4,2.3-2.5,4.1-3.3c1.8-0.8,3.9-1.2,6.4-1.2
		c2.9,0,6.2,0.9,9.9,2.6L137.7,8c-1.4-0.7-2.7-1.2-3.8-1.6c-1.1-0.4-2.4-0.6-3.7-0.6c-1.5,0-2.8,0.3-3.8,0.9c-1,0.6-1.5,1.5-1.5,2.6
		c0,1,0.4,1.8,1.2,2.5c0.8,0.7,2,1.5,3.8,2.5l1.6,0.9l1.5,0.9c2,1.2,3.6,2.2,4.8,3.1c1.2,0.9,2.2,1.9,3,3.2c0.8,1.2,1.2,2.7,1.2,4.4
		c0,1.9-0.5,3.5-1.5,5c-1,1.4-2.5,2.6-4.5,3.4c-2,0.8-4.3,1.2-7.1,1.2c-1.4,0-3.2-0.3-5.4-0.9C121.5,34.8,119.8,34.1,118.7,33.4"/>
	<path class="st0" d="M145.7,33.4l1.5-5.4c1.3,0.6,2.7,1.2,4.3,1.7c1.6,0.5,3.1,0.7,4.4,0.7c2.1,0,3.6-0.3,4.7-1
		c1.1-0.6,1.6-1.6,1.6-2.8c0-0.9-0.4-1.6-1.3-2.3c-0.8-0.7-2.1-1.5-3.9-2.5l-1.5-0.9c-2.3-1.4-4.1-2.5-5.5-3.5
		c-1.4-1-2.5-2.2-3.5-3.5c-1-1.4-1.5-2.9-1.5-4.5c0-1.8,0.5-3.4,1.4-4.8c1-1.4,2.3-2.5,4.1-3.3c1.8-0.8,3.9-1.2,6.4-1.2
		c2.9,0,6.2,0.9,9.9,2.6L164.8,8c-1.4-0.7-2.7-1.2-3.8-1.6c-1.1-0.4-2.4-0.6-3.7-0.6c-1.5,0-2.8,0.3-3.8,0.9c-1,0.6-1.5,1.5-1.5,2.6
		c0,1,0.4,1.8,1.2,2.5c0.8,0.7,2,1.5,3.8,2.5l1.6,0.9l1.5,0.9c2,1.2,3.6,2.2,4.8,3.1c1.2,0.9,2.2,1.9,3,3.2c0.8,1.2,1.2,2.7,1.2,4.4
		c0,1.9-0.5,3.5-1.5,5c-1,1.4-2.5,2.6-4.5,3.4c-2,0.8-4.3,1.2-7.1,1.2c-1.4,0-3.2-0.3-5.4-0.9C148.5,34.8,146.9,34.1,145.7,33.4"/>
	<path class="st0" d="M89.3,49.4l13.3,34.6l-3.1,0.5l-4.1-10.7H80.1l-3.9,10.5h-3l12.7-34.9H89.3z M87.6,53.5L81,71.3h13.4
		L87.6,53.5z"/>
	<path class="st0" d="M130.3,50.6l-1,2.4c-1.3-0.5-2.4-0.9-3.4-1.1c-1-0.2-2.4-0.4-4-0.4c-2.4,0-4.6,0.7-6.6,2
		c-2,1.4-3.5,3.2-4.7,5.6c-1.1,2.4-1.7,5-1.7,8c0,2.8,0.5,5.4,1.5,7.7c1,2.3,2.4,4.1,4.3,5.5c1.9,1.4,4.1,2,6.7,2
		c1.7,0,3.1-0.1,4.3-0.4c1.2-0.3,2.3-0.7,3.4-1.1l1.2,2.5c-1,0.5-2.3,1-4,1.3c-1.7,0.4-3.3,0.6-4.8,0.6c-3.4,0-6.3-0.8-8.8-2.4
		c-2.4-1.6-4.2-3.8-5.4-6.5c-1.2-2.7-1.8-5.7-1.8-9c0-3.4,0.7-6.5,2-9.3c1.3-2.8,3.2-5,5.7-6.6c2.5-1.6,5.3-2.4,8.6-2.4
		c1.3,0,2.8,0.2,4.6,0.5C128.1,49.6,129.4,50,130.3,50.6"/>
	<path class="st0" d="M148.1,49.4l13.3,34.6l-3.1,0.5l-4.1-10.7h-15.2l-3.8,10.5h-3l12.7-34.9H148.1z M146.4,53.5l-6.6,17.8h13.4
		L146.4,53.5z"/>
	<path class="st0" d="M178.3,84.3h-11.4V49.4h11.9c5.1,0,8.8,1.6,11.3,4.8c2.5,3.2,3.7,7.3,3.7,12.5c0,3.3-0.6,6.3-1.8,9
		c-1.2,2.7-2.9,4.8-5.3,6.3C184.3,83.5,181.5,84.3,178.3,84.3 M178.9,52.1H170v29.5h8.4c2.4,0,4.6-0.6,6.4-1.8
		c1.8-1.2,3.3-3,4.3-5.2c1-2.3,1.5-4.9,1.5-7.9c0-4.3-1-7.9-3-10.5C185.6,53.5,182.7,52.1,178.9,52.1"/>
	<polygon class="st0" points="200.9,84.3 200.9,49.4 219.4,49.4 219.6,51.7 204.1,51.7 204.1,65.3 216.4,65.3 216.6,67.6 
		204.1,67.6 204.1,81.8 220.5,81.8 220.8,84.3 	"/>
	<polygon class="st0" points="240.9,72.5 229.9,56.2 229.9,84.3 226.7,84.3 226.7,49.4 228.5,49.4 241.3,67.8 253.9,49.4 256,49.4 
		256,84.3 252.7,84.3 252.7,56 241.9,72.3 	"/>
	<polygon class="st0" points="272.9,84.3 272.9,70.2 261.4,50.2 264.2,48.6 274.5,67.1 284.9,49.4 288.4,49.4 276.1,69.8 
		276.1,84.3 	"/>
</g>
</svg>
