<?xml version="1.0" encoding="utf-8"?>
<!-- Generator: Adobe Illustrator 26.3.1, SVG Export Plug-In . SVG Version: 6.00 Build 0)  -->
<svg version="1.1" id="Layer_1" xmlns="http://www.w3.org/2000/svg" xmlns:xlink="http://www.w3.org/1999/xlink" x="0px" y="0px"
	 viewBox="0 0 100 105.6" style="enable-background:new 0 0 100 105.6;" xml:space="preserve">
<style type="text/css">
	.st0{fill:#FFFFFF;}
</style>
<g>
	<path class="st0" d="M99.5,23.3c0-3.7-0.5-7.4-1.6-11.1c-1.3-4.5-4.7-7.9-9-9.8c-8.7-3.2-18.2-3.2-26.9,0c-4.5,1.6-7.7,5.3-9,9.8
		c-2.1,7.4-2.1,15,0,22.4c1.3,4.5,4.7,7.9,9,9.8c4.2,1.6,9,2.4,13.5,2.1c4.5,0,9.2-0.8,13.5-2.1c4.5-1.6,7.7-5.3,9-9.8
		C98.9,30.6,99.5,26.9,99.5,23.3z M85,23.3c0,1.8-0.3,3.7-0.8,5.3c-0.8,2.4-2.6,4.2-5.3,4.7c-2.4,0.5-4.7,0.5-6.9,0
		c-2.4-0.5-4.5-2.1-5.3-4.7c-1.1-3.4-1.1-7.4,0-10.8c0.8-2.4,2.6-4.2,5.3-4.7c2.4-0.5,4.7-0.5,6.9,0c2.4,0.5,4.5,2.1,5.3,4.7
		C84.7,19.6,85,21.4,85,23.3 M46.4,83.9c2.1-7.4,2.1-15,0-22.4c-1.3-4.5-4.7-7.9-9-9.8c-8.7-3.2-18.2-3.2-26.9,0
		c-4.5,1.6-7.7,5.3-9,9.8c-2.1,7.4-2.1,15,0,22.4c1.3,4.5,4.7,7.9,9,9.8c8.7,3.2,18.2,3.2,26.9,0C41.7,92.1,45.1,88.4,46.4,83.9
		 M33.5,72.9c0,1.8-0.3,3.7-0.8,5.3c-0.8,2.4-2.6,4.2-5.3,4.7c-2.4,0.5-4.7,0.5-6.9,0c-2.4-0.5-4.5-2.1-5.3-4.7
		c-1.1-3.7-1.1-7.4,0-10.8c0.8-2.4,2.6-4.2,5.3-4.7c2.4-0.5,4.7-0.5,6.9,0c2.4,0.5,4.5,2.1,5.3,4.7C33.2,69.2,33.5,71,33.5,72.9
		 M33.5,23H48c0-3.7-0.5-7.4-1.6-11.1c-1.3-4.5-4.7-7.9-9-9.8c-8.7-2.9-18.2-2.9-26.9,0.3c-4.5,1.6-7.7,5.3-9,9.8
		c-2.1,7.4-2.1,15,0,22.4c1.3,4.5,4.7,7.9,9,9.8c4.2,1.6,9,2.1,13.5,2.1s9.2-0.8,13.5-2.1c4.5-1.6,7.7-5.3,9-9.8
		c0.3-0.5,0.3-1.3,0.5-1.8l-13.7-6.3C33,27.2,33,28,32.7,28.8c-0.8,2.4-2.6,4.2-5.3,4.7c-2.4,0.5-4.7,0.5-6.9,0
		c-2.4-0.5-4.5-2.1-5.3-4.7c-1.1-3.7-1.1-7.7,0-11.1c0.8-2.4,2.6-4.2,5.3-4.7c2.4-0.5,4.7-0.5,6.9,0c2.4,0.5,4.5,2.1,5.3,4.7
		C33.2,19.6,33.5,21.1,33.5,23 M53,61.5c-1.1,3.7-1.6,7.4-1.6,11.1v33H66V72.9c0-1.8,0.3-3.7,0.8-5.3c0.8-2.4,2.6-4.2,5.3-4.7
		c2.4-0.5,4.7-0.5,6.9,0c2.4,0.5,4.5,2.1,5.3,4.7c1.1,3.7,1.1,7.4,0,10.8c-0.8,2.4-2.6,4.2-5,4.7s-4.7,0.5-6.9,0
		c-0.5-0.3-1.1-0.3-1.3-0.5l5,13.5c4.5,0,9.2-0.8,13.5-2.1c4.5-1.6,7.7-5.3,9-9.8c2.1-7.4,2.1-15,0-22.4c-1.3-4.5-4.7-7.9-9-9.8
		c-8.7-3.2-18.2-3.2-26.9,0C57.5,53.6,54.4,57.3,53,61.5"/>
</g>
</svg>
