<?xml version="1.0" encoding="utf-8"?>
<!-- Generator: Adobe Illustrator 26.2.1, SVG Export Plug-In . SVG Version: 6.00 Build 0)  -->
<svg version="1.1" id="svg4271" xmlns="http://www.w3.org/2000/svg" xmlns:xlink="http://www.w3.org/1999/xlink" x="0px" y="0px"
	 viewBox="0 0 1200 212.1" style="enable-background:new 0 0 1200 212.1;" xml:space="preserve">
<style type="text/css">
	.st0{fill:#FFFFFF;}
</style>
<g>
	<g>
		<path class="st0" d="M1072.6,73.1c-5.7,0-9,3.3-9,11.5v6.5c0,8.2,3.3,11.5,9,11.5c4.9,0.8,8.2-3.3,8.2-11.5v-6.5
			C1080.8,76.3,1077.5,73.1,1072.6,73.1z"/>
		<path class="st0" d="M1197.7,35.2c-3.3-17.2-17.2-30.3-35.2-34.4C1160.1,0,1156,0,1151.9,0c-31.9-0.8-101.5,16.4-123.6,24.5l0,0
			c-18.8,6.5-44.2,20.5-47.5,58.1c-0.8,10.6-0.8,28.6,2.5,39.3c4.1,15.5,17.2,29.5,46.6,33.5c33.5,4.9,100.6,7.4,130.9-2.5
			c16.4-4.9,31.1-21.3,35.2-36.8C1201,98.2,1201,52.4,1197.7,35.2z M1041.5,63.3c0,0.8-0.8,7.4-0.8,8.2c0,1.6-0.8,1.6-2.5,1.6
			c-3.3,0-6.5-0.8-11.5-0.8c-4.1,0-8.2,2.5-8.2,11.5v8.2c0,8.2,3.3,11.5,8.2,11.5c5.7,0,10.6-0.8,11.5-0.8s1.6,0.8,2.5,1.6
			c0,0.8,0.8,7.4,0.8,8.2c0,0.8-0.8,1.6-1.6,2.5c-2.5,0.8-8.2,1.6-13.9,1.6c-13.9,0-22.1-9-22.1-24.5v-8.2c0-15.5,9-24.5,22.1-24.5
			c5.7,0,11.5,0.8,13.9,1.6C1041.5,60.8,1042.3,61.6,1041.5,63.3z M1096.3,91.1c0,15.5-8.2,25.4-23.7,25.4s-24.5-9.8-24.5-25.4v-6.5
			c0-15.5,8.2-25.4,24.5-25.4c15.5,0,23.7,9.8,23.7,25.4V91.1z M1177.3,114.8h-11.5c-0.8,0-1.6-0.8-1.6-1.6V80.4
			c0-6.5-1.6-8.2-5.7-8.2c-1.6,0-4.9,0-7.4,1.6v39.3c0,0.8-0.8,1.6-1.6,1.6h-12.3c-0.8,0-1.6-0.8-1.6-1.6V80.4
			c0-6.5-0.8-8.2-5.7-8.2c-1.6,0-4.1,0.8-7.4,2.5v38.5c0,0.8-0.8,1.6-1.6,1.6h-12.3c-0.8,0-1.6-0.8-1.6-1.6V61.6
			c0-0.8,0.8-1.6,1.6-1.6h10.6c0.8,0,1.6,0.8,1.6,1.6v2.5c4.1-2.5,9-4.9,13.9-4.9s9,1.6,11.5,4.9c5.7-3.3,9.8-4.9,15.5-4.9
			c13.1,0,16.4,8.2,16.4,21.3l0.8,32.7C1179,114,1178.2,114.8,1177.3,114.8z"/>
	</g>
	<g id="g4047" transform="matrix(6.81558 0 0 -6.81558 93.236 132.623)">
		<path id="path4049" class="st0" d="M132.7-7.6c0,1.1-0.2,1.9-0.6,2.4c-0.6,0.7-1.6,1.1-3,1.1H128c-1.4,0-2.4-0.4-3-1.1
			c-0.4-0.5-0.6-1.3-0.6-2.4c0-1.2,0.2-2,0.6-2.5c0.6-0.8,1.6-1.1,3-1.1h1c1.4,0,2.5,0.2,3.1,1.1C132.4-9.7,132.7-8.8,132.7-7.6"/>
	</g>
	<g id="g4051" transform="matrix(6.81558 0 0 -6.81558 -213.458 155.402)">
		<path id="path4053" class="st0" d="M123.6-8.3c5,0,6.7,3,6.7,5.6s-1.3,4.2-3.6,5.5c-2.3,1.2-3.1,1.7-4,2.2s-1.1,0.6-1.1,1.3
			c0,0.6,0.6,1.1,1.9,1.1c1.4,0,3.7-0.4,4.7-0.5c0.7-0.1,1.1,0.4,1.2,0.8c0.1,0.6,0.2,1,0.5,1.7c0.2,0.7-0.2,1.2-0.7,1.3
			c-1.3,0.4-3.5,1-6.1,1c-4.2,0-6.6-2-6.6-5.6c0-1.8,1-3.2,2.9-4.4s3.6-2.2,4.6-2.8s1.2-1.2,1.2-1.4c0-0.6-0.4-1.2-1.9-1.2
			s-4,0.4-5,0.6c-0.7,0.1-1.1-0.4-1.2-0.6c0-0.7-0.4-2-0.5-2.5c-0.2-0.8,0.4-1.2,0.6-1.3C119.4-8.2,122.2-8.3,123.6-8.3 M41.2-8.2
			c2.3,0,4.7,0.5,5.4,0.6c0.8,0.1,1.1,0.8,1,1.3c-0.1,0.5-0.5,1.7-0.6,2c-0.1,0.5-0.4,1-1.2,1s-3-0.2-4.6-0.2
			c-2.9,0-4.3,1.9-4.3,5.8v4.8c0,3.8,1.4,5.8,4.3,5.8c1.6,0,3.4-0.1,4.4-0.2c0.6,0,1,0.4,1.1,0.7c0.2,0.7,0.5,1.7,0.6,2.4
			c0.1,0.5-0.2,1.1-0.7,1.2c-1.2,0.2-3.1,0.7-5.6,0.7c-2.9,0-9.6-1-9.6-10.3V2.5C31.6-7.5,38.9-8.2,41.2-8.2 M109.1-6.9
			c0-0.6,0.5-1.1,1.1-1.1h3c0.5,0,1,0.5,1,1.1v17c0,0.6-0.5,1.1-1.1,1.1h-3c-0.6,0-1.1-0.5-1.1-1.1V-2.7c-0.8-0.5-2.3-1.2-3.4-1.2
			c-2,0-2.4,0.7-2.4,3.4v10.7c0,0.6-0.5,1.1-1.1,1.1h-3c-0.6,0-1.1-0.5-1.1-1.1V-0.5c0-4.7,1.3-7.7,6-7.7
			C106.4-8.2,107.7-7.7,109.1-6.9 M91.8-8c0.6,0,1.1,0.5,1.1,1V7.2h2.6c0.6,0,1.1,0.5,1.1,1v1.9c0,0.6-0.5,1.1-1.1,1.1h-2.6v1.3
			c0,1.3,0.2,1.6,1.6,1.6c0.2,0,1.3-0.1,1.3-0.1c0.6,0,1,0.4,1.1,0.7c0.1,0.4,0.4,1.1,0.5,1.7c0.1,0.6-0.1,1.2-0.8,1.3
			c-0.6,0.1-1.7,0.2-2.5,0.2c-3,0-6-0.7-6-5.6V11h-2.5c-0.6,0-1.1-0.5-1.1-1.1V8.4c0-0.5,0.2-0.8,1-1C85.9,7.3,88,6.9,88,6.9V-6.9
			C88-7.5,88.5-8,89.1-8H91.8L91.8-8z M81.9-8c0.6,0,1.1,0.5,1.1,1V3.7c0,3.8-0.7,7.7-6,7.7c-2,0-3.4-0.4-4.9-1.3
			c0,0.6-0.5,1.1-1.1,1.1h-2.9c-0.6,0-1.1-0.5-1.1-1.1V-6.9C67-7.5,67.5-8,68.1-8h3c0.6,0,1.1,0.5,1.1,1.1V6
			c1.4,0.7,2.4,1.1,3.4,1.1c2.2,0,2.4-0.5,2.4-3.2V-6.9C77.9-7.5,78.4-8,79-8H81.9L81.9-8z M165.3,18.7c-0.6-0.1-2.4-0.5-3-0.5
			c-0.6-0.1-0.8-0.6-0.8-1.1v-5.8c-1,0.1-1.9,0.1-2.8,0.1c-5.3,0-8.2-3-8.2-8.5V0.5c0-5.5,2.9-8.5,8.2-8.5c2,0,4.6,0.4,6.6,0.8
			c0.7,0.2,1.2,0.5,1.2,1.2v23.7C166.5,18.2,165.9,18.8,165.3,18.7 M161.3-3.8c-0.7-0.1-1.8-0.1-2.8-0.1c-2.2,0-3.1,1.2-3.1,4.3V3
			c0,3,0.8,4.3,3.1,4.3c0.6,0,1.8-0.1,2.8-0.1V-3.8z M56.8,11.5c-4.9,0-8.2-3.2-8.2-8.5V0.3c0-5.3,3.1-8.5,8.2-8.5s8.2,3.2,8.2,8.5
			V3C64.9,8.3,61.7,11.5,56.8,11.5 M59.8,0.3c0-2.5-1.1-4.1-3.1-4.1c-1.9,0-3.1,1.4-3.1,4.1V3c0,2.5,1.1,4,3.1,4
			c1.9,0,3.1-1.4,3.1-4V0.3z M140.3,11.5c-5,0-8.2-3.2-8.2-8.6V0.5c0-6.4,4.4-8.5,8.3-8.5c2.2,0,5.2,0.7,6.6,1.2
			c0.6,0.2,0.8,0.8,0.7,1.2c-0.1,0.4-0.5,1.6-0.5,1.9c-0.1,0.4-0.5,0.7-1.1,0.7s-2.9-0.7-5.4-0.6c-2.9,0-3.5,2-3.5,3.5h10.2
			c0.6,0,1.1,0.5,1.1,1.1v2C148.5,8.1,145.4,11.5,140.3,11.5 M137.2,3.6c0.1,2,1.2,3.4,3.1,3.4c1.8,0,3-1.3,3-3.4H137.2L137.2,3.6z"
			/>
	</g>
</g>
</svg>
