<?xml version="1.0" encoding="utf-8"?>
<!-- Generator: Adobe Illustrator 25.1.0, SVG Export Plug-In . SVG Version: 6.00 Build 0)  -->
<svg xmlns="http://www.w3.org/2000/svg" xmlns:xlink="http://www.w3.org/1999/xlink" version="1.1" id="Ebene_1" x="0px" y="0px" viewBox="0 0 600 336.9" style="enable-background:new 0 0 600 336.9;" xml:space="preserve">
<style type="text/css">
	.st0{fill:#FFFFFF;}
</style>
<g>
	<g>
		<polygon class="st0" points="109.5,184 107.7,189 111.5,189   "/>
		<path class="st0" d="M371.3,74.8c-3.2,0-5.8,2.1-6.5,6.5h12.3C377,77.8,375.2,74.8,371.3,74.8z"/>
		<path class="st0" d="M403.1,196.3c-2.1,0-4.3,0.9-4.3,3c0,2.1,2.2,3,4.3,3c1.9,0,3.7-0.8,4.3-2.1v-1.7    C406.8,197.1,405,196.3,403.1,196.3z"/>
		<path class="st0" d="M359.6,132.2c-3.6,0-5.6,2.7-5.6,6.6c0,3.8,2,6.5,5.6,6.5c2,0,3.7-1.1,4.5-2.5v-8.1    C363.3,133.3,361.6,132.2,359.6,132.2z"/>
		<path class="st0" d="M144.4,280.5c0,1.1,0.6,1.6,1.7,1.6c1,0,1.8-0.7,2.4-1.6V276C145.2,277.8,144.4,279,144.4,280.5z"/>
		<path class="st0" d="M332.6,146.7c1.9,0,3.7-0.8,4.3-2.1v-1.7c-0.6-1.3-2.4-2.1-4.3-2.1c-2.1,0-4.3,0.9-4.3,3    C328.4,145.9,330.5,146.7,332.6,146.7z"/>
		<path class="st0" d="M266.3,194.7c0,4,1.8,6.9,5.2,6.9c3.3,0,5.2-2.9,5.2-6.9c0-4-1.8-7-5.2-7    C268.1,187.7,266.3,190.6,266.3,194.7z"/>
		<path class="st0" d="M288.8,243.1c-6.7,0-9.5,7.2-9.5,16.4c0,9.2,2.7,16.4,9.5,16.4c6.6,0,9.5-7.2,9.5-16.4    C298.2,250.3,295.4,243.1,288.8,243.1z"/>
		<path class="st0" d="M284.4,142.9c-0.6-1.3-2.4-2.1-4.3-2.1c-2.1,0-4.3,0.9-4.3,3c0,2.1,2.2,3,4.3,3c1.9,0,3.7-0.8,4.3-2.1V142.9z    "/>
		<polygon class="st0" points="160.7,184 158.9,189 162.8,189   "/>
		<path class="st0" d="M93.2,280.5c0,1.1,0.6,1.6,1.7,1.6c1,0,1.8-0.7,2.4-1.6V276C94,277.8,93.2,279,93.2,280.5z"/>
		<path class="st0" d="M590.6,0H9.4H0v10.5v315.9v10.5h9.4h581.2h9.4v-10.5V10.5V0H590.6z M590.6,326.4H9.4V10.5h581.2V326.4z"/>
		<path class="st0" d="M420.3,92.6c2.5,0,4.9-1.5,6.1-3.9v-9.7c-1.2-2.5-3.6-3.9-6.1-3.9c-4.6,0-7.3,3.7-7.3,8.8    C413.1,88.9,415.8,92.6,420.3,92.6z"/>
		<path class="st0" d="M484.9,92.1c2.6,0,4.8-1.5,6.1-3.7v-9.8c-1.2-2.3-3.5-3.7-6.1-3.7c-4.5,0-7.2,3.6-7.2,8.6    C477.7,88.5,480.4,92.1,484.9,92.1z"/>
		<path class="st0" d="M588.3,13.2H11.7v310.6h576.6V13.2z M484.3,71.3c3,0,5.5,1.5,6.7,3.2v-2.7h4.1v22c0,8.3-6,11.6-11.7,11.6    c-3.1,0-5.9-0.9-7.7-2.2v-4.5c2.4,2.2,4.9,3,7.7,3c4.3,0,7.6-2.5,7.6-7.6v-1.6c-1.2,1.7-3.7,3.2-6.7,3.2c-7,0-10.7-5.8-10.7-12.2    C473.6,77.2,477.3,71.3,484.3,71.3z M439.7,62c1.5,0,2.6,1.1,2.6,2.6c0,1.4-1.2,2.6-2.6,2.6c-1.4,0-2.6-1.2-2.6-2.6    C437.1,63.2,438.3,62,439.7,62z M441.8,71.8v23.9h-4V71.8H441.8z M419.7,71.3c3,0,5.5,1.6,6.7,3.3V60.7h4.1v35h-4.1v-2.8    c-1.2,1.7-3.8,3.3-6.7,3.3c-7,0-10.8-5.7-10.8-12.4C409,77.1,412.7,71.3,419.7,71.3z M393.9,81c2.5,0,5,1,6,1.9v-3.1    c0-3-2.2-4.8-5.7-4.8c-2.6,0-4.8,0.8-6.8,2.1v-3.8c1.6-1.1,4.5-2,7.4-2c5.7,0,9,3.1,9,8.2v16.2h-3.9V94c-0.9,1-3.4,2.2-6.2,2.2    c-4.9,0-8.9-2.9-8.9-7.7C384.8,84.1,388.8,81,393.9,81z M388.4,146.3c2.6,0,4.5-0.6,6.9-2.1v5.5c-2,1.5-4.7,2.1-7.9,2.1    c-7.3,0-12.3-4.7-12.3-12.4c0-7.5,4.7-12.8,11.3-12.8c7,0,10.6,4.8,10.6,12v2.2h-15.5C382,144.6,384.9,146.3,388.4,146.3z     M335.9,62.7h4.3v29.3H357v3.8h-21.1V62.7z M344.8,207.2c-5.4,0-8.5-3.6-8.5-8.9v-15.7h6.7V197c0,2.5,1.2,4.3,3.9,4.3    c2,0,3.8-1.2,4.3-3.3v-15.3h6.7v24.1h-6.7v-2.2C349.9,206,347.6,207.2,344.8,207.2z M331.5,136.1c2.1,0,4.4,0.7,5.4,1.4v-1.3    c0-2.3-2-3.8-5.4-3.8c-2.4,0-4.7,0.7-6.6,1.9v-5.8c1.7-1.1,4.8-2,8-2c6.6,0,10.3,3.4,10.3,9.3v15.4h-6.4v-1.3    c-0.8,0.8-3.2,1.7-5.8,1.7c-4.8,0-8.9-2.8-8.9-7.8C322.2,139.3,326.2,136.1,331.5,136.1z M322.8,197.5l-2.3-0.6    c-4.2-1.1-6.8-3.1-6.8-7.3c0-4.7,4-7.5,9.4-7.5c3.1,0,5.5,0.8,7.7,2.2v6.1c-2.2-1.7-4.6-3-7.4-3c-1.8,0-3.2,0.7-3.2,2    c0,1.3,0.9,1.7,2.6,2.3l2.7,0.8c4.6,1.3,6.7,3.4,6.7,7.3c0,4.8-4.3,7.4-9.9,7.4c-3.2,0-6.5-0.9-8.5-2.4v-6.2    c2.3,2.1,5.7,3.3,8.3,3.3c2,0,3.6-0.6,3.6-2C325.6,198.5,324.5,198.1,322.8,197.5z M301.1,89.6c2.2,2,5,3.2,7.9,3.2    c2.6,0,5-1,5-3.3c0-1.8-1.3-2.7-3.4-3.4l-3.3-1.1c-3.6-1.2-6-2.9-6-6.8c0-4.2,3.7-6.7,8.5-6.7c2.7,0,5.2,0.8,7.1,2.1v4.2    c-2-1.7-4.2-2.9-7.1-2.9c-2.5,0-4.5,1.1-4.5,3.1c0,1.9,1.3,2.6,3.6,3.4l3.7,1.2c3.6,1.2,5.6,3.3,5.6,6.7c0,4.4-3.9,6.9-8.9,6.9    c-3.1,0-6.1-1-7.9-2.4V89.6z M293.8,65c0-1.7,1.3-2.9,2.9-2.9c1.6,0,2.9,1.1,2.9,3.1c0,1.1-0.5,2.3-1.2,3.4l-2.7,4.6h-2.7l3.3-5.5    C294.8,67.5,293.8,66.5,293.8,65z M265.9,62.7h4.3v14.7l14.9-14.7h5.3l-16.3,15.8l16.8,17.2h-5.5l-15.2-15.6v15.6h-4.3V62.7z     M278.6,151.6c-4.8,0-8.9-2.8-8.9-7.8c0-4.6,4-7.7,9.3-7.7c2.1,0,4.4,0.7,5.4,1.4v-1.3c0-2.3-2-3.8-5.4-3.8    c-2.4,0-4.7,0.7-6.6,1.9v-5.8c1.7-1.1,4.9-2,8-2c6.6,0,10.3,3.4,10.3,9.3v15.4h-6.4v-1.3C283.6,150.7,281.3,151.6,278.6,151.6z     M283.3,194.7c0,7.4-4.8,12.6-11.8,12.6c-7,0-11.8-5.2-11.8-12.6c0-7.4,4.8-12.6,11.8-12.6C278.5,182.1,283.3,187.2,283.3,194.7z     M232.7,62.7h4.2v19.4c0,7.1,3.4,10.3,8.7,10.3c5.3,0,8.7-3.3,8.7-10.3V62.7h4.3v20c0,9.1-5.4,13.6-13,13.6    c-7.5,0-12.9-4.5-12.9-13.6V62.7z M232.4,118.1h6.4l10,15.6l10-15.6h6.3v33.1h-6.8v-21.3l-9.4,14.2h-0.2l-9.5-14.2v21.3h-6.7    V118.1z M247.3,173.1c3.6,0,6.5,1,8.6,2.6v7c-2.5-2.2-5.2-3.2-8.3-3.2c-5.9,0-9.8,4.3-9.8,10.8c0,6.5,3.9,10.7,9.8,10.7    c3.1,0,5.8-1,8.3-3.2v7c-2.2,1.6-5,2.6-8.6,2.6c-9.6,0-16.4-6.8-16.4-17.1C230.8,179.9,237.7,173.1,247.3,173.1z M69,61.7h111.8    v111.8H69V61.7z M142.3,194.4c1.3,0,2.4-0.3,3.5-1.5l0.4,0.4c-0.9,1.3-2.7,2.3-5.1,2.3c-3.6,0-7.2-2.7-7.2-7.2    c0-4.3,3.3-7.4,7.3-7.4c1.9,0,2.9,0.8,3.4,0.8c0.3,0,0.4-0.2,0.6-0.6h0.3l0.2,4.2l-0.5,0c-0.3-2.4-1.6-3.7-4-3.7    c-2.6,0-4.6,2.2-4.6,5.7C136.6,191.9,139.4,194.4,142.3,194.4z M123.4,194.7v0.6h-5v-0.6c1.2,0,2-0.2,2-1.3v-10.8    c-0.7-0.7-1.2-0.7-2.4-0.7v-0.6h4.8l7.4,9.5v-7.6c0-1.1-0.8-1.3-2.1-1.3v-0.6h5.1v0.6c-1.3,0-2.1,0.2-2.1,1.3v12.4h-0.2l-9.6-12    v9.8C121.3,194.6,122.1,194.7,123.4,194.7z M107.9,194.7v0.6h-5.1v-0.6c1.3,0,2-0.2,2.4-1.3l4.6-12.3h1.3l5,12.4    c0.4,1.1,0.7,1.2,1.7,1.2v0.6h-5.9v-0.6c1.8,0,2-0.1,1.5-1.2l-1.5-3.7h-4.4l-1.3,3.6C105.7,194.5,106.3,194.7,107.9,194.7z     M93.4,194.7v0.6h-5.1v-0.6c1.3,0,2.1-0.2,2.1-1.3v-10.9c-0.6-0.6-1.1-0.7-2.1-0.7v-0.6h4.5l7.4,9.5v-7.6c0-1.1-0.8-1.3-2.1-1.3    v-0.6h5.1v0.6c-1.3,0-2.1,0.2-2.1,1.3v12.4H101l-9.6-12v9.8C91.3,194.6,92.1,194.7,93.4,194.7z M109.5,216.6    c1.3,0,1.7-0.1,1.7-1.2V205c0-1.1-0.4-1.2-1.7-1.2v-0.6h10.7l0,3.5h-0.5c-0.3-2.5-1-2.8-3.7-2.8h-2.1v5.7h2.1c1.8,0,2-0.3,2.1-1.7    h0.5v4.2h-0.5c-0.1-1.4-0.3-1.7-2.1-1.7h-2.1v5.1c0,0.9,0.5,1,1.2,1h1.2c2.7,0,3.6-0.4,4.4-3.5l0.5,0.1l-0.5,4.2h-11.1V216.6z     M87.2,194.7v0.6h-6v-0.6c1.3,0,1.7-0.1,1.7-1.2v-10.4c0-1.1-0.4-1.2-1.7-1.2v-0.6h6v0.6c-1.3,0-1.7,0.1-1.7,1.2v10.4    C85.5,194.6,86,194.7,87.2,194.7z M68.9,194.7c1.3,0,1.7-0.1,1.7-1.2v-10.4c0-1.1-0.4-1.2-1.7-1.2v-0.6h8.9c1.2,0,1.6,0,2-0.1    l0.1,4h-0.5c-0.3-2.9-1-3.2-3.7-3.2h-2.4v5.8h1.9c1.8,0,2-0.3,2.1-1.7h0.5v4.2h-0.5c-0.1-1.4-0.3-1.7-2.1-1.7h-1.9v5    c0,1,0.3,1.3,2.2,1.3v0.6h-6.5V194.7z M73.6,285c-3.1,0-4.9-1.8-5.4-4.8l3.1-0.9c0.2,1.4,0.7,2.7,2.4,2.7c0.9,0,1.6-0.5,1.6-1.5    c0-3-6.7-4.1-6.7-8.7c0-2.7,2.1-4.6,4.8-4.6c2.8,0,4.7,1.9,5.2,4.5l-3,0.5c-0.3-1.4-0.9-2.1-2-2.1c-0.9,0-1.6,0.5-1.6,1.4    c0,2.7,6.7,3.8,6.7,8.8C78.6,283.4,76.5,285,73.6,285z M78.8,217.2h-7v-0.6c1.7,0,2.2-0.2,2.2-1.3v-11.5h-0.9    c-2.7,0-3.4,0.4-3.7,3.4h-0.5L69,203c0.4,0.1,0.8,0.1,2,0.1h8.7c1.2,0,1.6,0,2-0.1l0.1,4.2h-0.5c-0.3-3-1-3.4-3.7-3.4h-0.9v11.5    c0,1.1,0.4,1.3,2.2,1.3V217.2z M87.9,270.5h-2.4v9.9c0,0.9,0.4,1.4,1.2,1.4h1.2v3.1c-0.5,0.1-0.9,0.2-1.8,0.2    c-2.7,0-4.2-1.2-4.2-3.8v-10.7h-2v-2.9h2v-4.6h3.6v4.6h2.4V270.5z M89.1,203.8c-1.3,0-1.7,0.1-1.7,1.2v10.4c0,1.1,0.4,1.2,1.7,1.2    v0.6h-6v-0.6c1.3,0,1.7-0.1,1.7-1.2V205c0-1.1-0.4-1.2-1.7-1.2v-0.6h6V203.8z M97.6,284.7c0-0.5-0.2-0.9-0.2-1.3    c-1.3,1.1-2.4,1.7-4.2,1.7c-2.4,0-3.6-1.7-3.6-3.8c0-3.8,2.5-5.8,7.6-7.8v-1c0-1.4-0.6-2.2-1.7-2.2c-1.6,0-2,1-2,2.4h-3.6    c0.2-3.5,2.4-5.3,5.7-5.3c3.3,0,5.2,1.5,5.2,4.6v11c0,0.5,0.1,1.2,0.2,1.8H97.6z M102.9,204.4l-4.4,13.1h-0.2L94,204.4l-1.1,11    c-0.1,1.1,0.7,1.2,1.9,1.2v0.6h-4.7v-0.6c1.3,0,1.7-0.2,1.8-1.2l1.1-10.4c0.1-1.1-0.4-1.2-1.7-1.2v-0.6h5l3,9.6l3.2-9.6h4.9v0.6    c-1.3,0-1.8,0.1-1.7,1.2l1.1,10.5c0.1,1.1,0.5,1.2,1.8,1.2v0.6h-6v-0.6c1.3,0,1.7-0.1,1.6-1.2L102.9,204.4z M110.9,270.5h-2.4v9.9    c0,0.9,0.4,1.4,1.2,1.4h1.2v3.1c-0.5,0.1-0.9,0.2-1.8,0.2c-2.7,0-4.2-1.2-4.2-3.8v-10.7h-2v-2.9h2v-4.6h3.6v4.6h2.4V270.5z     M116.8,284.7h-3.6v-17.1h3.6V284.7z M116.8,266.1h-3.6v-3.2h3.6V266.1z M124.9,285c-3.1,0-4.9-1.8-5.4-4.8l3.1-0.9    c0.2,1.4,0.7,2.7,2.4,2.7c0.9,0,1.6-0.5,1.6-1.5c0-3-6.7-4.1-6.7-8.7c0-2.7,2.1-4.6,4.8-4.6c2.8,0,4.7,1.9,5.2,4.5l-3,0.5    c-0.3-1.4-0.9-2.1-2-2.1c-0.9,0-1.6,0.5-1.6,1.4c0,2.7,6.7,3.8,6.7,8.8C129.9,283.4,127.8,285,124.9,285z M127.1,217.5    c-1.9,0-2.8-0.9-3.3-0.9c-0.3,0-0.5,0.3-0.6,0.7h-0.4l-0.3-4.2l0.5-0.1c0.4,2.6,2.2,3.7,4,3.7c1.5,0,2.8-0.7,2.8-2.4    c0-1.3-0.8-1.9-2.2-2.7l-2.2-1.2c-1.7-0.9-2.7-1.9-2.7-3.7c0-2.2,1.9-3.9,4.4-3.9c1.7,0,2.6,0.8,3,0.8c0.3,0,0.5-0.2,0.6-0.6h0.4    l0.2,4l-0.5,0c-0.3-1.9-1.7-3.4-3.6-3.4c-1.4,0-2.4,0.9-2.4,2.1c0,1.3,1,1.9,2.1,2.5l1.9,1c1.8,1,3.1,2,3.1,3.9    C131.9,215.7,129.8,217.5,127.1,217.5z M139.2,270.5h-2.4v9.9c0,0.9,0.4,1.4,1.2,1.4h1.2v3.1c-0.5,0.1-0.9,0.2-1.8,0.2    c-2.7,0-4.2-1.2-4.2-3.8v-10.7h-2v-2.9h2v-4.6h3.6v4.6h2.4V270.5z M148.9,284.7c0-0.5-0.2-0.9-0.2-1.3c-1.3,1.1-2.4,1.7-4.2,1.7    c-2.4,0-3.6-1.7-3.6-3.8c0-3.8,2.5-5.8,7.6-7.8v-1c0-1.4-0.6-2.2-1.7-2.2c-1.6,0-2,1-2,2.4h-3.6c0.2-3.5,2.4-5.3,5.7-5.3    c3.3,0,5.2,1.5,5.2,4.6v11c0,0.5,0.1,1.2,0.2,1.8H148.9z M153.4,181.9c-1.3,0-1.7,0.1-1.7,1.2v10.4c0,1.1,0.4,1.2,1.7,1.2v0.6h-6    v-0.6c1.3,0,1.7-0.1,1.7-1.2v-10.4c0-1.1-0.4-1.2-1.7-1.2v-0.6h6V181.9z M154.4,194.7c1,0,1.6-0.2,2-1.3l4.6-12.3h1.3l5,12.4    c0.4,1.1,0.7,1.2,1.7,1.2v0.6H163v-0.6c1.8,0,2-0.1,1.5-1.2l-1.5-3.7h-4.4l-1.3,3.6c-0.4,1.1,0.2,1.3,1.8,1.3v0.6h-4.7V194.7z     M181,284.2c0,0.4-0.3,0.8-0.8,0.8h-20.5c-0.4,0-0.8-0.3-0.8-0.8v-1.6c0.3,0,4.2,0.1,7.1-1.4c2.8-1.5,4.8-4.4,4.8-4.4    c0.3-0.5,0.7-1,0.8-1.1c0.1-0.1,0.2-0.3,0.2-0.3c0,0,0.1-0.2,0.3-0.4c0.1-0.2,0.5-0.7,0.8-1.2c0,0,1.3-1.9,3.1-2.8    c1.4-0.7,4.8-0.8,4.8-0.8c0.1,0,0.1,0,0.2,0V284.2z M181,265.3C181,265.3,181,265.3,181,265.3c-0.1,0-4.1-0.2-7.2,1.4    c-2.8,1.5-4.8,4.4-4.8,4.4c-0.3,0.5-0.7,1-0.8,1.1c-0.1,0.1-0.2,0.3-0.2,0.3c0,0-0.1,0.2-0.3,0.4c-0.1,0.2-0.5,0.7-0.8,1.2    c0,0-1.3,1.9-3.1,2.8c-1.4,0.7-4.8,0.8-4.8,0.8c0,0-0.1,0-0.1,0v-14c0-0.4,0.3-0.8,0.8-0.8h20.5c0.4,0,0.8,0.3,0.8,0.8V265.3z     M180.6,195.4h-10.7v-0.6c1.3,0,1.7-0.1,1.7-1.2v-10.4c0-1.1-0.4-1.2-1.7-1.2v-0.6h6v0.6c-1.3,0-1.7,0.1-1.7,1.2v10.5    c0,0.9,0.5,1,1.2,1h0.7c2.7,0,3.6-0.4,4.4-3.5l0.5,0.1L180.6,195.4z M207.9,285h-1.6V61.7h1.6V285z M264.6,284.3h-33.9V284    l14.5-18.9c4.6-6,7.9-10,7.9-15.2c0-3.9-2.5-6.5-7.2-6.5c-5.4,0-10.6,3.4-13.9,6.5v-10.1c3.6-3.3,9.4-5.9,15.8-5.9    c9.6,0,15.8,5.7,15.8,14.7c0,6.5-4.2,12.4-9,18.8l-6.1,7.9h16.2V284.3z M288.8,285.1c-11.6,0-19.6-10.5-19.6-25.6    s7.9-25.6,19.6-25.6c11.6,0,19.6,10.5,19.6,25.6S300.4,285.1,288.8,285.1z M309.2,206.7h-6.7v-14.3c0-2.5-1.3-4.3-3.9-4.3    c-2,0-3.8,1.2-4.4,3.3v15.2h-6.7v-24.1h6.7v2.2c1.3-1.5,3.7-2.7,6.5-2.7c5.4,0,8.5,3.6,8.5,8.9V206.7z M307.5,132.6    c-2,0-3.8,1.2-4.4,3.3v15.2h-6.7v-24.1h6.7v2.2c1.3-1.5,3.7-2.7,6.5-2.7c5.4,0,8.5,3.6,8.5,8.9v15.7h-6.7v-14.3    C311.4,134.4,310.1,132.6,307.5,132.6z M345.3,284.3h-33.9V284l14.5-18.9c4.6-6,7.9-10,7.9-15.2c0-3.9-2.5-6.5-7.2-6.5    c-5.4,0-10.6,3.4-13.9,6.5v-10.1c3.6-3.3,9.4-5.9,15.8-5.9c9.6,0,15.8,5.7,15.8,14.7c0,6.5-4.2,12.4-9,18.8l-6.1,7.9h16.2V284.3z     M370.4,284.3h-10.1v-37.8l-11.6,5.7v-10.1l15.1-7.4h6.5V284.3z M370.4,206.7h-6.7v-35h6.7V206.7z M370.8,148.6    c0,8.8-6.5,12.1-13.1,12.1c-3.3,0-6.4-0.8-8.3-2V152c2.5,2.2,5.1,3,8.2,3c3.6,0,6.5-1.8,6.5-5.8v-0.8c-1.1,1.2-3.2,2.4-5.9,2.4    c-7,0-10.9-5.6-10.9-12.1c0-6.6,3.9-12.2,10.9-12.2c2.7,0,4.8,1.2,5.9,2.4v-1.9h6.7V148.6z M360.6,84c0-7.4,4.3-12.7,10.7-12.7    c6.5,0,9.8,4.7,9.8,11.7v1.5h-16.5c0.2,5.5,3.7,8.2,8,8.2c2.7,0,4.6-0.6,6.8-2.3v3.7c-1.9,1.5-4.4,2.1-7.3,2.1    C365.2,96.2,360.6,91.5,360.6,84z M390.8,188h-5.1v18.7H379V188h-4.6v-5.4h4.6v-6.5h6.7v6.5h5.1V188z M413.8,206.7h-6.4v-1.3    c-0.8,0.8-3.2,1.7-5.8,1.7c-4.8,0-8.9-2.8-8.9-7.8c0-4.6,4-7.7,9.3-7.7c2.1,0,4.4,0.7,5.4,1.4v-1.3c0-2.3-2-3.8-5.4-3.8    c-2.4,0-4.7,0.7-6.6,1.9v-5.8c1.7-1.1,4.9-2,8-2c6.6,0,10.3,3.4,10.3,9.3V206.7z M411.8,132.6c-1.7,0-3.3,1.1-3.8,3.1v15.5h-6.7    v-24.1h6.7v2c1.2-1.5,3.4-2.5,6.1-2.5c2.9,0,5.1,1.3,6.5,3.1c1.6-1.7,3.9-3.1,7.3-3.1c5,0,7.9,3.4,7.9,8.9v15.7h-6.7v-14.3    c0-2.6-1.1-4.3-3.4-4.3c-1.7,0-3.3,1.1-3.7,3.1v15.5h-6.7v-14.3C415.2,134.3,414.1,132.6,411.8,132.6z M441,206.7h-6.7v-14.3    c0-2.5-1.3-4.3-3.9-4.3c-2,0-3.8,1.2-4.4,3.3v15.2h-6.7v-24.1h6.7v2.2c1.3-1.5,3.7-2.7,6.5-2.7c5.4,0,8.5,3.6,8.5,8.9V206.7z     M461.1,188H456v18.7h-6.7V188h-4.6v-5.4h4.6v-6.5h6.7v6.5h5.1V188z M461.8,140.7h-15.5c0.5,3.9,3.4,5.5,7,5.5    c2.6,0,4.5-0.6,6.9-2.1v5.5c-2,1.5-4.7,2.1-7.9,2.1c-7.3,0-12.3-4.7-12.3-12.4c0-7.5,4.7-12.8,11.3-12.8c7,0,10.6,4.8,10.6,12    V140.7z M459.1,75.1c-2.8,0-5.2,1.9-6.1,4.5v16.2h-4V71.8h4v3c1.4-1.9,4-3.5,7.1-3.5c5.4,0,8.4,3.5,8.4,8.7v15.7h-4.1v-15    C464.4,77.4,462.7,75.1,459.1,75.1z M472.4,207.2c-3.2,0-6.5-0.9-8.5-2.4v-6.2c2.3,2.1,5.7,3.3,8.3,3.3c2,0,3.6-0.6,3.6-2    c0-1.3-1.1-1.8-2.7-2.4l-2.3-0.6c-4.2-1.1-6.8-3.1-6.8-7.3c0-4.7,4-7.5,9.4-7.5c3.1,0,5.5,0.8,7.7,2.2v6.1c-2.2-1.7-4.6-3-7.4-3    c-1.8,0-3.2,0.7-3.2,2c0,1.3,0.9,1.7,2.6,2.3l2.7,0.8c4.6,1.3,6.7,3.4,6.7,7.3C482.3,204.6,478.1,207.2,472.4,207.2z M487.8,151.2    h-6.7v-14.3c0-2.5-1.3-4.3-3.9-4.3c-2,0-3.8,1.2-4.4,3.3v15.2h-6.7v-24.1h6.7v2.2c1.3-1.5,3.7-2.7,6.5-2.7c5.4,0,8.5,3.6,8.5,8.9    V151.2z M507.9,132.5h-5.1v18.7h-6.7v-18.7h-4.6v-5.4h4.6v-6.5h6.7v6.5h5.1V132.5z"/>
		<path class="st0" d="M394.3,92.8c2.5,0,4.9-1.2,5.5-3v-2.5c-0.6-1.8-3-3-5.5-3c-2.9,0-5.7,1.3-5.7,4.1    C388.6,91.4,391.4,92.8,394.3,92.8z"/>
		<path class="st0" d="M386.5,131.9c-2.2,0-4.1,1.4-4.8,4.4h9.1C390.6,133.8,389.2,131.9,386.5,131.9z"/>
		<path class="st0" d="M451.3,131.9c-2.2,0-4.1,1.4-4.8,4.4h9.1C455.4,133.8,454,131.9,451.3,131.9z"/>
	</g>
	<g>
		<path class="st0" d="M97.9,79.7v20.8h6.1c6.6,0,7-1.1,7.5-6.3h1.9v15.2h-1.9c-0.5-5.2-0.8-6.2-7.5-6.2h-6.1v18    c0,3.7,1,4.5,7.8,4.5v2.3H81.8v-2.3c5,0,6.7-0.3,6.7-4.3V83.8c0-4-1.8-4.3-6.7-4.3v-2.3h31.8c4.3,0,5.8-0.2,7.1-0.4v15.7h-2.1    c-1.1-10.9-3.3-12.8-13-12.8H97.9z"/>
		<path class="st0" d="M164.2,77.2c4.3,0,5.8-0.2,7.1-0.4v15.7h-2.1c-1.1-10.9-3.3-12.8-13-12.8h-2.7v41.5c0,3.9,1.5,4.5,7.8,4.5    v2.3h-25.1v-2.3c6.3,0,7.9-0.6,7.9-4.5V79.7h-2.7c-9.7,0-11.9,1.8-13,12.8h-2.1V76.8c1.3,0.3,2.9,0.4,7.1,0.4H164.2z"/>
	</g>
</g>
</svg>
