<?xml version="1.0" encoding="utf-8"?>
<!-- Generator: Adobe Illustrator 26.3.1, SVG Export Plug-In . SVG Version: 6.00 Build 0)  -->
<svg version="1.1" id="Layer_1" xmlns="http://www.w3.org/2000/svg" xmlns:xlink="http://www.w3.org/1999/xlink" x="0px" y="0px"
	 viewBox="0 0 500 132.1" style="enable-background:new 0 0 500 132.1;" xml:space="preserve">
<style type="text/css">
	.st0{fill:#FFFFFF;}
	.st1{fill:#FCD0B1;}
	.st2{fill:#333333;}
	.st3{fill:#0A2A42;}
</style>
<g>
	<g>
		<rect x="5.5" y="5.5" class="st0" width="488.7" height="121.1"/>
		<path class="st1" d="M494.5,5.5v121.1H5.5V5.5H494.5 M500,0h-5.5H5.5H0v5.5v121.1v5.5h5.5h489h5.5v-5.5V5.5V0L500,0z"/>
	</g>
	<g>
		<line class="st2" x1="184.6" y1="25.9" x2="184.6" y2="106.1"/>
		<rect x="183.7" y="25.9" class="st2" width="1.8" height="80.2"/>
	</g>
	<g>
		<g>
			<rect x="25.8" y="25.9" class="st1" width="40" height="40"/>
			<g>
				<path class="st2" d="M36.1,32.3v7.4h2.2c2.4,0,2.5-0.4,2.7-2.3h0.7v5.4H41c-0.2-1.9-0.3-2.2-2.7-2.2h-2.2v6.5
					c0,1.3,0.4,1.6,2.8,1.6v0.8h-8.6v-0.8c1.8,0,2.4-0.1,2.4-1.5V33.8c0-1.4-0.6-1.5-2.4-1.5v-0.8h11.4c1.5,0,2.1-0.1,2.6-0.2v5.6
					h-0.8c-0.4-3.9-1.2-4.6-4.7-4.6H36.1z"/>
				<path class="st2" d="M59.8,31.4c1.5,0,2.1-0.1,2.6-0.1v5.6h-0.8c-0.4-3.9-1.2-4.6-4.7-4.6h-1v14.9c0,1.4,0.5,1.6,2.8,1.6v0.8h-9
					v-0.8c2.3,0,2.8-0.2,2.8-1.6V32.3h-1c-3.5,0-4.3,0.7-4.7,4.6h-0.8v-5.6c0.5,0.1,1,0.1,2.6,0.1H59.8z"/>
			</g>
		</g>
		<g>
			<path class="st2" d="M76.7,41.4c0,0.8,0.2,1,1.8,1v0.5h-5.3v-0.5c1,0,1.4-0.1,1.4-1v-8.5c0-0.9-0.4-1-1.4-1v-0.5h7.3
				c1,0,1.3,0,1.6-0.1l0.1,3.2h-0.4c-0.2-2.4-0.8-2.6-3-2.6h-1.9v4.7h1.6c1.5,0,1.6-0.2,1.7-1.4h0.4v3.4H80
				c-0.1-1.2-0.2-1.4-1.7-1.4h-1.6V41.4z"/>
			<path class="st2" d="M83.2,42.9v-0.5c1,0,1.4-0.1,1.4-1v-8.5c0-0.9-0.4-1-1.4-1v-0.5h4.9v0.5c-1,0-1.4,0.1-1.4,1v8.5
				c0,0.9,0.4,1,1.4,1v0.5H83.2z"/>
			<path class="st2" d="M99.3,43.1l-7.9-9.8v8c0,0.9,0.6,1.1,1.7,1.1v0.5H89v-0.5c1.1,0,1.7-0.1,1.7-1.1v-8.9
				c-0.5-0.5-0.9-0.6-1.7-0.6v-0.5h3.7l6,7.8V33c0-0.9-0.6-1.1-1.7-1.1v-0.5h4.2v0.5c-1.1,0-1.7,0.1-1.7,1.1v10.1H99.3z"/>
			<path class="st2" d="M104.9,42.9h-4.2v-0.5c1.1,0,1.6-0.2,1.9-1.1l3.8-10h1l4,10.1c0.4,0.9,0.5,1,1.3,1v0.5h-4.8v-0.5
				c1.5,0,1.6-0.1,1.3-1l-1.2-3.1h-3.6l-1.1,3c-0.3,0.9,0.2,1.1,1.5,1.1V42.9z M104.8,37.7h3.1l-1.6-4.1L104.8,37.7z"/>
			<path class="st2" d="M123.7,43.1l-7.9-9.8v8c0,0.9,0.6,1.1,1.7,1.1v0.5h-4.1v-0.5c1,0,1.6-0.1,1.6-1.1v-8.8
				c-0.6-0.5-1-0.6-1.9-0.6v-0.5h3.9l6,7.8V33c0-0.9-0.6-1.1-1.7-1.1v-0.5h4.2v0.5c-1.1,0-1.7,0.1-1.7,1.1v10.1H123.7z"/>
			<path class="st2" d="M135.4,31.4h0.3l0.2,3.4l-0.4,0c-0.3-2-1.3-3-3.2-3c-2.1,0-3.8,1.8-3.8,4.6c0,3.6,2.3,5.6,4.6,5.6
				c1,0,2-0.3,2.8-1.3l0.3,0.3c-0.7,1-2.2,1.9-4.1,1.9c-2.9,0-5.8-2.2-5.8-5.8c0-3.5,2.7-6,5.9-6c1.5,0,2.4,0.7,2.8,0.7
				C135.1,31.9,135.3,31.7,135.4,31.4z"/>
			<path class="st2" d="M137.1,42.9v-0.5c1,0,1.4-0.1,1.4-1v-8.5c0-0.9-0.4-1-1.4-1v-0.5h4.9v0.5c-1,0-1.4,0.1-1.4,1v8.5
				c0,0.9,0.4,1,1.4,1v0.5H137.1z"/>
			<path class="st2" d="M146.7,42.9h-3.9v-0.5c0.9,0,1.3-0.2,1.7-1.1l3.8-10h1l4,10.1c0.4,0.9,0.5,1,1.3,1v0.5h-4.8v-0.5
				c1.5,0,1.6-0.1,1.3-1l-1.2-3.1h-3.6l-1.1,3c-0.3,0.9,0.2,1.1,1.5,1.1V42.9z M146.6,37.7h3.1l-1.6-4.1L146.6,37.7z"/>
			<path class="st2" d="M155.5,42.9v-0.5c1,0,1.4-0.1,1.4-1v-8.5c0-0.9-0.4-1-1.4-1v-0.5h4.9v0.5c-1,0-1.4,0.1-1.4,1v8.5
				c0,0.8,0.4,0.9,1,0.9h0.6c2.2,0,2.9-0.3,3.5-2.9l0.4,0.1l-0.4,3.4H155.5z"/>
		</g>
		<g>
			<path class="st2" d="M83.6,48.7l0.1,3.4h-0.4c-0.2-2.5-0.8-2.8-3-2.8h-0.7v9.4c0,0.9,0.3,1,1.8,1v0.5h-5.7v-0.5
				c1.4,0,1.8-0.1,1.8-1v-9.4h-0.7c-2.2,0-2.8,0.3-3,2.8h-0.4l0.1-3.4c0.3,0.1,0.6,0.1,1.6,0.1H82C83,48.8,83.3,48.8,83.6,48.7z"/>
			<path class="st2" d="M84.7,60.3v-0.5c1,0,1.4-0.1,1.4-1v-8.5c0-0.9-0.4-1-1.4-1v-0.5h4.9v0.5c-1,0-1.4,0.1-1.4,1v8.5
				c0,0.9,0.4,1,1.4,1v0.5H84.7z"/>
			<path class="st2" d="M104.5,48.8v0.5c-1,0-1.5,0.1-1.4,1l0.9,8.5c0.1,0.9,0.4,1,1.5,1v0.5h-4.9v-0.5c1,0,1.4-0.1,1.3-1l-0.9-9
				l-3.6,10.6h-0.2l-3.5-10.6l-0.9,9c-0.1,0.9,0.5,1,1.6,1v0.5h-3.8v-0.5c1,0,1.4-0.2,1.5-1l0.9-8.5c0.1-0.9-0.4-1-1.4-1v-0.5h4
				l2.4,7.9l2.6-7.9H104.5z"/>
			<path class="st2" d="M113.7,56.1h-0.4c-0.1-1.2-0.2-1.4-1.7-1.4h-1.7v4.2c0,0.8,0.4,0.9,1,0.9h0.9c2.2,0,2.9-0.3,3.5-2.9l0.4,0.1
				l-0.4,3.4h-9.1v-0.5c1,0,1.4-0.1,1.4-1v-8.5c0-0.9-0.4-1-1.4-1v-0.5h8.7l0,2.9h-0.4c-0.3-2-0.8-2.3-3.1-2.3h-1.7v4.7h1.7
				c1.5,0,1.6-0.2,1.7-1.4h0.4V56.1z"/>
			<path class="st2" d="M122.8,57.9c0-1-0.7-1.6-1.8-2.2l-1.8-0.9c-1.4-0.7-2.2-1.5-2.2-3c0-1.8,1.5-3.2,3.5-3.2
				c1.4,0,2.1,0.7,2.5,0.7c0.3,0,0.4-0.2,0.5-0.5h0.3L124,52l-0.4,0c-0.2-1.6-1.3-2.8-2.9-2.8c-1.2,0-2,0.7-2,1.7
				c0,1.1,0.8,1.5,1.7,2l1.6,0.8c1.5,0.8,2.5,1.6,2.5,3.1c0,2-1.7,3.5-3.9,3.5c-1.5,0-2.3-0.7-2.7-0.7c-0.3,0-0.4,0.2-0.5,0.6h-0.3
				l-0.2-3.4l0.4-0.1c0.3,2.1,1.8,3,3.3,3C121.8,59.9,122.8,59.3,122.8,57.9z"/>
		</g>
	</g>
	<g>
		<path class="st3" d="M32.2,95c-0.2-1.2-0.8-1.9-1.8-1.9c-0.8,0-1.4,0.4-1.4,1.2c0,2.3,5.8,3.3,5.8,7.7c0,2.7-1.8,4-4.4,4
			c-2.7,0-4.3-1.6-4.7-4.2l2.7-0.7c0.2,1.2,0.6,2.4,2.1,2.4c0.8,0,1.4-0.5,1.4-1.3c0-2.6-5.8-3.5-5.8-7.6c0-2.4,1.8-4,4.2-4
			c2.4,0,4.1,1.6,4.5,4L32.2,95z"/>
		<path class="st3" d="M36.1,93.4v-2.6h1.7v-4h3.1v4H43v2.6h-2.1v8.6c0,0.8,0.3,1.2,1.1,1.2h1v2.7c-0.4,0.1-0.8,0.2-1.6,0.2
			c-2.3,0-3.6-1.1-3.6-3.4v-9.3H36.1z"/>
		<path class="st3" d="M44.7,95.2c0.2-3,2.1-4.7,5-4.7c2.9,0,4.5,1.3,4.5,4v9.6c0,0.5,0.1,1.1,0.2,1.6h-3c0-0.4-0.1-0.8-0.2-1.2
			c-1.2,0.9-2.1,1.4-3.6,1.4c-2.1,0-3.2-1.4-3.2-3.4c0-3.3,2.2-5.1,6.6-6.8V95c0-1.2-0.5-1.9-1.5-1.9c-1.4,0-1.7,0.8-1.8,2.1H44.7z
			 M51.1,98.2c-2.8,1.6-3.5,2.6-3.5,3.9c0,1,0.5,1.4,1.4,1.4c0.9,0,1.6-0.6,2.1-1.4V98.2z"/>
		<path class="st3" d="M56.1,93.4v-2.6h1.7v-4H61v4H63v2.6H61v8.6c0,0.8,0.3,1.2,1.1,1.2h1v2.7c-0.4,0.1-0.8,0.2-1.6,0.2
			c-2.3,0-3.6-1.1-3.6-3.4v-9.3H56.1z"/>
		<path class="st3" d="M65.1,86.8h3.1v2.8h-3.1V86.8z M65.1,90.8h3.1v14.9h-3.1V90.8z"/>
		<path class="st3" d="M76.9,95c-0.2-1.2-0.8-1.9-1.8-1.9c-0.8,0-1.4,0.4-1.4,1.2c0,2.3,5.8,3.3,5.8,7.7c0,2.7-1.8,4-4.4,4
			c-2.7,0-4.3-1.6-4.7-4.2l2.7-0.7c0.2,1.2,0.6,2.4,2.1,2.4c0.8,0,1.4-0.5,1.4-1.3c0-2.6-5.8-3.5-5.8-7.6c0-2.4,1.8-4,4.2-4
			c2.4,0,4.1,1.6,4.5,4L76.9,95z"/>
		<path class="st3" d="M80.8,93.4v-2.6h1.7v-4h3.1v4h2.1v2.6h-2.1v8.6c0,0.8,0.3,1.2,1.1,1.2h1v2.7c-0.4,0.1-0.8,0.2-1.6,0.2
			c-2.3,0-3.6-1.1-3.6-3.4v-9.3H80.8z"/>
		<path class="st3" d="M89.4,95.2c0.2-3,2.1-4.7,5-4.7c2.9,0,4.5,1.3,4.5,4v9.6c0,0.5,0.1,1.1,0.2,1.6h-3c0-0.4-0.1-0.8-0.2-1.2
			c-1.2,0.9-2.1,1.4-3.6,1.4c-2.1,0-3.2-1.4-3.2-3.4c0-3.3,2.2-5.1,6.6-6.8V95c0-1.2-0.5-1.9-1.5-1.9c-1.4,0-1.7,0.8-1.8,2.1H89.4z
			 M95.8,98.2c-2.8,1.6-3.5,2.6-3.5,3.9c0,1,0.5,1.4,1.4,1.4c0.9,0,1.6-0.6,2.1-1.4V98.2z"/>
		<path class="st3" d="M123.5,86.8h-17.9c-0.4,0-0.7,0.3-0.7,0.7v12.2c0,0,0.1,0,0.1,0c0,0,2.9-0.1,4.1-0.7c1.5-0.8,2.7-2.4,2.7-2.4
			c0.3-0.4,0.6-0.9,0.7-1c0.1-0.1,0.2-0.3,0.2-0.3c0,0,0.1-0.2,0.2-0.3s0.4-0.5,0.7-0.9c0,0,1.7-2.5,4.2-3.8
			c2.7-1.4,6.2-1.2,6.2-1.2c0,0,0,0,0.1,0v-1.4C124.2,87.1,123.9,86.8,123.5,86.8 M119.9,93.9c-1.5,0.8-2.7,2.4-2.7,2.4
			c-0.3,0.4-0.6,0.9-0.7,1c-0.1,0.1-0.2,0.3-0.2,0.3c0,0-0.1,0.2-0.2,0.3c-0.1,0.1-0.4,0.5-0.7,0.9c0,0-1.7,2.5-4.2,3.8
			c-2.6,1.3-5.9,1.2-6.2,1.2v1.4c0,0.4,0.3,0.7,0.7,0.7h17.9c0.4,0,0.7-0.3,0.7-0.7V93.2c-0.1,0-0.1,0-0.2,0
			C124,93.2,121.1,93.2,119.9,93.9"/>
	</g>
	<g>
		<path class="st2" d="M204.6,38.2V26.1h4.2v11.7c0,3.5,1.5,5.1,4.2,5.1c2.7,0,4.2-1.7,4.2-5.1V26.1h4.2v12.1c0,5.6-3.3,8.5-8.4,8.5
			C208,46.7,204.6,43.8,204.6,38.2z"/>
		<path class="st2" d="M229.4,34.8l7.4-8.7h5.1l-8.4,9.7l8.7,10.6H237l-7.6-9.2v9.2h-4.2V26.1h4.2V34.8z"/>
		<path class="st2" d="M245.4,30.6c-1.1-0.2-2-1.1-2-2.4c0-1.5,1.1-2.5,2.6-2.5c1.4,0,2.6,1,2.6,2.8c0,1-0.5,2.1-1.1,3l-1.8,2.7H243
			L245.4,30.6z"/>
		<path class="st2" d="M250.4,40.8c1.8,1.4,4.1,2.2,6.5,2.2c2.1,0,3.6-0.6,3.6-2.2c0-1.3-0.9-1.8-2.4-2.4l-3-1c-3-1-5-2.5-5-5.9
			c0-3.8,3.2-5.8,7.2-5.8c2.5,0,4.5,0.6,6.1,1.6v4.1c-1.8-1.3-3.7-2.1-6-2.1c-1.8,0-3.2,0.6-3.2,2c0,1.3,0.8,1.8,2.2,2.2l3.2,1.1
			c3.4,1.2,5,3,5,6c0,4-3.4,6-7.7,6c-2.7,0-5.1-0.8-6.5-1.7V40.8z"/>
		<path class="st2" d="M274.8,26.1h4.2v16.6h9.5v3.7h-13.7V26.1z"/>
		<path class="st2" d="M305.4,26.1v3.7h-9.6v4.4h8.7v3.6h-8.7v4.8h9.6v3.7h-13.8V26.1H305.4z"/>
		<path class="st2" d="M319.3,26.1l7.8,20.3h-4.3l-1.8-4.9h-7.6l-1.8,4.9h-4.2l7.8-20.3H319.3z M314.7,37.9h5l-2.5-6.7L314.7,37.9z"
			/>
		<path class="st2" d="M329.6,26.1h7.2c6.1,0,10,4,10,10.1s-3.9,10.1-10,10.1h-7.2V26.1z M336.6,42.6c3.9,0,6-2.5,6-6.4
			c0-4-2.1-6.4-6-6.4h-2.8v12.9H336.6z"/>
		<path class="st2" d="M354,46.3h-4.2V26.1h4.2V46.3z"/>
		<path class="st2" d="M375,46.3h-3.3l-9.6-13.5v13.5H358V26.1h4l9,12.8V26.1h4.1V46.3z"/>
		<path class="st2" d="M391.5,41.9v-3.1h-3.4v-3.5h7.3v8.5c-2,2-4.7,2.9-7.3,2.9c-6.1,0-10-4.3-10-10.4c0-6.3,4.4-10.5,10.4-10.5
			c2.3,0,4.4,0.6,5.8,1.7v4.2c-1.7-1.3-3.5-2-5.8-2c-3.6,0-6.2,2.6-6.2,6.6c0,3.9,2.2,6.7,5.9,6.7C389.4,42.9,390.6,42.6,391.5,41.9
			z"/>
		<path class="st2" d="M214.9,71.8l-5.9-8.7v13.1h-4.1V55.9h3.9l6.1,9.6l6.1-9.6h3.9v20.3h-4.2V63.1l-5.8,8.7H214.9z"/>
		<path class="st2" d="M239.4,55.9l7.8,20.3h-4.3l-1.8-4.9h-7.6l-1.8,4.9h-4.2l7.8-20.3H239.4z M234.8,67.7h5l-2.5-6.7L234.8,67.7z"
			/>
		<path class="st2" d="M266.7,76.2h-3.3l-9.6-13.5v13.5h-4.1V55.9h4l9,12.8V55.9h4.1V76.2z"/>
		<path class="st2" d="M281.2,55.9l7.8,20.3h-4.3l-1.8-4.9h-7.6l-1.8,4.9h-4.2l7.8-20.3H281.2z M276.6,67.7h5l-2.5-6.7L276.6,67.7z"
			/>
		<path class="st2" d="M303.1,71.7v-3.1h-3.4v-3.5h7.3v8.5c-2,2-4.7,2.9-7.3,2.9c-6.1,0-10-4.3-10-10.4c0-6.3,4.4-10.5,10.4-10.5
			c2.3,0,4.4,0.6,5.8,1.7v4.2c-1.7-1.3-3.5-2-5.8-2c-3.6,0-6.2,2.6-6.2,6.6c0,3.9,2.2,6.7,5.9,6.7C301,72.7,302.2,72.4,303.1,71.7z"
			/>
		<path class="st2" d="M324.2,55.9v3.7h-9.6V64h8.7v3.6h-8.7v4.8h9.6v3.7h-13.8V55.9H324.2z"/>
		<path class="st2" d="M337.5,71.8l-5.8-8.7v13.1h-4.1V55.9h3.9l6.1,9.6l6.1-9.6h3.9v20.3h-4.2V63.1l-5.8,8.7H337.5z"/>
		<path class="st2" d="M365.4,55.9v3.7h-9.6V64h8.7v3.6h-8.7v4.8h9.6v3.7h-13.8V55.9H365.4z"/>
		<path class="st2" d="M385.7,76.2h-3.3l-9.6-13.5v13.5h-4.1V55.9h4l9,12.8V55.9h4.1V76.2z"/>
		<path class="st2" d="M388.6,55.9h17.3v3.7h-6.5v16.6h-4.3V59.6h-6.5V55.9z"/>
		<path class="st2" d="M214,85.4c2.2,0,4,0.6,5.3,1.6v4.3c-1.6-1.4-3.2-2-5.1-2c-3.6,0-6,2.6-6,6.6c0,4,2.4,6.6,6,6.6
			c1.9,0,3.5-0.6,5.1-2v4.3c-1.3,1-3.1,1.6-5.3,1.6c-5.9,0-10.1-4.2-10.1-10.5S208.1,85.4,214,85.4z"/>
		<path class="st2" d="M231,106.3c-5.7,0-9.6-4.4-9.6-10.5c0-6.1,3.9-10.5,9.6-10.5c5.6,0,9.6,4.4,9.6,10.5
			C240.6,101.9,236.6,106.3,231,106.3z M231,89.1c-3.2,0-5.3,2.7-5.3,6.7c0,4,2.1,6.7,5.3,6.7c3.2,0,5.4-2.7,5.4-6.7
			C236.3,91.9,234.2,89.1,231,89.1z"/>
		<path class="st2" d="M260.4,106H257l-9.6-13.5V106h-4.1V85.7h4l9,12.8V85.7h4.1V106z"/>
		<path class="st2" d="M263.4,100.4c1.8,1.4,4.1,2.2,6.5,2.2c2,0,3.6-0.6,3.6-2.2c0-1.3-0.9-1.8-2.4-2.4l-3-1c-3-1-5-2.5-5-5.9
			c0-3.8,3.2-5.8,7.2-5.8c2.5,0,4.5,0.6,6.1,1.6v4.1c-1.8-1.3-3.7-2.1-6-2.1c-1.8,0-3.2,0.6-3.2,2c0,1.3,0.8,1.8,2.2,2.2l3.2,1.1
			c3.4,1.2,5,3,5,6c0,4-3.4,6-7.7,6c-2.7,0-5.1-0.8-6.5-1.7V100.4z"/>
		<path class="st2" d="M280.1,97.8V85.7h4.2v11.7c0,3.5,1.5,5.1,4.2,5.1c2.7,0,4.2-1.7,4.2-5.1V85.7h4.2v12.1c0,5.6-3.3,8.5-8.4,8.5
			C283.5,106.3,280.1,103.4,280.1,97.8z"/>
		<path class="st2" d="M300.4,85.7h4.2v16.6h9.5v3.7h-13.7V85.7z"/>
		<path class="st2" d="M312.8,85.7h17.3v3.7h-6.5V106h-4.3V89.4h-6.5V85.7z"/>
		<path class="st2" d="M341.1,85.7l7.8,20.3h-4.3l-1.8-4.9h-7.6l-1.8,4.9h-4.2l7.8-20.3H341.1z M336.5,97.5h5l-2.5-6.7L336.5,97.5z"
			/>
		<path class="st2" d="M368.2,106h-3.3l-9.6-13.5V106h-4.1V85.7h4l9,12.8V85.7h4.1V106z"/>
		<path class="st2" d="M370.8,85.7h17.3v3.7h-6.5V106h-4.3V89.4h-6.5V85.7z"/>
		<path class="st2" d="M390.1,100.4c1.8,1.4,4.1,2.2,6.5,2.2c2,0,3.6-0.6,3.6-2.2c0-1.3-0.9-1.8-2.4-2.4l-3-1c-3-1-5-2.5-5-5.9
			c0-3.8,3.2-5.8,7.2-5.8c2.5,0,4.5,0.6,6.1,1.6v4.1c-1.8-1.3-3.7-2.1-6-2.1c-1.8,0-3.2,0.6-3.2,2c0,1.3,0.8,1.8,2.2,2.2l3.2,1.1
			c3.4,1.2,5,3,5,6c0,4-3.4,6-7.7,6c-2.7,0-5.1-0.8-6.5-1.7V100.4z"/>
		<path class="st2" d="M426.4,102.3v3.7h-13.9v-0.1l5.9-7.7c1.9-2.4,3.2-4.1,3.2-6.2c0-1.6-1-2.6-2.9-2.6c-2.2,0-4.3,1.4-5.7,2.6
			v-4.1c1.5-1.4,3.8-2.4,6.4-2.4c3.9,0,6.4,2.3,6.4,6c0,2.7-1.7,5.1-3.7,7.7l-2.5,3.2H426.4z"/>
		<path class="st2" d="M428.1,95.9c0-6.2,3.2-10.5,8-10.5c4.8,0,8,4.3,8,10.5s-3.2,10.5-8,10.5C431.4,106.3,428.1,102,428.1,95.9z
			 M432.3,95.9c0,3.8,1.1,6.7,3.9,6.7c2.7,0,3.9-2.9,3.9-6.7s-1.2-6.7-3.9-6.7C433.4,89.1,432.3,92.1,432.3,95.9z"/>
		<path class="st2" d="M459.1,102.3v3.7h-13.9v-0.1l5.9-7.7c1.9-2.4,3.2-4.1,3.2-6.2c0-1.6-1-2.6-2.9-2.6c-2.2,0-4.3,1.4-5.7,2.6
			v-4.1c1.5-1.4,3.8-2.4,6.4-2.4c3.9,0,6.4,2.3,6.4,6c0,2.7-1.7,5.1-3.7,7.7l-2.5,3.2H459.1z"/>
		<path class="st2" d="M474.2,102.3v3.7h-13.9v-0.1l5.9-7.7c1.9-2.4,3.2-4.1,3.2-6.2c0-1.6-1-2.6-2.9-2.6c-2.2,0-4.3,1.4-5.7,2.6
			v-4.1c1.5-1.4,3.8-2.4,6.4-2.4c3.9,0,6.4,2.3,6.4,6c0,2.7-1.7,5.1-3.7,7.7l-2.5,3.2H474.2z"/>
	</g>
</g>
</svg>
