<?xml version="1.0" encoding="utf-8"?>
<!-- Generator: Adobe Illustrator 24.1.3, SVG Export Plug-In . SVG Version: 6.00 Build 0)  -->
<svg xmlns="http://www.w3.org/2000/svg" xmlns:xlink="http://www.w3.org/1999/xlink" version="1.1" id="Layer_1" x="0px" y="0px" viewBox="0 0 702.1 110" style="enable-background:new 0 0 702.1 110;" xml:space="preserve">
<style type="text/css">
	.st0{fill:#FFFFFF;}
</style>
<g>
	<path class="st0" d="M82.6,28.8h4l11.3-11.3l0.6-4.8C77.4-5.9,45.2-3.9,26.7,17.2c-5.2,5.8-8.9,12.8-11,20.3c1.3-0.5,2.7-0.6,4-0.2   l22.6-3.7c0,0,1.2-1.9,1.7-1.8C54.1,20.7,71,19.4,82.6,28.8L82.6,28.8z"/>
	<path class="st0" d="M114,37.5c-2.6-9.6-7.9-18.2-15.4-24.8L82.7,28.6c6.7,5.5,10.5,13.7,10.4,22.4v2.8c7.8,0,14.1,6.3,14.1,14.1   s-6.3,14.1-14.1,14.1H64.8L62,85v17l2.8,2.8h28.3c20.3,0.2,36.9-16.2,37-36.5C130.2,56,124.2,44.4,114,37.5z"/>
	<path class="st0" d="M36.5,104.6h28.3V82H36.5c-2,0-4-0.4-5.8-1.3l-4,1.2L15.3,93.2l-1,4C20.7,102,28.5,104.6,36.5,104.6z"/>
	<path class="st0" d="M36.5,31.2C16.2,31.3-0.1,47.9,0,68.2c0.1,11.3,5.4,22,14.3,28.9l16.4-16.4c-7.1-3.2-10.3-11.6-7.1-18.7   s11.6-10.3,18.7-7.1c3.1,1.4,5.6,3.9,7.1,7.1l16.4-16.4C58.9,36.5,48,31.1,36.5,31.2z"/>
	<path class="st0" d="M205.4,88.8c-9.8,0.1-19.3-3.8-26.2-10.8c-7.1-6.7-11.1-16.1-11-25.9c-0.1-9.8,3.9-19.2,11-25.9   c6.9-7.1,16.3-11,26.2-11c9.4-0.1,18.4,3.5,25.1,10.1l-7.1,7.2c-4.8-4.7-11.3-7.2-18.1-7.1c-7.1-0.1-13.8,2.8-18.7,7.9   c-5,5-7.8,11.8-7.7,18.9c-0.1,7,2.7,13.7,7.7,18.6c10.2,10.2,26.7,10.4,37.2,0.4c3.1-3.4,5-7.7,5.4-12.3h-23.8V48.8h33.7   c0.3,2,0.5,4.1,0.4,6.2c0.4,8.7-2.7,17.1-8.7,23.4C224.3,85.4,215,89.1,205.4,88.8z M283.8,82c-9.4,9-24.2,9-33.6,0   c-4.6-4.4-7-10.5-6.9-16.9c-0.2-6.3,2.3-12.5,6.9-16.9c9.4-9,24.2-9,33.6,0c4.5,4.4,7,10.5,6.9,16.9   C290.8,71.5,288.3,77.6,283.8,82L283.8,82z M257.6,75.4c4.9,5.2,13,5.5,18.2,0.6c0.2-0.2,0.4-0.4,0.6-0.6c2.7-2.7,4.1-6.4,4-10.2   c0.1-3.8-1.3-7.5-4-10.3c-5-5.2-13.3-5.4-18.5-0.4c-0.1,0.1-0.3,0.3-0.4,0.4c-2.7,2.8-4.1,6.5-4,10.3   C253.4,69,254.9,72.7,257.6,75.4L257.6,75.4z M335.5,82c-9.4,9-24.2,9-33.6,0c-4.6-4.4-7-10.5-6.9-16.9c-0.2-6.3,2.3-12.5,6.9-16.9   c9.4-9,24.2-9,33.6,0c4.5,4.4,7,10.5,6.9,16.9C342.5,71.5,340,77.6,335.5,82z M309.3,75.4c4.9,5.2,13,5.5,18.2,0.6   c0.2-0.2,0.4-0.4,0.6-0.6c2.7-2.7,4.1-6.4,4-10.2c0.1-3.8-1.3-7.5-4-10.3c-5-5.2-13.3-5.4-18.5-0.4c-0.1,0.1-0.3,0.3-0.4,0.4   c-2.7,2.8-4.1,6.5-4,10.3C305.1,69,306.6,72.7,309.3,75.4L309.3,75.4z M369.4,110c-4.8,0.2-9.4-1.3-13.2-4.2   c-3.4-2.5-6-5.9-7.7-9.8l9.1-3.8c1,2.3,2.5,4.3,4.5,5.9c2.1,1.7,4.7,2.6,7.4,2.5c3.5,0.2,6.8-1.1,9.2-3.6c2.4-2.9,3.6-6.6,3.3-10.3   v-3.4h-0.4c-3.1,3.6-7.7,5.6-12.4,5.4c-6,0-11.8-2.5-15.9-6.9c-4.4-4.4-6.9-10.4-6.8-16.6c-0.1-6.3,2.3-12.3,6.8-16.8   c4.1-4.4,9.8-7,15.9-6.9c2.5,0,5,0.6,7.3,1.6c2,0.9,3.7,2.2,5.2,3.8h0.4v-3.8h9.8v42.3c0.5,6.8-1.8,13.4-6.3,18.5   C381.3,108,375.4,110.2,369.4,110z M370.2,79.5c3.4,0.1,6.7-1.4,9-4c2.4-2.8,3.7-6.4,3.6-10.2c0.1-3.8-1.1-7.5-3.6-10.4   c-2.2-2.6-5.5-4.1-9-4c-3.5-0.1-6.9,1.4-9.3,4c-2.6,2.8-4.1,6.5-4,10.3c-0.1,3.8,1.3,7.4,4,10.2C363.2,78.1,366.6,79.5,370.2,79.5z    M409.4,18v69.4h-10.4V18L409.4,18z M437.8,88.8c-6.3,0.2-12.3-2.3-16.7-6.8c-4.4-4.5-6.9-10.5-6.7-16.8c-0.2-6.3,2.1-12.4,6.5-17   c4.1-4.3,9.9-6.8,15.9-6.6c2.7,0,5.4,0.5,7.9,1.5c2.3,0.9,4.3,2.3,6.1,4c1.5,1.4,2.8,3.1,4,4.8c0.9,1.5,1.7,3,2.3,4.6l1.1,2.7   l-31.8,13.1c2,4.5,6.5,7.4,11.4,7.1c4.8,0,9.2-2.5,11.6-6.6l7.9,5.4c-2,2.9-4.6,5.4-7.6,7.2C446.2,87.7,442.1,88.9,437.8,88.8z    M424.6,64.5l21.1-8.8c-0.7-1.5-1.8-2.8-3.3-3.6c-1.7-0.9-3.5-1.4-5.4-1.4c-3.2,0.1-6.3,1.4-8.5,3.8   C425.7,57,424.3,60.7,424.6,64.5z"/>
	<path class="st0" d="M512.4,88.8c-18.1,0.3-33-14.1-33.3-32.1c0-0.4,0-0.9,0-1.3c-0.4-18.1,13.9-33,31.9-33.5c0.4,0,0.9,0,1.3,0   c9-0.3,17.7,3.6,23.5,10.5l-5.7,5.6c-4.3-5.4-10.9-8.4-17.8-8.1c-6.6-0.1-13,2.4-17.7,7.1c-4.9,4.9-7.5,11.6-7.2,18.5   c-0.3,6.9,2.3,13.6,7.2,18.5c4.7,4.7,11.1,7.2,17.7,7.1c7.7,0.1,15-3.3,19.8-9.3l5.7,5.7c-3,3.6-6.8,6.4-11,8.4   C522.5,87.8,517.5,88.9,512.4,88.8z"/>
	<path class="st0" d="M553.4,87.4h-8.2V23.2h8.2V87.4z"/>
	<path class="st0" d="M566.8,48.8c9-8.9,23.4-8.9,32.4,0c4.3,4.5,6.5,10.5,6.4,16.7c0.2,6.2-2.1,12.2-6.4,16.7   c-9,8.9-23.4,8.9-32.4,0c-4.3-4.5-6.5-10.5-6.4-16.7C560.3,59.3,562.6,53.3,566.8,48.8z M572.9,77c5.3,5.6,14,5.8,19.6,0.5   c0.2-0.2,0.4-0.4,0.5-0.5c2.9-3.1,4.4-7.3,4.2-11.5c0.2-4.3-1.3-8.4-4.2-11.5c-5.3-5.6-14-5.8-19.6-0.5c-0.2,0.2-0.4,0.4-0.5,0.5   c-2.9,3.1-4.4,7.3-4.2,11.5C568.5,69.7,570.1,73.8,572.9,77L572.9,77z"/>
	<path class="st0" d="M651.1,87.4h-7.9v-6.1h-0.2c-1.4,2.3-3.4,4.2-5.8,5.5c-2.5,1.4-5.3,2.2-8.1,2.2c-4.7,0.3-9.3-1.5-12.5-5   c-3-3.8-4.5-8.6-4.2-13.4v-27h8.2V69c0,8.2,3.6,12.3,10.8,12.3c3.3,0.1,6.4-1.4,8.3-4c2.1-2.7,3.3-6,3.2-9.5V43.5h8.2V87.4z"/>
	<path class="st0" d="M679,88.8c-5.6,0-11-2.4-14.7-6.7c-4.1-4.5-6.3-10.5-6.2-16.6c-0.2-6.1,2-12.1,6.2-16.6   c3.7-4.3,9-6.7,14.7-6.7c3.1,0,6.2,0.7,9,2.1c2.4,1.2,4.5,3.1,6,5.4h0.4l-0.4-6.1V23.2h8.2v64.1h-7.9v-6.1h-0.4   c-1.5,2.3-3.5,4.1-6,5.4C685.2,88.1,682.1,88.8,679,88.8z M680.4,81.3c3.8,0.1,7.4-1.5,9.9-4.3c2.8-3.2,4.2-7.3,4-11.6   c0.2-4.2-1.2-8.4-4-11.6c-5-5.5-13.5-5.9-19-0.9c-0.3,0.3-0.6,0.6-0.9,0.9c-2.8,3.2-4.2,7.3-4,11.5c-0.3,4.2,1.2,8.4,4,11.5   C672.9,79.7,676.6,81.3,680.4,81.3z"/>
</g>
</svg>
