<?xml version="1.0" encoding="utf-8"?>
<!-- Generator: Adobe Illustrator 26.3.1, SVG Export Plug-In . SVG Version: 6.00 Build 0)  -->
<svg version="1.1" id="Layer_1" xmlns="http://www.w3.org/2000/svg" xmlns:xlink="http://www.w3.org/1999/xlink" x="0px" y="0px"
	 viewBox="0 0 300 162.9" style="enable-background:new 0 0 300 162.9;" xml:space="preserve">
<style type="text/css">
	.st0{fill:#1D1D1B;}
	.st1{fill:#23B9D6;}
	.st2{fill:#717E86;}
	.st3{fill:#E40059;}
</style>
<g>
	<g>
		<path class="st0" d="M0.6,120.7h9.3v2.9H4.1v4.8h5.5v2.8H4.1v8.5H0.6V120.7z"/>
		<path class="st0" d="M22.2,135.7c0,1.4-0.3,2.4-1,3.1c-1.1,1.2-2.9,1.4-4.2,1.4c-4.3,0-5.3-2.1-5.3-4.5V125c0-0.8,0-2.2,1-3.3
			c0.7-0.8,2.2-1.5,4.3-1.5c1.7,0,3.1,0.5,4,1.2c0.9,0.8,1.3,1.8,1.3,3.6V135.7z M18.7,125.3c0-1,0-2.4-1.7-2.4
			c-1.8,0-1.8,1.5-1.8,2.5v9.6c0,1.1,0.1,2.3,1.8,2.3s1.7-1.3,1.7-2.2V125.3z"/>
		<path class="st0" d="M25.7,120.7h7c3.4,0,3.4,2.3,3.4,4.1v2.1c0,2.4-0.8,2.9-2.5,3.2c0.8,0.2,2.6,0.7,2.6,3.3v3.9
			c0,1,0.1,2,0.8,2.6h-3.9c-0.4-0.7-0.5-1.5-0.5-2.1v-4.1c0-1.3,0-2.2-1.8-2.2h-1.7v8.4h-3.5V120.7z M29.2,128.6h1.8
			c1.6,0,1.6-0.9,1.6-1.8V125c0-1.6-0.8-1.6-1.6-1.6h-1.8V128.6z"/>
		<path class="st0" d="M52.3,126.8V125c0-0.9,0-2-1.6-2c-1.8,0-1.8,1.4-1.8,2.5v10.1c0,1.3,0.4,1.9,1.7,1.9c1.8,0,1.8-1.3,1.8-2.2
			v-3h-2.2v-2.9h5.7v10.3h-3v-1.1c-0.5,0.6-1.4,1.5-3.4,1.5c-1.7,0-4.1-0.7-4.1-3.9v-10.9c0-1.9,0.2-5.1,5.4-5.1
			c0.9,0,2.5,0.1,3.6,0.9c1.1,0.7,1.4,1.7,1.4,2.9v2.8H52.3z"/>
		<path class="st0" d="M59.5,120.7h7c3.4,0,3.4,2.3,3.4,4.1v2.1c0,2.4-0.8,2.9-2.5,3.2c0.8,0.2,2.6,0.7,2.6,3.3v3.9
			c0,1,0.1,2,0.8,2.6H67c-0.4-0.7-0.5-1.5-0.5-2.1v-4.1c0-1.3,0-2.2-1.8-2.2H63v8.4h-3.5V120.7z M63,128.6h1.8
			c1.6,0,1.6-0.9,1.6-1.8V125c0-1.6-0.8-1.6-1.6-1.6H63V128.6z"/>
		<path class="st0" d="M75.9,120.7h4l3.6,19.1h-3.6l-0.5-3.1h-3.2l-0.5,3.1h-3.5L75.9,120.7z M76.7,133.7h2.4l-1.2-8.2L76.7,133.7z"
			/>
		<path class="st0" d="M85.6,120.7h5.7c1.1,0,2.5,0,3.7,1.2c1,1,1.1,2.3,1.1,3.8v8.9c0,2.6-0.4,5.1-4.8,5.1h-5.6V120.7z M89.2,137
			c1.6,0,1.9,0,2.2-0.1c1.3-0.2,1.3-1.3,1.3-2v-9.5c0-1.7-0.6-1.9-2.1-1.9h-1.4V137z"/>
		<path class="st0" d="M99.5,120.7h3.5v14.2c0,1,0,2.3,1.6,2.3c1.6,0,1.6-1.2,1.6-2.3v-14.2h3.5v14.8c0,2.5-1.1,4.7-5.2,4.7
			c-3.3,0-5.1-1.6-5.1-4.8V120.7z"/>
		<path class="st0" d="M115.7,120.7h4l3.6,19.1h-3.6l-0.5-3.1H116l-0.5,3.1H112L115.7,120.7z M116.4,133.7h2.4l-1.2-8.2L116.4,133.7
			z"/>
		<path class="st0" d="M122.5,120.7H133v2.8h-3.5v16.3H126v-16.3h-3.5V120.7z"/>
		<path class="st0" d="M134.5,120.7h9.2v2.9H138v4.5h5.4v2.9H138v5.9h6v2.9h-9.5V120.7z"/>
		<path class="st0" d="M146.4,133h3.5v2.2c0,1.1,0,2.2,1.7,2.2c1.7,0,1.7-1.1,1.7-2.8c0-1.4-0.3-1.9-1.2-2.5l-3.4-2.2
			c-1.8-1.2-2.3-2.5-2.3-4.5c0-1.5,0.1-2.9,1.4-3.9c0.7-0.6,2-1.1,3.8-1.1c2.1,0,4.9,0.8,4.9,4.1v1.9h-3.5v-1.4c0-0.9,0-1.9-1.5-1.9
			c-0.9,0-1.6,0.4-1.6,1.9c0,1.6,0.4,1.9,1.1,2.5l3.5,2.4c0.7,0.5,1.4,1.2,1.8,1.9c0.5,0.9,0.5,1.5,0.5,3c0,1.7,0,2.8-0.6,3.8
			c-1.1,1.7-3.2,1.9-4.5,1.9c-3,0-5.3-1.1-5.3-4.4V133z"/>
		<path class="st0" d="M164.5,120.7h10.6v2.8h-3.5v16.3H168v-16.3h-3.5V120.7z"/>
		<path class="st0" d="M186.9,135.7c0,1.4-0.3,2.4-1,3.1c-1.1,1.2-2.9,1.4-4.2,1.4c-4.3,0-5.3-2.1-5.3-4.5V125c0-0.8,0-2.2,1-3.3
			c0.7-0.8,2.2-1.5,4.3-1.5c1.7,0,3.1,0.5,4,1.2c0.9,0.8,1.3,1.8,1.3,3.6V135.7z M183.4,125.3c0-1,0-2.4-1.7-2.4
			c-1.8,0-1.8,1.5-1.8,2.5v9.6c0,1.1,0.1,2.3,1.8,2.3s1.7-1.3,1.7-2.2V125.3z"/>
		<path class="st0" d="M195.2,120.7h3.6l1.9,14.4l2.1-14.4h3.3l2,14.4l2-14.4h3.6l-3.7,19.1h-3.7l-1.8-13l-2.1,13h-3.8L195.2,120.7z
			"/>
		<path class="st0" d="M226.3,135.7c0,1.4-0.3,2.4-1,3.1c-1.1,1.2-2.9,1.4-4.2,1.4c-4.3,0-5.3-2.1-5.3-4.5V125c0-0.8,0-2.2,1-3.3
			c0.7-0.8,2.2-1.5,4.3-1.5c1.7,0,3.1,0.5,4,1.2c0.9,0.8,1.3,1.8,1.3,3.6V135.7z M222.8,125.3c0-1,0-2.4-1.7-2.4
			c-1.8,0-1.8,1.5-1.8,2.5v9.6c0,1.1,0.1,2.3,1.8,2.3s1.7-1.3,1.7-2.2V125.3z"/>
		<path class="st0" d="M229.8,120.7h7c3.4,0,3.4,2.3,3.4,4.1v2.1c0,2.4-0.8,2.9-2.5,3.2c0.8,0.2,2.6,0.7,2.6,3.3v3.9
			c0,1,0.1,2,0.8,2.6h-3.9c-0.4-0.7-0.5-1.5-0.5-2.1v-4.1c0-1.3,0-2.2-1.8-2.2h-1.7v8.4h-3.5V120.7z M233.3,128.6h1.8
			c1.6,0,1.6-0.9,1.6-1.8V125c0-1.6-0.8-1.6-1.6-1.6h-1.8V128.6z"/>
		<path class="st0" d="M243.7,120.7h3.6v7.4l3.8-7.4h3.6l-4.3,8.2l4.5,10.8H251l-3.7-9.3v9.3h-3.6V120.7z"/>
		<path class="st0" d="M262.9,120.7h9.3v2.9h-5.8v4.8h5.5v2.8h-5.5v8.5h-3.5V120.7z"/>
		<path class="st0" d="M284.5,135.7c0,1.4-0.3,2.4-1,3.1c-1.1,1.2-2.9,1.4-4.2,1.4c-4.3,0-5.3-2.1-5.3-4.5V125c0-0.8,0-2.2,1-3.3
			c0.7-0.8,2.2-1.5,4.3-1.5c1.7,0,3.1,0.5,4,1.2c0.9,0.8,1.3,1.8,1.3,3.6V135.7z M281,125.3c0-1,0-2.4-1.7-2.4
			c-1.8,0-1.8,1.5-1.8,2.5v9.6c0,1.1,0.1,2.3,1.8,2.3c1.7,0,1.7-1.3,1.7-2.2V125.3z"/>
		<path class="st0" d="M288,120.7h7c3.4,0,3.4,2.3,3.4,4.1v2.1c0,2.4-0.8,2.9-2.5,3.2c0.8,0.2,2.6,0.7,2.6,3.3v3.9
			c0,1,0.1,2,0.8,2.6h-3.9c-0.4-0.7-0.5-1.5-0.5-2.1v-4.1c0-1.3,0-2.2-1.8-2.2h-1.7v8.4H288V120.7z M291.6,128.6h1.8
			c1.6,0,1.6-0.9,1.6-1.8V125c0-1.6-0.8-1.6-1.6-1.6h-1.8V128.6z"/>
	</g>
	<g>
		<path class="st1" d="M0.2,71.8h24.1v6.3h-8v37.3H8.2V78.1h-8V71.8z"/>
		<path class="st1" d="M51.2,106.1c0,3.2-0.6,5.4-2.3,7.2c-2.6,2.7-6.7,3.1-9.6,3.1c-9.8,0-12.2-4.7-12.2-10.2V81.7
			c0-1.9,0.1-5.1,2.3-7.5c1.7-1.8,4.9-3.3,9.9-3.3c4,0,7,1,9.1,2.7c2.2,1.8,2.9,4.1,2.9,8.3V106.1z M43.1,82.5c0-2.3,0-5.4-3.9-5.4
			c-4.1,0-4.1,3.3-4.1,5.7v22c0,2.5,0.1,5.3,4.1,5.3s4-3,4-5.1V82.5z"/>
		<path class="st1" d="M57.3,71.8h16.2c7.3,0,7.3,5.7,7.3,9.9v5.7c0,7-0.7,9.9-8.6,9.9h-6.8v18.2h-8.1V71.8z M65.4,91h3.9
			c3,0,3.6-0.6,3.6-3.9v-4.4c0-3,0-4.4-3.6-4.4h-4V91z"/>
		<path class="st1" d="M107.9,87.8v-5.6c0-3.3-0.6-5.1-4.1-5.1c-3.5,0-3.7,2.8-3.7,4.8v23.3c0,2.6,0.4,4.9,4,4.9
			c3.8,0,3.8-2.7,3.8-5.4v-5.7h8v6.2c0,3.5,0,11.1-11.9,11.1c-2.3,0-5.9-0.4-8.5-2.1c-3.5-2.3-3.5-5.7-3.5-8.1V82.5
			c0-3.5,0.2-5.9,2.2-8.1c3.1-3.4,8.1-3.5,9.8-3.5c11.9,0,11.9,7,11.9,10.1v6.7H107.9z"/>
		<path class="st1" d="M145.8,106.1c0,3.2-0.6,5.4-2.3,7.2c-2.6,2.7-6.7,3.1-9.6,3.1c-9.8,0-12.2-4.7-12.2-10.2V81.7
			c0-1.9,0.1-5.1,2.3-7.5c1.7-1.8,4.9-3.3,9.9-3.3c4,0,7,1,9.1,2.7c2.2,1.8,2.9,4.1,2.9,8.3V106.1z M137.7,82.5c0-2.3,0-5.4-3.9-5.4
			c-4.1,0-4.1,3.3-4.1,5.7v22c0,2.5,0.1,5.3,4.1,5.3s4-3,4-5.1V82.5z"/>
		<path class="st1" d="M151.9,71.8h13l5.2,30.5l5.1-30.5h12.9v43.6h-8l0.7-37.8l-7,37.8h-7.5l-7.2-37.8l0.6,37.8h-7.9V71.8z"/>
		<path class="st1" d="M193.4,71.8h16.2c7.3,0,7.3,5.7,7.3,9.9v5.7c0,7-0.7,9.9-8.6,9.9h-6.8v18.2h-8.1V71.8z M201.5,91h3.9
			c3,0,3.6-0.6,3.6-3.9v-4.4c0-3,0-4.4-3.6-4.4h-4V91z"/>
		<path class="st1" d="M225.7,71.8h9.2l8.1,43.6h-8.1l-1-7.1h-7.4l-1.2,7.1h-8L225.7,71.8z M227.4,101.6h5.6l-2.7-18.7L227.4,101.6z
			"/>
		<path class="st1" d="M271.9,115.4h-10.1L254,82.8l0.7,32.7h-7.5V71.8h10.3l7.8,32l-0.8-32h7.3V115.4z"/>
		<path class="st1" d="M274.3,71.8h8.5l4.4,22l4.3-22h8.5l-8.7,30.7v12.9H283V102L274.3,71.8z"/>
	</g>
	<g>
		<rect x="0.2" y="144.4" class="st2" width="110.1" height="18.5"/>
		<g>
			<path class="st3" d="M118.3,150.7h-2.9v-2.2c0-0.8,0-2.1,1.2-3.1c1.1-0.9,2.5-0.9,3.2-0.9c1.9,0,3.8,0.7,4.3,2.6
				c0,0.1,0.2,1.1,0.2,1.9v1.8c0,1.9-0.5,2.6-2.6,4.7c-2.8,2.8-3.1,3.1-3.2,4.5h6v2.7H115c0-4.7,1.5-6.3,3.3-8
				c2.7-2.7,2.9-2.8,2.9-4.2v-2.1c0-0.5-0.1-1.6-1.3-1.6c-1.4,0-1.5,1-1.5,1.7V150.7z"/>
			<path class="st3" d="M126.9,149.1c0-1.2,0.1-2.1,0.7-3.1c0.9-1.3,2.4-1.7,3.8-1.7c4.6,0,4.6,3.3,4.6,4.4v9.7c0,1-0.2,2.4-1.3,3.3
				c-1.1,1-2.5,1-3.2,1c-4.6,0-4.6-3.1-4.6-4.4V149.1z M130,158.7c0,0.4,0,1.7,1.4,1.7c1.5,0,1.5-1.2,1.5-1.9v-9.8c0-0.9,0-2-1.4-2
				c-1.5,0-1.5,1.1-1.5,1.9V158.7z"/>
			<path class="st3" d="M141.1,150.7h-2.9v-2.2c0-0.8,0-2.1,1.2-3.1c1.1-0.9,2.5-0.9,3.2-0.9c1.9,0,3.8,0.7,4.3,2.6
				c0,0.1,0.2,1.1,0.2,1.9v1.8c0,1.9-0.5,2.6-2.6,4.7c-2.8,2.8-3.1,3.1-3.2,4.5h6v2.7h-9.5c0-4.7,1.5-6.3,3.3-8
				c2.7-2.7,2.9-2.8,2.9-4.2v-2.1c0-0.5-0.1-1.6-1.3-1.6c-1.4,0-1.5,1-1.5,1.7V150.7z"/>
			<path class="st3" d="M151.7,150.7h-2.9v-2.2c0-0.8,0-2.1,1.2-3.1c1.1-0.9,2.5-0.9,3.2-0.9c1.9,0,3.8,0.7,4.3,2.6
				c0,0.1,0.2,1.1,0.2,1.9v1.8c0,1.9-0.5,2.6-2.6,4.7c-2.8,2.8-3.1,3.1-3.2,4.5h6v2.7h-9.5c0-4.7,1.5-6.3,3.3-8
				c2.7-2.7,2.9-2.8,2.9-4.2v-2.1c0-0.5-0.1-1.6-1.3-1.6c-1.4,0-1.5,1-1.5,1.7V150.7z"/>
			<path class="st3" d="M162.2,143.5h2.6l-3.5,19.1h-2.7L162.2,143.5z"/>
			<path class="st3" d="M168.9,150.7h-2.9v-2.2c0-0.8,0-2.1,1.2-3.1c1.1-0.9,2.5-0.9,3.2-0.9c1.9,0,3.8,0.7,4.3,2.6
				c0,0.1,0.2,1.1,0.2,1.9v1.8c0,1.9-0.5,2.6-2.6,4.7c-2.8,2.8-3.1,3.1-3.2,4.5h6v2.7h-9.5c0-4.7,1.5-6.3,3.3-8
				c2.7-2.7,2.9-2.8,2.9-4.2v-2.1c0-0.5-0.1-1.6-1.3-1.6c-1.4,0-1.5,1-1.5,1.7V150.7z"/>
			<path class="st3" d="M179.5,150h-3v-2.2c0-1.1,0.5-2.1,1.4-2.6c0.9-0.6,2.2-0.8,3.1-0.8c4.2,0,4.4,3.1,4.4,3.6v2.1
				c0,1.9-0.6,2.5-2.6,2.8c2.1,0.4,2.7,0.7,2.7,3.1v2.7c0,3.2-2.4,4.1-4.5,4.1c-3,0-4.6-1.6-4.6-3.7v-2.2h3.1v1.9
				c0,0.5,0,1.6,1.5,1.6c0.9,0,1.4-0.4,1.4-1.5v-2.7c0-2.1-0.8-2.2-3-2.2v-2.1c2.1,0,2.9-0.3,2.9-2.2v-1.4c0-0.6,0-1.6-1.4-1.6
				c-1.4,0-1.4,1-1.4,1.3V150z"/>
		</g>
		<rect x="190.2" y="144.3" class="st2" width="109.6" height="18.5"/>
	</g>
	<g>
		<path class="st1" d="M195.9,33.6c-4.7,0-8.1,3.8-8.1,9.5c0,6.5,4,10.1,8.5,10.1c5.5,0,8.2-4.8,8-10
			C204.2,38,201.2,33.6,195.9,33.6z"/>
		<path class="st1" d="M100.9,31.6c-4.4,0-6.9,4.4-6.8,11.6c0.1,7,2.4,10.8,6.7,10.7c4.3,0,6.7-4.2,6.6-11.3
			C107.3,35.7,104.9,31.6,100.9,31.6z"/>
		<path class="st1" d="M61.4,30.9c-4.7,0-7.4,4.4-7.3,12c0.1,7.9,2.7,12.2,7.4,12.1c4.7,0,7.4-4.5,7.3-12.1
			C68.8,35.4,66,30.9,61.4,30.9z"/>
		<path class="st1" d="M69.2,11c-0.3-0.3-0.8-0.5-1.2-0.5c-0.6,0-1,0.3-1.2,0.5c-0.3,0.4-0.4,0.8-0.5,1.1h3.4
			C69.7,11.9,69.6,11.4,69.2,11z"/>
		<path class="st1" d="M0,0v67.9h300V0H0z M68.1,8.8c0.5,0,1.9,0.1,3,1.2c1.1,1.2,1.2,2.8,1.2,3.7h-6c0,1,0.6,2.1,1.9,2.1
			c1.3,0,1.8-0.9,2.1-1.5l1.9,0.9c-0.3,0.4-0.6,0.8-1,1.2c-0.7,0.7-1.8,1.2-3.1,1.2c-2.5,0-4.2-1.6-4.2-4.3
			C63.8,11.4,64.8,8.8,68.1,8.8z M54.7,6.1h2.5V10c0.4-0.4,1.1-1.1,2.4-1.1c0.6,0,1.3,0.2,1.8,0.6c0.7,0.6,0.9,1.4,0.9,2.5v5.5h-2.4
			v-4.4c0-0.7,0-1-0.1-1.3C59.4,11,58.8,11,58.5,11c-0.4,0-0.8,0.2-1,0.5c-0.3,0.4-0.3,1.1-0.3,1.8v4.2h-2.5V6.1z M45.1,6.1h8.7v2.2
			h-2.9v9.1H48V8.4h-2.9V6.1z M36.4,56.4c-2.7,3-7.1,4.7-12,4.7c-7.6,0.1-13.1-4-13.1-9.9c0-4.1,2.8-7.2,6.5-7.3
			c3.3,0,5.8,2.2,5.8,5.4c0,2.5-1,3.7-4.3,5.1c1,1,1.6,1.2,3.5,1.2c4.2,0,5-1.4,4.9-8.7l-0.2-21.5c0-2.4-1-3.2-3.8-3.2l-4.6,0l0-6.3
			h19.7v9.4l0.3,21.5C39.2,51.3,38.4,54.2,36.4,56.4z M61.4,60.5c-11.1,0.1-18.2-6.4-18.3-16.7c0-0.3,0-0.6,0-1
			c0.4-10.9,7-17.4,18-17.5c11.4-0.1,18.5,6.4,18.6,17.1C79.9,53.6,72.9,60.4,61.4,60.5z M103.7,60.1c-5.3,0-8.9-1.7-11.1-5.8
			l-1.8,4.8l-6.9,0.1V32.6V17.3h-2.3V14h12.4v2.6v0.7v4.8v7.8c3.2-3.6,5.8-4.9,10-4.9c8.7-0.1,14.2,6.4,14.3,16.8
			C118.4,53.3,113,60,103.7,60.1z M155.7,53.9c-2.9,3.4-7.6,6.4-14.3,6.4c-11,0-19.3-8-19.3-21.8c0-14.1,9.1-21.6,19.6-21.6
			c12.9,0,15.9,9.9,16.9,12.8l-7.7,2.1c-0.1-0.8-0.5-2.5-1.5-4.1c-0.9-1.3-3.2-3.6-7.4-3.6c-6.7,0-11.4,5.6-11.4,14.4
			c0,9.4,5,14.6,11.5,14.6c3.9,0,6.2-1.9,7.9-4c1.3-1.8,1.9-3.3,2.2-4.3l7.3,3C158.7,49,157.7,51.4,155.7,53.9z M179.5,34.8
			c-1.6,0.1-4.5,0.1-6.8,1.9c-3.2,2.4-3.3,5.7-3.3,10.9v11.6h-7.3V27.8h7.3v4.5c0.9-1.6,3-5.3,10-5.2V34.8z M196.3,60.1
			c-9.8,0-16.3-7.2-16.3-16.8c0-9.6,6.7-16.5,16-16.5c8.7,0,16.2,6.1,16.3,16.5C212.2,53.2,205.7,60.1,196.3,60.1z M248.1,59.2h-7.5
			l-5.7-20l-6,20h-7.4l-9.1-31.4h7.9l5.5,21.5l5.8-21.5h6.7l5.8,21.5l5.6-21.5h7.8L248.1,59.2z M287.9,59.2h-7.5v-3
			c-2.3,2.8-5.5,4-8.7,4c-7.5,0-13.9-5.6-13.9-16c0-9.4,5.3-17.3,14.3-17.3c3.1,0,6,0.9,8.4,3.5V16h7.5V59.2z"/>
		<path class="st1" d="M273.1,33.8c-5.1,0-7.5,4.6-7.5,9.5c0,0.6,0.1,10,7.4,10c3.9,0,7.4-2.9,7.3-9.7c-0.1-2-0.3-4.9-1.7-7
			C277.5,35,275.7,33.8,273.1,33.8z"/>
	</g>
</g>
</svg>
