<?xml version="1.0" encoding="utf-8"?>
<!-- Generator: Adobe Illustrator 24.1.3, SVG Export Plug-In . SVG Version: 6.00 Build 0)  -->
<svg xmlns="http://www.w3.org/2000/svg" xmlns:xlink="http://www.w3.org/1999/xlink" version="1.1" id="Layer_1" x="0px" y="0px" viewBox="0 0 640 286" style="enable-background:new 0 0 640 286;" xml:space="preserve">
<style type="text/css">
	.st0{fill:#FFFFFF;}
	.st1{fill:none;stroke:#FFFFFF;stroke-width:0.4;stroke-miterlimit:10;}
</style>
<g>
	<g>
		<path class="st0" d="M47.3,57.6h-5.4V26.4c0-2.5,0.2-5.5,0.5-9h-0.1c-0.3,1.5-0.8,3-1.4,4.5L25,57.6h-2.6L6.5,22.1    c-0.6-1.5-1.1-3.1-1.4-4.8H5c0.2,1.9,0.3,4.9,0.3,9.1v31.2H0V11.1h7.2l14.2,32.4c0.8,1.8,1.5,3.7,2.1,5.6h0.2    c1.1-3,1.8-4.9,2.2-5.7l14.5-32.3h6.8V57.6"/>
		<path class="st0" d="M62.3,57.6h-5.3V24.4h5.3V57.6 M63.3,12.5c0,0.9-0.4,1.8-1,2.5c-1.4,1.3-3.5,1.3-4.9,0c-0.7-0.7-1-1.6-1-2.5    c0-0.9,0.3-1.8,1-2.4c0.6-0.7,1.5-1,2.5-1c0.9,0,1.8,0.3,2.5,1C62.9,10.7,63.3,11.6,63.3,12.5"/>
		<path class="st0" d="M93.7,56.1c-2.8,1.6-5.9,2.4-9.1,2.3c-2.8,0-5.7-0.7-8.1-2.1c-2.4-1.4-4.3-3.4-5.6-5.9    c-1.4-2.7-2.1-5.6-2-8.6c-0.2-4.9,1.5-9.6,4.7-13.2c3.3-3.4,7.8-5.2,12.5-5c2.7-0.1,5.3,0.5,7.7,1.7v5.4c-2.3-1.7-5.1-2.6-7.9-2.6    c-3.2-0.1-6.3,1.3-8.4,3.7c-2.2,2.7-3.4,6.1-3.2,9.5c-0.2,3.3,0.9,6.6,3.1,9.2c2.1,2.3,5.1,3.5,8.2,3.4c3,0,5.8-1,8.1-2.9    L93.7,56.1"/>
		<path class="st0" d="M117.3,29.8c-3.3-2.1-7.7-1.1-9.8,2.3c-1.6,2.6-2.3,5.6-2.2,8.6v16.9h-5.3V24.4h5.3v6.8h0.1    c0.6-2.1,1.8-4,3.4-5.4c1.4-1.3,3.3-2,5.3-2c1.1,0,2.1,0.1,3.2,0.5L117.3,29.8"/>
		<path class="st0" d="M145.2,41.1c0.2-3.4-0.8-6.8-2.8-9.6c-2-2.3-4.9-3.5-7.9-3.3c-3.1-0.1-6,1.1-8.1,3.4c-2.1,2.7-3.2,6.2-3,9.6    c-0.2,3.4,0.9,6.7,3,9.3c2.1,2.3,5,3.5,8.1,3.4c3,0.2,5.9-1,7.9-3.3C144.5,47.8,145.4,44.4,145.2,41.1 M150.6,40.9    c0.2,4.7-1.4,9.2-4.5,12.7c-3.1,3.3-7.5,5-12,4.8c-4.4,0.2-8.7-1.5-11.7-4.7c-3-3.4-4.6-7.8-4.4-12.3c0-5.5,1.5-9.8,4.5-13    c3.2-3.3,7.8-5,12.4-4.8c4.3-0.2,8.6,1.5,11.5,4.6C149.2,31.3,150.6,35.5,150.6,40.9"/>
		<path class="st0" d="M175.3,48.7c0.1,2.7-1.2,5.3-3.3,7c-2.5,1.9-5.6,2.9-8.8,2.7c-2.9,0.1-5.7-0.6-8.2-2v-5.7    c2.4,2,5.4,3.2,8.6,3.2c4.2,0,6.3-1.5,6.3-4.6c0-1.1-0.4-2.3-1.2-3.1c-1.7-1.3-3.6-2.4-5.6-3.2c-2.3-0.9-4.5-2.2-6.2-4    c-2.9-3.9-2.3-9.4,1.5-12.6c2.4-1.9,5.3-2.9,8.4-2.8c2.4,0,4.9,0.5,7.1,1.6v5.4c-2.2-1.6-4.8-2.4-7.5-2.4c-1.5-0.1-3,0.4-4.2,1.3    c-1,0.8-1.6,2-1.6,3.3c-0.1,1.3,0.4,2.5,1.2,3.4c1.5,1.2,3.2,2.1,5.1,2.8c2.5,0.9,4.7,2.3,6.6,4.2    C174.7,44.7,175.3,46.7,175.3,48.7"/>
		<path class="st0" d="M206,41.1c0.2-3.4-0.8-6.8-2.8-9.6c-2-2.3-4.9-3.5-7.9-3.3c-3.1-0.1-6,1.1-8.1,3.4c-2.1,2.7-3.2,6.2-3,9.6    c-0.2,3.4,0.9,6.7,3,9.3c2.1,2.3,5,3.5,8.1,3.4c3,0.2,5.9-1,7.9-3.3C205.2,47.8,206.2,44.5,206,41.1 M211.4,40.9    c0.2,4.7-1.4,9.2-4.5,12.7c-3.1,3.3-7.5,5-12,4.8c-4.4,0.2-8.7-1.5-11.7-4.7c-3-3.4-4.6-7.8-4.4-12.3c0-5.5,1.5-9.8,4.5-13    c3.2-3.3,7.8-5,12.4-4.8c4.3-0.2,8.6,1.5,11.5,4.6C210,31.3,211.4,35.5,211.4,40.9"/>
		<path class="st0" d="M233.1,13.1c-1.1-0.6-2.3-0.9-3.5-0.9c-3.7,0-5.6,2.3-5.6,7v5.1h7.8v4.5H224v28.7h-5.3V28.9h-5.6v-4.5h5.6V19    c-0.1-3,0.9-5.9,3-8.2c2-2.1,4.7-3.2,7.6-3.1c1.3-0.1,2.6,0.1,3.8,0.6L233.1,13.1"/>
		<path class="st0" d="M252.4,57.3c-1.5,0.8-3.3,1.1-5,1.1c-5.8,0-8.7-3.3-8.7-9.8V28.9H233v-4.5h5.7v-8.1l5.3-1.7v9.8h8.3v4.5H244    v18.7c-0.1,1.7,0.2,3.3,1.1,4.7c1,1,2.4,1.6,3.8,1.4c1.2,0,2.4-0.3,3.4-1.1L252.4,57.3"/>
		<path class="st0" d="M77.2,89.3c0-6.2-3.6-9.2-10.9-9.2h-6.4v19.1h5.7c3.1,0.2,6.1-0.7,8.6-2.5C76.2,94.7,77.3,92,77.2,89.3     M82.8,89c0.2,4.1-1.5,8.1-4.6,10.9c-3.4,2.9-7.7,4.3-12.2,4.1h-6.1v17.6h-5.4V75.1h12.7c4.9,0,8.8,1.2,11.5,3.6    C81.6,81.4,83.1,85.1,82.8,89"/>
		<path class="st0" d="M105.2,104.8l-8,1.1c-2.1,0.1-4,0.8-5.8,2c-1.2,1.2-1.8,2.8-1.6,4.5c-0.1,1.5,0.6,3,1.8,4    c1.3,1,2.9,1.6,4.6,1.5c2.5,0.1,4.9-0.9,6.5-2.8c1.7-1.9,2.7-4.4,2.6-7V104.8 M110.5,121.6h-5.3v-5.2h-0.1c-2,3.8-5.9,6.1-10.2,6    c-2.8,0.1-5.5-0.8-7.7-2.6c-1.9-1.8-3-4.4-2.9-7c0-6.2,3.6-9.8,10.9-10.8l9.9-1.4c0-5.6-2.3-8.4-6.8-8.4c-4,0-7.8,1.4-10.8,4.1    v-5.4c1.5-1,3.2-1.7,5-2.1c2-0.6,4.1-1,6.3-1c7.8,0,11.7,4.1,11.7,12.4L110.5,121.6"/>
		<path class="st0" d="M136.1,93.8c-3.3-2.1-7.7-1.1-9.8,2.3c-1.6,2.6-2.3,5.6-2.2,8.6v16.9h-5.3V88.4h5.3v6.8h0.1    c0.6-2.1,1.8-4,3.4-5.4c1.4-1.3,3.3-2,5.3-2c1.1,0,2.1,0.1,3.2,0.5V93.8"/>
		<path class="st0" d="M160.8,121.3c-1.5,0.8-3.3,1.1-5,1.1c-5.8,0-8.7-3.3-8.7-9.8V92.9h-5.7v-4.5h5.7v-8.1l5.3-1.7v9.8h8.3v4.5    h-8.3v18.7c-0.1,1.7,0.2,3.3,1.1,4.7c1,1,2.4,1.6,3.8,1.4c1.2,0,2.4-0.3,3.4-1.1L160.8,121.3"/>
		<path class="st0" d="M195.6,121.6h-5.3v-18.9c0-7-2.6-10.5-7.7-10.5c-2.5,0-4.9,1-6.5,3c-1.8,2.1-2.7,4.8-2.6,7.6v18.9h-5.3V88.4    h5.3v5.5h0.1c2.1-4,6.3-6.5,10.9-6.3c3.2-0.2,6.3,1.1,8.3,3.6c2.1,2.9,3.1,6.5,2.9,10.1L195.6,121.6"/>
		<path class="st0" d="M224.9,101.8c0.1-2.6-0.7-5.1-2.2-7.1c-1.5-1.7-3.8-2.7-6.1-2.5c-2.4,0-4.7,0.9-6.3,2.7c-1.8,1.9-3,4.4-3.3,7    L224.9,101.8 M230.3,106.3H207c-0.1,3.1,0.9,6.2,3,8.6c2.1,2.1,4.9,3.1,7.8,3c3.7,0,7.3-1.3,10.2-3.6v5c-3.4,2.3-7.4,3.4-11.5,3.2    c-4.2,0.2-8.3-1.5-11-4.6c-2.7-3.1-4-7.3-4-12.7c0-3.1,0.6-6.2,2-9c1.2-2.6,3.1-4.8,5.5-6.3c2.3-1.5,5-2.3,7.8-2.2    c3.8-0.2,7.5,1.3,10,4.2c2.4,2.8,3.6,6.7,3.6,11.8L230.3,106.3"/>
		<path class="st0" d="M253.7,93.8c-3.3-2.1-7.7-1.1-9.8,2.3c-1.6,2.6-2.3,5.6-2.2,8.6v16.9h-5.3V88.4h5.3v6.8h0.1    c0.6-2.1,1.8-4,3.4-5.4c1.4-1.3,3.3-2,5.3-2c1.1,0,2.1,0.1,3.2,0.5V93.8"/>
	</g>
	<g>
		<path class="st0" d="M141.1,179.4l-1,2.9H140c-0.3-1-0.6-1.9-1-2.8l-5.5-13.7h-5.3v21.8h3.5v-13.4c0-0.8,0-1.8-0.1-3    c0-0.6-0.1-1-0.1-1.4h0.1c0.2,0.8,0.4,1.5,0.5,1.9l6.5,15.9h2.5l6.5-16.1c0.2-0.6,0.3-1.1,0.4-1.7h0.1c-0.1,1.6-0.2,3-0.2,3.9    v13.9h3.8v-21.8h-5.1L141.1,179.4"/>
		<polyline class="st0" points="155.3,187.6 159,187.6 159,175.8 159,171.9 155.3,171.9 155.3,179.6 155.3,187.6   "/>
		<path class="st0" d="M157.2,165.3c-0.6,0-1.1,0.2-1.6,0.6c-0.4,0.4-0.7,1-0.7,1.5c0,0.6,0.2,1.1,0.6,1.5c0.4,0.4,1,0.6,1.6,0.6    c0.6,0,1.1-0.2,1.6-0.6c0.4-0.4,0.7-0.9,0.7-1.5c0-0.6-0.2-1.1-0.6-1.5C158.4,165.5,157.8,165.3,157.2,165.3"/>
		<path class="st0" d="M172,171.8c-0.7-0.1-1.4-0.2-2.1-0.2c-1.6,0-3.1,0.3-4.5,1.1c-1.3,0.7-2.3,1.8-2.9,3c-0.7,1.4-1,2.9-1,4.5    c0,1.4,0.3,2.8,1,4c0.6,1.2,1.6,2.1,2.7,2.8c1.2,0.7,2.6,1,4,1c1.5,0,3.1-0.3,4.4-1l0,0v-3.4l-0.2,0.1c-0.5,0.4-1.2,0.7-1.8,0.9    c-0.6,0.2-1.2,0.3-1.8,0.3c-1.3,0.1-2.5-0.4-3.4-1.3c-0.9-1-1.3-2.4-1.3-3.7c-0.1-1.4,0.4-2.8,1.3-3.8c0.9-1,2.1-1.5,3.4-1.4    c1.3,0,2.5,0.4,3.5,1.2l0.2,0.1v-3.6l0,0C173.2,172.1,172.6,171.9,172,171.8"/>
		<path class="st0" d="M184.1,171.7c-0.9,0-1.8,0.3-2.5,0.9c-0.6,0.6-1.1,1.3-1.4,2.1h0v-2.7h-3.7v15.7h3.7v-8    c-0.1-1.2,0.3-2.3,0.9-3.3c0.5-0.8,1.4-1.3,2.4-1.3c0.4,0,0.7,0.1,1.1,0.2c0.3,0.1,0.6,0.2,0.9,0.3l0.2,0.1v-3.7l-0.1,0    C185.1,171.7,184.6,171.6,184.1,171.7"/>
		<path class="st0" d="M197,183.6c-0.8,0.9-1.9,1.4-3.1,1.3c-1.2,0.1-2.4-0.4-3.2-1.3c-0.8-1.1-1.2-2.4-1.1-3.8    c-0.1-1.4,0.3-2.8,1.1-3.9c0.8-0.9,1.9-1.4,3.1-1.4c1.2-0.1,2.3,0.4,3.1,1.3c0.8,1.1,1.2,2.5,1.1,3.8    C198.1,181.1,197.8,182.5,197,183.6 M194.1,171.5c-2.2-0.1-4.4,0.7-6.1,2.2c-1.5,1.7-2.3,3.9-2.2,6.1c-0.1,2.2,0.7,4.3,2.1,5.9    c1.5,1.5,3.6,2.3,5.7,2.2c2.2,0.1,4.4-0.7,6-2.3c1.5-1.7,2.3-3.8,2.2-6.1c0.1-2.2-0.6-4.3-2.1-5.9    C198.3,172.2,196.2,171.4,194.1,171.5"/>
		<path class="st0" d="M210,178.4c-0.8-0.3-1.5-0.7-2.2-1.1c-0.3-0.3-0.5-0.8-0.4-1.2c0-0.4,0.2-0.9,0.6-1.1c0.5-0.3,1-0.5,1.6-0.4    c0.6,0,1.3,0.1,1.9,0.3c0.6,0.2,1.1,0.4,1.6,0.8l0.2,0.1v-3.4l-0.1,0c-0.5-0.2-1.1-0.4-1.7-0.5c-0.6-0.1-1.2-0.2-1.8-0.2    c-1.5-0.1-3.1,0.4-4.3,1.3c-1.1,0.8-1.7,2.1-1.7,3.5c0,0.7,0.1,1.3,0.4,1.9c0.2,0.6,0.6,1.1,1.1,1.5c0.7,0.5,1.5,0.9,2.3,1.3    c0.6,0.3,1.3,0.5,1.9,0.9c0.3,0.2,0.6,0.4,0.8,0.7c0.2,0.3,0.2,0.6,0.2,0.9c0,1.1-0.8,1.6-2.4,1.6c-0.7,0-1.4-0.1-2-0.4    c-0.7-0.2-1.4-0.6-2.1-1.1l-0.2-0.1v3.6l0.1,0c0.6,0.3,1.3,0.5,2,0.6c0.7,0.2,1.4,0.2,2.1,0.2c1.6,0.1,3.2-0.4,4.5-1.3    c1.1-0.8,1.7-2.2,1.7-3.6c0-1-0.3-1.9-0.9-2.7C212.2,179.5,211.1,178.8,210,178.4"/>
		<path class="st0" d="M226.8,183.6c-0.8,0.9-1.9,1.4-3.1,1.3c-1.2,0.1-2.4-0.4-3.2-1.3c-0.8-1.1-1.2-2.4-1.1-3.8    c-0.1-1.4,0.3-2.8,1.1-3.9c0.8-0.9,1.9-1.4,3.1-1.4c1.2-0.1,2.3,0.4,3,1.3c0.8,1.1,1.2,2.5,1.1,3.8    C227.9,181.1,227.5,182.5,226.8,183.6 M223.8,171.5c-2.2-0.1-4.4,0.7-6.1,2.2c-1.5,1.7-2.3,3.9-2.2,6.1c-0.1,2.2,0.7,4.3,2.1,5.9    c1.5,1.5,3.6,2.3,5.7,2.2c2.2,0.1,4.4-0.7,6-2.3c1.5-1.7,2.3-3.8,2.2-6.1c0.1-2.2-0.6-4.3-2.1-5.9    C228,172.2,226,171.4,223.8,171.5"/>
		<path class="st0" d="M251.2,174.9v-3h-3.7v-4.7l-0.1,0l-3.5,1.1l-0.1,0v3.5h-5.5v-2c-0.1-0.7,0.2-1.5,0.6-2.1    c0.4-0.5,1.1-0.7,1.7-0.7c0.6,0,1.1,0.1,1.6,0.4l0.1,0.1v-3.2l-0.1,0c-0.7-0.2-1.4-0.3-2.1-0.3c-1,0-2,0.2-2.9,0.7    c-0.8,0.5-1.5,1.2-2,2c-0.5,0.9-0.7,1.9-0.7,2.9v2.2H232v3h2.6v12.6h3.7v-12.6h5.5v8c0,3.3,1.6,5,4.6,5c0.5,0,1.1-0.1,1.6-0.2    c0.4-0.1,0.8-0.2,1.1-0.4l0,0v-3l-0.2,0.1c-0.2,0.1-0.5,0.3-0.7,0.3c-0.2,0.1-0.5,0.1-0.7,0.1c-0.6,0.1-1.2-0.2-1.6-0.6    c-0.4-0.6-0.6-1.3-0.5-2v-7.4L251.2,174.9"/>
		<polyline class="st0" points="98.3,175.8 81,175.8 81,158.4 98.3,158.4 98.3,175.8   "/>
		<polyline class="st0" points="117.3,175.8 100.1,175.8 100.1,158.4 117.3,158.4 117.3,175.8   "/>
		<polyline class="st0" points="98.3,194.9 81,194.9 81,177.6 98.3,177.6 98.3,194.9   "/>
		<polyline class="st0" points="117.3,194.9 100.1,194.9 100.1,177.6 117.3,177.6 117.3,194.9   "/>
	</g>
	<line class="st1" x1="280" y1="0" x2="280" y2="286"/>
	<g id="Competencies_-_text">
		<path class="st0" d="M320.3,120.1c-1.6,0.6-3.2,0.9-4.9,0.9c-2.2,0.1-4.4-0.7-6-2.3c-1.5-1.8-2.3-4.1-2.2-6.4    c0-5.1,3.3-8.9,8.7-8.9c1.4,0,2.7,0.2,4,0.8l-0.5,1.8c-1.1-0.5-2.3-0.8-3.5-0.7c-3.9,0-6.4,2.6-6.4,6.9c0,4.4,2.5,6.9,6.2,6.9    c0.9,0.1,1.9-0.1,2.8-0.5v-5.1H315v-1.8h5.3L320.3,120.1z"/>
		<path class="st0" d="M334.9,114.6c0,4.6-2.9,6.6-5.7,6.6c-3.1,0-5.5-2.4-5.5-6.3c0-4.1,2.5-6.6,5.7-6.6    C332.7,108.3,334.9,110.8,334.9,114.6z M325.7,114.7c0,2.7,1.5,4.7,3.5,4.7c2,0,3.5-2,3.5-4.8c0-2.1-1-4.7-3.5-4.7    S325.8,112.4,325.7,114.7L325.7,114.7z"/>
		<path class="st0" d="M338.5,102.8h2.1v18.1h-2.1V102.8z"/>
		<path class="st0" d="M355.1,102.8v14.9c0,1.1,0,2.3,0.1,3.2h-1.9l-0.1-2.1h0c-0.7,1.5-2.3,2.5-3.9,2.4c-2.8,0-4.9-2.5-4.9-6.3    c0-4.1,2.4-6.6,5.2-6.6c1.4-0.1,2.8,0.7,3.5,1.9h0v-7.4H355.1z M353,113.6c0-0.3,0-0.6-0.1-0.9c-0.3-1.5-1.5-2.6-3-2.6    c-2.2,0-3.5,2-3.5,4.8c0,2.5,1.1,4.6,3.4,4.6c1.5,0,2.8-1.2,3.1-2.7c0.1-0.3,0.1-0.6,0.1-1L353,113.6z"/>
		<path class="st0" d="M365.1,103.9c1.5-0.2,2.9-0.4,4.4-0.4c2.4-0.2,4.7,0.6,6.5,2.1c1.6,1.7,2.4,3.9,2.3,6.2    c0.5,4.6-2.8,8.7-7.4,9.2c-0.7,0.1-1.3,0.1-2,0c-1.3,0-2.5-0.1-3.8-0.2L365.1,103.9z M367.2,119.1c0.7,0.1,1.4,0.1,2.1,0.1    c4.4,0,6.8-2.7,6.8-7.3c0-4.1-2.1-6.6-6.5-6.6c-0.8,0-1.6,0.1-2.4,0.2L367.2,119.1z"/>
		<path class="st0" d="M383.1,115.1c-0.3,2.1,1.2,4,3.3,4.3c0.2,0,0.4,0,0.6,0c1.1,0,2.2-0.2,3.2-0.6l0.4,1.6    c-1.2,0.5-2.5,0.8-3.8,0.8c-3.5,0-5.7-2.5-5.7-6.2c0-3.7,2-6.7,5.4-6.7c3.8,0,4.8,3.5,4.8,5.8c0,0.3,0,0.7-0.1,1L383.1,115.1z     M389.3,113.5c0-1.4-0.5-3.6-2.9-3.6c-2.1,0-3,2.1-3.2,3.6H389.3z"/>
		<path class="st0" d="M395.7,108.5l2.3,6.9c0.4,1.1,0.7,2.1,0.9,3.2h0.1c0.3-1,0.6-2,1-3.2l2.2-6.9h2.2l-4.5,12.3h-2l-4.4-12.3    H395.7z"/>
		<path class="st0" d="M421.1,112.1c0,5.9-3.4,9-7.4,9c-4.2,0-7.2-3.5-7.2-8.7c0-5.5,3.2-9,7.4-9C418.2,103.4,421.1,107,421.1,112.1    z M408.6,112.4c0,3.7,1.9,7,5.1,7c3.3,0,5.1-3.2,5.1-7.1c0-3.4-1.7-7-5.1-7C410.3,105.2,408.6,108.6,408.6,112.4z"/>
		<path class="st0" d="M424.7,112.6c0-1.6,0-2.9-0.1-4h1.9l0.1,2.1h0c0.8-1.5,2.4-2.4,4.1-2.4c2.8,0,4.9,2.5,4.9,6.3    c0,4.4-2.5,6.6-5.2,6.6c-1.4,0-2.8-0.7-3.5-1.9h0v6.7h-2.1V112.6z M426.8,115.9c0,0.3,0,0.6,0.1,0.9c0.3,1.5,1.6,2.6,3.1,2.6    c2.2,0,3.5-1.9,3.5-4.8c0-2.5-1.2-4.6-3.4-4.6c-1.6,0.1-2.9,1.2-3.2,2.8c-0.1,0.3-0.1,0.6-0.1,0.9L426.8,115.9z"/>
		<path class="st0" d="M438.9,118.6c0.8,0.6,1.8,0.9,2.8,0.9c1.5,0,2.2-0.8,2.2-1.8c0-1.1-0.6-1.7-2.1-2.3c-2.1-0.8-3-2-3-3.5    c0-2,1.6-3.6,3.7-3.6c0.1,0,0.2,0,0.3,0c1,0,2,0.3,2.8,0.8l-0.5,1.6c-0.7-0.5-1.5-0.7-2.4-0.7c-0.9-0.1-1.8,0.6-1.9,1.5    c0,0.1,0,0.1,0,0.2c0,1,0.7,1.5,2.2,2.1c2,0.8,3,1.9,3,3.7c0,2.2-1.6,3.7-4.3,3.7c-1.1,0-2.3-0.3-3.2-0.8L438.9,118.6z"/>
		<path class="st0" d="M320.3,88.1c-1.6,0.6-3.2,0.9-4.9,0.9c-2.2,0.1-4.4-0.7-6-2.3c-1.5-1.8-2.3-4.1-2.2-6.4    c0-5.1,3.3-8.9,8.7-8.9c1.4,0,2.7,0.2,4,0.8l-0.5,1.8c-1.1-0.5-2.3-0.8-3.5-0.7c-3.9,0-6.4,2.6-6.4,6.9c0,4.4,2.5,6.9,6.2,6.9    c0.9,0.1,1.9-0.1,2.8-0.5v-5.1H315v-1.8h5.3L320.3,88.1z"/>
		<path class="st0" d="M334.9,82.6c0,4.6-2.9,6.5-5.7,6.5c-3.1,0-5.5-2.4-5.5-6.3c0-4.1,2.5-6.6,5.7-6.6    C332.7,76.3,334.9,78.8,334.9,82.6z M325.7,82.7c0,2.7,1.5,4.7,3.5,4.7c2,0,3.5-2,3.5-4.8c0-2.1-1-4.7-3.5-4.7    S325.8,80.4,325.7,82.7L325.7,82.7z"/>
		<path class="st0" d="M338.5,70.8h2.1v18.1h-2.1V70.8z"/>
		<path class="st0" d="M355.1,70.8v14.9c0,1.1,0,2.3,0.1,3.2h-1.9l-0.1-2.1h0c-0.7,1.5-2.3,2.5-3.9,2.4c-2.8,0-4.9-2.5-4.9-6.3    c0-4.1,2.4-6.6,5.2-6.6c1.4-0.1,2.8,0.7,3.5,1.9h0v-7.4H355.1z M353,81.6c0-0.3,0-0.6-0.1-0.9c-0.3-1.5-1.5-2.6-3-2.6    c-2.2,0-3.5,2-3.5,4.8c0,2.5,1.1,4.6,3.4,4.6c1.5,0,2.8-1.2,3.1-2.7c0.1-0.3,0.1-0.6,0.1-1L353,81.6z"/>
		<path class="st0" d="M367.7,83.5l-1.7,5.4h-2.1l5.4-17.2h2.5l5.5,17.2h-2.2l-1.7-5.4H367.7z M372.9,81.7l-1.6-4.9    c-0.4-1.1-0.6-2.1-0.8-3.1h0c-0.2,1-0.5,2.1-0.8,3.1l-1.6,5L372.9,81.7z"/>
		<path class="st0" d="M380.5,80.6c0-1.6,0-2.9-0.1-4h1.9l0.1,2.1h0c0.8-1.5,2.4-2.4,4.1-2.4c2.8,0,4.9,2.5,4.9,6.3    c0,4.4-2.5,6.6-5.2,6.6c-1.4,0-2.8-0.7-3.5-1.9h0v6.7h-2.1L380.5,80.6z M382.6,83.8c0,0.3,0,0.6,0.1,0.9c0.3,1.5,1.6,2.6,3.1,2.6    c2.2,0,3.5-1.9,3.5-4.8c0-2.5-1.2-4.6-3.4-4.6c-1.6,0.1-2.9,1.2-3.2,2.8c-0.1,0.3-0.1,0.6-0.1,0.9L382.6,83.8z"/>
		<path class="st0" d="M395,80.6c0-1.6,0-2.9-0.1-4h1.9l0.1,2.1h0c0.8-1.5,2.4-2.4,4.1-2.4c2.8,0,4.9,2.5,4.9,6.3    c0,4.4-2.5,6.6-5.2,6.6c-1.4,0-2.8-0.7-3.5-1.9h0v6.7H395V80.6z M397.1,83.8c0,0.3,0,0.6,0.1,0.9c0.3,1.5,1.6,2.6,3.1,2.6    c2.2,0,3.5-1.9,3.5-4.8c0-2.5-1.2-4.6-3.4-4.6c-1.6,0.1-2.9,1.2-3.2,2.8c-0.1,0.3-0.1,0.6-0.1,0.9V83.8z"/>
		<path class="st0" d="M409.6,70.8h2.1v18.1h-2.1V70.8z"/>
		<path class="st0" d="M418.5,73.1c0.1,0.7-0.5,1.3-1.2,1.4c-0.1,0-0.1,0-0.2,0c-0.7,0-1.3-0.6-1.3-1.3c0,0,0,0,0-0.1    c0-0.7,0.5-1.4,1.2-1.4c0,0,0,0,0.1,0c0.7,0,1.3,0.6,1.3,1.3C418.5,73,418.5,73,418.5,73.1z M416.2,88.9V76.5h2.1v12.3H416.2z"/>
		<path class="st0" d="M430.9,88.4c-1,0.5-2.2,0.7-3.3,0.7c-3.5,0-5.7-2.5-5.7-6.3c-0.3-3.3,2.2-6.3,5.6-6.5c0.2,0,0.4,0,0.6,0    c1,0,2,0.2,2.9,0.6l-0.5,1.7c-0.7-0.4-1.6-0.6-2.4-0.6c-2.6,0-4.1,2.1-4.1,4.7c0,2.9,1.7,4.6,4,4.6c0.9,0,1.8-0.2,2.6-0.6    L430.9,88.4z"/>
		<path class="st0" d="M440.8,88.9l-0.2-1.5h-0.1c-0.8,1.2-2.1,1.9-3.5,1.8c-1.9,0.1-3.5-1.4-3.5-3.3c0-0.1,0-0.2,0-0.3    c0-3,2.5-4.6,6.9-4.6v-0.3c0.2-1.4-0.7-2.6-2.1-2.8c-0.2,0-0.4,0-0.5,0c-1.1,0-2.1,0.3-3,0.9l-0.5-1.5c1.1-0.7,2.4-1.1,3.8-1.1    c3.5,0,4.4,2.6,4.4,5v4.6c0,1,0,2,0.2,3L440.8,88.9z M440.5,82.6c-2.3-0.1-4.9,0.4-4.9,2.8c-0.1,1.1,0.6,2,1.7,2.1    c0.1,0,0.2,0,0.3,0c1.3,0,2.4-0.8,2.8-2.1c0.1-0.2,0.1-0.5,0.1-0.7L440.5,82.6z"/>
		<path class="st0" d="M449.3,73v3.5h3v1.7h-3v6.7c0,1.5,0.4,2.4,1.6,2.4c0.4,0,0.8,0,1.2-0.2l0.1,1.7c-0.6,0.2-1.2,0.3-1.9,0.3    c-0.9,0-1.7-0.3-2.3-0.9c-0.6-0.9-0.9-2.1-0.8-3.2v-6.7h-1.8v-1.7h1.8v-3L449.3,73z"/>
		<path class="st0" d="M458,73.1c0,0.7-0.5,1.3-1.2,1.4c-0.7,0-1.3-0.5-1.4-1.2c0,0,0-0.1,0-0.1c0-0.7,0.5-1.4,1.2-1.4    c0,0,0,0,0.1,0c0.7,0,1.3,0.6,1.3,1.3C458,73,458,73,458,73.1z M455.6,88.9V76.5h2.1v12.3H455.6z"/>
		<path class="st0" d="M472.6,82.6c0,4.6-2.9,6.5-5.7,6.5c-3.1,0-5.5-2.4-5.5-6.3c0-4.1,2.5-6.6,5.7-6.6    C470.4,76.3,472.6,78.8,472.6,82.6z M463.5,82.7c0,2.7,1.5,4.7,3.5,4.7c2,0,3.5-2,3.5-4.8c0-2.1-1-4.7-3.5-4.7    C464.5,77.9,463.5,80.4,463.5,82.7z"/>
		<path class="st0" d="M476.2,79.9c0-1.3,0-2.3-0.1-3.3h1.9l0.1,2h0c0.7-1.4,2.2-2.3,3.8-2.3c1.6,0,4.1,1,4.1,5.3v7.4h-2.1v-7.1    c0-2-0.7-3.6-2.7-3.6c-1.3,0.1-2.5,1-2.8,2.3c-0.1,0.3-0.1,0.7-0.1,1v7.4h-2.1V79.9z"/>
		<path class="st0" d="M498.6,71.7v17.2h-2.1V71.7H498.6z"/>
		<path class="st0" d="M503.4,79.9c0-1.3,0-2.3-0.1-3.3h1.9l0.1,2h0c0.7-1.4,2.2-2.3,3.8-2.3c1.6,0,4.1,1,4.1,5.3v7.4h-2.1v-7.1    c0-2-0.7-3.6-2.7-3.6c-1.3,0.1-2.5,1-2.8,2.3c-0.1,0.3-0.1,0.7-0.1,1v7.4h-2.1L503.4,79.9z"/>
		<path class="st0" d="M520,73v3.5h3v1.7h-3v6.7c0,1.5,0.4,2.4,1.6,2.4c0.4,0,0.8,0,1.2-0.2l0.1,1.7c-0.6,0.2-1.2,0.3-1.9,0.3    c-0.9,0-1.7-0.3-2.3-0.9c-0.6-0.9-0.9-2.1-0.8-3.2v-6.7h-1.8v-1.7h1.8v-3L520,73z"/>
		<path class="st0" d="M527.4,83.1c-0.3,2.1,1.2,4,3.3,4.3c0.2,0,0.4,0,0.6,0c1.1,0,2.2-0.2,3.2-0.6l0.4,1.6    c-1.2,0.5-2.5,0.8-3.8,0.8c-3.5,0-5.7-2.5-5.7-6.2c0-3.7,2-6.7,5.4-6.7c3.8,0,4.8,3.5,4.8,5.8c0,0.3,0,0.7-0.1,1L527.4,83.1z     M533.5,81.5c0-1.4-0.5-3.6-2.9-3.6c-2.1,0-3,2.1-3.2,3.6H533.5z"/>
		<path class="st0" d="M549.1,76.5c0,0.9-0.1,1.9-0.1,3.4v7.2c0,2.8-0.5,4.6-1.6,5.6c-1.1,1-2.7,1.6-4.2,1.5c-1.3,0-2.7-0.3-3.8-1    l0.5-1.7c1,0.6,2.2,1,3.4,1c2.1,0,3.7-1.2,3.7-4.3v-1.4h0c-0.7,1.3-2.2,2.1-3.7,2.1c-2.9,0-4.9-2.6-4.9-6c0-4.2,2.5-6.6,5.2-6.6    c1.5-0.1,2.9,0.8,3.6,2.1h0l0.1-1.9L549.1,76.5z M546.9,81.4c0-0.3,0-0.7-0.1-1c-0.3-1.4-1.5-2.3-2.9-2.4c-2,0-3.4,1.8-3.4,4.7    c0,2.4,1.1,4.4,3.4,4.4c1.4,0,2.5-1,2.9-2.3c0.1-0.4,0.2-0.8,0.2-1.2L546.9,81.4z"/>
		<path class="st0" d="M553.3,80.4c0-1.5,0-2.7-0.1-3.8h1.8l0.1,2.4h0.1c0.4-1.5,1.6-2.6,3.2-2.7c0.2,0,0.4,0,0.6,0.1v2.1    c-0.2-0.1-0.5-0.1-0.7-0.1c-1.5,0.1-2.7,1.3-2.8,2.9c-0.1,0.3-0.1,0.7-0.1,1v6.6h-2.1L553.3,80.4z"/>
		<path class="st0" d="M568.3,88.9l-0.2-1.5h-0.1c-0.8,1.2-2.1,1.9-3.5,1.8c-1.9,0.1-3.5-1.4-3.5-3.3c0-0.1,0-0.2,0-0.3    c0-3,2.5-4.6,6.9-4.6v-0.3c0.2-1.4-0.7-2.6-2.1-2.8c-0.2,0-0.4,0-0.6,0c-1.1,0-2.1,0.3-3,0.9l-0.5-1.5c1.1-0.7,2.4-1.1,3.8-1.1    c3.5,0,4.4,2.6,4.4,5v4.6c0,1,0,2,0.2,3L568.3,88.9z M568,82.6c-2.3-0.1-4.9,0.4-4.9,2.8c-0.1,1.1,0.6,2,1.7,2.1    c0.1,0,0.2,0,0.3,0c1.3,0,2.4-0.8,2.8-2.1c0.1-0.2,0.1-0.5,0.1-0.7V82.6z"/>
		<path class="st0" d="M576.8,73v3.5h3v1.7h-3v6.7c0,1.5,0.4,2.4,1.6,2.4c0.4,0,0.8,0,1.2-0.2l0.1,1.7c-0.6,0.2-1.2,0.3-1.9,0.3    c-0.9,0-1.7-0.3-2.3-0.9c-0.6-0.9-0.9-2.1-0.8-3.2v-6.7H573v-1.7h1.8v-3L576.8,73z"/>
		<path class="st0" d="M585.5,73.1c0.1,0.7-0.5,1.3-1.2,1.4c-0.1,0-0.1,0-0.2,0c-0.7,0-1.3-0.6-1.3-1.3c0,0,0,0,0-0.1    c0-0.7,0.5-1.4,1.2-1.4c0,0,0,0,0.1,0c0.7,0,1.3,0.6,1.3,1.3C585.5,73,585.5,73,585.5,73.1z M583.2,88.9V76.5h2.1v12.3H583.2z"/>
		<path class="st0" d="M600.2,82.6c0,4.6-2.9,6.5-5.7,6.5c-3.1,0-5.5-2.4-5.5-6.3c0-4.1,2.5-6.6,5.7-6.6    C597.9,76.3,600.2,78.8,600.2,82.6z M591,82.7c0,2.7,1.5,4.7,3.5,4.7c2,0,3.5-2,3.5-4.8c0-2.1-1-4.7-3.4-4.7    C592.1,77.9,591,80.4,591,82.7z"/>
		<path class="st0" d="M603.8,79.9c0-1.3,0-2.3-0.1-3.3h1.9l0.1,2h0c0.7-1.4,2.2-2.3,3.8-2.3c1.6,0,4.1,1,4.1,5.3v7.4h-2.1v-7.1    c0-2-0.7-3.6-2.7-3.6c-1.3,0.1-2.5,1-2.8,2.3c-0.1,0.3-0.1,0.7-0.1,1v7.4h-2.1L603.8,79.9z"/>
		<path class="st0" d="M320.3,56.1c-1.6,0.6-3.2,0.9-4.9,0.9c-2.2,0.1-4.4-0.7-6-2.3c-1.5-1.8-2.3-4.1-2.2-6.4    c0-5.1,3.3-8.9,8.7-8.9c1.4,0,2.7,0.2,4,0.8l-0.5,1.8c-1.1-0.5-2.3-0.8-3.5-0.7c-3.9,0-6.4,2.6-6.4,6.9c0,4.4,2.5,6.9,6.2,6.9    c0.9,0.1,1.9-0.1,2.8-0.5v-5.1H315v-1.8h5.3L320.3,56.1z"/>
		<path class="st0" d="M334.9,50.6c0,4.6-2.9,6.6-5.7,6.6c-3.1,0-5.5-2.4-5.5-6.3c0-4.1,2.5-6.6,5.7-6.6    C332.7,44.2,334.9,46.8,334.9,50.6z M325.7,50.7c0,2.7,1.5,4.7,3.5,4.7c2,0,3.5-2,3.5-4.8c0-2.1-1-4.7-3.5-4.7    S325.8,48.4,325.7,50.7L325.7,50.7z"/>
		<path class="st0" d="M338.5,38.8h2.1v18.1h-2.1V38.8z"/>
		<path class="st0" d="M355.1,38.8v14.9c0,1.1,0,2.3,0.1,3.2h-1.9l-0.1-2.1h0c-0.7,1.5-2.3,2.5-3.9,2.4c-2.8,0-4.9-2.5-4.9-6.3    c0-4.1,2.4-6.6,5.2-6.6c1.4-0.1,2.8,0.7,3.5,1.9h0v-7.4H355.1z M353,49.5c0-0.3,0-0.6-0.1-0.9c-0.3-1.5-1.5-2.6-3-2.6    c-2.2,0-3.5,2-3.5,4.8c0,2.5,1.1,4.6,3.4,4.6c1.5,0,2.8-1.2,3.1-2.7c0.1-0.3,0.1-0.6,0.1-1L353,49.5z"/>
		<path class="st0" d="M367.7,51.4l-1.7,5.4h-2.1l5.4-17.2h2.5l5.5,17.2h-2.2l-1.7-5.4H367.7z M372.9,49.7l-1.6-4.9    c-0.4-1.1-0.6-2.1-0.8-3.1h0c-0.2,1-0.5,2.1-0.8,3.1l-1.6,5L372.9,49.7z"/>
		<path class="st0" d="M380.5,48.5c0-1.6,0-2.9-0.1-4h1.9l0.1,2.1h0c0.8-1.5,2.4-2.4,4.1-2.4c2.8,0,4.9,2.5,4.9,6.3    c0,4.4-2.5,6.6-5.2,6.6c-1.4,0-2.8-0.7-3.5-1.9h0v6.7h-2.1L380.5,48.5z M382.6,51.8c0,0.3,0,0.6,0.1,0.9c0.3,1.5,1.6,2.6,3.1,2.6    c2.2,0,3.5-1.9,3.5-4.8c0-2.5-1.2-4.6-3.4-4.6c-1.6,0.1-2.9,1.2-3.2,2.8c-0.1,0.3-0.1,0.6-0.1,0.9L382.6,51.8z"/>
		<path class="st0" d="M395,48.5c0-1.6,0-2.9-0.1-4h1.9l0.1,2.1h0c0.8-1.5,2.4-2.4,4.1-2.4c2.8,0,4.9,2.5,4.9,6.3    c0,4.4-2.5,6.6-5.2,6.6c-1.4,0-2.8-0.7-3.5-1.9h0v6.7H395V48.5z M397.1,51.8c0,0.3,0,0.6,0.1,0.9c0.3,1.5,1.6,2.6,3.1,2.6    c2.2,0,3.5-1.9,3.5-4.8c0-2.5-1.2-4.6-3.4-4.6c-1.6,0.1-2.9,1.2-3.2,2.8c-0.1,0.3-0.1,0.6-0.1,0.9V51.8z"/>
		<path class="st0" d="M409.6,38.8h2.1v18.1h-2.1V38.8z"/>
		<path class="st0" d="M418.5,41c0.1,0.7-0.5,1.3-1.2,1.4c-0.1,0-0.1,0-0.2,0c-0.7,0-1.3-0.6-1.3-1.3c0,0,0,0,0-0.1    c0-0.7,0.5-1.4,1.2-1.4c0,0,0,0,0.1,0c0.7,0,1.3,0.6,1.3,1.3C418.5,41,418.5,41,418.5,41z M416.2,56.9V44.5h2.1v12.3H416.2z"/>
		<path class="st0" d="M430.9,56.4c-1,0.5-2.2,0.7-3.3,0.7c-3.5,0-5.7-2.5-5.7-6.3c-0.3-3.3,2.2-6.3,5.6-6.5c0.2,0,0.4,0,0.6,0    c1,0,2,0.2,2.9,0.6l-0.5,1.7c-0.7-0.4-1.6-0.6-2.4-0.6c-2.6,0-4.1,2.1-4.1,4.7c0,2.9,1.7,4.6,4,4.6c0.9,0,1.8-0.2,2.6-0.6    L430.9,56.4z"/>
		<path class="st0" d="M440.8,56.9l-0.2-1.5h-0.1c-0.8,1.2-2.1,1.9-3.5,1.8c-1.9,0.1-3.5-1.4-3.5-3.3c0-0.1,0-0.2,0-0.3    c0-3,2.5-4.6,6.9-4.6v-0.3c0.2-1.4-0.7-2.6-2.1-2.8c-0.2,0-0.4,0-0.5,0c-1.1,0-2.1,0.3-3,0.9l-0.5-1.5c1.1-0.7,2.4-1.1,3.8-1.1    c3.5,0,4.4,2.6,4.4,5v4.6c0,1,0,2,0.2,3L440.8,56.9z M440.5,50.6c-2.3-0.1-4.9,0.4-4.9,2.8c-0.1,1.1,0.6,2,1.7,2.1    c0.1,0,0.2,0,0.3,0c1.3,0,2.4-0.8,2.8-2.1c0.1-0.2,0.1-0.5,0.1-0.7L440.5,50.6z"/>
		<path class="st0" d="M449.3,41v3.5h3v1.7h-3v6.7c0,1.5,0.4,2.4,1.6,2.4c0.4,0,0.8,0,1.2-0.2l0.1,1.7c-0.6,0.2-1.2,0.3-1.9,0.3    c-0.9,0-1.7-0.3-2.3-0.9c-0.6-0.9-0.9-2.1-0.8-3.2v-6.7h-1.8v-1.7h1.8v-3L449.3,41z"/>
		<path class="st0" d="M458,41c0,0.7-0.5,1.3-1.2,1.4c-0.7,0-1.3-0.5-1.4-1.2c0-0.1,0-0.1,0-0.2c0-0.7,0.5-1.4,1.2-1.4    c0,0,0,0,0.1,0c0.7,0,1.3,0.6,1.3,1.3C458,41,458,41,458,41z M455.6,56.9V44.5h2.1v12.3H455.6z"/>
		<path class="st0" d="M472.6,50.6c0,4.6-2.9,6.6-5.7,6.6c-3.1,0-5.5-2.4-5.5-6.3c0-4.1,2.5-6.6,5.7-6.6    C470.4,44.2,472.6,46.8,472.6,50.6z M463.5,50.7c0,2.7,1.5,4.7,3.5,4.7c2,0,3.5-2,3.5-4.8c0-2.1-1-4.7-3.5-4.7    C464.5,45.9,463.5,48.4,463.5,50.7z"/>
		<path class="st0" d="M476.2,47.9c0-1.3,0-2.3-0.1-3.3h1.9l0.1,2h0c0.7-1.4,2.2-2.3,3.8-2.3c1.6,0,4.1,1,4.1,5.2v7.4h-2.1v-7.1    c0-2-0.7-3.6-2.7-3.6c-1.3,0.1-2.5,1-2.8,2.3c-0.1,0.3-0.1,0.7-0.1,1v7.4h-2.1V47.9z"/>
		<path class="st0" d="M496.5,39.9c1.5-0.2,2.9-0.4,4.4-0.4c2.4-0.2,4.7,0.6,6.5,2.1c1.6,1.7,2.4,3.9,2.3,6.2    c0.1,2.4-0.7,4.8-2.3,6.7c-1.9,1.8-4.5,2.7-7.1,2.5c-1.3,0-2.5-0.1-3.8-0.2L496.5,39.9z M498.6,55.1c0.7,0.1,1.4,0.1,2.1,0.1    c4.4,0,6.8-2.6,6.8-7.3c0-4.1-2.1-6.6-6.5-6.6c-0.8,0-1.6,0.1-2.4,0.2L498.6,55.1z"/>
		<path class="st0" d="M514.6,51.1c-0.3,2.1,1.2,4,3.3,4.3c0.2,0,0.4,0,0.6,0c1.1,0,2.2-0.2,3.2-0.6l0.4,1.6    c-1.2,0.5-2.5,0.8-3.8,0.8c-3.5,0-5.7-2.5-5.7-6.2c0-3.7,2-6.7,5.4-6.7c3.8,0,4.8,3.5,4.8,5.8c0,0.3,0,0.7-0.1,1L514.6,51.1z     M520.7,49.5c0-1.4-0.5-3.6-2.9-3.6c-2.1,0-3,2.1-3.2,3.6H520.7z"/>
		<path class="st0" d="M527.1,44.5l2.3,6.9c0.4,1.1,0.7,2.1,0.9,3.2h0.1c0.3-1,0.6-2,1-3.2l2.2-6.9h2.2l-4.5,12.3h-2l-4.4-12.3    L527.1,44.5z"/>
		<path class="st0" d="M539.7,51.1c-0.3,2.1,1.2,4,3.3,4.3c0.2,0,0.4,0,0.6,0c1.1,0,2.2-0.2,3.2-0.6l0.4,1.6    c-1.2,0.5-2.5,0.8-3.8,0.8c-3.5,0-5.7-2.5-5.7-6.2c0-3.7,2-6.7,5.4-6.7c3.8,0,4.8,3.5,4.8,5.8c0,0.3,0,0.7-0.1,1L539.7,51.1z     M545.8,49.5c0-1.4-0.5-3.6-2.9-3.6c-2.1,0-3,2.1-3.2,3.6H545.8z"/>
		<path class="st0" d="M551.4,38.8h2.1v18.1h-2.1V38.8z"/>
		<path class="st0" d="M568.5,50.6c0,4.6-2.9,6.6-5.7,6.6c-3.1,0-5.5-2.4-5.5-6.3c0-4.1,2.5-6.6,5.7-6.6    C566.2,44.2,568.5,46.8,568.5,50.6z M559.3,50.7c0,2.7,1.5,4.7,3.5,4.7c2,0,3.5-2,3.5-4.8c0-2.1-1-4.7-3.4-4.7    C560.4,45.9,559.3,48.4,559.3,50.7z"/>
		<path class="st0" d="M572.1,48.5c0-1.6,0-2.9-0.1-4h1.9l0.1,2.1h0c0.8-1.5,2.4-2.4,4.1-2.4c2.8,0,4.9,2.5,4.9,6.3    c0,4.4-2.5,6.6-5.2,6.6c-1.4,0-2.8-0.7-3.5-1.9h0v6.7h-2.1V48.5z M574.2,51.8c0,0.3,0,0.6,0.1,0.9c0.3,1.5,1.6,2.6,3.1,2.6    c2.2,0,3.5-1.9,3.5-4.8c0-2.5-1.2-4.6-3.4-4.6c-1.6,0.1-2.9,1.2-3.2,2.8c-0.1,0.3-0.1,0.6-0.1,0.9V51.8z"/>
		<path class="st0" d="M586.6,47.9c0-1.3,0-2.3-0.1-3.3h1.8l0.1,2h0.1c0.7-1.4,2.1-2.3,3.6-2.3c1.5,0,2.8,1,3.3,2.5h0    c0.3-0.6,0.8-1.2,1.3-1.6c0.7-0.6,1.6-0.9,2.5-0.9c1.5,0,3.8,1.1,3.8,5.4v7.3h-2v-7c0-2.4-0.8-3.8-2.5-3.8c-1.2,0.1-2.2,0.9-2.5,2    c-0.1,0.4-0.2,0.7-0.2,1.1v7.6h-2v-7.4c0-2-0.8-3.4-2.4-3.4c-1.3,0.1-2.3,1-2.6,2.2c-0.1,0.4-0.2,0.7-0.2,1.1v7.4h-2L586.6,47.9z"/>
		<path class="st0" d="M608.6,51.1c-0.3,2.1,1.2,4,3.3,4.3c0.2,0,0.4,0,0.6,0c1.1,0,2.2-0.2,3.2-0.6l0.4,1.6    c-1.2,0.5-2.5,0.8-3.8,0.8c-3.5,0-5.7-2.5-5.7-6.2c0-3.7,2-6.7,5.4-6.7c3.8,0,4.8,3.5,4.8,5.8c0,0.3,0,0.7-0.1,1L608.6,51.1z     M614.8,49.5c0-1.4-0.5-3.6-2.9-3.6c-2.1,0-3,2.1-3.2,3.6H614.8z"/>
		<path class="st0" d="M620.4,47.9c0-1.3,0-2.3-0.1-3.3h1.9l0.1,2h0c0.7-1.4,2.2-2.3,3.8-2.3c1.6,0,4.1,1,4.1,5.2v7.4h-2.1v-7.1    c0-2-0.7-3.6-2.7-3.6c-1.3,0.1-2.5,1-2.8,2.3c-0.1,0.3-0.1,0.7-0.1,1v7.4h-2.1L620.4,47.9z"/>
		<path class="st0" d="M637,41v3.5h3v1.7h-3v6.7c0,1.5,0.4,2.4,1.6,2.4c0.4,0,0.8,0,1.2-0.2l0.1,1.7c-0.6,0.2-1.2,0.3-1.9,0.3    c-0.9,0-1.7-0.3-2.3-0.9c-0.6-0.9-0.9-2.1-0.8-3.2v-6.7h-1.8v-1.7h1.8v-3L637,41z"/>
		<path class="st0" d="M320.3,152.1c-1.6,0.6-3.2,0.9-4.9,0.9c-2.2,0.1-4.4-0.7-6-2.3c-1.5-1.8-2.3-4.1-2.2-6.4    c0-5.1,3.3-8.9,8.7-8.9c1.4,0,2.7,0.2,4,0.8l-0.5,1.8c-1.1-0.5-2.3-0.8-3.5-0.7c-3.9,0-6.4,2.6-6.4,6.9c0,4.4,2.5,6.9,6.2,6.9    c0.9,0.1,1.9-0.1,2.8-0.5v-5.1H315v-1.8h5.3L320.3,152.1z"/>
		<path class="st0" d="M334.9,146.6c0,4.6-2.9,6.6-5.7,6.6c-3.1,0-5.5-2.4-5.5-6.3c0-4.1,2.5-6.6,5.7-6.6    C332.7,140.3,334.9,142.9,334.9,146.6z M325.7,146.8c0,2.7,1.5,4.7,3.5,4.7c2,0,3.5-2,3.5-4.8c0-2.1-1-4.7-3.5-4.7    S325.8,144.4,325.7,146.8L325.7,146.8z"/>
		<path class="st0" d="M338.5,134.8h2.1v18.1h-2.1V134.8z"/>
		<path class="st0" d="M355.1,134.8v14.9c0,1.1,0,2.3,0.1,3.2h-1.9l-0.1-2.1h0c-0.7,1.5-2.3,2.5-3.9,2.4c-2.8,0-4.9-2.5-4.9-6.3    c0-4.1,2.4-6.6,5.2-6.6c1.4-0.1,2.8,0.7,3.5,1.9h0v-7.4H355.1z M353,145.6c0-0.3,0-0.6-0.1-0.9c-0.3-1.5-1.5-2.6-3-2.6    c-2.2,0-3.5,2-3.5,4.8c0,2.5,1.1,4.6,3.4,4.6c1.5,0,2.8-1.2,3.1-2.7c0.1-0.3,0.1-0.6,0.1-1L353,145.6z"/>
		<path class="st0" d="M365.1,136c1.5-0.2,2.9-0.4,4.4-0.4c2.4-0.2,4.7,0.6,6.5,2.1c1.6,1.7,2.4,3.9,2.3,6.2    c0.5,4.6-2.8,8.7-7.4,9.2c-0.7,0.1-1.3,0.1-2,0c-1.3,0-2.5-0.1-3.8-0.2L365.1,136z M367.2,151.1c0.7,0.1,1.4,0.1,2.1,0.1    c4.4,0,6.8-2.7,6.8-7.3c0-4.1-2.1-6.6-6.5-6.6c-0.8,0-1.6,0.1-2.4,0.2L367.2,151.1z"/>
		<path class="st0" d="M388.2,152.9l-0.2-1.6H388c-0.8,1.2-2.1,1.9-3.5,1.8c-1.9,0.1-3.5-1.4-3.5-3.3c0-0.1,0-0.2,0-0.3    c0-3,2.5-4.6,6.9-4.6v-0.3c0.2-1.4-0.7-2.6-2.1-2.8c-0.2,0-0.4,0-0.6,0c-1.1,0-2.1,0.3-3,0.9l-0.5-1.5c1.1-0.7,2.4-1.1,3.8-1.1    c3.5,0,4.4,2.6,4.4,5v4.6c0,1,0,2,0.2,3L388.2,152.9z M387.9,146.6c-2.3-0.1-4.9,0.4-4.9,2.8c-0.1,1.1,0.6,2,1.7,2.1    c0.1,0,0.2,0,0.3,0c1.3,0,2.4-0.8,2.8-2.1c0.1-0.2,0.1-0.5,0.1-0.7L387.9,146.6z"/>
		<path class="st0" d="M396.7,137v3.5h3v1.7h-3v6.7c0,1.5,0.4,2.4,1.6,2.4c0.4,0,0.8,0,1.2-0.2l0.1,1.7c-0.6,0.2-1.2,0.3-1.9,0.3    c-0.9,0-1.7-0.3-2.3-0.9c-0.6-0.9-0.9-2.1-0.8-3.2v-6.7h-1.8v-1.7h1.8v-3L396.7,137z"/>
		<path class="st0" d="M409.5,152.9l-0.2-1.6h-0.1c-0.8,1.2-2.1,1.9-3.5,1.8c-1.9,0.1-3.5-1.4-3.5-3.3c0-0.1,0-0.2,0-0.3    c0-3,2.5-4.6,6.9-4.6v-0.3c0.2-1.4-0.7-2.6-2.1-2.8c-0.2,0-0.4,0-0.6,0c-1.1,0-2.1,0.3-3,0.9l-0.5-1.5c1.1-0.7,2.4-1.1,3.8-1.1    c3.5,0,4.4,2.6,4.4,5v4.6c0,1,0,2,0.2,3L409.5,152.9z M409.2,146.6c-2.3-0.1-4.9,0.4-4.9,2.8c-0.1,1.1,0.6,2,1.7,2.1    c0.1,0,0.2,0,0.3,0c1.3,0,2.4-0.8,2.8-2.1c0.1-0.2,0.1-0.5,0.1-0.7L409.2,146.6z"/>
		<path class="st0" d="M424.3,147.5l-1.7,5.4h-2.1l5.4-17.2h2.5l5.5,17.2h-2.2l-1.7-5.4H424.3z M429.5,145.8l-1.6-4.9    c-0.4-1.1-0.6-2.1-0.8-3.1h0c-0.2,1-0.5,2.1-0.8,3.1l-1.6,5L429.5,145.8z"/>
		<path class="st0" d="M437.1,143.9c0-1.3,0-2.3-0.1-3.3h1.9l0.1,2h0c0.7-1.4,2.2-2.3,3.8-2.3c1.6,0,4.1,1,4.1,5.3v7.4h-2.1v-7.1    c0-2-0.7-3.6-2.7-3.6c-1.3,0.1-2.5,1-2.8,2.3c-0.1,0.3-0.1,0.7-0.1,1v7.4h-2.1L437.1,143.9z"/>
		<path class="st0" d="M457.6,152.9l-0.2-1.6h-0.1c-0.8,1.2-2.1,1.9-3.5,1.8c-1.9,0.1-3.5-1.4-3.5-3.3c0-0.1,0-0.2,0-0.3    c0-3,2.5-4.6,6.9-4.6v-0.3c0.2-1.4-0.7-2.6-2.1-2.8c-0.2,0-0.4,0-0.5,0c-1.1,0-2.1,0.3-3,0.9l-0.5-1.5c1.1-0.7,2.4-1.1,3.8-1.1    c3.5,0,4.4,2.6,4.4,5v4.6c0,1,0,2,0.2,3L457.6,152.9z M457.3,146.6c-2.3-0.1-4.9,0.4-4.9,2.8c-0.1,1.1,0.6,2,1.7,2.1    c0.1,0,0.2,0,0.3,0c1.3,0,2.4-0.8,2.8-2.1c0.1-0.2,0.1-0.5,0.1-0.7L457.3,146.6z"/>
		<path class="st0" d="M463.7,134.8h2.1v18.1h-2.1V134.8z"/>
		<path class="st0" d="M471.1,140.6l2.5,7.3c0.3,0.8,0.5,1.8,0.7,2.5h0c0.2-0.7,0.5-1.7,0.7-2.6l2.3-7.2h2.2l-3.1,8.8    c-1.5,4.2-2.5,6.4-4,7.7c-0.7,0.7-1.6,1.2-2.6,1.5l-0.5-1.9c0.7-0.2,1.3-0.6,1.8-1.1c0.8-0.7,1.4-1.5,1.8-2.5    c0.1-0.2,0.1-0.3,0.2-0.5c0-0.2-0.1-0.4-0.1-0.6l-4.3-11.4H471.1z"/>
		<path class="st0" d="M485.1,137v3.5h3v1.7h-3v6.7c0,1.5,0.4,2.4,1.6,2.4c0.4,0,0.8,0,1.2-0.2l0.1,1.7c-0.6,0.2-1.2,0.3-1.9,0.3    c-0.9,0-1.7-0.3-2.3-0.9c-0.6-0.9-0.9-2.1-0.8-3.2v-6.7h-1.8v-1.7h1.8v-3L485.1,137z"/>
		<path class="st0" d="M493.7,137.1c0.1,0.7-0.5,1.3-1.2,1.4c-0.1,0-0.1,0-0.2,0c-0.7,0-1.3-0.6-1.3-1.3c0,0,0,0,0-0.1    c0-0.7,0.5-1.4,1.2-1.4c0,0,0,0,0.1,0c0.7,0,1.3,0.6,1.3,1.3C493.7,137,493.7,137.1,493.7,137.1z M491.4,152.9v-12.3h2.1v12.3    H491.4z"/>
		<path class="st0" d="M506.2,152.4c-1,0.5-2.2,0.7-3.3,0.7c-3.5,0-5.7-2.5-5.7-6.3c-0.3-3.3,2.2-6.3,5.6-6.5c0.2,0,0.4,0,0.6,0    c1,0,2,0.2,2.9,0.6l-0.5,1.7c-0.7-0.4-1.6-0.6-2.4-0.6c-2.6,0-4.1,2.1-4.1,4.7c0,2.9,1.7,4.6,4,4.6c0.9,0,1.8-0.2,2.6-0.6    L506.2,152.4z"/>
		<path class="st0" d="M509.3,150.6c0.8,0.6,1.8,0.9,2.8,0.9c1.5,0,2.2-0.8,2.2-1.8c0-1.1-0.6-1.7-2.1-2.3c-2.1-0.8-3-2-3-3.5    c0-2,1.6-3.6,3.7-3.6c0.1,0,0.2,0,0.3,0c1,0,2,0.3,2.8,0.8l-0.5,1.6c-0.7-0.5-1.5-0.7-2.4-0.7c-0.9-0.1-1.8,0.6-1.9,1.5    c0,0.1,0,0.1,0,0.2c0,1,0.7,1.5,2.2,2.1c2,0.8,3,1.9,3,3.7c0,2.2-1.6,3.7-4.3,3.7c-1.1,0-2.3-0.3-3.2-0.8L509.3,150.6z"/>
		<path class="st0" d="M320.3,184.2c-1.6,0.6-3.2,0.9-4.9,0.9c-2.2,0.1-4.4-0.7-6-2.3c-1.5-1.8-2.3-4.1-2.2-6.4    c0-5.1,3.3-8.9,8.7-8.9c1.4,0,2.7,0.2,4,0.8l-0.5,1.8c-1.1-0.5-2.3-0.8-3.5-0.7c-3.9,0-6.4,2.6-6.4,6.9c0,4.4,2.5,6.9,6.2,6.9    c0.9,0.1,1.9-0.1,2.8-0.5v-5.1H315v-1.8h5.3L320.3,184.2z"/>
		<path class="st0" d="M334.9,178.7c0,4.6-2.9,6.6-5.7,6.6c-3.1,0-5.5-2.4-5.5-6.3c0-4.1,2.5-6.6,5.7-6.6    C332.7,172.3,334.9,174.9,334.9,178.7z M325.7,178.8c0,2.7,1.5,4.7,3.5,4.7c2,0,3.5-2,3.5-4.8c0-2.1-1-4.7-3.5-4.7    S325.8,176.4,325.7,178.8L325.7,178.8z"/>
		<path class="st0" d="M338.5,166.8h2.1v18.1h-2.1V166.8z"/>
		<path class="st0" d="M355.1,166.8v14.9c0,1.1,0,2.3,0.1,3.2h-1.9l-0.1-2.1h0c-0.7,1.5-2.3,2.5-3.9,2.4c-2.8,0-4.9-2.5-4.9-6.3    c0-4.1,2.4-6.6,5.2-6.6c1.4-0.1,2.8,0.7,3.5,1.9h0v-7.4L355.1,166.8z M353,177.6c0-0.3,0-0.6-0.1-0.9c-0.3-1.5-1.5-2.6-3-2.6    c-2.2,0-3.5,2-3.5,4.8c0,2.5,1.1,4.6,3.4,4.6c1.5,0,2.8-1.2,3.1-2.7c0.1-0.3,0.1-0.6,0.1-1L353,177.6z"/>
		<path class="st0" d="M365.1,168c1.5-0.2,2.9-0.4,4.4-0.4c2.4-0.2,4.7,0.6,6.5,2.1c1.6,1.7,2.4,3.9,2.3,6.2    c0.5,4.6-2.8,8.7-7.4,9.2c-0.7,0.1-1.3,0.1-2,0c-1.3,0-2.5-0.1-3.8-0.2L365.1,168z M367.2,183.2c0.7,0.1,1.4,0.1,2.1,0.1    c4.4,0,6.8-2.7,6.8-7.3c0-4.1-2.1-6.6-6.5-6.6c-0.8,0-1.6,0.1-2.4,0.2L367.2,183.2z"/>
		<path class="st0" d="M388.2,184.9l-0.2-1.5H388c-0.8,1.2-2.1,1.9-3.5,1.8c-1.9,0.1-3.5-1.4-3.5-3.3c0-0.1,0-0.2,0-0.3    c0-3,2.5-4.6,6.9-4.6v-0.3c0.2-1.4-0.7-2.6-2.1-2.8c-0.2,0-0.4,0-0.6,0c-1.1,0-2.1,0.3-3,0.9l-0.5-1.5c1.1-0.7,2.4-1.1,3.8-1.1    c3.5,0,4.4,2.6,4.4,5v4.6c0,1,0,2,0.2,3L388.2,184.9z M387.9,178.6c-2.3-0.1-4.9,0.4-4.9,2.8c-0.1,1.1,0.6,2,1.7,2.1    c0.1,0,0.2,0,0.3,0c1.3,0,2.4-0.8,2.8-2.1c0.1-0.2,0.1-0.5,0.1-0.7L387.9,178.6z"/>
		<path class="st0" d="M396.7,169v3.5h3v1.7h-3v6.7c0,1.5,0.4,2.4,1.6,2.4c0.4,0,0.8,0,1.2-0.2l0.1,1.7c-0.6,0.2-1.2,0.3-1.9,0.3    c-0.9,0-1.7-0.3-2.3-0.9c-0.6-0.9-0.9-2.1-0.8-3.2v-6.7h-1.8v-1.7h1.8v-3L396.7,169z"/>
		<path class="st0" d="M409.5,184.9l-0.2-1.5h-0.1c-0.8,1.2-2.1,1.9-3.5,1.8c-1.9,0.1-3.5-1.4-3.5-3.3c0-0.1,0-0.2,0-0.3    c0-3,2.5-4.6,6.9-4.6v-0.3c0.2-1.4-0.7-2.6-2.1-2.8c-0.2,0-0.4,0-0.6,0c-1.1,0-2.1,0.3-3,0.9l-0.5-1.5c1.1-0.7,2.4-1.1,3.8-1.1    c3.5,0,4.4,2.6,4.4,5v4.6c0,1,0,2,0.2,3L409.5,184.9z M409.2,178.6c-2.3-0.1-4.9,0.4-4.9,2.8c-0.1,1.1,0.6,2,1.7,2.1    c0.1,0,0.2,0,0.3,0c1.3,0,2.4-0.8,2.8-2.1c0.1-0.2,0.1-0.5,0.1-0.7L409.2,178.6z"/>
		<path class="st0" d="M421.7,167.9c1.3-0.2,2.6-0.3,4-0.3c1.6-0.1,3.2,0.4,4.5,1.4c1,0.9,1.5,2.3,1.4,3.6c0.1,1.3-0.4,2.6-1.2,3.7    c-1.3,1.3-3.1,2-4.9,1.9c-0.6,0-1.1,0-1.7-0.2v6.9h-2.1V167.9z M423.7,176.2c0.6,0.1,1.1,0.2,1.7,0.2c2.5,0,4-1.3,4-3.7    c0-2.3-1.5-3.4-3.8-3.4c-0.7,0-1.3,0-2,0.2V176.2z"/>
		<path class="st0" d="M435.1,166.8h2.1v18.1h-2.1V166.8z"/>
		<path class="st0" d="M448.1,184.9l-0.2-1.5h-0.1c-0.8,1.2-2.1,1.9-3.5,1.8c-1.9,0.1-3.5-1.4-3.5-3.3c0-0.1,0-0.2,0-0.3    c0-3,2.5-4.6,6.9-4.6v-0.3c0.2-1.4-0.7-2.6-2.1-2.8c-0.2,0-0.4,0-0.6,0c-1.1,0-2.1,0.3-3,0.9l-0.5-1.5c1.1-0.7,2.4-1.1,3.8-1.1    c3.5,0,4.4,2.6,4.4,5v4.6c0,1,0,2,0.2,3L448.1,184.9z M447.8,178.6c-2.3-0.1-4.9,0.4-4.9,2.8c-0.1,1.1,0.6,2,1.7,2.1    c0.1,0,0.2,0,0.3,0c1.3,0,2.4-0.8,2.8-2.1c0.1-0.2,0.1-0.5,0.1-0.7L447.8,178.6z"/>
		<path class="st0" d="M456.6,169v3.5h3v1.7h-3v6.7c0,1.5,0.4,2.4,1.6,2.4c0.4,0,0.8,0,1.2-0.2l0.1,1.7c-0.6,0.2-1.2,0.3-1.9,0.3    c-0.9,0-1.7-0.3-2.3-0.9c-0.6-0.9-0.9-2.1-0.8-3.2v-6.7h-1.8v-1.7h1.8v-3L456.6,169z"/>
		<path class="st0" d="M463.2,184.9v-10.6h-1.6v-1.7h1.6V172c-0.1-1.6,0.4-3.1,1.3-4.3c0.7-0.7,1.8-1.2,2.8-1.1    c0.6,0,1.2,0.1,1.8,0.4l-0.3,1.7c-0.4-0.2-0.9-0.3-1.3-0.3c-1.8,0-2.2,1.7-2.2,3.6v0.7h2.8v1.7h-2.8v10.6L463.2,184.9z"/>
		<path class="st0" d="M481,178.7c0,4.6-2.9,6.6-5.7,6.6c-3.1,0-5.5-2.4-5.5-6.3c0-4.1,2.5-6.6,5.7-6.6    C478.8,172.3,481,174.9,481,178.7z M471.9,178.8c0,2.7,1.5,4.7,3.5,4.7c2,0,3.5-2,3.5-4.8c0-2.1-1-4.7-3.4-4.7    S471.9,176.4,471.9,178.8L471.9,178.8z"/>
		<path class="st0" d="M484.7,176.4c0-1.5,0-2.7-0.1-3.8h1.8l0.1,2.4h0.1c0.4-1.5,1.6-2.6,3.2-2.7c0.2,0,0.4,0,0.6,0.1v2.1    c-0.2-0.1-0.5-0.1-0.7-0.1c-1.5,0.1-2.7,1.3-2.8,2.9c-0.1,0.3-0.1,0.7-0.1,1v6.6h-2.1L484.7,176.4z"/>
		<path class="st0" d="M493.5,175.9c0-1.3,0-2.3-0.1-3.3h1.8l0.1,2h0.1c0.7-1.4,2.1-2.3,3.6-2.3c1.5,0,2.8,1,3.3,2.5h0    c0.3-0.6,0.7-1.2,1.3-1.6c0.7-0.6,1.6-0.9,2.5-0.9c1.5,0,3.8,1.1,3.8,5.4v7.3h-2v-7c0-2.4-0.8-3.8-2.5-3.8c-1.2,0.1-2.2,0.9-2.5,2    c-0.1,0.4-0.2,0.7-0.2,1.1v7.6h-2v-7.4c0-2-0.8-3.4-2.4-3.4c-1.3,0.1-2.3,1-2.6,2.2c-0.1,0.4-0.2,0.7-0.2,1.1v7.4h-2V175.9z"/>
		<path class="st0" d="M320.3,216.2c-1.6,0.6-3.2,0.9-4.9,0.9c-2.2,0.1-4.4-0.7-6-2.3c-1.5-1.8-2.3-4.1-2.2-6.4    c0-5.1,3.3-8.9,8.7-8.9c1.4,0,2.7,0.2,4,0.8l-0.5,1.8c-1.1-0.5-2.3-0.8-3.5-0.7c-3.9,0-6.4,2.6-6.4,6.9c0,4.4,2.5,6.9,6.2,6.9    c0.9,0.1,1.9-0.1,2.8-0.5v-5.1H315v-1.8h5.3L320.3,216.2z"/>
		<path class="st0" d="M334.9,210.7c0,4.6-2.9,6.6-5.7,6.6c-3.1,0-5.5-2.4-5.5-6.3c0-4.1,2.5-6.6,5.7-6.6    C332.7,204.3,334.9,206.9,334.9,210.7z M325.7,210.8c0,2.7,1.5,4.7,3.5,4.7c2,0,3.5-2,3.5-4.8c0-2.1-1-4.7-3.5-4.7    S325.8,208.5,325.7,210.8L325.7,210.8z"/>
		<path class="st0" d="M338.5,198.8h2.1v18.1h-2.1V198.8z"/>
		<path class="st0" d="M355.1,198.8v14.9c0,1.1,0,2.3,0.1,3.2h-1.9l-0.1-2.1h0c-0.7,1.5-2.3,2.5-3.9,2.4c-2.8,0-4.9-2.5-4.9-6.3    c0-4.1,2.4-6.6,5.2-6.6c1.4-0.1,2.8,0.7,3.5,1.9h0v-7.4H355.1z M353,209.6c0-0.3,0-0.6-0.1-0.9c-0.3-1.5-1.5-2.6-3-2.6    c-2.2,0-3.5,2-3.5,4.8c0,2.5,1.1,4.6,3.4,4.6c1.5,0,2.8-1.2,3.1-2.7c0.1-0.3,0.1-0.6,0.1-1V209.6z"/>
		<path class="st0" d="M376.3,216.4c-1.3,0.6-2.8,0.9-4.2,0.8c-4.5,0-7.9-3.1-7.9-8.7c0-5.4,3.4-9,8.4-9c1.3-0.1,2.6,0.2,3.8,0.8    l-0.5,1.8c-1-0.5-2.1-0.7-3.2-0.7c-3.8,0-6.3,2.6-6.3,7.1c0,4.2,2.3,6.9,6.2,6.9c1.2,0,2.3-0.2,3.4-0.7L376.3,216.4z"/>
		<path class="st0" d="M379.8,198.8h2.1v18.1h-2.1L379.8,198.8z"/>
		<path class="st0" d="M396.8,210.7c0,4.6-2.9,6.6-5.7,6.6c-3.1,0-5.5-2.4-5.5-6.3c0-4.1,2.5-6.6,5.7-6.6    C394.6,204.3,396.8,206.9,396.8,210.7z M387.7,210.8c0,2.7,1.5,4.7,3.5,4.7c2,0,3.5-2,3.5-4.8c0-2.1-1-4.7-3.4-4.7    C388.8,206,387.7,208.5,387.7,210.8z"/>
		<path class="st0" d="M410.1,213.6c0,1.3,0,2.4,0.1,3.4h-1.9l-0.1-2h0c-0.7,1.4-2.2,2.3-3.8,2.3c-1.8,0-4-1.1-4-5.4v-7.2h2.1v6.8    c0,2.3,0.7,3.9,2.6,3.9c1.3,0,2.3-0.9,2.8-2c0.1-0.4,0.2-0.8,0.2-1.1v-7.6h2.1L410.1,213.6z"/>
		<path class="st0" d="M424.5,198.8v14.9c0,1.1,0,2.3,0.1,3.2h-1.9l-0.1-2.1h0c-0.7,1.5-2.3,2.5-3.9,2.4c-2.8,0-4.9-2.5-4.9-6.3    c0-4.1,2.4-6.6,5.2-6.6c1.4-0.1,2.8,0.7,3.5,1.9h0v-7.4H424.5z M422.4,209.6c0-0.3,0-0.6-0.1-0.9c-0.3-1.5-1.5-2.6-3-2.6    c-2.2,0-3.4,2-3.4,4.8c0,2.5,1.1,4.6,3.4,4.6c1.5,0,2.8-1.2,3.1-2.7c0.1-0.3,0.1-0.6,0.1-1L422.4,209.6z"/>
		<path class="st0" d="M435.1,200c1.3-0.2,2.6-0.3,4-0.3c1.6-0.1,3.2,0.4,4.5,1.4c1,0.9,1.5,2.3,1.4,3.6c0.1,1.3-0.4,2.6-1.2,3.7    c-1.3,1.3-3.1,2-4.9,1.9c-0.6,0-1.1,0-1.7-0.2v6.9h-2.1L435.1,200z M437.2,208.2c0.6,0.1,1.1,0.2,1.7,0.2c2.5,0,4-1.3,4-3.7    c0-2.3-1.5-3.4-3.8-3.4c-0.7,0-1.3,0-2,0.2L437.2,208.2z"/>
		<path class="st0" d="M448.6,198.8h2.1v18.1h-2.1V198.8z"/>
		<path class="st0" d="M461.5,216.9l-0.2-1.5h-0.1c-0.8,1.2-2.1,1.9-3.5,1.8c-1.9,0.1-3.5-1.4-3.5-3.3c0-0.1,0-0.2,0-0.3    c0-3,2.5-4.6,6.9-4.6v-0.3c0.2-1.4-0.7-2.6-2.1-2.8c-0.2,0-0.4,0-0.6,0c-1.1,0-2.1,0.3-3,0.9l-0.5-1.5c1.1-0.7,2.4-1.1,3.8-1.1    c3.5,0,4.4,2.6,4.4,5v4.6c0,1,0,2,0.2,3L461.5,216.9z M461.2,210.6c-2.3-0.1-4.9,0.4-4.9,2.8c-0.1,1.1,0.6,2,1.7,2.1    c0.1,0,0.2,0,0.3,0c1.3,0,2.4-0.8,2.8-2.1c0.1-0.2,0.1-0.5,0.1-0.7L461.2,210.6z"/>
		<path class="st0" d="M470.1,201.1v3.5h3v1.7h-3v6.7c0,1.5,0.4,2.4,1.6,2.4c0.4,0,0.8,0,1.2-0.2l0.1,1.7c-0.6,0.2-1.2,0.3-1.9,0.3    c-0.9,0-1.7-0.3-2.3-0.9c-0.6-0.9-0.9-2.1-0.8-3.2v-6.7h-1.8v-1.7h1.8v-3L470.1,201.1z"/>
		<path class="st0" d="M476.6,216.9v-10.6H475v-1.7h1.6V204c-0.1-1.6,0.4-3.1,1.3-4.3c0.7-0.7,1.8-1.2,2.8-1.1    c0.6,0,1.2,0.1,1.8,0.4l-0.3,1.7c-0.4-0.2-0.9-0.3-1.3-0.3c-1.8,0-2.2,1.7-2.2,3.6v0.7h2.8v1.7h-2.8v10.6L476.6,216.9z"/>
		<path class="st0" d="M494.5,210.7c0,4.6-2.9,6.6-5.7,6.6c-3.1,0-5.5-2.4-5.5-6.3c0-4.1,2.5-6.6,5.7-6.6    C492.2,204.3,494.5,206.9,494.5,210.7z M485.3,210.8c0,2.7,1.5,4.7,3.5,4.7c2,0,3.5-2,3.5-4.8c0-2.1-1-4.7-3.5-4.7    S485.3,208.5,485.3,210.8z"/>
		<path class="st0" d="M498.1,208.5c0-1.5,0-2.7-0.1-3.8h1.8l0.1,2.4h0.1c0.4-1.5,1.6-2.6,3.2-2.7c0.2,0,0.4,0,0.6,0.1v2.1    c-0.2-0.1-0.5-0.1-0.7-0.1c-1.5,0.1-2.7,1.3-2.8,2.9c-0.1,0.3-0.1,0.7-0.1,1v6.6h-2.1L498.1,208.5z"/>
		<path class="st0" d="M507,207.9c0-1.3,0-2.3-0.1-3.3h1.8l0.1,2h0.1c0.7-1.4,2.1-2.3,3.6-2.3c1.5,0,2.8,1,3.3,2.5h0    c0.3-0.6,0.8-1.2,1.3-1.6c0.7-0.6,1.6-0.9,2.5-0.9c1.5,0,3.8,1.1,3.8,5.4v7.3h-2v-7c0-2.4-0.8-3.8-2.5-3.8c-1.2,0.1-2.2,0.9-2.5,2    c-0.1,0.4-0.2,0.7-0.2,1.1v7.6h-2v-7.4c0-2-0.8-3.4-2.4-3.4c-1.3,0.1-2.3,1-2.6,2.2c-0.1,0.4-0.2,0.7-0.2,1.1v7.4h-2L507,207.9z"/>
		<path class="st0" d="M320.3,248.2c-1.6,0.6-3.2,0.9-4.9,0.9c-2.2,0.1-4.4-0.7-6-2.3c-1.5-1.8-2.3-4.1-2.2-6.4    c0-5.1,3.3-8.9,8.7-8.9c1.4,0,2.7,0.2,4,0.8l-0.5,1.8c-1.1-0.5-2.3-0.8-3.5-0.7c-3.9,0-6.4,2.6-6.4,6.9c0,4.4,2.5,6.9,6.2,6.9    c0.9,0.1,1.9-0.1,2.8-0.5v-5.1H315v-1.8h5.3L320.3,248.2z"/>
		<path class="st0" d="M334.9,242.7c0,4.6-2.9,6.6-5.7,6.6c-3.1,0-5.5-2.4-5.5-6.3c0-4.1,2.5-6.6,5.7-6.6    C332.7,236.3,334.9,238.9,334.9,242.7z M325.7,242.8c0,2.7,1.5,4.7,3.5,4.7c2,0,3.5-2,3.5-4.8c0-2.1-1-4.7-3.5-4.7    S325.8,240.5,325.7,242.8L325.7,242.8z"/>
		<path class="st0" d="M338.5,230.9h2.1V249h-2.1V230.9z"/>
		<path class="st0" d="M355.1,230.9v14.9c0,1.1,0,2.3,0.1,3.2h-1.9l-0.1-2.1h0c-0.7,1.5-2.3,2.5-3.9,2.4c-2.8,0-4.9-2.5-4.9-6.3    c0-4.1,2.4-6.6,5.2-6.6c1.4-0.1,2.8,0.7,3.5,1.9h0v-7.4H355.1z M353,241.6c0-0.3,0-0.6-0.1-0.9c-0.3-1.5-1.5-2.6-3-2.6    c-2.2,0-3.5,2-3.5,4.8c0,2.5,1.1,4.6,3.4,4.6c1.5,0,2.8-1.2,3.1-2.7c0.1-0.3,0.1-0.6,0.1-1V241.6z"/>
		<path class="st0" d="M365.1,232c1.5-0.2,2.9-0.4,4.4-0.4c2.4-0.2,4.7,0.6,6.5,2.1c1.6,1.7,2.4,3.9,2.3,6.2    c0.5,4.6-2.8,8.7-7.4,9.2c-0.7,0.1-1.3,0.1-2,0c-1.3,0-2.5-0.1-3.8-0.2L365.1,232z M367.2,247.2c0.7,0.1,1.4,0.1,2.1,0.1    c4.4,0,6.8-2.7,6.8-7.3c0-4.1-2.1-6.6-6.5-6.6c-0.8,0-1.6,0.1-2.4,0.2L367.2,247.2z"/>
		<path class="st0" d="M388.2,249l-0.2-1.5H388c-0.8,1.2-2.1,1.9-3.5,1.8c-1.9,0.1-3.5-1.4-3.5-3.3c0-0.1,0-0.2,0-0.3    c0-3,2.5-4.6,6.9-4.6v-0.3c0.2-1.4-0.7-2.6-2.1-2.8c-0.2,0-0.4,0-0.6,0c-1.1,0-2.1,0.3-3,0.9l-0.5-1.5c1.1-0.7,2.4-1.1,3.8-1.1    c3.5,0,4.4,2.6,4.4,5v4.6c0,1,0,2,0.2,3L388.2,249z M387.9,242.7c-2.3-0.1-4.9,0.4-4.9,2.8c-0.1,1.1,0.6,2,1.7,2.1    c0.1,0,0.2,0,0.3,0c1.3,0,2.4-0.8,2.8-2.1c0.1-0.2,0.1-0.5,0.1-0.7L387.9,242.7z"/>
		<path class="st0" d="M396.7,233.1v3.5h3v1.7h-3v6.7c0,1.5,0.4,2.4,1.6,2.4c0.4,0,0.8,0,1.2-0.2l0.1,1.7c-0.6,0.2-1.2,0.3-1.9,0.3    c-0.9,0-1.7-0.3-2.3-0.9c-0.6-0.9-0.9-2.1-0.8-3.2v-6.7h-1.8v-1.7h1.8v-3L396.7,233.1z"/>
		<path class="st0" d="M409.5,249l-0.2-1.5h-0.1c-0.8,1.2-2.1,1.9-3.5,1.8c-1.9,0.1-3.5-1.4-3.5-3.3c0-0.1,0-0.2,0-0.3    c0-3,2.5-4.6,6.9-4.6v-0.3c0.2-1.4-0.7-2.6-2.1-2.8c-0.2,0-0.4,0-0.6,0c-1.1,0-2.1,0.3-3,0.9l-0.5-1.5c1.1-0.7,2.4-1.1,3.8-1.1    c3.5,0,4.4,2.6,4.4,5v4.6c0,1,0,2,0.2,3L409.5,249z M409.2,242.7c-2.3-0.1-4.9,0.4-4.9,2.8c-0.1,1.1,0.6,2,1.7,2.1    c0.1,0,0.2,0,0.3,0c1.3,0,2.4-0.8,2.8-2.1c0.1-0.2,0.1-0.5,0.1-0.7L409.2,242.7z"/>
		<path class="st0" d="M423.8,248.5c-1,0.5-2.2,0.7-3.3,0.7c-3.5,0-5.7-2.5-5.7-6.3c-0.3-3.3,2.2-6.3,5.6-6.5c0.2,0,0.4,0,0.6,0    c1,0,2,0.2,2.9,0.6l-0.5,1.7c-0.7-0.4-1.6-0.6-2.4-0.6c-2.6,0-4.1,2.1-4.1,4.7c0,2.9,1.7,4.6,4,4.6c0.9,0,1.8-0.2,2.6-0.6    L423.8,248.5z"/>
		<path class="st0" d="M428.2,243.2c-0.3,2.1,1.2,4,3.3,4.3c0.2,0,0.4,0,0.6,0c1.1,0,2.2-0.2,3.2-0.6l0.4,1.6    c-1.2,0.5-2.5,0.8-3.8,0.8c-3.5,0-5.7-2.5-5.7-6.2s2-6.7,5.4-6.7c3.8,0,4.8,3.5,4.8,5.8c0,0.3,0,0.7-0.1,1L428.2,243.2z     M434.4,241.6c0-1.4-0.5-3.6-2.9-3.6c-2.1,0-3,2.1-3.2,3.6H434.4z"/>
		<path class="st0" d="M440,240c0-1.3,0-2.3-0.1-3.3h1.9l0.1,2h0c0.7-1.4,2.2-2.3,3.8-2.3c1.6,0,4.1,1,4.1,5.2v7.4h-2.1v-7.1    c0-2-0.7-3.6-2.7-3.6c-1.3,0.1-2.5,1-2.8,2.3c-0.1,0.3-0.1,0.7-0.1,1v7.4H440L440,240z"/>
		<path class="st0" d="M456.6,233.1v3.5h3v1.7h-3v6.7c0,1.5,0.4,2.4,1.6,2.4c0.4,0,0.8,0,1.2-0.2l0.1,1.7c-0.6,0.2-1.2,0.3-1.9,0.3    c-0.9,0-1.7-0.3-2.3-0.9c-0.6-0.9-0.9-2.1-0.8-3.2v-6.7h-1.8v-1.7h1.8v-3L456.6,233.1z"/>
		<path class="st0" d="M464,243.2c-0.3,2.1,1.2,4,3.3,4.3c0.2,0,0.4,0,0.6,0c1.1,0,2.2-0.2,3.2-0.6l0.4,1.6    c-1.2,0.5-2.5,0.8-3.8,0.8c-3.5,0-5.7-2.5-5.7-6.2s2-6.7,5.4-6.7c3.8,0,4.8,3.5,4.8,5.8c0,0.3,0,0.7-0.1,1L464,243.2z     M470.1,241.6c0-1.4-0.5-3.6-2.9-3.6c-2.1,0-3,2.1-3.2,3.6H470.1z"/>
		<path class="st0" d="M475.7,240.5c0-1.5,0-2.7-0.1-3.9h1.8l0.1,2.4h0.1c0.4-1.5,1.6-2.6,3.2-2.7c0.2,0,0.4,0,0.6,0.1v2.1    c-0.2-0.1-0.5-0.1-0.7-0.1c-1.5,0.1-2.7,1.3-2.8,2.9c-0.1,0.3-0.1,0.7-0.1,1v6.6h-2.1L475.7,240.5z"/>
	</g>
</g>
</svg>
