<?xml version="1.0" encoding="utf-8"?>
<!-- Generator: Adobe Illustrator 23.0.0, SVG Export Plug-In . SVG Version: 6.00 Build 0)  -->
<svg xmlns="http://www.w3.org/2000/svg" xmlns:xlink="http://www.w3.org/1999/xlink" version="1.2" baseProfile="tiny" x="0px" y="0px" viewBox="0 0 433.48 224.74" xml:space="preserve">
<g id="Layer_2">
	<path fill="#12100B" d="M39.55,53.52h-3.51V33.34c0-1.59,0.1-3.53,0.29-5.83h-0.08c-0.33,1.36-0.63,2.33-0.9,2.91l-10.22,23.1   h-1.71L13.19,30.59c-0.28-0.61-0.58-1.64-0.9-3.08h-0.08c0.11,1.2,0.17,3.16,0.17,5.87v20.14H8.99V23.46h4.64l9.19,20.96   c0.7,1.59,1.15,2.79,1.36,3.6h0.15c0.7-1.93,1.18-3.16,1.44-3.69l9.38-20.87h4.41V53.52"/>
	<path fill="#12100B" d="M49.3,53.52h-3.43V32.06h3.43V53.52 M49.89,24.37c0,0.64-0.22,1.18-0.67,1.6   c-0.45,0.43-0.98,0.64-1.59,0.64c-0.63,0-1.16-0.21-1.59-0.62c-0.43-0.41-0.65-0.95-0.65-1.62c0-0.6,0.21-1.12,0.64-1.56   c0.42-0.44,0.96-0.66,1.6-0.66c0.64,0,1.18,0.22,1.61,0.65C49.67,23.23,49.89,23.75,49.89,24.37"/>
	<path fill="#12100B" d="M69.59,52.53c-1.66,1.01-3.61,1.51-5.87,1.51c-1.95,0-3.7-0.45-5.25-1.35c-1.55-0.9-2.76-2.18-3.62-3.82   c-0.86-1.65-1.3-3.5-1.3-5.55c0-3.55,1.01-6.4,3.04-8.55c2.03-2.15,4.72-3.23,8.1-3.23c1.87,0,3.52,0.36,4.95,1.09v3.52   c-1.6-1.12-3.3-1.68-5.1-1.68c-2.21,0-4.01,0.79-5.4,2.38c-1.39,1.59-2.08,3.64-2.08,6.15c0,2.5,0.66,4.48,1.97,5.93   c1.32,1.45,3.08,2.18,5.3,2.18c1.87,0,3.62-0.61,5.26-1.84V52.53"/>
	<path fill="#12100B" d="M84.85,35.54c-0.61-0.46-1.48-0.69-2.61-0.69c-1.52,0-2.75,0.72-3.7,2.15c-0.95,1.43-1.42,3.29-1.42,5.59   v10.94H73.7V32.06h3.43v4.42h0.08c0.47-1.48,1.2-2.65,2.19-3.51c0.99-0.86,2.12-1.29,3.41-1.29c0.89,0,1.57,0.1,2.05,0.29V35.54"/>
	<path fill="#12100B" d="M102.88,42.83c0-2.7-0.6-4.76-1.79-6.2c-1.19-1.44-2.89-2.16-5.11-2.16c-2.2,0-3.94,0.74-5.22,2.21   c-1.28,1.47-1.92,3.55-1.92,6.23c0,2.57,0.64,4.58,1.93,6.03c1.29,1.45,3.03,2.17,5.21,2.17c2.23,0,3.93-0.71,5.12-2.14   C102.28,47.54,102.88,45.5,102.88,42.83 M106.39,42.7c0,3.41-0.96,6.15-2.89,8.23c-1.93,2.07-4.52,3.11-7.76,3.11   c-3.16,0-5.69-1.01-7.57-3.03c-1.89-2.02-2.83-4.68-2.83-7.97c0-3.55,0.97-6.35,2.9-8.41c1.94-2.06,4.6-3.09,8-3.09   c3.18,0,5.66,1,7.46,2.99C105.49,36.51,106.39,39.24,106.39,42.7"/>
	<path fill="#12100B" d="M122.3,47.78c0,1.86-0.71,3.37-2.14,4.53c-1.43,1.16-3.33,1.74-5.69,1.74c-2.02,0-3.79-0.43-5.31-1.3v-3.69   c1.68,1.37,3.54,2.05,5.56,2.05c2.72,0,4.07-1,4.07-3c0-0.81-0.26-1.47-0.79-1.98c-0.53-0.51-1.73-1.2-3.61-2.06   c-1.89-0.81-3.23-1.68-4.01-2.61c-0.78-0.93-1.17-2.16-1.17-3.7c0-1.77,0.71-3.26,2.13-4.44c1.42-1.19,3.22-1.78,5.41-1.78   c1.68,0,3.21,0.34,4.58,1.01V36c-1.39-1.02-3.01-1.53-4.85-1.53c-1.13,0-2.04,0.28-2.73,0.84c-0.69,0.56-1.03,1.28-1.03,2.16   c0,0.95,0.26,1.68,0.79,2.19c0.53,0.51,1.62,1.11,3.28,1.81c2.03,0.87,3.46,1.77,4.28,2.72C121.89,45.14,122.3,46.34,122.3,47.78"/>
	<path fill="#12100B" d="M142.16,42.83c0-2.7-0.6-4.76-1.79-6.2c-1.19-1.44-2.89-2.16-5.11-2.16c-2.2,0-3.94,0.74-5.22,2.21   c-1.28,1.47-1.92,3.55-1.92,6.23c0,2.57,0.64,4.58,1.93,6.03c1.29,1.45,3.03,2.17,5.21,2.17c2.23,0,3.93-0.71,5.12-2.14   C141.57,47.54,142.16,45.5,142.16,42.83 M145.67,42.7c0,3.41-0.96,6.15-2.89,8.23c-1.93,2.07-4.52,3.11-7.76,3.11   c-3.16,0-5.69-1.01-7.57-3.03c-1.89-2.02-2.83-4.68-2.83-7.97c0-3.55,0.97-6.35,2.9-8.41c1.94-2.06,4.6-3.09,8-3.09   c3.18,0,5.66,1,7.46,2.99C144.77,36.51,145.67,39.24,145.67,42.7"/>
	<path fill="#12100B" d="M159.71,24.76c-0.67-0.38-1.43-0.57-2.28-0.57c-2.4,0-3.59,1.52-3.59,4.55v3.31h5.01v2.91h-5.01v18.55   h-3.43V34.97h-3.63v-2.91h3.63v-3.48c0-2.18,0.64-3.94,1.92-5.28c1.28-1.34,2.91-2.01,4.89-2.01c1.04,0,1.87,0.13,2.49,0.38V24.76"/>
	<path fill="#12100B" d="M172.15,53.31c-0.82,0.46-1.89,0.69-3.22,0.69c-3.73,0-5.6-2.11-5.6-6.33v-12.7h-3.68v-2.91h3.68v-5.24   l3.43-1.11v6.35h5.39v2.91h-5.39v12.11c0,1.44,0.24,2.46,0.73,3.07c0.49,0.61,1.3,0.91,2.44,0.91c0.85,0,1.59-0.23,2.22-0.69V53.31   "/>
	<path fill="#12100B" d="M58.87,74.01c0-3.98-2.34-5.97-7.02-5.97h-4.12v12.32h3.68c2.41,0,4.25-0.55,5.54-1.65   C58.23,77.62,58.87,76.05,58.87,74.01 M62.55,73.82c0,2.91-1,5.25-3,7.03c-2,1.78-4.62,2.67-7.87,2.67h-3.95v11.38h-3.51V64.85   h8.23c3.2,0,5.69,0.79,7.45,2.36C61.67,68.78,62.55,70.99,62.55,73.82"/>
	<path fill="#12100B" d="M77,84.05l-5.18,0.73c-1.77,0.25-3.01,0.67-3.72,1.27c-0.71,0.59-1.07,1.55-1.07,2.88   c0,1.08,0.38,1.94,1.15,2.59c0.77,0.65,1.75,0.97,2.95,0.97c1.7,0,3.1-0.6,4.21-1.8c1.11-1.2,1.66-2.7,1.66-4.51V84.05    M80.43,94.91H77v-3.35h-0.08c-1.49,2.59-3.68,3.88-6.58,3.88c-2.06,0-3.71-0.56-4.95-1.69c-1.24-1.12-1.86-2.64-1.86-4.54   c0-4,2.35-6.33,7.06-7L77,81.3c0-3.63-1.47-5.45-4.41-5.45c-2.58,0-4.9,0.87-6.98,2.62v-3.52c0.63-0.47,1.7-0.93,3.22-1.37   c1.52-0.44,2.87-0.66,4.05-0.66c5.03,0,7.54,2.68,7.54,8.03V94.91"/>
	<path fill="#12100B" d="M96.97,76.92c-0.61-0.46-1.48-0.69-2.61-0.69c-1.52,0-2.75,0.72-3.7,2.15c-0.95,1.43-1.42,3.29-1.42,5.59   v10.94h-3.43V73.45h3.43v4.42h0.08c0.47-1.48,1.2-2.65,2.19-3.51c0.99-0.86,2.12-1.29,3.41-1.29c0.89,0,1.57,0.1,2.05,0.29V76.92"/>
	<path fill="#12100B" d="M112.93,94.7c-0.82,0.46-1.89,0.69-3.22,0.69c-3.73,0-5.6-2.11-5.6-6.33v-12.7h-3.68v-2.91h3.68v-5.24   l3.43-1.11v6.35h5.39v2.91h-5.39v12.11c0,1.44,0.24,2.46,0.73,3.07c0.49,0.61,1.3,0.91,2.44,0.91c0.85,0,1.59-0.23,2.21-0.69V94.7"/>
	<path fill="#12100B" d="M135.48,94.91h-3.43V82.67c0-4.54-1.66-6.81-4.97-6.81c-1.69,0-3.1,0.64-4.23,1.92   c-1.14,1.28-1.7,2.91-1.7,4.89v12.24h-3.43V73.45h3.43v3.56h0.08c1.6-2.72,3.94-4.09,7.02-4.09c2.35,0,4.15,0.77,5.38,2.31   c1.23,1.54,1.85,3.72,1.85,6.54V94.91"/>
	<path fill="#12100B" d="M154.38,82.12c-0.03-1.98-0.51-3.52-1.43-4.62c-0.93-1.1-2.23-1.65-3.92-1.65c-1.59,0-2.95,0.57-4.07,1.72   c-1.13,1.15-1.84,2.66-2.13,4.55H154.38 M157.89,85.03h-15.1c0.06,2.42,0.69,4.26,1.91,5.54c1.22,1.28,2.91,1.92,5.07,1.92   c2.42,0,4.63-0.78,6.62-2.35v3.21c-1.87,1.38-4.35,2.07-7.44,2.07c-3.05,0-5.43-0.99-7.14-2.97c-1.71-1.98-2.57-4.71-2.57-8.2   c0-2.12,0.43-4.06,1.28-5.82c0.86-1.75,2.04-3.11,3.54-4.08c1.5-0.96,3.18-1.45,5.01-1.45c2.77,0,4.93,0.9,6.49,2.71   c1.55,1.81,2.33,4.34,2.33,7.6V85.03"/>
	<path fill="#12100B" d="M172.99,76.92c-0.61-0.46-1.48-0.69-2.61-0.69c-1.52,0-2.75,0.72-3.7,2.15c-0.95,1.43-1.42,3.29-1.42,5.59   v10.94h-3.43V73.45h3.43v4.42h0.08c0.47-1.48,1.2-2.65,2.19-3.51c0.99-0.86,2.12-1.29,3.41-1.29c0.89,0,1.57,0.1,2.05,0.29V76.92"/>
	<path fill="#7A7776" d="M100.2,132.3l-0.66,1.85H99.5c-0.12-0.43-0.32-1.05-0.62-1.83l-3.53-8.88H91.9v14.12h2.28v-8.68   c0-0.54-0.01-1.18-0.03-1.92c-0.01-0.37-0.05-0.68-0.06-0.9h0.05c0.12,0.53,0.24,0.94,0.32,1.21l4.23,10.3h1.59l4.2-10.39   c0.1-0.24,0.2-0.7,0.29-1.12h0.05c-0.06,1.03-0.1,1.97-0.11,2.54v8.97h2.43v-14.12h-3.31L100.2,132.3"/>
	<polyline fill="#7A7776" points="109.42,137.56 111.79,137.56 111.79,129.92 111.79,127.44 109.42,127.44 109.42,132.41    109.42,137.56  "/>
	<path fill="#7A7776" d="M110.63,123.14c-0.39,0-0.73,0.13-1.01,0.4c-0.28,0.26-0.42,0.6-0.42,0.99c0,0.39,0.14,0.71,0.42,0.97   c0.28,0.26,0.62,0.39,1.02,0.39c0.4,0,0.74-0.13,1.02-0.39c0.28-0.26,0.42-0.59,0.42-0.97c0-0.38-0.14-0.71-0.41-0.98   C111.39,123.27,111.04,123.14,110.63,123.14"/>
	<path fill="#7A7776" d="M120.19,127.34c-0.46-0.09-0.9-0.14-1.33-0.14c-1.09,0-2.06,0.23-2.89,0.7c-0.83,0.46-1.47,1.12-1.9,1.96   c-0.43,0.84-0.65,1.82-0.65,2.91c0,0.96,0.21,1.83,0.64,2.61c0.42,0.78,1.02,1.38,1.78,1.8c0.76,0.42,1.63,0.63,2.59,0.63   c1.13,0,2.09-0.23,2.86-0.67l0.03-0.02v-2.18l-0.1,0.07c-0.35,0.26-0.74,0.46-1.16,0.61c-0.42,0.15-0.8,0.22-1.14,0.22   c-0.93,0-1.68-0.29-2.22-0.87c-0.54-0.58-0.82-1.39-0.82-2.41c0-1.03,0.29-1.86,0.85-2.47c0.57-0.61,1.31-0.92,2.23-0.92   c0.78,0,1.54,0.27,2.26,0.79l0.1,0.07v-2.3l-0.03-0.02C121.02,127.56,120.65,127.43,120.19,127.34"/>
	<path fill="#7A7776" d="M128.01,127.26c-0.6,0-1.13,0.19-1.59,0.57c-0.4,0.33-0.69,0.79-0.91,1.36h-0.03v-1.75h-2.37v10.12h2.37   v-5.18c0-0.88,0.2-1.6,0.59-2.15c0.39-0.54,0.9-0.81,1.53-0.81c0.21,0,0.45,0.04,0.71,0.11c0.26,0.07,0.44,0.15,0.55,0.22l0.1,0.07   v-2.4l-0.04-0.02C128.72,127.31,128.4,127.26,128.01,127.26"/>
	<path fill="#7A7776" d="M136.34,134.99c-0.45,0.56-1.12,0.85-1.99,0.85c-0.87,0-1.56-0.29-2.04-0.86   c-0.49-0.57-0.73-1.39-0.73-2.43c0-1.07,0.25-1.91,0.73-2.5c0.48-0.58,1.17-0.88,2.02-0.88c0.83,0,1.5,0.28,1.97,0.84   c0.48,0.56,0.72,1.39,0.72,2.48C137.02,133.58,136.79,134.42,136.34,134.99 M134.45,127.19c-1.66,0-2.98,0.49-3.93,1.45   c-0.94,0.96-1.42,2.3-1.42,3.97c0,1.58,0.47,2.86,1.38,3.79c0.92,0.93,2.17,1.4,3.72,1.4c1.61,0,2.91-0.5,3.85-1.47   c0.94-0.98,1.42-2.3,1.42-3.93c0-1.61-0.45-2.89-1.33-3.82C137.26,127.66,136.02,127.19,134.45,127.19"/>
	<path fill="#7A7776" d="M144.74,131.62c-0.75-0.3-1.23-0.55-1.42-0.74c-0.19-0.19-0.29-0.45-0.29-0.78c0-0.29,0.12-0.53,0.37-0.72   c0.25-0.19,0.59-0.29,1.02-0.29c0.4,0,0.81,0.06,1.22,0.19c0.41,0.12,0.76,0.29,1.06,0.49l0.1,0.07v-2.2l-0.04-0.02   c-0.28-0.12-0.64-0.22-1.08-0.3c-0.44-0.08-0.84-0.12-1.18-0.12c-1.13,0-2.07,0.29-2.78,0.86c-0.72,0.58-1.08,1.33-1.08,2.25   c0,0.47,0.08,0.9,0.23,1.25c0.16,0.36,0.4,0.68,0.72,0.94c0.32,0.26,0.81,0.54,1.46,0.82c0.55,0.23,0.95,0.42,1.21,0.57   c0.25,0.15,0.43,0.3,0.53,0.44c0.1,0.14,0.15,0.33,0.15,0.57c0,0.68-0.51,1.01-1.55,1.01c-0.39,0-0.83-0.08-1.31-0.24   c-0.48-0.16-0.94-0.39-1.34-0.68l-0.1-0.07v2.32l0.04,0.02c0.34,0.16,0.77,0.29,1.27,0.39c0.51,0.1,0.96,0.16,1.36,0.16   c1.23,0,2.22-0.29,2.94-0.87c0.73-0.58,1.09-1.35,1.09-2.3c0-0.68-0.2-1.27-0.59-1.74C146.35,132.43,145.68,132,144.74,131.62"/>
	<path fill="#7A7776" d="M155.59,134.99c-0.45,0.56-1.12,0.85-1.99,0.85c-0.87,0-1.56-0.29-2.04-0.86   c-0.49-0.57-0.73-1.39-0.73-2.43c0-1.07,0.25-1.91,0.73-2.5c0.48-0.58,1.17-0.88,2.02-0.88c0.83,0,1.5,0.28,1.97,0.84   c0.48,0.56,0.72,1.39,0.72,2.48C156.27,133.58,156.04,134.42,155.59,134.99 M153.71,127.19c-1.66,0-2.98,0.49-3.93,1.45   c-0.94,0.96-1.42,2.3-1.42,3.97c0,1.58,0.47,2.86,1.39,3.79c0.92,0.93,2.17,1.4,3.72,1.4c1.61,0,2.91-0.5,3.85-1.47   c0.94-0.98,1.42-2.3,1.42-3.93c0-1.61-0.45-2.89-1.33-3.82C156.52,127.66,155.27,127.19,153.71,127.19"/>
	<path fill="#7A7776" d="M171.38,129.38v-1.94h-2.4v-3.02l-0.08,0.02l-2.26,0.69l-0.04,0.01v2.29h-3.56v-1.27   c0-0.59,0.13-1.05,0.39-1.35c0.26-0.3,0.63-0.45,1.1-0.45c0.34,0,0.69,0.08,1.04,0.24l0.09,0.04v-2.04l-0.04-0.01   c-0.33-0.12-0.78-0.18-1.33-0.18c-0.7,0-1.34,0.15-1.89,0.46c-0.56,0.3-0.99,0.74-1.3,1.29c-0.31,0.55-0.46,1.19-0.46,1.89v1.4   h-1.67v1.94h1.67v8.18h2.4v-8.18h3.56v5.2c0,2.14,1.01,3.23,2.99,3.23c0.33,0,0.67-0.04,1.02-0.11c0.36-0.08,0.6-0.15,0.74-0.24   l0.03-0.02v-1.96l-0.1,0.07c-0.13,0.09-0.29,0.16-0.48,0.21c-0.19,0.05-0.35,0.08-0.47,0.08c-0.47,0-0.81-0.13-1.02-0.37   c-0.22-0.25-0.33-0.69-0.33-1.3v-4.78H171.38"/>
	<polyline fill="#E74516" points="72.53,129.92 61.37,129.92 61.37,118.72 72.53,118.72 72.53,129.92  "/>
	<polyline fill="#85B727" points="84.85,129.92 73.69,129.92 73.69,118.72 84.85,118.72 84.85,129.92  "/>
	<polyline fill="#3C9FD9" points="72.53,142.29 61.37,142.29 61.37,131.09 72.53,131.09 72.53,142.29  "/>
	<polyline fill="#FAB800" points="84.85,142.29 73.69,142.29 73.69,131.09 84.85,131.09 84.85,142.29  "/>
	<line fill="none" stroke="#040603" stroke-width="0.4" stroke-miterlimit="10" x1="189.99" y1="16.29" x2="189.99" y2="201.16"/>
</g>
<g id="Competencies_-_outlines">
	<g>
		<path fill="#916F2A" d="M216.05,102.56c-0.6,0.23-1.78,0.61-3.18,0.61c-1.57,0-2.86-0.43-3.88-1.47    c-0.89-0.92-1.45-2.41-1.45-4.14c0.02-3.31,2.14-5.74,5.61-5.74c1.2,0,2.14,0.28,2.58,0.51l-0.32,1.17    c-0.55-0.26-1.24-0.48-2.29-0.48c-2.52,0-4.17,1.68-4.17,4.47c0,2.82,1.58,4.48,4,4.48c0.88,0,1.48-0.13,1.78-0.3v-3.31h-2.11    v-1.15h3.41V102.56z"/>
		<path fill="#916F2A" d="M225.5,99c0,2.95-1.91,4.24-3.71,4.24c-2.01,0-3.57-1.58-3.57-4.1c0-2.67,1.63-4.24,3.69-4.24    C224.06,94.9,225.5,96.56,225.5,99z M219.6,99.09c0,1.75,0.94,3.07,2.26,3.07c1.29,0,2.26-1.3,2.26-3.1    c0-1.35-0.63-3.06-2.23-3.06S219.6,97.57,219.6,99.09z"/>
		<path fill="#916F2A" d="M227.85,91.36h1.35v11.7h-1.35V91.36z"/>
		<path fill="#916F2A" d="M238.56,91.36V101c0,0.71,0.02,1.52,0.06,2.06h-1.21l-0.06-1.38h-0.03c-0.42,0.89-1.32,1.57-2.54,1.57    c-1.8,0-3.18-1.63-3.18-4.05c-0.01-2.65,1.52-4.28,3.34-4.28c1.14,0,1.91,0.58,2.25,1.22h0.03v-4.76H238.56z M237.2,98.33    c0-0.18-0.01-0.43-0.06-0.61c-0.2-0.92-0.94-1.68-1.95-1.68c-1.4,0-2.23,1.32-2.23,3.08c0,1.62,0.74,2.95,2.2,2.95    c0.91,0,1.74-0.64,1.98-1.73c0.05-0.2,0.06-0.4,0.06-0.63V98.33z"/>
		<path fill="#916F2A" d="M245.03,92.1c0.82-0.13,1.78-0.23,2.85-0.23c1.92,0,3.29,0.48,4.2,1.38c0.92,0.91,1.46,2.19,1.46,3.99    c0,1.81-0.52,3.3-1.49,4.32c-0.97,1.04-2.57,1.6-4.58,1.6c-0.95,0-1.75-0.05-2.43-0.13V92.1z M246.37,101.92    c0.34,0.07,0.83,0.08,1.35,0.08c2.86,0,4.42-1.71,4.42-4.71c0.01-2.62-1.37-4.29-4.2-4.29c-0.69,0-1.21,0.07-1.57,0.15V101.92z"/>
		<path fill="#916F2A" d="M256.68,99.33c0.03,1.96,1.2,2.77,2.55,2.77c0.97,0,1.55-0.18,2.06-0.41l0.23,1.04    c-0.48,0.23-1.29,0.5-2.48,0.5c-2.29,0-3.66-1.62-3.66-4.02c0-2.41,1.32-4.3,3.49-4.3c2.43,0,3.08,2.29,3.08,3.76    c0,0.3-0.03,0.53-0.05,0.68H256.68z M260.65,98.29c0.02-0.92-0.35-2.36-1.88-2.36c-1.37,0-1.97,1.35-2.08,2.36H260.65z"/>
		<path fill="#916F2A" d="M264.8,95.08l1.46,4.48c0.25,0.73,0.45,1.38,0.6,2.04h0.05c0.17-0.66,0.38-1.32,0.63-2.04l1.45-4.48h1.42    l-2.92,7.98h-1.29l-2.83-7.98H264.8z"/>
		<path fill="#916F2A" d="M281.22,97.39c0,3.82-2.17,5.85-4.81,5.85c-2.74,0-4.66-2.27-4.66-5.64c0-3.53,2.05-5.83,4.81-5.83    C279.39,91.77,281.22,94.09,281.22,97.39z M273.18,97.57c0,2.37,1.2,4.5,3.31,4.5c2.12,0,3.32-2.09,3.32-4.62    c0-2.21-1.08-4.51-3.31-4.51C274.29,92.94,273.18,95.13,273.18,97.57z"/>
		<path fill="#916F2A" d="M283.56,97.69c0-1.02-0.03-1.85-0.06-2.6h1.21l0.06,1.37h0.03c0.55-0.97,1.43-1.55,2.65-1.55    c1.8,0,3.15,1.63,3.15,4.05c0,2.87-1.63,4.29-3.38,4.29c-0.98,0-1.85-0.46-2.29-1.25h-0.03v4.33h-1.34V97.69z M284.89,99.81    c0,0.21,0.03,0.41,0.06,0.59c0.25,1,1.06,1.7,2.03,1.7c1.43,0,2.26-1.25,2.26-3.08c0-1.6-0.78-2.97-2.21-2.97    c-0.92,0-1.78,0.71-2.04,1.8c-0.05,0.18-0.09,0.39-0.09,0.59V99.81z"/>
		<path fill="#916F2A" d="M292.77,101.57c0.4,0.28,1.11,0.58,1.78,0.58c0.98,0,1.45-0.53,1.45-1.19c0-0.69-0.38-1.07-1.38-1.47    c-1.34-0.51-1.97-1.3-1.97-2.26c0-1.29,0.97-2.34,2.57-2.34c0.75,0,1.42,0.23,1.83,0.49l-0.34,1.05c-0.29-0.2-0.83-0.46-1.52-0.46    c-0.8,0-1.25,0.49-1.25,1.09c0,0.66,0.45,0.96,1.42,1.35c1.29,0.53,1.95,1.22,1.95,2.41c0,1.4-1.02,2.39-2.78,2.39    c-0.82,0-1.57-0.21-2.09-0.54L292.77,101.57z"/>
	</g>
	<g>
		<path fill="#916F2A" d="M216.05,81.56c-0.6,0.23-1.78,0.61-3.18,0.61c-1.57,0-2.86-0.43-3.88-1.47c-0.89-0.92-1.45-2.41-1.45-4.14    c0.02-3.31,2.14-5.74,5.61-5.74c1.2,0,2.14,0.28,2.58,0.51l-0.32,1.17c-0.55-0.26-1.24-0.48-2.29-0.48    c-2.52,0-4.17,1.68-4.17,4.47c0,2.82,1.58,4.48,4,4.48c0.88,0,1.48-0.13,1.78-0.3v-3.31h-2.11v-1.15h3.41V81.56z"/>
		<path fill="#916F2A" d="M225.5,78c0,2.95-1.91,4.24-3.71,4.24c-2.01,0-3.57-1.58-3.57-4.1c0-2.67,1.63-4.24,3.69-4.24    C224.06,73.89,225.5,75.56,225.5,78z M219.6,78.08c0,1.75,0.94,3.07,2.26,3.07c1.29,0,2.26-1.3,2.26-3.1    c0-1.35-0.63-3.06-2.23-3.06S219.6,76.56,219.6,78.08z"/>
		<path fill="#916F2A" d="M227.85,70.35h1.35v11.7h-1.35V70.35z"/>
		<path fill="#916F2A" d="M238.56,70.35v9.64c0,0.71,0.02,1.52,0.06,2.06h-1.21l-0.06-1.38h-0.03c-0.42,0.89-1.32,1.57-2.54,1.57    c-1.8,0-3.18-1.63-3.18-4.05c-0.01-2.65,1.52-4.28,3.34-4.28c1.14,0,1.91,0.58,2.25,1.22h0.03v-4.76H238.56z M237.2,77.32    c0-0.18-0.01-0.43-0.06-0.61c-0.2-0.92-0.94-1.68-1.95-1.68c-1.4,0-2.23,1.32-2.23,3.08c0,1.62,0.74,2.95,2.2,2.95    c0.91,0,1.74-0.64,1.98-1.73c0.05-0.2,0.06-0.4,0.06-0.63V77.32z"/>
		<path fill="#916F2A" d="M246.7,78.56l-1.08,3.49h-1.38l3.52-11.11h1.62l3.54,11.11h-1.43l-1.11-3.49H246.7z M250.1,77.44    l-1.01-3.2c-0.23-0.72-0.38-1.38-0.54-2.03h-0.03c-0.15,0.66-0.32,1.33-0.52,2.01l-1.02,3.21H250.1z"/>
		<path fill="#916F2A" d="M254.99,76.68c0-1.02-0.03-1.85-0.06-2.6h1.21l0.06,1.37h0.03c0.55-0.97,1.43-1.55,2.65-1.55    c1.8,0,3.15,1.63,3.15,4.05c0,2.87-1.63,4.29-3.38,4.29c-0.98,0-1.85-0.46-2.29-1.25h-0.03v4.33h-1.34V76.68z M256.33,78.8    c0,0.21,0.03,0.41,0.06,0.59c0.25,1,1.06,1.7,2.03,1.7c1.43,0,2.26-1.25,2.26-3.08c0-1.6-0.78-2.97-2.21-2.97    c-0.92,0-1.78,0.71-2.04,1.8c-0.05,0.18-0.09,0.39-0.09,0.59V78.8z"/>
		<path fill="#916F2A" d="M264.39,76.68c0-1.02-0.03-1.85-0.06-2.6h1.21l0.06,1.37h0.03c0.55-0.97,1.43-1.55,2.65-1.55    c1.8,0,3.15,1.63,3.15,4.05c0,2.87-1.63,4.29-3.38,4.29c-0.98,0-1.85-0.46-2.29-1.25h-0.03v4.33h-1.34V76.68z M265.72,78.8    c0,0.21,0.03,0.41,0.06,0.59c0.25,1,1.06,1.7,2.03,1.7c1.43,0,2.26-1.25,2.26-3.08c0-1.6-0.78-2.97-2.21-2.97    c-0.92,0-1.78,0.71-2.04,1.8c-0.05,0.18-0.09,0.39-0.09,0.59V78.8z"/>
		<path fill="#916F2A" d="M273.78,70.35h1.35v11.7h-1.35V70.35z"/>
		<path fill="#916F2A" d="M279.56,71.83c0.02,0.49-0.32,0.89-0.86,0.89c-0.48,0-0.81-0.4-0.81-0.89c0-0.51,0.35-0.91,0.85-0.91    C279.24,70.92,279.56,71.32,279.56,71.83z M278.05,82.05v-7.98h1.35v7.98H278.05z"/>
		<path fill="#916F2A" d="M287.6,81.75c-0.35,0.2-1.14,0.46-2.14,0.46c-2.25,0-3.71-1.63-3.71-4.07c0-2.46,1.57-4.24,4-4.24    c0.8,0,1.51,0.21,1.88,0.41l-0.31,1.12c-0.32-0.2-0.83-0.38-1.57-0.38c-1.71,0-2.63,1.35-2.63,3.02c0,1.85,1.11,2.98,2.58,2.98    c0.77,0,1.28-0.21,1.66-0.4L287.6,81.75z"/>
		<path fill="#916F2A" d="M293.95,82.05l-0.11-1h-0.05c-0.42,0.63-1.21,1.19-2.28,1.19c-1.51,0-2.28-1.14-2.28-2.29    c0-1.93,1.6-2.98,4.48-2.97v-0.16c0-0.66-0.17-1.85-1.69-1.85c-0.69,0-1.42,0.23-1.94,0.59l-0.31-0.96    c0.62-0.43,1.51-0.71,2.45-0.71c2.28,0,2.83,1.66,2.83,3.26v2.98c0,0.69,0.03,1.37,0.12,1.91H293.95z M293.75,77.98    c-1.48-0.03-3.15,0.25-3.15,1.8c0,0.94,0.58,1.38,1.28,1.38c0.97,0,1.58-0.66,1.8-1.33c0.05-0.15,0.08-0.31,0.08-0.46V77.98z"/>
		<path fill="#916F2A" d="M299.46,71.78v2.29h1.94v1.1h-1.94v4.3c0,0.99,0.26,1.55,1.02,1.55c0.35,0,0.62-0.05,0.78-0.1l0.06,1.09    c-0.26,0.12-0.68,0.2-1.2,0.2c-0.63,0-1.14-0.21-1.46-0.61c-0.38-0.43-0.52-1.14-0.52-2.08v-4.35h-1.15v-1.1h1.15v-1.91    L299.46,71.78z"/>
		<path fill="#916F2A" d="M305.07,71.83c0.02,0.49-0.32,0.89-0.86,0.89c-0.48,0-0.81-0.4-0.81-0.89c0-0.51,0.35-0.91,0.85-0.91    C304.75,70.92,305.07,71.32,305.07,71.83z M303.56,82.05v-7.98h1.35v7.98H303.56z"/>
		<path fill="#916F2A" d="M314.54,78c0,2.95-1.91,4.24-3.71,4.24c-2.01,0-3.57-1.58-3.57-4.1c0-2.67,1.63-4.24,3.69-4.24    C313.1,73.89,314.54,75.56,314.54,78z M308.63,78.08c0,1.75,0.94,3.07,2.26,3.07c1.29,0,2.26-1.3,2.26-3.1    c0-1.35-0.63-3.06-2.23-3.06S308.63,76.56,308.63,78.08z"/>
		<path fill="#916F2A" d="M316.89,76.23c0-0.82-0.02-1.5-0.06-2.16h1.2l0.08,1.32h0.03c0.37-0.76,1.23-1.5,2.46-1.5    c1.03,0,2.63,0.66,2.63,3.39v4.76h-1.35v-4.6c0-1.29-0.45-2.36-1.72-2.36c-0.89,0-1.58,0.68-1.82,1.48    c-0.06,0.18-0.09,0.43-0.09,0.67v4.8h-1.35V76.23z"/>
		<path fill="#916F2A" d="M331.36,70.94v11.11h-1.34V70.94H331.36z"/>
		<path fill="#916F2A" d="M334.45,76.23c0-0.82-0.02-1.5-0.06-2.16h1.2l0.08,1.32h0.03c0.37-0.76,1.23-1.5,2.46-1.5    c1.03,0,2.63,0.66,2.63,3.39v4.76h-1.35v-4.6c0-1.29-0.45-2.36-1.72-2.36c-0.89,0-1.58,0.68-1.82,1.48    c-0.06,0.18-0.09,0.43-0.09,0.67v4.8h-1.35V76.23z"/>
		<path fill="#916F2A" d="M345.2,71.78v2.29h1.94v1.1h-1.94v4.3c0,0.99,0.26,1.55,1.02,1.55c0.35,0,0.62-0.05,0.78-0.1l0.06,1.09    c-0.26,0.12-0.68,0.2-1.2,0.2c-0.63,0-1.14-0.21-1.46-0.61c-0.38-0.43-0.52-1.14-0.52-2.08v-4.35h-1.15v-1.1h1.15v-1.91    L345.2,71.78z"/>
		<path fill="#916F2A" d="M349.96,78.32c0.03,1.96,1.2,2.77,2.55,2.77c0.97,0,1.55-0.18,2.06-0.41l0.23,1.04    c-0.48,0.23-1.29,0.5-2.48,0.5c-2.29,0-3.66-1.62-3.66-4.02c0-2.41,1.32-4.3,3.49-4.3c2.43,0,3.08,2.29,3.08,3.76    c0,0.3-0.03,0.53-0.05,0.68H349.96z M353.93,77.29c0.02-0.92-0.35-2.36-1.88-2.36c-1.37,0-1.97,1.35-2.08,2.36H353.93z"/>
		<path fill="#916F2A" d="M363.97,74.07c-0.03,0.58-0.06,1.22-0.06,2.19v4.63c0,1.83-0.34,2.95-1.06,3.64    c-0.72,0.73-1.77,0.96-2.71,0.96c-0.89,0-1.88-0.23-2.48-0.66l0.34-1.1c0.49,0.33,1.26,0.63,2.18,0.63c1.38,0,2.4-0.77,2.4-2.78    v-0.89h-0.03c-0.42,0.74-1.21,1.33-2.37,1.33c-1.85,0-3.17-1.68-3.17-3.89c0-2.7,1.65-4.24,3.35-4.24c1.29,0,2,0.72,2.32,1.38    h0.03l0.06-1.2H363.97z M362.57,77.22c0-0.25-0.02-0.46-0.08-0.66c-0.25-0.84-0.91-1.53-1.89-1.53c-1.29,0-2.21,1.17-2.21,3.02    c0,1.57,0.74,2.87,2.2,2.87c0.83,0,1.58-0.56,1.88-1.48c0.08-0.25,0.11-0.53,0.11-0.77V77.22z"/>
		<path fill="#916F2A" d="M366.71,76.56c0-0.94-0.02-1.75-0.06-2.49h1.18l0.05,1.57h0.06c0.34-1.07,1.15-1.75,2.06-1.75    c0.15,0,0.26,0.02,0.38,0.05v1.37c-0.14-0.03-0.28-0.05-0.46-0.05c-0.95,0-1.63,0.77-1.81,1.86c-0.03,0.2-0.06,0.43-0.06,0.68    v4.25h-1.34V76.56z"/>
		<path fill="#916F2A" d="M376.42,82.05l-0.11-1h-0.05c-0.42,0.63-1.21,1.19-2.28,1.19c-1.51,0-2.28-1.14-2.28-2.29    c0-1.93,1.6-2.98,4.48-2.97v-0.16c0-0.66-0.17-1.85-1.69-1.85c-0.69,0-1.42,0.23-1.94,0.59l-0.31-0.96    c0.62-0.43,1.51-0.71,2.45-0.71c2.28,0,2.83,1.66,2.83,3.26v2.98c0,0.69,0.03,1.37,0.12,1.91H376.42z M376.22,77.98    c-1.48-0.03-3.15,0.25-3.15,1.8c0,0.94,0.58,1.38,1.28,1.38c0.97,0,1.58-0.66,1.8-1.33c0.05-0.15,0.08-0.31,0.08-0.46V77.98z"/>
		<path fill="#916F2A" d="M381.93,71.78v2.29h1.94v1.1h-1.94v4.3c0,0.99,0.26,1.55,1.02,1.55c0.35,0,0.62-0.05,0.78-0.1l0.06,1.09    c-0.26,0.12-0.68,0.2-1.2,0.2c-0.63,0-1.14-0.21-1.46-0.61c-0.38-0.43-0.52-1.14-0.52-2.08v-4.35h-1.15v-1.1h1.15v-1.91    L381.93,71.78z"/>
		<path fill="#916F2A" d="M387.54,71.83c0.02,0.49-0.32,0.89-0.86,0.89c-0.48,0-0.82-0.4-0.82-0.89c0-0.51,0.35-0.91,0.85-0.91    C387.22,70.92,387.54,71.32,387.54,71.83z M386.03,82.05v-7.98h1.35v7.98H386.03z"/>
		<path fill="#916F2A" d="M397.01,78c0,2.95-1.91,4.24-3.71,4.24c-2.02,0-3.57-1.58-3.57-4.1c0-2.67,1.63-4.24,3.69-4.24    C395.57,73.89,397.01,75.56,397.01,78z M391.11,78.08c0,1.75,0.94,3.07,2.26,3.07c1.29,0,2.26-1.3,2.26-3.1    c0-1.35-0.63-3.06-2.23-3.06S391.11,76.56,391.11,78.08z"/>
		<path fill="#916F2A" d="M399.36,76.23c0-0.82-0.02-1.5-0.06-2.16h1.2l0.08,1.32h0.03c0.37-0.76,1.23-1.5,2.46-1.5    c1.03,0,2.63,0.66,2.63,3.39v4.76h-1.35v-4.6c0-1.29-0.45-2.36-1.72-2.36c-0.89,0-1.58,0.68-1.82,1.48    c-0.06,0.18-0.09,0.43-0.09,0.67v4.8h-1.35V76.23z"/>
	</g>
	<g>
		<path fill="#916F2A" d="M216.05,60.55c-0.6,0.23-1.78,0.61-3.18,0.61c-1.57,0-2.86-0.43-3.88-1.47c-0.89-0.92-1.45-2.41-1.45-4.14    c0.02-3.31,2.14-5.74,5.61-5.74c1.2,0,2.14,0.28,2.58,0.51l-0.32,1.17c-0.55-0.26-1.24-0.48-2.29-0.48    c-2.52,0-4.17,1.68-4.17,4.47c0,2.82,1.58,4.48,4,4.48c0.88,0,1.48-0.13,1.78-0.3v-3.31h-2.11v-1.15h3.41V60.55z"/>
		<path fill="#916F2A" d="M225.5,56.99c0,2.95-1.91,4.24-3.71,4.24c-2.01,0-3.57-1.58-3.57-4.1c0-2.67,1.63-4.24,3.69-4.24    C224.06,52.88,225.5,54.55,225.5,56.99z M219.6,57.07c0,1.75,0.94,3.07,2.26,3.07c1.29,0,2.26-1.3,2.26-3.1    c0-1.35-0.63-3.06-2.23-3.06S219.6,55.55,219.6,57.07z"/>
		<path fill="#916F2A" d="M227.85,49.34h1.35v11.7h-1.35V49.34z"/>
		<path fill="#916F2A" d="M238.56,49.34v9.64c0,0.71,0.02,1.52,0.06,2.06h-1.21l-0.06-1.38h-0.03c-0.42,0.89-1.32,1.57-2.54,1.57    c-1.8,0-3.18-1.63-3.18-4.05c-0.01-2.65,1.52-4.28,3.34-4.28c1.14,0,1.91,0.58,2.25,1.22h0.03v-4.76H238.56z M237.2,56.31    c0-0.18-0.01-0.43-0.06-0.61c-0.2-0.92-0.94-1.68-1.95-1.68c-1.4,0-2.23,1.32-2.23,3.08c0,1.62,0.74,2.95,2.2,2.95    c0.91,0,1.74-0.64,1.98-1.73c0.05-0.2,0.06-0.4,0.06-0.63V56.31z"/>
		<path fill="#916F2A" d="M246.7,57.55l-1.08,3.49h-1.38l3.52-11.11h1.62l3.54,11.11h-1.43l-1.11-3.49H246.7z M250.1,56.43    l-1.01-3.2c-0.23-0.72-0.38-1.38-0.54-2.03h-0.03c-0.15,0.66-0.32,1.33-0.52,2.01l-1.02,3.21H250.1z"/>
		<path fill="#916F2A" d="M254.99,55.67c0-1.02-0.03-1.85-0.06-2.6h1.21l0.06,1.37h0.03c0.55-0.97,1.43-1.55,2.65-1.55    c1.8,0,3.15,1.63,3.15,4.05c0,2.87-1.63,4.29-3.38,4.29c-0.98,0-1.85-0.46-2.29-1.25h-0.03v4.33h-1.34V55.67z M256.33,57.8    c0,0.21,0.03,0.41,0.06,0.59c0.25,1,1.06,1.7,2.03,1.7c1.43,0,2.26-1.25,2.26-3.08c0-1.6-0.78-2.97-2.21-2.97    c-0.92,0-1.78,0.71-2.04,1.8c-0.05,0.18-0.09,0.39-0.09,0.59V57.8z"/>
		<path fill="#916F2A" d="M264.39,55.67c0-1.02-0.03-1.85-0.06-2.6h1.21l0.06,1.37h0.03c0.55-0.97,1.43-1.55,2.65-1.55    c1.8,0,3.15,1.63,3.15,4.05c0,2.87-1.63,4.29-3.38,4.29c-0.98,0-1.85-0.46-2.29-1.25h-0.03v4.33h-1.34V55.67z M265.72,57.8    c0,0.21,0.03,0.41,0.06,0.59c0.25,1,1.06,1.7,2.03,1.7c1.43,0,2.26-1.25,2.26-3.08c0-1.6-0.78-2.97-2.21-2.97    c-0.92,0-1.78,0.71-2.04,1.8c-0.05,0.18-0.09,0.39-0.09,0.59V57.8z"/>
		<path fill="#916F2A" d="M273.78,49.34h1.35v11.7h-1.35V49.34z"/>
		<path fill="#916F2A" d="M279.56,50.82c0.02,0.49-0.32,0.89-0.86,0.89c-0.48,0-0.81-0.4-0.81-0.89c0-0.51,0.35-0.91,0.85-0.91    C279.24,49.92,279.56,50.31,279.56,50.82z M278.05,61.04v-7.98h1.35v7.98H278.05z"/>
		<path fill="#916F2A" d="M287.6,60.74c-0.35,0.2-1.14,0.46-2.14,0.46c-2.25,0-3.71-1.63-3.71-4.07c0-2.46,1.57-4.24,4-4.24    c0.8,0,1.51,0.21,1.88,0.41l-0.31,1.12c-0.32-0.2-0.83-0.38-1.57-0.38c-1.71,0-2.63,1.35-2.63,3.02c0,1.85,1.11,2.98,2.58,2.98    c0.77,0,1.28-0.21,1.66-0.4L287.6,60.74z"/>
		<path fill="#916F2A" d="M293.95,61.04l-0.11-1h-0.05c-0.42,0.63-1.21,1.19-2.28,1.19c-1.51,0-2.28-1.14-2.28-2.29    c0-1.93,1.6-2.98,4.48-2.97V55.8c0-0.66-0.17-1.85-1.69-1.85c-0.69,0-1.42,0.23-1.94,0.59l-0.31-0.96    c0.62-0.43,1.51-0.71,2.45-0.71c2.28,0,2.83,1.66,2.83,3.26v2.98c0,0.69,0.03,1.37,0.12,1.91H293.95z M293.75,56.97    c-1.48-0.03-3.15,0.25-3.15,1.8c0,0.94,0.58,1.38,1.28,1.38c0.97,0,1.58-0.66,1.8-1.33c0.05-0.15,0.08-0.31,0.08-0.46V56.97z"/>
		<path fill="#916F2A" d="M299.46,50.77v2.29h1.94v1.1h-1.94v4.3c0,0.99,0.26,1.55,1.02,1.55c0.35,0,0.62-0.05,0.78-0.1l0.06,1.09    c-0.26,0.12-0.68,0.2-1.2,0.2c-0.63,0-1.14-0.21-1.46-0.61c-0.38-0.43-0.52-1.14-0.52-2.08v-4.35h-1.15v-1.1h1.15v-1.91    L299.46,50.77z"/>
		<path fill="#916F2A" d="M305.07,50.82c0.02,0.49-0.32,0.89-0.86,0.89c-0.48,0-0.81-0.4-0.81-0.89c0-0.51,0.35-0.91,0.85-0.91    C304.75,49.92,305.07,50.31,305.07,50.82z M303.56,61.04v-7.98h1.35v7.98H303.56z"/>
		<path fill="#916F2A" d="M314.54,56.99c0,2.95-1.91,4.24-3.71,4.24c-2.01,0-3.57-1.58-3.57-4.1c0-2.67,1.63-4.24,3.69-4.24    C313.1,52.88,314.54,54.55,314.54,56.99z M308.63,57.07c0,1.75,0.94,3.07,2.26,3.07c1.29,0,2.26-1.3,2.26-3.1    c0-1.35-0.63-3.06-2.23-3.06S308.63,55.55,308.63,57.07z"/>
		<path fill="#916F2A" d="M316.89,55.22c0-0.82-0.02-1.5-0.06-2.16h1.2l0.08,1.32h0.03c0.37-0.76,1.23-1.5,2.46-1.5    c1.03,0,2.63,0.66,2.63,3.39v4.76h-1.35v-4.6c0-1.29-0.45-2.36-1.72-2.36c-0.89,0-1.58,0.68-1.82,1.48    c-0.06,0.18-0.09,0.43-0.09,0.67v4.8h-1.35V55.22z"/>
		<path fill="#916F2A" d="M330.02,50.08c0.82-0.13,1.78-0.23,2.85-0.23c1.92,0,3.29,0.48,4.2,1.38c0.92,0.91,1.46,2.19,1.46,3.99    c0,1.81-0.52,3.3-1.49,4.32c-0.97,1.04-2.57,1.6-4.58,1.6c-0.95,0-1.75-0.05-2.43-0.13V50.08z M331.36,59.9    c0.34,0.07,0.83,0.08,1.35,0.08c2.86,0,4.41-1.71,4.41-4.71c0.02-2.62-1.37-4.29-4.2-4.29c-0.69,0-1.22,0.07-1.57,0.15V59.9z"/>
		<path fill="#916F2A" d="M341.68,57.32c0.03,1.96,1.2,2.77,2.55,2.77c0.97,0,1.55-0.18,2.06-0.41l0.23,1.04    c-0.48,0.23-1.29,0.5-2.48,0.5c-2.29,0-3.66-1.62-3.66-4.02c0-2.41,1.32-4.3,3.49-4.3c2.43,0,3.08,2.29,3.08,3.76    c0,0.3-0.03,0.53-0.05,0.68H341.68z M345.64,56.28c0.02-0.92-0.35-2.36-1.88-2.36c-1.37,0-1.97,1.35-2.08,2.36H345.64z"/>
		<path fill="#916F2A" d="M349.79,53.06l1.46,4.48c0.25,0.73,0.45,1.38,0.6,2.04h0.05c0.17-0.66,0.38-1.32,0.63-2.04l1.45-4.48h1.42    l-2.92,7.98h-1.29l-2.83-7.98H349.79z"/>
		<path fill="#916F2A" d="M357.91,57.32c0.03,1.96,1.2,2.77,2.55,2.77c0.97,0,1.55-0.18,2.06-0.41l0.23,1.04    c-0.48,0.23-1.29,0.5-2.48,0.5c-2.29,0-3.66-1.62-3.66-4.02c0-2.41,1.32-4.3,3.49-4.3c2.43,0,3.08,2.29,3.08,3.76    c0,0.3-0.03,0.53-0.05,0.68H357.91z M361.88,56.28c0.02-0.92-0.35-2.36-1.88-2.36c-1.37,0-1.97,1.35-2.08,2.36H361.88z"/>
		<path fill="#916F2A" d="M365.51,49.34h1.35v11.7h-1.35V49.34z"/>
		<path fill="#916F2A" d="M376.52,56.99c0,2.95-1.91,4.24-3.71,4.24c-2.01,0-3.57-1.58-3.57-4.1c0-2.67,1.63-4.24,3.69-4.24    C375.07,52.88,376.52,54.55,376.52,56.99z M370.61,57.07c0,1.75,0.94,3.07,2.26,3.07c1.29,0,2.26-1.3,2.26-3.1    c0-1.35-0.63-3.06-2.23-3.06S370.61,55.55,370.61,57.07z"/>
		<path fill="#916F2A" d="M378.87,55.67c0-1.02-0.03-1.85-0.06-2.6h1.21l0.06,1.37h0.03c0.55-0.97,1.43-1.55,2.65-1.55    c1.8,0,3.15,1.63,3.15,4.05c0,2.87-1.63,4.29-3.38,4.29c-0.98,0-1.85-0.46-2.29-1.25h-0.03v4.33h-1.34V55.67z M380.21,57.8    c0,0.21,0.03,0.41,0.06,0.59c0.25,1,1.06,1.7,2.03,1.7c1.43,0,2.26-1.25,2.26-3.08c0-1.6-0.78-2.97-2.21-2.97    c-0.92,0-1.78,0.71-2.04,1.8c-0.05,0.18-0.09,0.39-0.09,0.59V57.8z"/>
		<path fill="#916F2A" d="M388.26,55.22c0-0.82-0.02-1.5-0.06-2.16h1.18l0.06,1.29h0.05c0.42-0.76,1.11-1.47,2.34-1.47    c1.01,0,1.78,0.66,2.11,1.6h0.03c0.23-0.45,0.52-0.79,0.83-1.04c0.45-0.36,0.94-0.56,1.65-0.56c0.98,0,2.45,0.69,2.45,3.46v4.7    h-1.32v-4.52c0-1.53-0.52-2.46-1.61-2.46c-0.77,0-1.37,0.61-1.6,1.32c-0.06,0.2-0.11,0.46-0.11,0.72v4.93h-1.32v-4.78    c0-1.27-0.52-2.19-1.55-2.19c-0.85,0-1.46,0.72-1.68,1.45c-0.08,0.21-0.11,0.46-0.11,0.71v4.81h-1.32V55.22z"/>
		<path fill="#916F2A" d="M402.48,57.32c0.03,1.96,1.2,2.77,2.55,2.77c0.97,0,1.55-0.18,2.06-0.41l0.23,1.04    c-0.48,0.23-1.29,0.5-2.48,0.5c-2.29,0-3.66-1.62-3.66-4.02c0-2.41,1.32-4.3,3.49-4.3c2.43,0,3.08,2.29,3.08,3.76    c0,0.3-0.03,0.53-0.05,0.68H402.48z M406.45,56.28c0.02-0.92-0.35-2.36-1.88-2.36c-1.37,0-1.97,1.35-2.08,2.36H406.45z"/>
		<path fill="#916F2A" d="M410.08,55.22c0-0.82-0.02-1.5-0.06-2.16h1.2l0.08,1.32h0.03c0.37-0.76,1.23-1.5,2.46-1.5    c1.03,0,2.63,0.66,2.63,3.39v4.76h-1.35v-4.6c0-1.29-0.45-2.36-1.72-2.36c-0.89,0-1.58,0.68-1.82,1.48    c-0.06,0.18-0.09,0.43-0.09,0.67v4.8h-1.35V55.22z"/>
		<path fill="#916F2A" d="M420.83,50.77v2.29h1.94v1.1h-1.94v4.3c0,0.99,0.26,1.55,1.02,1.55c0.35,0,0.62-0.05,0.78-0.1l0.06,1.09    c-0.26,0.12-0.68,0.2-1.2,0.2c-0.63,0-1.14-0.21-1.46-0.61c-0.38-0.43-0.52-1.14-0.52-2.08v-4.35h-1.15v-1.1h1.15v-1.91    L420.83,50.77z"/>
	</g>
	<g>
		<path fill="#916F2A" d="M216.05,123.57c-0.6,0.23-1.78,0.61-3.18,0.61c-1.57,0-2.86-0.43-3.88-1.47    c-0.89-0.92-1.45-2.41-1.45-4.14c0.02-3.31,2.14-5.74,5.61-5.74c1.2,0,2.14,0.28,2.58,0.51l-0.32,1.17    c-0.55-0.26-1.25-0.48-2.29-0.48c-2.52,0-4.17,1.68-4.17,4.47c0,2.82,1.58,4.48,4,4.48c0.88,0,1.48-0.13,1.78-0.3v-3.31h-2.11    v-1.15h3.41V123.57z"/>
		<path fill="#916F2A" d="M225.5,120.01c0,2.95-1.91,4.24-3.71,4.24c-2.01,0-3.57-1.58-3.57-4.1c0-2.67,1.63-4.24,3.69-4.24    C224.06,115.91,225.5,117.57,225.5,120.01z M219.6,120.09c0,1.75,0.94,3.07,2.26,3.07c1.29,0,2.26-1.3,2.26-3.1    c0-1.35-0.63-3.06-2.23-3.06S219.6,118.58,219.6,120.09z"/>
		<path fill="#916F2A" d="M227.85,112.36h1.35v11.7h-1.35V112.36z"/>
		<path fill="#916F2A" d="M238.56,112.36v9.64c0,0.71,0.02,1.52,0.06,2.06h-1.21l-0.06-1.38h-0.03c-0.42,0.89-1.32,1.57-2.54,1.57    c-1.8,0-3.18-1.63-3.18-4.05c-0.01-2.65,1.52-4.28,3.34-4.28c1.14,0,1.91,0.58,2.25,1.22h0.03v-4.76H238.56z M237.2,119.34    c0-0.18-0.01-0.43-0.06-0.61c-0.2-0.92-0.94-1.68-1.95-1.68c-1.4,0-2.23,1.32-2.23,3.08c0,1.62,0.74,2.95,2.2,2.95    c0.91,0,1.74-0.64,1.98-1.73c0.05-0.2,0.06-0.4,0.06-0.63V119.34z"/>
		<path fill="#916F2A" d="M245.03,113.11c0.82-0.13,1.78-0.23,2.85-0.23c1.92,0,3.29,0.48,4.2,1.38c0.92,0.91,1.46,2.19,1.46,3.99    c0,1.81-0.52,3.3-1.49,4.32c-0.97,1.04-2.57,1.6-4.58,1.6c-0.95,0-1.75-0.05-2.43-0.13V113.11z M246.37,122.93    c0.34,0.07,0.83,0.08,1.35,0.08c2.86,0,4.42-1.71,4.42-4.71c0.01-2.62-1.37-4.29-4.2-4.29c-0.69,0-1.21,0.07-1.57,0.15V122.93z"/>
		<path fill="#916F2A" d="M259.99,124.07l-0.11-1h-0.05c-0.42,0.63-1.21,1.19-2.28,1.19c-1.51,0-2.28-1.14-2.28-2.29    c0-1.93,1.6-2.98,4.48-2.97v-0.16c0-0.66-0.17-1.85-1.69-1.85c-0.69,0-1.42,0.23-1.94,0.59l-0.31-0.96    c0.62-0.43,1.51-0.71,2.45-0.71c2.28,0,2.83,1.66,2.83,3.26v2.98c0,0.69,0.03,1.37,0.12,1.91H259.99z M259.79,119.99    c-1.48-0.03-3.15,0.25-3.15,1.8c0,0.94,0.58,1.38,1.28,1.38c0.97,0,1.58-0.66,1.8-1.33c0.05-0.15,0.08-0.31,0.08-0.46V119.99z"/>
		<path fill="#916F2A" d="M265.49,113.8v2.29h1.94v1.1h-1.94v4.3c0,0.99,0.26,1.55,1.02,1.55c0.35,0,0.62-0.05,0.78-0.1l0.06,1.09    c-0.26,0.12-0.68,0.2-1.2,0.2c-0.63,0-1.14-0.21-1.46-0.61c-0.38-0.43-0.52-1.14-0.52-2.08v-4.35h-1.15v-1.1h1.15v-1.91    L265.49,113.8z"/>
		<path fill="#916F2A" d="M273.72,124.07l-0.11-1h-0.05c-0.42,0.63-1.21,1.19-2.28,1.19c-1.51,0-2.28-1.14-2.28-2.29    c0-1.93,1.6-2.98,4.48-2.97v-0.16c0-0.66-0.17-1.85-1.69-1.85c-0.69,0-1.42,0.23-1.94,0.59l-0.31-0.96    c0.62-0.43,1.51-0.71,2.45-0.71c2.28,0,2.83,1.66,2.83,3.26v2.98c0,0.69,0.03,1.37,0.12,1.91H273.72z M273.52,119.99    c-1.48-0.03-3.15,0.25-3.15,1.8c0,0.94,0.58,1.38,1.28,1.38c0.97,0,1.58-0.66,1.8-1.33c0.05-0.15,0.08-0.31,0.08-0.46V119.99z"/>
		<path fill="#916F2A" d="M283.28,120.57l-1.08,3.49h-1.38l3.52-11.11h1.61l3.54,11.11h-1.43l-1.11-3.49H283.28z M286.68,119.45    l-1.02-3.2c-0.23-0.72-0.38-1.38-0.54-2.03h-0.03c-0.15,0.66-0.32,1.33-0.52,2.01l-1.02,3.21H286.68z"/>
		<path fill="#916F2A" d="M291.57,118.25c0-0.82-0.02-1.5-0.06-2.16h1.2l0.08,1.32h0.03c0.37-0.76,1.23-1.5,2.46-1.5    c1.03,0,2.63,0.66,2.63,3.39v4.76h-1.35v-4.6c0-1.29-0.45-2.36-1.72-2.36c-0.89,0-1.58,0.68-1.82,1.48    c-0.06,0.18-0.09,0.43-0.09,0.67v4.8h-1.35V118.25z"/>
		<path fill="#916F2A" d="M304.87,124.07l-0.11-1h-0.05c-0.42,0.63-1.21,1.19-2.28,1.19c-1.51,0-2.28-1.14-2.28-2.29    c0-1.93,1.6-2.98,4.48-2.97v-0.16c0-0.66-0.17-1.85-1.69-1.85c-0.69,0-1.42,0.23-1.94,0.59l-0.31-0.96    c0.62-0.43,1.51-0.71,2.45-0.71c2.28,0,2.83,1.66,2.83,3.26v2.98c0,0.69,0.03,1.37,0.12,1.91H304.87z M304.67,119.99    c-1.48-0.03-3.15,0.25-3.15,1.8c0,0.94,0.58,1.38,1.28,1.38c0.97,0,1.58-0.66,1.8-1.33c0.05-0.15,0.08-0.31,0.08-0.46V119.99z"/>
		<path fill="#916F2A" d="M308.8,112.36h1.35v11.7h-1.35V112.36z"/>
		<path fill="#916F2A" d="M313.57,116.09l1.63,4.71c0.17,0.53,0.35,1.15,0.48,1.63h0.03c0.14-0.48,0.29-1.09,0.48-1.66l1.48-4.68    h1.43l-2.03,5.69c-0.97,2.74-1.63,4.14-2.55,4.99c-0.66,0.63-1.32,0.87-1.66,0.94l-0.34-1.22c0.34-0.12,0.78-0.35,1.18-0.71    c0.37-0.31,0.83-0.87,1.14-1.62c0.06-0.15,0.11-0.26,0.11-0.35c0-0.08-0.03-0.2-0.09-0.38l-2.75-7.35H313.57z"/>
		<path fill="#916F2A" d="M322.6,113.8v2.29h1.94v1.1h-1.94v4.3c0,0.99,0.26,1.55,1.02,1.55c0.35,0,0.62-0.05,0.78-0.1l0.06,1.09    c-0.26,0.12-0.68,0.2-1.2,0.2c-0.63,0-1.14-0.21-1.46-0.61c-0.38-0.43-0.52-1.14-0.52-2.08v-4.35h-1.15v-1.1h1.15v-1.91    L322.6,113.8z"/>
		<path fill="#916F2A" d="M328.21,113.85c0.02,0.49-0.32,0.89-0.86,0.89c-0.48,0-0.81-0.4-0.81-0.89c0-0.51,0.35-0.91,0.85-0.91    C327.89,112.94,328.21,113.34,328.21,113.85z M326.7,124.07v-7.98h1.35v7.98H326.7z"/>
		<path fill="#916F2A" d="M336.25,123.77c-0.35,0.2-1.14,0.46-2.14,0.46c-2.25,0-3.71-1.63-3.71-4.07c0-2.46,1.57-4.24,4-4.24    c0.8,0,1.51,0.21,1.88,0.41l-0.31,1.12c-0.32-0.2-0.83-0.38-1.57-0.38c-1.71,0-2.63,1.35-2.63,3.02c0,1.85,1.11,2.98,2.58,2.98    c0.77,0,1.28-0.21,1.66-0.4L336.25,123.77z"/>
		<path fill="#916F2A" d="M338.29,122.58c0.4,0.28,1.11,0.58,1.78,0.58c0.98,0,1.45-0.53,1.45-1.19c0-0.69-0.38-1.07-1.38-1.47    c-1.34-0.51-1.97-1.3-1.97-2.26c0-1.29,0.97-2.34,2.57-2.34c0.75,0,1.42,0.23,1.83,0.49l-0.34,1.05c-0.29-0.2-0.83-0.46-1.52-0.46    c-0.8,0-1.25,0.49-1.25,1.09c0,0.66,0.45,0.96,1.42,1.35c1.29,0.53,1.95,1.22,1.95,2.41c0,1.4-1.02,2.39-2.78,2.39    c-0.82,0-1.57-0.21-2.09-0.54L338.29,122.58z"/>
	</g>
	<g>
		<path fill="#916F2A" d="M216.05,144.58c-0.6,0.23-1.78,0.61-3.18,0.61c-1.57,0-2.86-0.43-3.88-1.47    c-0.89-0.92-1.45-2.41-1.45-4.14c0.02-3.31,2.14-5.74,5.61-5.74c1.2,0,2.14,0.28,2.58,0.51l-0.32,1.17    c-0.55-0.26-1.25-0.48-2.29-0.48c-2.52,0-4.17,1.68-4.17,4.47c0,2.82,1.58,4.48,4,4.48c0.88,0,1.48-0.13,1.78-0.3v-3.31h-2.11    v-1.15h3.41V144.58z"/>
		<path fill="#916F2A" d="M225.5,141.02c0,2.95-1.91,4.24-3.71,4.24c-2.01,0-3.57-1.58-3.57-4.1c0-2.67,1.63-4.24,3.69-4.24    C224.06,136.92,225.5,138.58,225.5,141.02z M219.6,141.1c0,1.75,0.94,3.07,2.26,3.07c1.29,0,2.26-1.3,2.26-3.1    c0-1.35-0.63-3.06-2.23-3.06S219.6,139.59,219.6,141.1z"/>
		<path fill="#916F2A" d="M227.85,133.37h1.35v11.7h-1.35V133.37z"/>
		<path fill="#916F2A" d="M238.56,133.37v9.64c0,0.71,0.02,1.52,0.06,2.06h-1.21l-0.06-1.38h-0.03c-0.42,0.89-1.32,1.57-2.54,1.57    c-1.8,0-3.18-1.63-3.18-4.05c-0.01-2.65,1.52-4.28,3.34-4.28c1.14,0,1.91,0.58,2.25,1.22h0.03v-4.76H238.56z M237.2,140.34    c0-0.18-0.01-0.43-0.06-0.61c-0.2-0.92-0.94-1.68-1.95-1.68c-1.4,0-2.23,1.32-2.23,3.08c0,1.62,0.74,2.95,2.2,2.95    c0.91,0,1.74-0.64,1.98-1.73c0.05-0.2,0.06-0.4,0.06-0.63V140.34z"/>
		<path fill="#916F2A" d="M245.03,134.11c0.82-0.13,1.78-0.23,2.85-0.23c1.92,0,3.29,0.48,4.2,1.38c0.92,0.91,1.46,2.19,1.46,3.99    c0,1.81-0.52,3.3-1.49,4.32c-0.97,1.04-2.57,1.6-4.58,1.6c-0.95,0-1.75-0.05-2.43-0.13V134.11z M246.37,143.94    c0.34,0.07,0.83,0.08,1.35,0.08c2.86,0,4.42-1.71,4.42-4.71c0.01-2.62-1.37-4.29-4.2-4.29c-0.69,0-1.21,0.07-1.57,0.15V143.94z"/>
		<path fill="#916F2A" d="M259.99,145.07l-0.11-1h-0.05c-0.42,0.63-1.21,1.19-2.28,1.19c-1.51,0-2.28-1.14-2.28-2.29    c0-1.93,1.6-2.98,4.48-2.97v-0.16c0-0.66-0.17-1.85-1.69-1.85c-0.69,0-1.42,0.23-1.94,0.59l-0.31-0.96    c0.62-0.43,1.51-0.71,2.45-0.71c2.28,0,2.83,1.66,2.83,3.26v2.98c0,0.69,0.03,1.37,0.12,1.91H259.99z M259.79,141    c-1.48-0.03-3.15,0.25-3.15,1.8c0,0.94,0.58,1.38,1.28,1.38c0.97,0,1.58-0.66,1.8-1.33c0.05-0.15,0.08-0.31,0.08-0.46V141z"/>
		<path fill="#916F2A" d="M265.49,134.81v2.29h1.94v1.1h-1.94v4.3c0,0.99,0.26,1.55,1.02,1.55c0.35,0,0.62-0.05,0.78-0.1l0.06,1.09    c-0.26,0.12-0.68,0.2-1.2,0.2c-0.63,0-1.14-0.21-1.46-0.61c-0.38-0.43-0.52-1.14-0.52-2.08v-4.35h-1.15v-1.1h1.15v-1.91    L265.49,134.81z"/>
		<path fill="#916F2A" d="M273.72,145.07l-0.11-1h-0.05c-0.42,0.63-1.21,1.19-2.28,1.19c-1.51,0-2.28-1.14-2.28-2.29    c0-1.93,1.6-2.98,4.48-2.97v-0.16c0-0.66-0.17-1.85-1.69-1.85c-0.69,0-1.42,0.23-1.94,0.59l-0.31-0.96    c0.62-0.43,1.51-0.71,2.45-0.71c2.28,0,2.83,1.66,2.83,3.26v2.98c0,0.69,0.03,1.37,0.12,1.91H273.72z M273.52,141    c-1.48-0.03-3.15,0.25-3.15,1.8c0,0.94,0.58,1.38,1.28,1.38c0.97,0,1.58-0.66,1.8-1.33c0.05-0.15,0.08-0.31,0.08-0.46V141z"/>
		<path fill="#916F2A" d="M281.61,134.1c0.65-0.12,1.49-0.21,2.57-0.21c1.32,0,2.29,0.33,2.91,0.92c0.57,0.53,0.91,1.33,0.91,2.32    c0,1.01-0.28,1.8-0.8,2.37c-0.71,0.81-1.86,1.22-3.17,1.22c-0.4,0-0.77-0.02-1.08-0.1v4.45h-1.34V134.1z M282.94,139.45    c0.29,0.08,0.66,0.12,1.11,0.12c1.62,0,2.6-0.84,2.6-2.37c0-1.47-0.97-2.18-2.45-2.18c-0.58,0-1.03,0.05-1.26,0.12V139.45z"/>
		<path fill="#916F2A" d="M290.31,133.37h1.35v11.7h-1.35V133.37z"/>
		<path fill="#916F2A" d="M298.7,145.07l-0.11-1h-0.05c-0.42,0.63-1.21,1.19-2.28,1.19c-1.51,0-2.28-1.14-2.28-2.29    c0-1.93,1.6-2.98,4.48-2.97v-0.16c0-0.66-0.17-1.85-1.69-1.85c-0.69,0-1.42,0.23-1.94,0.59l-0.31-0.96    c0.62-0.43,1.51-0.71,2.45-0.71c2.28,0,2.83,1.66,2.83,3.26v2.98c0,0.69,0.03,1.37,0.12,1.91H298.7z M298.5,141    c-1.48-0.03-3.15,0.25-3.15,1.8c0,0.94,0.58,1.38,1.28,1.38c0.97,0,1.58-0.66,1.8-1.33c0.05-0.15,0.08-0.31,0.08-0.46V141z"/>
		<path fill="#916F2A" d="M304.21,134.81v2.29h1.94v1.1h-1.94v4.3c0,0.99,0.26,1.55,1.02,1.55c0.35,0,0.62-0.05,0.78-0.1l0.06,1.09    c-0.26,0.12-0.68,0.2-1.2,0.2c-0.63,0-1.14-0.21-1.46-0.61c-0.38-0.43-0.52-1.14-0.52-2.08v-4.35h-1.15v-1.1h1.15v-1.91    L304.21,134.81z"/>
		<path fill="#916F2A" d="M308.45,145.07v-6.87h-1.05v-1.1h1.05v-0.38c0-1.12,0.23-2.14,0.86-2.79c0.51-0.53,1.18-0.74,1.81-0.74    c0.48,0,0.89,0.12,1.15,0.23l-0.18,1.12c-0.2-0.1-0.48-0.18-0.86-0.18c-1.15,0-1.45,1.09-1.45,2.31v0.43h1.8v1.1h-1.8v6.87H308.45    z"/>
		<path fill="#916F2A" d="M319.98,141.02c0,2.95-1.91,4.24-3.71,4.24c-2.01,0-3.57-1.58-3.57-4.1c0-2.67,1.63-4.24,3.69-4.24    C318.54,136.92,319.98,138.58,319.98,141.02z M314.08,141.1c0,1.75,0.94,3.07,2.26,3.07c1.29,0,2.26-1.3,2.26-3.1    c0-1.35-0.63-3.06-2.23-3.06S314.08,139.59,314.08,141.1z"/>
		<path fill="#916F2A" d="M322.33,139.59c0-0.94-0.02-1.75-0.06-2.49h1.18l0.05,1.57h0.06c0.34-1.07,1.15-1.75,2.06-1.75    c0.15,0,0.26,0.02,0.38,0.05v1.37c-0.14-0.03-0.28-0.05-0.46-0.05c-0.95,0-1.63,0.77-1.82,1.86c-0.03,0.2-0.06,0.43-0.06,0.68    v4.25h-1.34V139.59z"/>
		<path fill="#916F2A" d="M328.07,139.26c0-0.82-0.02-1.5-0.06-2.16h1.18l0.06,1.29h0.05c0.42-0.76,1.11-1.47,2.34-1.47    c1.01,0,1.78,0.66,2.11,1.6h0.03c0.23-0.45,0.52-0.79,0.83-1.04c0.45-0.36,0.94-0.56,1.65-0.56c0.98,0,2.45,0.69,2.45,3.46v4.7    h-1.32v-4.52c0-1.53-0.52-2.46-1.62-2.46c-0.77,0-1.37,0.61-1.6,1.32c-0.06,0.2-0.11,0.46-0.11,0.72v4.93h-1.32v-4.78    c0-1.27-0.52-2.19-1.55-2.19c-0.85,0-1.46,0.72-1.68,1.45c-0.08,0.21-0.11,0.46-0.11,0.71v4.81h-1.32V139.26z"/>
	</g>
	<g>
		<path fill="#916F2A" d="M216.05,165.59c-0.6,0.23-1.78,0.61-3.18,0.61c-1.57,0-2.86-0.43-3.88-1.47    c-0.89-0.92-1.45-2.41-1.45-4.14c0.02-3.31,2.14-5.74,5.61-5.74c1.2,0,2.14,0.28,2.58,0.51l-0.32,1.17    c-0.55-0.26-1.25-0.48-2.29-0.48c-2.52,0-4.17,1.68-4.17,4.47c0,2.82,1.58,4.48,4,4.48c0.88,0,1.48-0.13,1.78-0.3v-3.31h-2.11    v-1.15h3.41V165.59z"/>
		<path fill="#916F2A" d="M225.5,162.03c0,2.95-1.91,4.24-3.71,4.24c-2.01,0-3.57-1.58-3.57-4.1c0-2.67,1.63-4.24,3.69-4.24    C224.06,157.92,225.5,159.59,225.5,162.03z M219.6,162.11c0,1.75,0.94,3.07,2.26,3.07c1.29,0,2.26-1.3,2.26-3.1    c0-1.35-0.63-3.06-2.23-3.06S219.6,160.59,219.6,162.11z"/>
		<path fill="#916F2A" d="M227.85,154.38h1.35v11.7h-1.35V154.38z"/>
		<path fill="#916F2A" d="M238.56,154.38v9.64c0,0.71,0.02,1.52,0.06,2.06h-1.21l-0.06-1.38h-0.03c-0.42,0.89-1.32,1.57-2.54,1.57    c-1.8,0-3.18-1.63-3.18-4.05c-0.01-2.65,1.52-4.28,3.34-4.28c1.14,0,1.91,0.58,2.25,1.22h0.03v-4.76H238.56z M237.2,161.35    c0-0.18-0.01-0.43-0.06-0.61c-0.2-0.92-0.94-1.68-1.95-1.68c-1.4,0-2.23,1.32-2.23,3.08c0,1.62,0.74,2.95,2.2,2.95    c0.91,0,1.74-0.64,1.98-1.73c0.05-0.2,0.06-0.4,0.06-0.63V161.35z"/>
		<path fill="#916F2A" d="M252.27,165.72c-0.49,0.26-1.48,0.53-2.74,0.53c-2.92,0-5.12-1.98-5.12-5.62c0-3.48,2.2-5.83,5.41-5.83    c1.29,0,2.11,0.3,2.46,0.49l-0.32,1.17c-0.51-0.26-1.23-0.46-2.09-0.46c-2.43,0-4.04,1.67-4.04,4.58c0,2.72,1.46,4.47,3.98,4.47    c0.82,0,1.65-0.18,2.18-0.46L252.27,165.72z"/>
		<path fill="#916F2A" d="M254.54,154.38h1.35v11.7h-1.35V154.38z"/>
		<path fill="#916F2A" d="M265.56,162.03c0,2.95-1.91,4.24-3.71,4.24c-2.02,0-3.57-1.58-3.57-4.1c0-2.67,1.63-4.24,3.69-4.24    C264.11,157.92,265.56,159.59,265.56,162.03z M259.65,162.11c0,1.75,0.94,3.07,2.26,3.07c1.29,0,2.26-1.3,2.26-3.1    c0-1.35-0.63-3.06-2.23-3.06S259.65,160.59,259.65,162.11z"/>
		<path fill="#916F2A" d="M274.13,163.91c0,0.82,0.02,1.55,0.06,2.18H273l-0.08-1.3h-0.03c-0.35,0.64-1.14,1.48-2.46,1.48    c-1.17,0-2.57-0.69-2.57-3.49v-4.66h1.35v4.42c0,1.52,0.43,2.54,1.66,2.54c0.91,0,1.54-0.68,1.78-1.32    c0.08-0.21,0.12-0.48,0.12-0.74v-4.89h1.35V163.91z"/>
		<path fill="#916F2A" d="M283.45,154.38v9.64c0,0.71,0.02,1.52,0.06,2.06h-1.21l-0.06-1.38h-0.03c-0.42,0.89-1.32,1.57-2.54,1.57    c-1.8,0-3.18-1.63-3.18-4.05c-0.01-2.65,1.52-4.28,3.34-4.28c1.14,0,1.91,0.58,2.25,1.22h0.03v-4.76H283.45z M282.1,161.35    c0-0.18-0.01-0.43-0.06-0.61c-0.2-0.92-0.94-1.68-1.95-1.68c-1.4,0-2.23,1.32-2.23,3.08c0,1.62,0.74,2.95,2.2,2.95    c0.91,0,1.74-0.64,1.98-1.73c0.05-0.2,0.06-0.4,0.06-0.63V161.35z"/>
		<path fill="#916F2A" d="M290.29,155.11c0.65-0.12,1.49-0.21,2.57-0.21c1.32,0,2.29,0.33,2.91,0.92c0.57,0.53,0.91,1.33,0.91,2.32    c0,1.01-0.28,1.8-0.8,2.37c-0.71,0.81-1.86,1.22-3.17,1.22c-0.4,0-0.77-0.02-1.08-0.1v4.45h-1.34V155.11z M291.63,160.46    c0.29,0.08,0.66,0.12,1.11,0.12c1.62,0,2.6-0.84,2.6-2.37c0-1.47-0.97-2.18-2.45-2.18c-0.58,0-1.03,0.05-1.26,0.12V160.46z"/>
		<path fill="#916F2A" d="M298.99,154.38h1.35v11.7h-1.35V154.38z"/>
		<path fill="#916F2A" d="M307.39,166.08l-0.11-1h-0.05c-0.42,0.63-1.21,1.19-2.28,1.19c-1.51,0-2.28-1.14-2.28-2.29    c0-1.93,1.6-2.98,4.48-2.97v-0.16c0-0.66-0.17-1.85-1.69-1.85c-0.69,0-1.42,0.23-1.94,0.59l-0.31-0.96    c0.62-0.43,1.51-0.71,2.45-0.71c2.28,0,2.83,1.66,2.83,3.26v2.98c0,0.69,0.03,1.37,0.12,1.91H307.39z M307.19,162.01    c-1.48-0.03-3.15,0.25-3.15,1.8c0,0.94,0.58,1.38,1.28,1.38c0.97,0,1.58-0.66,1.8-1.33c0.05-0.15,0.08-0.31,0.08-0.46V162.01z"/>
		<path fill="#916F2A" d="M312.89,155.82v2.29h1.94v1.1h-1.94v4.3c0,0.99,0.26,1.55,1.02,1.55c0.35,0,0.62-0.05,0.78-0.1l0.06,1.09    c-0.26,0.12-0.68,0.2-1.2,0.2c-0.63,0-1.14-0.21-1.46-0.61c-0.38-0.43-0.52-1.14-0.52-2.08v-4.35h-1.15v-1.1h1.15v-1.91    L312.89,155.82z"/>
		<path fill="#916F2A" d="M317.14,166.08v-6.87h-1.04v-1.1h1.04v-0.38c0-1.12,0.23-2.14,0.86-2.79c0.51-0.53,1.18-0.74,1.82-0.74    c0.48,0,0.89,0.12,1.15,0.23l-0.18,1.12c-0.2-0.1-0.48-0.18-0.86-0.18c-1.15,0-1.45,1.09-1.45,2.31v0.43h1.8v1.1h-1.8v6.87H317.14    z"/>
		<path fill="#916F2A" d="M328.67,162.03c0,2.95-1.91,4.24-3.71,4.24c-2.02,0-3.57-1.58-3.57-4.1c0-2.67,1.63-4.24,3.69-4.24    C327.23,157.92,328.67,159.59,328.67,162.03z M322.76,162.11c0,1.75,0.94,3.07,2.26,3.07c1.29,0,2.26-1.3,2.26-3.1    c0-1.35-0.63-3.06-2.23-3.06S322.76,160.59,322.76,162.11z"/>
		<path fill="#916F2A" d="M331.02,160.59c0-0.94-0.02-1.75-0.06-2.49h1.18l0.05,1.57h0.06c0.34-1.07,1.15-1.75,2.06-1.75    c0.15,0,0.26,0.02,0.38,0.05v1.37c-0.14-0.03-0.28-0.05-0.46-0.05c-0.95,0-1.63,0.77-1.82,1.86c-0.03,0.2-0.06,0.43-0.06,0.68    v4.25h-1.34V160.59z"/>
		<path fill="#916F2A" d="M336.76,160.26c0-0.82-0.02-1.5-0.06-2.16h1.18l0.06,1.29h0.05c0.42-0.76,1.11-1.47,2.34-1.47    c1.01,0,1.78,0.66,2.11,1.6h0.03c0.23-0.45,0.52-0.79,0.83-1.04c0.45-0.36,0.94-0.56,1.65-0.56c0.98,0,2.45,0.69,2.45,3.46v4.7    h-1.32v-4.52c0-1.53-0.52-2.46-1.61-2.46c-0.77,0-1.37,0.61-1.6,1.32c-0.06,0.2-0.11,0.46-0.11,0.72v4.93h-1.32v-4.78    c0-1.27-0.52-2.19-1.55-2.19c-0.85,0-1.46,0.72-1.68,1.45c-0.08,0.21-0.11,0.46-0.11,0.71v4.81h-1.32V160.26z"/>
	</g>
</g>
<g id="Competencies_-_text" display="none">
	<g display="inline">
		
			<text transform="matrix(0.9331 0 0 1 206.9895 103.057)" fill="#916F2A" font-family="'MyriadPro-Regular'" font-size="16.4776px">G</text>
		
			<text transform="matrix(0.9331 0 0 1 217.6443 103.057)" fill="#916F2A" font-family="'MyriadPro-Regular'" font-size="16.4776px">o</text>
		
			<text transform="matrix(0.9331 0 0 1 226.7312 103.057)" fill="#916F2A" font-family="'MyriadPro-Regular'" font-size="16.4776px">l</text>
		
			<text transform="matrix(0.9331 0 0 1 231.0057 103.057)" fill="#916F2A" font-family="'MyriadPro-Regular'" font-size="16.4776px">d</text>
		<text transform="matrix(0.9331 0 0 1 240.323 103.057)" fill="#916F2A" font-family="'MyriadPro-Regular'" font-size="16.4776px"> </text>
		
			<text transform="matrix(0.9331 0 0 1 243.8592 103.057)" fill="#916F2A" font-family="'MyriadPro-Regular'" font-size="16.4776px">D</text>
		
			<text transform="matrix(0.9331 0 0 1 254.8055 103.057)" fill="#916F2A" font-family="'MyriadPro-Regular'" font-size="16.4776px">e</text>
		
			<text transform="matrix(0.9331 0 0 1 263.1541 103.057)" fill="#916F2A" font-family="'MyriadPro-Regular'" font-size="16.4776px">v</text>
		
			<text transform="matrix(0.9331 0 0 1 271.1951 103.057)" fill="#916F2A" font-family="'MyriadPro-Regular'" font-size="16.4776px">O</text>
		
			<text transform="matrix(0.9331 0 0 1 282.4344 103.057)" fill="#916F2A" font-family="'MyriadPro-Regular'" font-size="16.4776px">p</text>
		
			<text transform="matrix(0.9331 0 0 1 291.8289 103.057)" fill="#916F2A" font-family="'MyriadPro-Regular'" font-size="16.4776px">s</text>
		<text transform="matrix(0.9331 0 0 1 206.9896 82.049)" fill="#916F2A" font-family="'MyriadPro-Regular'" font-size="16.4776px">G</text>
		<text transform="matrix(0.9331 0 0 1 217.6443 82.049)" fill="#916F2A" font-family="'MyriadPro-Regular'" font-size="16.4776px">o</text>
		<text transform="matrix(0.9331 0 0 1 226.7313 82.049)" fill="#916F2A" font-family="'MyriadPro-Regular'" font-size="16.4776px">l</text>
		<text transform="matrix(0.9331 0 0 1 231.0057 82.049)" fill="#916F2A" font-family="'MyriadPro-Regular'" font-size="16.4776px">d</text>
		<text transform="matrix(0.9331 0 0 1 240.3231 82.049)" fill="#916F2A" font-family="'MyriadPro-Regular'" font-size="16.4776px"> </text>
		<text transform="matrix(0.9331 0 0 1 243.8592 82.049)" fill="#916F2A" font-family="'MyriadPro-Regular'" font-size="16.4776px">A</text>
		<text transform="matrix(0.9331 0 0 1 253.868 82.049)" fill="#916F2A" font-family="'MyriadPro-Regular'" font-size="16.4776px">p</text>
		<text transform="matrix(0.9331 0 0 1 263.2625 82.049)" fill="#916F2A" font-family="'MyriadPro-Regular'" font-size="16.4776px">p</text>
		<text transform="matrix(0.9331 0 0 1 272.6561 82.049)" fill="#916F2A" font-family="'MyriadPro-Regular'" font-size="16.4776px">l</text>
		<text transform="matrix(0.9331 0 0 1 276.9305 82.049)" fill="#916F2A" font-family="'MyriadPro-Regular'" font-size="16.4776px">i</text>
		<text transform="matrix(0.9331 0 0 1 281.1736 82.049)" fill="#916F2A" font-family="'MyriadPro-Regular'" font-size="16.4776px">c</text>
		<text transform="matrix(0.9331 0 0 1 288.7078 82.049)" fill="#916F2A" font-family="'MyriadPro-Regular'" font-size="16.4776px">a</text>
		<text transform="matrix(0.9331 0 0 1 296.7029 82.049)" fill="#916F2A" font-family="'MyriadPro-Regular'" font-size="16.4776px">t</text>
		<text transform="matrix(0.9331 0 0 1 302.4383 82.049)" fill="#916F2A" font-family="'MyriadPro-Regular'" font-size="16.4776px">i</text>
		<text transform="matrix(0.9331 0 0 1 306.6815 82.049)" fill="#916F2A" font-family="'MyriadPro-Regular'" font-size="16.4776px">o</text>
		<text transform="matrix(0.9331 0 0 1 315.7684 82.049)" fill="#916F2A" font-family="'MyriadPro-Regular'" font-size="16.4776px">n</text>
		<text transform="matrix(0.9331 0 0 1 324.9471 82.049)" fill="#916F2A" font-family="'MyriadPro-Regular'" font-size="16.4776px"> </text>
		<text transform="matrix(0.9331 0 0 1 328.8524 82.049)" fill="#916F2A" font-family="'MyriadPro-Regular'" font-size="16.4776px">I</text>
		<text transform="matrix(0.9331 0 0 1 333.326 82.049)" fill="#916F2A" font-family="'MyriadPro-Regular'" font-size="16.4776px">n</text>
		<text transform="matrix(0.9331 0 0 1 342.4432 82.049)" fill="#916F2A" font-family="'MyriadPro-Regular'" font-size="16.4776px">t</text>
		<text transform="matrix(0.9331 0 0 1 348.0867 82.049)" fill="#916F2A" font-family="'MyriadPro-Regular'" font-size="16.4776px">e</text>
		<text transform="matrix(0.9331 0 0 1 356.4354 82.049)" fill="#916F2A" font-family="'MyriadPro-Regular'" font-size="16.4776px">g</text>
		<text transform="matrix(0.9331 0 0 1 365.5828 82.049)" fill="#916F2A" font-family="'MyriadPro-Regular'" font-size="16.4776px">r</text>
		<text transform="matrix(0.9331 0 0 1 371.1795 82.049)" fill="#916F2A" font-family="'MyriadPro-Regular'" font-size="16.4776px">a</text>
		<text transform="matrix(0.9331 0 0 1 379.1746 82.049)" fill="#916F2A" font-family="'MyriadPro-Regular'" font-size="16.4776px">t</text>
		<text transform="matrix(0.9331 0 0 1 384.91 82.049)" fill="#916F2A" font-family="'MyriadPro-Regular'" font-size="16.4776px">i</text>
		<text transform="matrix(0.9331 0 0 1 389.1531 82.049)" fill="#916F2A" font-family="'MyriadPro-Regular'" font-size="16.4776px">o</text>
		<text transform="matrix(0.9331 0 0 1 398.2401 82.049)" fill="#916F2A" font-family="'MyriadPro-Regular'" font-size="16.4776px">n</text>
		
			<text transform="matrix(0.9331 0 0 1 206.9896 61.0411)" fill="#916F2A" font-family="'MyriadPro-Regular'" font-size="16.4776px">G</text>
		
			<text transform="matrix(0.9331 0 0 1 217.6444 61.0411)" fill="#916F2A" font-family="'MyriadPro-Regular'" font-size="16.4776px">o</text>
		
			<text transform="matrix(0.9331 0 0 1 226.7313 61.0411)" fill="#916F2A" font-family="'MyriadPro-Regular'" font-size="16.4776px">l</text>
		
			<text transform="matrix(0.9331 0 0 1 231.0057 61.0411)" fill="#916F2A" font-family="'MyriadPro-Regular'" font-size="16.4776px">d</text>
		
			<text transform="matrix(0.9331 0 0 1 240.3231 61.0411)" fill="#916F2A" font-family="'MyriadPro-Regular'" font-size="16.4776px"> </text>
		
			<text transform="matrix(0.9331 0 0 1 243.8592 61.0411)" fill="#916F2A" font-family="'MyriadPro-Regular'" font-size="16.4776px">A</text>
		<text transform="matrix(0.9331 0 0 1 253.868 61.0411)" fill="#916F2A" font-family="'MyriadPro-Regular'" font-size="16.4776px">p</text>
		
			<text transform="matrix(0.9331 0 0 1 263.2625 61.0411)" fill="#916F2A" font-family="'MyriadPro-Regular'" font-size="16.4776px">p</text>
		
			<text transform="matrix(0.9331 0 0 1 272.6561 61.0411)" fill="#916F2A" font-family="'MyriadPro-Regular'" font-size="16.4776px">l</text>
		
			<text transform="matrix(0.9331 0 0 1 276.9305 61.0411)" fill="#916F2A" font-family="'MyriadPro-Regular'" font-size="16.4776px">i</text>
		
			<text transform="matrix(0.9331 0 0 1 281.1737 61.0411)" fill="#916F2A" font-family="'MyriadPro-Regular'" font-size="16.4776px">c</text>
		
			<text transform="matrix(0.9331 0 0 1 288.7079 61.0411)" fill="#916F2A" font-family="'MyriadPro-Regular'" font-size="16.4776px">a</text>
		<text transform="matrix(0.9331 0 0 1 296.703 61.0411)" fill="#916F2A" font-family="'MyriadPro-Regular'" font-size="16.4776px">t</text>
		
			<text transform="matrix(0.9331 0 0 1 302.4383 61.0411)" fill="#916F2A" font-family="'MyriadPro-Regular'" font-size="16.4776px">i</text>
		
			<text transform="matrix(0.9331 0 0 1 306.6815 61.0411)" fill="#916F2A" font-family="'MyriadPro-Regular'" font-size="16.4776px">o</text>
		
			<text transform="matrix(0.9331 0 0 1 315.7684 61.0411)" fill="#916F2A" font-family="'MyriadPro-Regular'" font-size="16.4776px">n</text>
		
			<text transform="matrix(0.9331 0 0 1 324.9471 61.0411)" fill="#916F2A" font-family="'MyriadPro-Regular'" font-size="16.4776px"> </text>
		
			<text transform="matrix(0.9331 0 0 1 328.8524 61.0411)" fill="#916F2A" font-family="'MyriadPro-Regular'" font-size="16.4776px">D</text>
		
			<text transform="matrix(0.9331 0 0 1 339.7987 61.0411)" fill="#916F2A" font-family="'MyriadPro-Regular'" font-size="16.4776px">e</text>
		
			<text transform="matrix(0.9331 0 0 1 348.1473 61.0411)" fill="#916F2A" font-family="'MyriadPro-Regular'" font-size="16.4776px">v</text>
		<text transform="matrix(0.9331 0 0 1 356.035 61.0411)" fill="#916F2A" font-family="'MyriadPro-Regular'" font-size="16.4776px">e</text>
		
			<text transform="matrix(0.9331 0 0 1 364.3836 61.0411)" fill="#916F2A" font-family="'MyriadPro-Regular'" font-size="16.4776px">l</text>
		
			<text transform="matrix(0.9331 0 0 1 368.6581 61.0411)" fill="#916F2A" font-family="'MyriadPro-Regular'" font-size="16.4776px">o</text>
		<text transform="matrix(0.9331 0 0 1 377.745 61.0411)" fill="#916F2A" font-family="'MyriadPro-Regular'" font-size="16.4776px">p</text>
		
			<text transform="matrix(0.9331 0 0 1 387.1385 61.0411)" fill="#916F2A" font-family="'MyriadPro-Regular'" font-size="16.4776px">m</text>
		
			<text transform="matrix(0.9331 0 0 1 400.6073 61.0411)" fill="#916F2A" font-family="'MyriadPro-Regular'" font-size="16.4776px">e</text>
		
			<text transform="matrix(0.9331 0 0 1 408.9559 61.0411)" fill="#916F2A" font-family="'MyriadPro-Regular'" font-size="16.4776px">n</text>
		
			<text transform="matrix(0.9331 0 0 1 418.0741 61.0411)" fill="#916F2A" font-family="'MyriadPro-Regular'" font-size="16.4776px">t</text>
		
			<text transform="matrix(0.9331 0 0 1 206.9897 124.0648)" fill="#916F2A" font-family="'MyriadPro-Regular'" font-size="16.4776px">G</text>
		
			<text transform="matrix(0.9331 0 0 1 217.6445 124.0648)" fill="#916F2A" font-family="'MyriadPro-Regular'" font-size="16.4776px">o</text>
		
			<text transform="matrix(0.9331 0 0 1 226.7314 124.0648)" fill="#916F2A" font-family="'MyriadPro-Regular'" font-size="16.4776px">l</text>
		
			<text transform="matrix(0.9331 0 0 1 231.0058 124.0648)" fill="#916F2A" font-family="'MyriadPro-Regular'" font-size="16.4776px">d</text>
		
			<text transform="matrix(0.9331 0 0 1 240.3232 124.0648)" fill="#916F2A" font-family="'MyriadPro-Regular'" font-size="16.4776px"> </text>
		
			<text transform="matrix(0.9331 0 0 1 243.8593 124.0648)" fill="#916F2A" font-family="'MyriadPro-Regular'" font-size="16.4776px">D</text>
		
			<text transform="matrix(0.9331 0 0 1 254.7441 124.0648)" fill="#916F2A" font-family="'MyriadPro-Regular'" font-size="16.4776px">a</text>
		
			<text transform="matrix(0.9331 0 0 1 262.7392 124.0648)" fill="#916F2A" font-family="'MyriadPro-Regular'" font-size="16.4776px">t</text>
		
			<text transform="matrix(0.9331 0 0 1 268.4746 124.0648)" fill="#916F2A" font-family="'MyriadPro-Regular'" font-size="16.4776px">a</text>
		
			<text transform="matrix(0.9331 0 0 1 276.5312 124.0648)" fill="#916F2A" font-family="'MyriadPro-Regular'" font-size="16.4776px"> </text>
		
			<text transform="matrix(0.9331 0 0 1 280.4365 124.0648)" fill="#916F2A" font-family="'MyriadPro-Regular'" font-size="16.4776px">A</text>
		
			<text transform="matrix(0.9331 0 0 1 290.4453 124.0648)" fill="#916F2A" font-family="'MyriadPro-Regular'" font-size="16.4776px">n</text>
		
			<text transform="matrix(0.9331 0 0 1 299.624 124.0648)" fill="#916F2A" font-family="'MyriadPro-Regular'" font-size="16.4776px">a</text>
		
			<text transform="matrix(0.9331 0 0 1 307.6806 124.0648)" fill="#916F2A" font-family="'MyriadPro-Regular'" font-size="16.4776px">l</text>
		
			<text transform="matrix(0.9331 0 0 1 311.955 124.0648)" fill="#916F2A" font-family="'MyriadPro-Regular'" font-size="16.4776px">y</text>
		
			<text transform="matrix(0.9331 0 0 1 319.8427 124.0648)" fill="#916F2A" font-family="'MyriadPro-Regular'" font-size="16.4776px">t</text>
		
			<text transform="matrix(0.9331 0 0 1 325.5771 124.0648)" fill="#916F2A" font-family="'MyriadPro-Regular'" font-size="16.4776px">i</text>
		
			<text transform="matrix(0.9331 0 0 1 329.8213 124.0648)" fill="#916F2A" font-family="'MyriadPro-Regular'" font-size="16.4776px">c</text>
		
			<text transform="matrix(0.9331 0 0 1 337.3545 124.0648)" fill="#916F2A" font-family="'MyriadPro-Regular'" font-size="16.4776px">s</text>
		
			<text transform="matrix(0.9331 0 0 1 206.9897 145.073)" fill="#916F2A" font-family="'MyriadPro-Regular'" font-size="16.4776px">G</text>
		
			<text transform="matrix(0.9331 0 0 1 217.6445 145.073)" fill="#916F2A" font-family="'MyriadPro-Regular'" font-size="16.4776px">o</text>
		
			<text transform="matrix(0.9331 0 0 1 226.7314 145.073)" fill="#916F2A" font-family="'MyriadPro-Regular'" font-size="16.4776px">l</text>
		
			<text transform="matrix(0.9331 0 0 1 231.0058 145.073)" fill="#916F2A" font-family="'MyriadPro-Regular'" font-size="16.4776px">d</text>
		
			<text transform="matrix(0.9331 0 0 1 240.3232 145.073)" fill="#916F2A" font-family="'MyriadPro-Regular'" font-size="16.4776px"> </text>
		
			<text transform="matrix(0.9331 0 0 1 243.8593 145.073)" fill="#916F2A" font-family="'MyriadPro-Regular'" font-size="16.4776px">D</text>
		
			<text transform="matrix(0.9331 0 0 1 254.7441 145.073)" fill="#916F2A" font-family="'MyriadPro-Regular'" font-size="16.4776px">a</text>
		
			<text transform="matrix(0.9331 0 0 1 262.7392 145.073)" fill="#916F2A" font-family="'MyriadPro-Regular'" font-size="16.4776px">t</text>
		
			<text transform="matrix(0.9331 0 0 1 268.4746 145.073)" fill="#916F2A" font-family="'MyriadPro-Regular'" font-size="16.4776px">a</text>
		
			<text transform="matrix(0.9331 0 0 1 276.5312 145.073)" fill="#916F2A" font-family="'MyriadPro-Regular'" font-size="16.4776px"> </text>
		
			<text transform="matrix(0.9331 0 0 1 280.4365 145.073)" fill="#916F2A" font-family="'MyriadPro-Regular'" font-size="16.4776px">P</text>
		
			<text transform="matrix(0.9331 0 0 1 289.1845 145.073)" fill="#916F2A" font-family="'MyriadPro-Regular'" font-size="16.4776px">l</text>
		<text transform="matrix(0.9331 0 0 1 293.459 145.073)" fill="#916F2A" font-family="'MyriadPro-Regular'" font-size="16.4776px">a</text>
		
			<text transform="matrix(0.9331 0 0 1 301.4541 145.073)" fill="#916F2A" font-family="'MyriadPro-Regular'" font-size="16.4776px">t</text>
		
			<text transform="matrix(0.9331 0 0 1 307.1894 145.073)" fill="#916F2A" font-family="'MyriadPro-Regular'" font-size="16.4776px">f</text>
		<text transform="matrix(0.9331 0 0 1 312.125 145.073)" fill="#916F2A" font-family="'MyriadPro-Regular'" font-size="16.4776px">o</text>
		
			<text transform="matrix(0.9331 0 0 1 321.2109 145.073)" fill="#916F2A" font-family="'MyriadPro-Regular'" font-size="16.4776px">r</text>
		
			<text transform="matrix(0.9331 0 0 1 326.9463 145.073)" fill="#916F2A" font-family="'MyriadPro-Regular'" font-size="16.4776px">m</text>
		
			<text transform="matrix(0.9331 0 0 1 206.9893 166.0816)" fill="#916F2A" font-family="'MyriadPro-Regular'" font-size="16.4776px">G</text>
		
			<text transform="matrix(0.9331 0 0 1 217.6441 166.0816)" fill="#916F2A" font-family="'MyriadPro-Regular'" font-size="16.4776px">o</text>
		
			<text transform="matrix(0.9331 0 0 1 226.731 166.0816)" fill="#916F2A" font-family="'MyriadPro-Regular'" font-size="16.4776px">l</text>
		
			<text transform="matrix(0.9331 0 0 1 231.0054 166.0816)" fill="#916F2A" font-family="'MyriadPro-Regular'" font-size="16.4776px">d</text>
		
			<text transform="matrix(0.9331 0 0 1 240.3228 166.0816)" fill="#916F2A" font-family="'MyriadPro-Regular'" font-size="16.4776px"> </text>
		
			<text transform="matrix(0.9331 0 0 1 243.8589 166.0816)" fill="#916F2A" font-family="'MyriadPro-Regular'" font-size="16.4776px">C</text>
		
			<text transform="matrix(0.9331 0 0 1 253.4214 166.0816)" fill="#916F2A" font-family="'MyriadPro-Regular'" font-size="16.4776px">l</text>
		
			<text transform="matrix(0.9331 0 0 1 257.6959 166.0816)" fill="#916F2A" font-family="'MyriadPro-Regular'" font-size="16.4776px">o</text>
		
			<text transform="matrix(0.9331 0 0 1 266.7828 166.0816)" fill="#916F2A" font-family="'MyriadPro-Regular'" font-size="16.4776px">u</text>
		<text transform="matrix(0.9331 0 0 1 275.9 166.0816)" fill="#916F2A" font-family="'MyriadPro-Regular'" font-size="16.4776px">d</text>
		
			<text transform="matrix(0.9331 0 0 1 285.2173 166.0816)" fill="#916F2A" font-family="'MyriadPro-Regular'" font-size="16.4776px"> </text>
		
			<text transform="matrix(0.9331 0 0 1 289.1226 166.0816)" fill="#916F2A" font-family="'MyriadPro-Regular'" font-size="16.4776px">P</text>
		
			<text transform="matrix(0.9331 0 0 1 297.8716 166.0816)" fill="#916F2A" font-family="'MyriadPro-Regular'" font-size="16.4776px">l</text>
		
			<text transform="matrix(0.9331 0 0 1 302.1451 166.0816)" fill="#916F2A" font-family="'MyriadPro-Regular'" font-size="16.4776px">a</text>
		
			<text transform="matrix(0.9331 0 0 1 310.1402 166.0816)" fill="#916F2A" font-family="'MyriadPro-Regular'" font-size="16.4776px">t</text>
		
			<text transform="matrix(0.9331 0 0 1 315.8755 166.0816)" fill="#916F2A" font-family="'MyriadPro-Regular'" font-size="16.4776px">f</text>
		
			<text transform="matrix(0.9331 0 0 1 320.8111 166.0816)" fill="#916F2A" font-family="'MyriadPro-Regular'" font-size="16.4776px">o</text>
		
			<text transform="matrix(0.9331 0 0 1 329.898 166.0816)" fill="#916F2A" font-family="'MyriadPro-Regular'" font-size="16.4776px">r</text>
		
			<text transform="matrix(0.9331 0 0 1 335.6324 166.0816)" fill="#916F2A" font-family="'MyriadPro-Regular'" font-size="16.4776px">m</text>
	</g>
</g>
</svg>
