<?xml version="1.0" encoding="utf-8"?>
<!-- Generator: Adobe Illustrator 26.3.1, SVG Export Plug-In . SVG Version: 6.00 Build 0)  -->
<svg version="1.1" id="Layer_1" xmlns="http://www.w3.org/2000/svg" xmlns:xlink="http://www.w3.org/1999/xlink" x="0px" y="0px"
	 viewBox="0 0 100 40.3" style="enable-background:new 0 0 100 40.3;" xml:space="preserve">
<style type="text/css">
	.st0{fill:#FFFFFF;}
</style>
<path class="st0" d="M0,0v40.3h100V0H0z M22.5,36.3l-6.8-22.4h-0.1L11,36.3H2.8l7-32.4h10.9l6.7,22.5h0.1L32,3.9h8.2l-6.9,32.4H22.5
	z M55.7,36.3l2.9-13.9H48.3l-2.9,13.9h-8.7l6.8-32.4h8.7l-2.6,12.4h10.3l2.6-12.4h8.7l-6.8,32.4H55.7z M94.2,11.2
	c-1.7-0.8-4-1.5-7.2-1.5c-3.5,0-6.3,0.5-6.3,3.1c0,4.6,12.6,2.9,12.6,12.7c0,9-8.4,11.3-15.9,11.3c-3.4,0-7.2-0.8-10.1-1.7l2.1-6.6
	c1.7,1.1,5.2,1.9,8,1.9c2.7,0,7-0.5,7-3.9c0-5.2-12.6-3.3-12.6-12.4c0-8.4,7.4-10.9,14.5-10.9c4,0,7.8,0.4,10,1.4L94.2,11.2z"/>
</svg>
