<?xml version="1.0" encoding="utf-8"?>
<!-- Generator: Adobe Illustrator 26.3.1, SVG Export Plug-In . SVG Version: 6.00 Build 0)  -->
<svg version="1.1" id="Layer_4" xmlns="http://www.w3.org/2000/svg" xmlns:xlink="http://www.w3.org/1999/xlink" x="0px" y="0px"
	 viewBox="0 0 100 77.9" style="enable-background:new 0 0 100 77.9;" xml:space="preserve">
<style type="text/css">
	.st0{fill:#FFFFFF;}
</style>
<g>
	<path class="st0" d="M17.7,51.8h5.4c6.1,0,11.4,2,11.4,9.9s-5.3,9.9-11.4,9.9h-5.4V51.8z M21.6,68.5h2.2c3.7-0.1,6.7-3.2,6.6-7
		c-0.1-3.6-3-6.5-6.6-6.6h-2.2C21.6,54.9,21.6,68.5,21.6,68.5z"/>
	<path class="st0" d="M37.3,50.7h3.8v3.6h-3.8V50.7z M37.3,57h3.8v14.6h-3.8V57z"/>
	<path class="st0" d="M58,57v13.2c0,4-1.6,7.7-7.7,7.7c-1.7,0-3.5-0.3-5.1-1l0.3-3.2c1.3,0.7,2.8,1.2,4.3,1.3c4.2,0,4.4-3.2,4.4-5.7
		h-0.1c-1,1.5-2.7,2.4-4.5,2.3c-4.3,0-6-3.5-6-7.4c0-3.5,1.8-7.6,6.2-7.6c1.8-0.1,3.5,0.8,4.5,2.3h0.1v-2L58,57L58,57z M54.2,64.1
		c0-2.5-1-4.5-3.2-4.5c-2.6,0-3.4,2.4-3.4,4.6c0,2,1.1,4.4,3.2,4.4C53.2,68.6,54.2,66.6,54.2,64.1L54.2,64.1z"/>
	<path class="st0" d="M61.5,50.7h3.8v3.6h-3.8V50.7z M61.5,57h3.8v14.6h-3.8V57z"/>
	<path class="st0" d="M70.5,59.8h-2.8V57h2.8v-3l3.8-1.2v4.1h3.4v2.8h-3.4v6.8c0,1.3,0.3,2.4,1.8,2.4c0.6,0,1.2-0.1,1.7-0.4l0.1,3
		c-0.9,0.2-1.9,0.4-2.8,0.3c-3,0-4.6-1.8-4.6-4.7L70.5,59.8L70.5,59.8z"/>
	<path class="st0" d="M81.5,57.7c1.6-0.7,3.3-1.1,5.1-1.1c4.5,0,6.3,1.8,6.3,6.2v1.9c0,1.5,0,2.6,0.1,3.7c0.1,1.1,0.1,2.1,0.2,3.2
		h-3.4c-0.1-0.7-0.2-1.5-0.2-2.2h-0.1c-1,1.6-2.7,2.6-4.5,2.5c-2.6,0-5.1-1.6-5.1-4.3c-0.1-1.8,0.9-3.4,2.5-4.2
		c1.6-0.6,3.2-0.9,4.9-0.8h2.1c0-2.4-1.1-3.2-3.3-3.2c-1.6,0-3.2,0.6-4.5,1.6L81.5,57.7z M86,69.2c1,0,2-0.5,2.7-1.3
		c0.6-0.9,0.9-1.9,0.8-3h-1.6c-1.7,0-4.2,0.3-4.2,2.5C83.6,68.6,84.6,69.2,86,69.2L86,69.2z"/>
	<path class="st0" d="M96.2,50.3h3.8v21.3h-3.8V50.3z"/>
	<path class="st0" d="M100,0H0v40.3h100L100,0L100,0z M59.9,16.3l2.6-12.4h8.7l0,0l-6.8,32.4h-8.7l2.9-13.9H48.3l-2.9,13.8h-8.7
		l6.8-32.4h8.7l-2.6,12.4H59.9z M33.3,36.3H22.5l-6.8-22.5h-0.1L11,36.3H2.8l7-32.4h10.9l6.7,22.5h0.1L32,3.9h8.2L33.3,36.3z
		 M94.2,11.2c-2.3-1-4.7-1.5-7.2-1.5c-3.5,0-6.3,0.5-6.3,3.1c0,4.6,12.6,2.9,12.6,12.7c0,9-8.4,11.3-15.9,11.3
		c-3.4-0.1-6.8-0.6-10.1-1.6l2-6.6c1.7,1.1,5.2,1.9,8,1.9c2.7,0,7-0.5,7-3.9c0-5.2-12.6-3.2-12.6-12.4c0-8.4,7.4-10.9,14.5-10.9
		c4,0,7.8,0.4,10,1.4l0,0L94.2,11.2z"/>
</g>
</svg>
