<?xml version="1.0"?>
<svg xmlns="http://www.w3.org/2000/svg" viewBox="0 0 540 420.77">
  <g fill="#fff">
    <path d="m95.22 279.62h29.3c32.83 0 61.83 11.05 61.83 53.55s-29 53.54-61.83 53.54h-29.3zm21.48 90.21h12c18 0 35.28-13.34 35.28-36.66s-17.33-36.67-35.28-36.67h-12z"/>
    <path d="m201.54 273.64h20.56v19.64h-20.56zm0 34.06h20.56v79h-20.56z"/>
    <path d="m313.23 307.7v71.3c0 21.48-8.59 41.73-41.73 41.73a69.52 69.52 0 0 1 -27.31-5.37l1.69-17.49c6.29 3.37 16.57 6.9 23 6.9 22.71 0 23.78-17 23.78-30.68h-.31c-3.83 6.75-13 12.58-24.54 12.58-23.32 0-32.22-18.72-32.22-39.89 0-19 9.82-41 33.45-41 10.43 0 18.56 3.53 24.24 12.58h.3v-10.66zm-20.56 38.66c0-13.5-5.21-24.55-17.18-24.55-14 0-18.41 12.89-18.41 25 0 10.74 5.68 23.93 17.49 23.93 12.89.01 18.1-11.19 18.1-24.38z"/>
    <path d="m331.8 273.64h20.55v19.64h-20.55zm0 34.06h20.55v79h-20.55z"/>
    <path d="m380.74 322.73h-15.19v-15h15.19v-15.83l20.56-6.6v22.4h18.25v15h-18.25v36.82c0 6.75 1.84 13 9.66 13 3.68 0 7.21-.76 9.36-2.14l.61 16.26a54 54 0 0 1 -15.19 1.84c-16.1 0-25-10-25-25.62z"/>
    <path d="m440.26 311.84a70.78 70.78 0 0 1 27.47-6c24.08 0 34 10 34 33.29v10.13c0 8 .16 14 .31 19.79.15 6 .46 11.5.92 17.64h-18.1a95 95 0 0 1 -.86-11.79h-.31c-4.76 8.74-15 13.65-24.39 13.65-14 0-27.62-8.44-27.62-23.47 0-11.82 5.68-18.72 13.5-22.56s17.95-4.6 26.54-4.6h11.36c0-12.73-5.68-17-17.8-17a41.37 41.37 0 0 0 -24.39 8.59zm24.09 61.68a17.47 17.47 0 0 0 14.42-7.06c3.38-4.45 4.3-10.13 4.3-16.26h-8.9c-9.21 0-22.86 1.53-22.86 13.65 0 6.75 5.69 9.67 13.04 9.67z"/>
    <path d="m519.43 271.65h20.57v115.06h-20.57z"/>
    <path d="m519.77 25.75-11.35 34.85c-9.07-4.25-21.42-8-38.8-8-18.64 0-33.78 2.73-33.78 16.79 0 24.81 68.3 15.55 68.3 68.71 0 48.38-45.14 60.9-85.94 60.9-18.14 0-39.07-4.28-54.42-9.05l11.09-35.61c9.3 6 28 10 43.33 10 14.63 0 37.55-2.76 37.55-20.81 0-28.09-68.31-17.55-68.31-66.93 0-45.15 39.83-58.69 78.4-58.69 21.68 0 42.08 2.27 53.93 7.77m-135.34-4.68-36.55 175h-47.11l15.63-75h-55.72l-15.62 75h-47.12l36.55-175h47.11l-13.84 67h55.69l13.87-67zm-167.31 0-37.29 175h-58.5l-36.77-121.1h-.51l-24.46 121.1h-44.36l37.57-175h58.7l36.06 121.37h.49l24.7-121.37zm322.88-21h-540v217.45h540z"/>
  </g>
</svg>
