<?xml version="1.0" encoding="utf-8"?>
<!-- Generator: Adobe Illustrator 25.2.2, SVG Export Plug-In . SVG Version: 6.00 Build 0)  -->
<svg xmlns="http://www.w3.org/2000/svg" xmlns:xlink="http://www.w3.org/1999/xlink" version="1.1" id="Group_30" x="0px" y="0px" viewBox="0 0 800 764" style="enable-background:new 0 0 800 764;" xml:space="preserve">
<style type="text/css">
	.st0{fill:#29FFFF;}
	.st1{fill:#FFFFFF;}
</style>
<g id="Group_3">
	<path id="Path_1" class="st0" d="M601.4,389.3L322.2,668.5l95.5,95.5l279.1-279.2L601.4,389.3z M407.7,689.3   c-0.6,0.8-1.8,1-2.6,0.4c-0.1-0.1-0.3-0.2-0.4-0.4l-31.2-31.2c-0.8-0.6-1-1.8-0.4-2.6c0.1-0.1,0.2-0.3,0.4-0.4l3.8-3.8   c0.6-0.7,1.4-1.3,2.1-1.8c0.8-0.4,1.7-0.7,2.5-0.9l36.4-3.1c2.1-0.2,4-0.4,5.6-0.7c1.6-0.2,3.1-0.5,4.6-1c1.4-0.4,2.7-1,3.9-1.7   c1.3-0.8,2.4-1.7,3.4-2.7c2.1-1.9,3.5-4.5,3.8-7.4c0.1-2.9-1.1-5.7-3.4-7.6c-1.9-2.1-4.6-3.4-7.5-3.6c-3.2,0.1-6.1,1.6-8.2,4   l-0.5,0.5c-0.6,0.8-1.7,1-2.6,0.4c-0.1-0.1-0.3-0.2-0.4-0.4l-7-7c-0.8-0.6-1-1.7-0.4-2.5c0.1-0.1,0.2-0.3,0.4-0.4l0.2-0.2   c2.4-2.4,5.2-4.5,8.2-6.1c2.7-1.4,5.8-2.3,8.9-2.4c3.1-0.1,6.3,0.5,9.1,1.8c3.4,1.5,6.5,3.7,9,6.4c2.6,2.5,4.8,5.5,6.3,8.8   c1.3,2.8,2.1,5.9,2.1,9.1c0,3-0.6,6-1.9,8.8c-1.4,3-3.3,5.7-5.6,8c-2.9,3-6.5,5.2-10.5,6.5c-4.8,1.3-9.6,2.2-14.6,2.5l-28.3,1.9   l20.1,20.1c0.8,0.6,1,1.8,0.4,2.6c-0.1,0.1-0.2,0.3-0.4,0.4L407.7,689.3z M429.6,714.2l-7.4-7.4c-0.8-0.6-1-1.8-0.4-2.6   c0.1-0.1,0.2-0.3,0.4-0.4l46.9-46.9l-7.5-7.5c-0.8-0.6-0.9-1.8-0.3-2.5c0.1-0.1,0.2-0.3,0.4-0.4l5.6-5.6c0.6-0.8,1.7-1,2.6-0.4   c0.1,0.1,0.3,0.2,0.4,0.4l16.5,16.5c0.8,0.6,1,1.8,0.4,2.6c-0.1,0.1-0.2,0.3-0.4,0.4l-54,54c-0.7,0.8-1.9,1-2.7,0.3   C429.8,714.4,429.7,714.3,429.6,714.2"/>
	<path id="Path_2" class="st1" d="M0,372.8V222.1c-0.3-2,1.1-3.9,3.1-4.2c0.3,0,0.7,0,1,0H51c17.7,0,31,4.5,40,13.4   c4.5,4.4,8,9.9,10.2,15.8c2.6,7.5,3.8,15.3,3.6,23.2v54.2c0.2,7.9-1,15.8-3.5,23.2c-2.2,6-5.7,11.4-10.3,15.8   c-9.1,8.9-22.4,13.4-40,13.4H4.2c-2,0.3-3.9-1.1-4.2-3.1C0,373.5,0,373.2,0,372.8 M29.3,352.2h20.4c7.4,0.8,14.8-1.7,20.2-6.7   c2.1-2.3,3.6-5,4.4-8c1-4,1.4-8.1,1.3-12.2v-55.6c0.1-4.1-0.4-8.2-1.4-12.2c-0.8-3-2.3-5.7-4.3-8.1c-5.5-5-12.8-7.4-20.2-6.6H29.3   V352.2z"/>
	<path id="Path_3" class="st1" d="M124.9,372.8V222.1c-0.3-2,1.1-3.9,3.1-4.2c0.3-0.1,0.7-0.1,1,0H150c2-0.3,3.9,1.1,4.1,3.1   c0,0.3,0,0.7,0,1v150.7c0.3,2-1.1,3.9-3.1,4.2c-0.3,0.1-0.7,0.1-1,0H129c-2,0.3-3.9-1.1-4.1-3.1   C124.8,373.5,124.8,373.2,124.9,372.8"/>
	<path id="Path_4" class="st1" d="M174.4,325.7v-56.6c-0.2-8.1,0.9-16.3,3.4-24c4.1-12.2,13.8-21.8,26.1-25.8   c6.9-2.2,14-3.3,21.2-3.3c13.8-0.8,27.3,3.9,37.6,13.1c4.4,4.5,7.8,9.9,9.9,15.9c2.5,7.7,3.7,15.9,3.5,24v3.9   c0.3,2-1.1,3.9-3.1,4.2c-0.3,0-0.7,0-1,0h-20.9c-2,0.3-3.9-1.1-4.2-3.1c0-0.3,0-0.7,0-1v-4.8c0.7-7.3-1.5-14.5-6.2-20.2   c-9.1-7-21.8-7-30.9,0c-4.6,5.6-6.9,12.9-6.2,20.2v58.3c-0.7,7.3,1.6,14.6,6.2,20.3c4.2,3.8,9.8,5.7,15.4,5.3   c5.7,0.4,11.2-1.5,15.5-5.3c4.7-5.7,6.9-12.9,6.2-20.2v-6.4h-17.3c-2,0.3-3.9-1.1-4.2-3.1c0-0.3,0-0.7,0-1V300   c-0.3-2,1.1-3.9,3.1-4.2c0.3,0,0.7,0,1,0H272c2-0.3,3.9,1.1,4.2,3.1c0.1,0.3,0.1,0.7,0,1v25.7c0.2,8.1-0.9,16.3-3.4,24   c-2.1,6-5.5,11.5-9.9,16c-10.3,9.2-23.8,13.9-37.6,13c-7.2,0.1-14.4-1-21.2-3.2c-6.1-2-11.6-5.3-16.2-9.8c-4.4-4.5-7.8-10-9.9-16   C175.4,342,174.2,333.9,174.4,325.7"/>
	<path id="Path_5" class="st1" d="M296.2,372.8V222.1c-0.3-2,1.1-3.9,3.1-4.2c0.3-0.1,0.7-0.1,1,0h21c2-0.3,3.9,1.1,4.1,3.1   c0,0.3,0,0.7,0,1v150.7c0.3,2-1.1,3.9-3.1,4.2c-0.3,0.1-0.7,0.1-1,0h-20.9c-2,0.3-3.9-1.1-4.1-3.1   C296.2,373.5,296.2,373.2,296.2,372.8"/>
	<path id="Path_6" class="st1" d="M339,238.6v-16.5c-0.3-2,1.1-3.9,3.1-4.2c0.3,0,0.7,0,1,0H444c2-0.3,3.9,1.1,4.2,3.1   c0,0.3,0,0.7,0,1v16.5c0.3,2-1.1,3.9-3.1,4.2c-0.3,0-0.7,0.1-1,0h-35.9v130.1c0.3,2-1.1,3.9-3.1,4.2c-0.3,0-0.7,0-1,0h-20.8   c-2,0.3-3.9-1.1-4.2-3.1c-0.1-0.3-0.1-0.7,0-1V242.8h-35.8c-2,0.3-3.9-1.1-4.1-3.1C339,239.3,339,238.9,339,238.6"/>
	<path id="Path_7" class="st1" d="M435.6,372.8l43-149.8c0.3-1.6,1.1-3.1,2.3-4.1c1.6-0.7,3.3-1,5.1-0.9h18.5   c1.7-0.2,3.4,0.1,4.9,0.9c1.2,1.1,2,2.6,2.4,4.2l44.3,149.8c0.1,0.5,0.2,1,0.2,1.6c0,1.7-1.2,2.6-3.5,2.6h-22.2   c-2.5,0.2-4.8-1.6-5.1-4.2l-8-30.1H473l-7.8,30.1c-0.4,2.5-2.6,4.3-5.1,4.2h-21.3c-2.3,0-3.5-0.9-3.5-2.6   C435.4,373.9,435.5,373.3,435.6,372.8 M479.6,317.7H511l-14.9-57h-1.3L479.6,317.7z"/>
	<path id="Path_8" class="st1" d="M569.2,372.8V222.1c-0.3-2,1.1-3.9,3.1-4.2c0.3,0,0.7,0,1,0h21c2-0.3,3.8,1,4.1,3   c0.1,0.4,0.1,0.8,0,1.2v130.1h51.3c2-0.3,3.9,1.1,4.2,3.1c0,0.3,0,0.7,0,1v16.5c0.3,2-1.1,3.9-3.1,4.2c-0.3,0-0.7,0-1,0h-76.4   c-2,0.3-3.9-1.1-4.2-3.1C569.1,373.5,569.1,373.2,569.2,372.8"/>
	<path id="Path_9" class="st1" d="M0,542.5V391.8c-0.3-2,1.1-3.9,3.1-4.2c0.3,0,0.7,0,1,0h76.2c2-0.3,3.9,1.1,4.2,3.1   c0.1,0.3,0.1,0.7,0,1v16.5c0.3,2-1.1,3.9-3.1,4.2c-0.3,0-0.7,0-1,0H29.3v40.2h42.4c2-0.3,3.9,1.1,4.2,3.1c0,0.3,0,0.7,0,1v16.2   c0.3,1.9-1,3.8-3,4.1c-0.4,0.1-0.8,0.1-1.2,0H29.3v65.6c0.3,2-1,3.8-3,4.1c-0.3,0.1-0.7,0.1-1,0h-21c-2,0.3-3.9-1.1-4.2-3.1   C0,543.2,0,542.9,0,542.5"/>
	<path id="Path_10" class="st1" d="M97.8,542.5V391.8c-0.3-2,1.1-3.9,3.1-4.2c0.3,0,0.7,0,1,0h78c2-0.3,3.9,1.1,4.2,3.1   c0,0.3,0,0.7,0,1v16.5c0.3,2-1.1,3.9-3.1,4.2c-0.3,0-0.7,0-1,0H127v40.2h44.3c1.9-0.3,3.8,1,4.1,3c0.1,0.4,0.1,0.8,0,1.2v16.2   c0,2.8-1.3,4.1-4,4H127v44.9H181c1.9-0.3,3.8,1,4.1,3c0.1,0.4,0.1,0.8,0,1.2v16.5c0.3,2-1,3.8-3,4.1c-0.3,0.1-0.7,0.1-1,0h-79   c-2,0.3-3.9-1.1-4.2-3.1C97.7,543.2,97.7,542.9,97.8,542.5"/>
	<path id="Path_11" class="st1" d="M198.8,500.4v-3.4c-0.3-2,1.1-3.9,3.1-4.2c0.3,0,0.7,0,1,0h19.3c2-0.3,3.9,1.1,4.2,3.1   c0.1,0.3,0.1,0.7,0,1v1.1c0,3.2,0.4,6.4,1.2,9.4c1.5,5.9,5.8,10.7,11.5,12.9c3.7,1.3,7.6,2,11.5,1.9c6.1,0.5,12.1-1.3,17-5.1   c3.8-3.5,5.8-8.5,5.6-13.6c0.3-5.1-1.7-10-5.4-13.5c-4.6-3.7-9.8-6.6-15.4-8.7l-16.9-6.9c-5.6-2.1-11-4.8-16.2-8   c-4.2-2.6-8-5.9-11.2-9.7c-2.9-3.6-5.1-7.7-6.4-12.2c-1.4-5.1-2-10.5-1.9-15.8c-0.1-6.4,1.1-12.7,3.6-18.5c2.3-5.2,5.7-9.8,10-13.5   c4.6-3.8,9.9-6.7,15.6-8.4c6.5-2,13.3-3,20.2-2.9c13.4-0.8,26.5,3.7,36.7,12.3c9.3,9.2,14.2,22,13.4,35v3.7c0.3,2-1.1,3.9-3.2,4.2   c-0.3,0-0.7,0-1,0h-18.8c-2,0.3-3.8-1-4.1-3c-0.1-0.4-0.1-0.8,0-1.2v-1.6c0.4-6.3-1.7-12.4-5.8-17.2c-4.7-4.4-11-6.6-17.4-6.1   c-5.4-0.2-10.7,1.3-15.2,4.3c-4.1,3-6.3,7.9-6,12.9c-0.4,4.9,1.6,9.8,5.4,12.9c4.7,3.3,9.7,6.1,15.1,8.1l16,6.6   c10.8,3.7,20.5,10.1,28.1,18.6c5.8,7.9,8.7,17.6,8.3,27.4c0.2,7-1.1,14-3.7,20.5c-2.3,5.5-5.9,10.4-10.4,14.3   c-4.7,3.9-10.2,6.7-16,8.3c-6.6,1.8-13.4,2.7-20.2,2.6c-7.7,0.2-15.4-1-22.8-3.4c-6-2-11.5-5.4-16-9.9c-4.3-4.3-7.6-9.5-9.6-15.2   C199.8,513.7,198.7,507.1,198.8,500.4"/>
	<path id="Path_12" class="st1" d="M306.7,408.3v-16.5c-0.3-2,1.1-3.9,3.1-4.2c0.3-0.1,0.7-0.1,1,0h100.8c2-0.3,3.9,1.1,4.2,3.1   c0,0.3,0,0.7,0,1v16.5c0.3,2-1.1,3.9-3.1,4.2c-0.3,0-0.7,0.1-1,0h-35.9v130.1c0.3,2-1.1,3.9-3.1,4.2c-0.3,0-0.7,0-1,0h-20.8   c-2,0.3-3.9-1.1-4.2-3.1c-0.1-0.3-0.1-0.7,0-1V412.5h-35.8c-2,0.3-3.9-1.1-4.1-3.1C306.6,409,306.6,408.6,306.7,408.3"/>
	<path id="Path_13" class="st1" d="M429.1,542.5V391.8c-0.3-2,1.1-3.9,3.1-4.1c0.3,0,0.7,0,1,0h20.9c2-0.3,3.9,1.1,4.1,3.1   c0,0.3,0,0.7,0,1v150.7c0.3,2-1.1,3.9-3.1,4.2c-0.3,0.1-0.7,0.1-1,0h-20.9c-2,0.3-3.9-1.1-4.1-3.1C429,543.2,429,542.9,429.1,542.5   "/>
	<path id="Path_14" class="st1" d="M471.9,391.8c-0.1-0.5-0.2-1-0.2-1.6c0-1.7,1.2-2.6,3.5-2.6h22.6c2.5-0.1,4.7,1.7,5.1,4.2   l27.1,110.6h1l27.1-110.6c0.3-2.5,2.5-4.3,5.1-4.2h21.9c2.3,0,3.5,0.9,3.5,2.6c0,0.5-0.1,1.1-0.2,1.6l-41,149.8   c-0.3,1.6-1.1,3.1-2.4,4.2c-1.6,0.7-3.4,1-5.2,0.9h-18.8c-1.8,0.1-3.6-0.2-5.2-0.9c-1.3-1-2.2-2.5-2.4-4.2L471.9,391.8z"/>
	<path id="Path_15" class="st1" d="M581.7,542.5l43-149.8c0.3-1.6,1.1-3.1,2.3-4.1c1.6-0.7,3.3-1,5.1-0.9h18.5   c1.7-0.2,3.4,0.1,4.9,0.9c1.2,1.1,2,2.6,2.4,4.2l44.3,149.8c0.1,0.5,0.2,1,0.2,1.6c0,1.7-1.2,2.6-3.5,2.6h-22.1   c-2.5,0.2-4.8-1.6-5.1-4.2l-8-30.1h-44.6l-7.8,30.1c-0.4,2.5-2.6,4.3-5.1,4.2h-21.3c-2.3,0-3.5-0.9-3.5-2.6   C581.4,543.6,581.5,543,581.7,542.5 M625.6,487.4H657l-14.9-57h-1.3L625.6,487.4z"/>
	<path id="Path_16" class="st1" d="M715.2,542.5V391.8c-0.3-2,1.1-3.9,3.1-4.2c0.3,0,0.7,0,1,0h21c2-0.3,3.8,1,4.1,3   c0.1,0.4,0.1,0.8,0,1.2v130.1h51.3c2-0.3,3.9,1.1,4.2,3.1c0,0.3,0,0.7,0,1v16.5c0.3,2-1.1,3.9-3.1,4.2c-0.3,0-0.7,0-1,0h-76.4   c-2,0.3-3.9-1.1-4.2-3.1C715.2,543.2,715.2,542.9,715.2,542.5"/>
	<path id="Path_17" class="st0" d="M417.7,0l-95.5,95.5l382,382l95.5-95.5L417.7,0z M581.2,198.3l7.2,7.2c0.7,0.5,0.9,1.5,0.4,2.2   c-0.1,0.1-0.2,0.3-0.4,0.4l-6.7,6.7c-0.5,0.7-1.5,0.9-2.2,0.4c-0.1-0.1-0.3-0.2-0.4-0.4l-7.2-7.2c-0.7-0.5-0.9-1.5-0.4-2.2   c0.1-0.1,0.2-0.3,0.4-0.4l6.7-6.7c0.5-0.7,1.5-0.9,2.2-0.4C581,198.1,581.1,198.2,581.2,198.3 M448.4,97.8l-1.3,1.3   c-0.6,0.8-1.8,1-2.6,0.4c-0.1-0.1-0.3-0.2-0.4-0.4l-6.6-6.6c-0.8-0.6-1-1.8-0.4-2.6c0.1-0.1,0.2-0.3,0.4-0.4l0.6-0.6   c4.5-3.5,5.3-10,1.8-14.4c-0.1-0.1-0.1-0.1-0.2-0.2l9.4-9.4c8.9,8.4,9.3,22.4,0.9,31.2C449.6,96.8,449,97.3,448.4,97.8 M389.2,86.2   l1.2-1.2c0.6-0.8,1.8-1,2.6-0.4c0.1,0.1,0.3,0.2,0.4,0.4l6.8,6.8c0.8,0.6,1,1.7,0.4,2.6c-0.1,0.1-0.2,0.3-0.4,0.4l-0.4,0.4   c-4.7,3.6-5.7,10.3-2.1,15.1c0.1,0.2,0.3,0.3,0.4,0.5l-9.2,9.2c-9.2-8.2-10-22.3-1.8-31.5C387.7,87.6,388.4,86.9,389.2,86.2    M391.5,122.6l9.2-9.2c3.3,3.8,9.1,4.1,12.9,0.8c0.2-0.2,0.4-0.4,0.6-0.6c4.1-4.1,3.3-8.6,0.5-15.1l-3.6-8.5   c-5.3-12.5-4.9-20.2,3.6-28.6c9.5-9.5,21.4-8.6,31.7,0.9l-9.4,9.4c-3.1-3.5-8.5-3.9-12-0.8c-0.2,0.1-0.3,0.3-0.4,0.4   c-4.2,4.2-2.8,8.3-0.2,14.6l3.3,8.1c5.5,13.2,4.6,21.2-3.3,29.2C413.6,134,401.7,132.2,391.5,122.6 M420.8,150.7l-7.2-7.2   c-0.7-0.5-0.9-1.5-0.4-2.2c0.1-0.1,0.2-0.3,0.4-0.4l53.7-53.7c0.5-0.7,1.5-0.9,2.2-0.4c0.1,0.1,0.3,0.2,0.4,0.4l7.2,7.2   c0.7,0.5,0.9,1.5,0.4,2.2c-0.1,0.1-0.2,0.3-0.4,0.4l-53.7,53.7c-0.5,0.7-1.5,0.9-2.2,0.4C421,150.9,420.9,150.8,420.8,150.7    M441.5,171.3l-7.2-7.2c-0.7-0.5-0.9-1.5-0.4-2.2c0.1-0.1,0.2-0.3,0.4-0.4l25.6-25.6c1.9-1.5,3.2-3.7,3.4-6.2c-0.2-2-1.1-3.8-2.6-5   c-1.1-1.1-2.3-2-3.7-2.9l7.8-7.8c2.9,1,5.5,2.6,7.6,4.8c3.4,3.2,5.4,7.6,5.5,12.3c-0.4,5.1-2.9,9.9-6.8,13.2l-27,27   c-0.5,0.7-1.5,0.9-2.2,0.4C441.7,171.6,441.6,171.5,441.5,171.3 M452.9,175.2c0.7-5.3,3.3-10.1,7.5-13.5l12.5-12.5   c3.4-4.2,8.2-6.8,13.5-7.5c5.8,0.1,11.3,2.4,15.4,6.6l-8.5,8.5c-1.3-1.1-3-1.7-4.7-1.6c-2.2,0.4-4.1,1.6-5.5,3.3l-2.4,2.4l5.4,5.4   l5.5,5.5l2.4-2.4c1.5-1.3,2.6-2.9,3.2-4.7c0.1-0.2,0.1-0.5,0.1-0.7c0.1-1.7-0.5-3.4-1.6-4.7l8.5-8.5c3.6,3.6,5.9,8.4,6.5,13.4   c0,0.6,0,1.2,0,1.9c-0.1,1.1-0.3,2.2-0.6,3.3c-0.6,1.7-1.4,3.4-2.5,4.9c-0.4,0.6-0.8,1.1-1.3,1.7c-1,1.3-2.1,2.5-3.3,3.6l-8.3,8.3   c-0.2,0.2-0.4,0.4-0.6,0.5c-0.2,0.1-0.4,0.2-0.6,0.2c-0.2,0-0.5-0.1-0.7-0.2c-0.3-0.2-0.5-0.3-0.7-0.6l-13.8-13.8l-5.4-5.4   l-3.4,3.4c-1.7,1.4-2.9,3.3-3.3,5.5c-0.1,1.7,0.5,3.4,1.6,4.7l-8.5,8.5C455.3,186.5,452.9,181,452.9,175.2 M461.9,193l8.5-8.4   c2.3,2.4,6.2,2.5,8.6,0.2c0.1-0.1,0.3-0.3,0.4-0.4c0.9-0.7,1.5-0.7,2.5,0.2l6.3,6.3c0.9,0.9,1.1,1.5,0.2,2.4l-0.3,0.3   c-6.1,7-16.8,7.8-23.8,1.7C463.3,194.7,462.6,193.9,461.9,193 M488.3,218.1l-7.2-7.2c-0.7-0.5-0.9-1.5-0.4-2.2   c0.1-0.1,0.2-0.3,0.4-0.4l44-44c2.7-3.3,6.6-5.4,10.8-5.8c4.7,0.6,9.1,3,12,6.7l6.2,6.2c0.7,0.5,0.9,1.5,0.4,2.2   c-0.1,0.1-0.2,0.3-0.4,0.4l-5.9,5.9c-0.5,0.7-1.5,0.9-2.2,0.4c-0.1-0.1-0.3-0.2-0.4-0.4l-4.1-4.1c-1.7-1.7-2.9-2.5-4.1-2.6   s-2.4,0.6-4.2,2.4l-2.7,2.7l7.6,7.6c0.7,0.5,0.9,1.5,0.4,2.2c-0.1,0.1-0.2,0.3-0.4,0.4l-5.5,5.5c-0.5,0.7-1.5,0.9-2.2,0.4   c-0.1-0.1-0.3-0.2-0.4-0.4l-7.6-7.6l-31.6,31.6c-0.5,0.7-1.5,0.9-2.2,0.4C488.5,218.4,488.4,218.2,488.3,218.1 M509.8,239.6   l-7.2-7.2c-0.7-0.5-0.9-1.5-0.4-2.2c0.1-0.1,0.2-0.3,0.4-0.4l44-44c2.7-3.3,6.6-5.4,10.8-5.8c4.7,0.6,9.1,3,12,6.7l6.2,6.2   c0.7,0.5,0.9,1.5,0.4,2.2c-0.1,0.1-0.2,0.3-0.4,0.4l-5.9,5.9c-0.5,0.7-1.5,0.9-2.2,0.4c-0.1-0.1-0.3-0.2-0.4-0.4l-4.1-4.1   c-1.7-1.7-2.8-2.5-4.1-2.6c-1.2-0.1-2.4,0.6-4.2,2.4l-2.7,2.7l7.6,7.6c0.7,0.5,0.9,1.5,0.4,2.2c-0.1,0.1-0.2,0.3-0.4,0.4l-5.5,5.5   c-0.5,0.7-1.5,0.9-2.2,0.4c-0.1-0.1-0.3-0.2-0.4-0.4l-7.6-7.6l-31.6,31.6c-0.5,0.7-1.5,0.9-2.2,0.4   C510,239.9,509.9,239.8,509.8,239.6 M532,261.8l-7.1-7.2c-0.7-0.5-0.9-1.5-0.4-2.2c0.1-0.1,0.2-0.3,0.4-0.4l38.4-38.4   c0.5-0.7,1.5-0.9,2.2-0.4c0.1,0.1,0.3,0.2,0.4,0.4l7.2,7.2c0.7,0.5,0.9,1.5,0.4,2.2c-0.1,0.1-0.2,0.3-0.4,0.4l-38.4,38.4   c-0.5,0.7-1.5,0.9-2.2,0.4C532.3,262.1,532.1,262,532,261.8 M543.8,266.2c0.7-5.3,3.3-10.2,7.5-13.5l12.5-12.5   c3.4-4.2,8.2-6.8,13.5-7.5c5.8,0.1,11.3,2.4,15.4,6.6l-8.5,8.5c-1.3-1.1-3-1.7-4.7-1.6c-2.2,0.4-4.1,1.6-5.5,3.3l-2.4,2.4   l10.9,10.9l2.4-2.4c1.7-1.4,2.9-3.3,3.3-5.5c0.1-1.7-0.5-3.4-1.6-4.7l8.5-8.5c4.1,4,6.5,9.5,6.5,15.3c-0.7,5.3-3.4,10.1-7.6,13.4   l-8.3,8.3c-0.9,0.9-1.7,0.9-2.7-0.1l-19.1-19.1l-3.4,3.4c-1.7,1.4-2.9,3.3-3.3,5.5c-0.1,1.7,0.5,3.4,1.6,4.7l-8.5,8.5   C546.3,277.5,543.9,271.9,543.8,266.2 M552.9,284l8.5-8.5c2.3,2.4,6.2,2.5,8.6,0.2c0.1-0.1,0.3-0.3,0.4-0.4   c0.9-0.7,1.5-0.7,2.5,0.2l6.3,6.3c0.9,0.9,1.1,1.5,0.2,2.4l-0.3,0.3c-6.1,7-16.8,7.8-23.8,1.7C554.3,285.6,553.6,284.8,552.9,284    M579.3,309l-7.2-7.2c-0.7-0.5-0.9-1.5-0.4-2.2c0.1-0.1,0.2-0.3,0.4-0.4l53.7-53.7c0.5-0.7,1.5-0.9,2.2-0.4   c0.1,0.1,0.3,0.2,0.4,0.4l7.2,7.2c0.7,0.5,0.9,1.5,0.4,2.2c-0.1,0.1-0.2,0.3-0.4,0.4L581.9,309c-0.5,0.7-1.5,0.9-2.2,0.4   C579.5,309.3,579.4,309.2,579.3,309 M595.5,326.7c-3.4-3.2-5.4-7.6-5.5-12.3c0.4-5.1,2.9-9.9,6.8-13.2l15.5-15.5   c3.3-3.9,8.1-6.4,13.2-6.8c4.7,0.1,9.1,2,12.3,5.5c2.3,2.3,4,5.1,5.2,8.1l-7.6,7.6c-0.9-1.5-2-2.9-3.3-4.2c-1.3-1.5-3.1-2.5-5-2.6   c-2.4,0.2-4.7,1.5-6.2,3.4l-13,13c-1.9,1.5-3.2,3.7-3.4,6.2c0.2,2,1.1,3.8,2.6,5c1.3,1.2,2.7,2.3,4.2,3.3l-7.6,7.6   C600.6,330.7,597.9,328.9,595.5,326.7 M670.1,289.9l-53.7,53.7c-0.5,0.7-1.5,0.9-2.2,0.4c-0.1-0.1-0.3-0.2-0.4-0.4l-7.2-7.2   c-0.7-0.5-0.9-1.5-0.4-2.2c0.1-0.1,0.2-0.3,0.4-0.4l53.7-53.8c0.5-0.7,1.5-0.9,2.2-0.4c0.1,0.1,0.3,0.2,0.4,0.4l7.2,7.2   c0.7,0.5,0.9,1.5,0.4,2.2C670.4,289.6,670.3,289.7,670.1,289.9"/>
</g>
</svg>
