<?xml version="1.0" encoding="utf-8"?>
<!-- Generator: Adobe Illustrator 25.4.1, SVG Export Plug-In . SVG Version: 6.00 Build 0)  -->
<svg version="1.1" xmlns="http://www.w3.org/2000/svg" xmlns:xlink="http://www.w3.org/1999/xlink" x="0px" y="0px"
	 viewBox="0 0 400 154.4" style="enable-background:new 0 0 400 154.4;" xml:space="preserve">
<style type="text/css">
	.st0{display:none;}
	.st1{display:inline;fill:#041E42;}
	.st2{fill:#FFFFFF;}
</style>
<g id="Layer_2" class="st0">
	<ellipse class="st1" cx="200.5" cy="76.2" rx="319.5" ry="149"/>
</g>
<g id="Layer_1" xmlns:serif="http://www.serif.com/">
	<g>
		<path class="st2" d="M217.5,83.5c0,3.1,2.6,5.1,6.1,5.1c3.2,0,5.8-1.1,8.5-3.7v-5.1c-2.8-0.9-5.4-1.5-8.2-1.5
			C219.9,78.4,217.5,80.5,217.5,83.5z"/>
		<path class="st2" d="M129,66.1c-4.5,0-8.4,3.1-9.4,8.2h16.5c0.1-0.3,0.1-0.6,0.1-0.9C136.3,69.3,133.8,66.1,129,66.1z"/>
		<path class="st2" d="M292.6,66.1c-4.5,0-8.4,3.1-9.4,8.2h16.5c0.1-0.3,0.1-0.6,0.1-0.9C299.9,69.3,297.4,66.1,292.6,66.1z"/>
		<path class="st2" d="M90.4,66.6c-3.2,0-6.4,1.5-8.6,4.8v12.1c2.2,2.9,5.3,4.4,8.7,4.4c5.4,0,9.2-4.2,9.2-10.6
			C99.7,70.8,95.8,66.6,90.4,66.6z"/>
		<path class="st2" d="M286.9,0C252,0,220.8,10.8,200,27.7C179.2,10.8,148,0,113.1,0C50.6,0,0,34.6,0,77.2s50.6,77.2,113.1,77.2
			c34.9,0,66.1-10.8,86.9-27.8c20.8,17,52,27.8,86.9,27.8c62.5,0,113.1-34.6,113.1-77.2S349.4,0,286.9,0z M64.7,91.3
			c-2.9,2.2-7,3.4-11.7,3.4c-5.6,0-10.7-1.5-14.7-4.2l0,0l0,0l0.8-9.1l0.1,0.1c3.9,3.8,9.1,6.1,14.2,6.1c5.1,0,8.2-2.2,8.2-5.8
			c0-4.3-4.8-5.9-11.6-7.7c-5.1-1.3-11.1-4.5-11.1-11.8c0-3.7,1.6-6.8,4.6-9c2.7-2,6.6-3.1,10.8-3.1c5.8,0,9.4,1.3,12.9,3.3l0,0l0,0
			l-0.4,8.6l-0.1-0.1C62.9,58.7,58.4,57,54,57c-4.4,0-7.3,1.9-7.3,4.8c0,3.5,4.1,4.9,10.8,6.7c8.1,2.1,12.1,6.2,12.1,12.7
			C69.6,85.4,67.9,88.9,64.7,91.3z M91.6,94.6c-4.1,0-7.4-1.5-9.8-3.7v13.3h-7.7V60.4h7.7v3.7c2.6-2.5,6.1-4.3,10.4-4.3
			c8.4,0,15.3,6,15.3,17.4C107.5,88.6,100.2,94.6,91.6,94.6z M142.9,79.7h-23.4c0.9,5.2,4.7,8.1,9.9,8.1c4.5,0,7.7-1.1,11.2-3.2
			l0.4,6.9c-3.1,1.8-7.1,3.1-12.2,3.1c-9.5,0-17.3-6-17.3-17.3c0-10.5,7.9-17.6,17.2-17.6c9.7,0,14.8,5.9,14.8,14.6
			C143.6,76.1,143.4,77.8,142.9,79.7z M165.7,87.8c3.2,0,5.9-1.1,8.6-3c0.3,2.3,0.8,4.5,1.4,6.8c-2.7,1.7-6,3.1-10.8,3.1
			c-9.5,0-17.2-6.5-17.2-17.4c0-10.9,7.7-17.4,17.2-17.4c4.7,0,8.1,1.2,10.9,2.8c-0.6,2.3-1.1,4.6-1.5,6.9c-2.7-1.9-5.4-3-8.6-3
			c-5.4,0-10.1,3.8-10.1,10.6S160.4,87.8,165.7,87.8z M192.7,94.6c-5.3,0-9.6-1.4-12.7-3.5l0.8-7.6c3.1,2.7,7.5,4.3,12.1,4.3
			c3.2,0,5.5-1.4,5.5-3.7c0-6.3-17.9-3-17.9-14.3c0-6.8,5.7-10,12.6-10c4.8,0,8.5,1.2,11.3,3l-0.4,7c-3.3-2.3-7.3-3.4-10.9-3.4
			c-2.7,0-5,1.1-5,3.2c0,5.2,17.9,2.7,17.9,14.3C206.1,91,199.9,94.6,192.7,94.6z M239.7,94H232v-3.4c-2.6,2.5-6,4-10,4
			c-7.4,0-12-4.5-12-10.9c0-6.8,5.2-10.9,12.9-10.9c2.9,0,5.7,0.5,9.1,1.5v-1c0-5.1-3.8-7.4-8.6-7.4c-3.6,0-7.6,1.3-10.5,3.7
			l-0.3-6.8c2.5-1.7,7.1-3.1,12.2-3.1c8.6,0,14.9,4,14.9,13.4V94z M256.2,94l-15.8-33.6h8.4l9.5,21.2l9.5-21.2h8.4L260.5,94H256.2z
			 M306.6,79.7h-23.4c0.9,5.2,4.7,8.1,9.9,8.1c4.5,0,7.7-1.1,11.2-3.2l0.4,6.9c-3.1,1.8-7.1,3.1-12.2,3.1c-9.5,0-17.3-6-17.3-17.3
			c0-10.5,7.9-17.6,17.2-17.6c9.7,0,14.8,5.9,14.8,14.6C307.2,76.1,307.1,77.8,306.6,79.7z M334.6,68.4c-1.9-1-3.6-1.4-5.6-1.4
			c-3.4,0-6.6,1.8-8.8,5.4V94h-7.7V60.4h7.7v4.5c2.2-3.1,5.4-5.2,9.7-5.2c2.1,0,3.9,0.5,5.7,1.5L334.6,68.4z M350.6,94.6
			c-5.3,0-9.6-1.4-12.7-3.5l0.8-7.6c3.1,2.7,7.5,4.3,12.1,4.3c3.2,0,5.5-1.4,5.5-3.7c0-6.3-17.9-3-17.9-14.3c0-6.8,5.7-10,12.6-10
			c4.8,0,8.5,1.2,11.3,3l-0.4,7c-3.3-2.3-7.3-3.4-10.9-3.4c-2.7,0-5,1.1-5,3.2c0,5.2,17.9,2.7,17.9,14.3
			C364,91,357.8,94.6,350.6,94.6z"/>
	</g>
</g>
</svg>
