<?xml version="1.0" encoding="utf-8"?>
<!-- Generator: Adobe Illustrator 26.2.1, SVG Export Plug-In . SVG Version: 6.00 Build 0)  -->
<svg version="1.1" id="svg4569" xmlns:svg="http://www.w3.org/2000/svg"
	 xmlns="http://www.w3.org/2000/svg" xmlns:xlink="http://www.w3.org/1999/xlink" x="0px" y="0px" viewBox="0 0 600 117.5"
	 style="enable-background:new 0 0 600 117.5;" xml:space="preserve">
<style type="text/css">
	.st0{fill:#FFFFFF;}
</style>
<g>
	<path id="path4499" class="st0" d="M239.7,0v17.3h19V0H239.7z M73.4,0.2v24.5H62.9v15.6h10.5V97c0,14,7.9,20.5,22.1,20.5
		c3.2,0.1,6.4-0.2,9.5-1v-16.2h-6.3c-4.4,0-6.4-2.8-6.4-7.4V40.3H105V24.8H92.3V0.2C92.3,0.2,73.4,0.2,73.4,0.2z M195.5,0.2v24.5
		h-10.5v15.6h10.5V97c0,14,7.9,20.5,22.1,20.5c3.2,0.1,6.4-0.2,9.5-1v-16.2h-6.2c-4.4,0-6.4-2.8-6.4-7.4V40.3h12.7V24.8h-12.7V0.2
		C214.5,0.2,195.5,0.2,195.5,0.2z M345.9,0.2v24.5h-10.5v15.6h10.5V97c0,14,7.9,20.5,22.2,20.5c3.2,0.1,6.4-0.2,9.5-1v-16.2h-6.3
		c-4.4,0-6.4-2.8-6.4-7.4V40.3h12.7V24.8h-12.7V0.2C364.9,0.2,345.9,0.2,345.9,0.2z M27.5,23C13.2,23.1,2,33.1,2,47.5
		c0,24.9,35.5,30.8,35.5,46.5c0.1,2.2-0.8,4.4-2.4,5.9c-1.6,1.5-3.8,2.3-6,2.1c-8.6,0-11.3-6.8-12.5-14.4L0,92.1
		c2.8,15.9,12.4,25.4,28.9,25.4c15.4,0,26.6-8.4,26.6-24.5c0-27.1-35.5-32.8-35.5-47c0-4.7,3.4-7.3,8.4-7.3c6.1,0,9.5,4.1,10.8,11.4
		l16.1-2.8C52.5,33,42.4,23,27.5,23z M300,23c-14.2,0-25.4,10-25.4,24.4c0,24.9,35.5,30.8,35.5,46.5c0.1,2.2-0.8,4.4-2.4,5.9
		c-1.6,1.5-3.8,2.3-6,2.1c-8.6,0-11.2-6.8-12.5-14.4L272.7,92c2.8,15.9,12.3,25.4,28.9,25.4c15.4,0,26.6-8.4,26.6-24.5
		c-0.2-27-35.7-32.7-35.7-47c0-4.7,3.4-7.3,8.4-7.3c6.1,0,9.5,4.1,10.8,11.4l16.1-2.8C325,33,314.9,23,300,23z M145.8,23.1
		c-17.6,0-29.5,10-30.5,28.4h18.9c0.4-7.8,2.2-12.9,10.8-12.9c6.3,0,9.3,4.1,9.3,11.7v5.4C127.1,66,114,77,114,97
		c0,11.7,6.4,20.5,19.3,20.5c9.1,0,15-3,22.2-8.8c0.2,2.2,0.9,4.6,1,7.1h18.1c-0.6-3.1-1-6.3-1.1-9.5V47.8
		C173.4,31.2,163.4,23.1,145.8,23.1z M418.3,23.1c-17.6,0-29.4,10-30.4,28.4h18.9c0.3-7.8,2.2-12.9,10.8-12.9
		c6.3,0,9.3,4.1,9.3,11.7v5.4C399.7,66,386.5,77,386.5,97c0,11.7,6.4,20.5,19.3,20.5c9.1,0,15-3,22.1-8.8c0.2,2.2,0.8,4.6,1,7.1
		h18.1c-0.6-3.2-1-6.4-1.2-9.6V47.8C445.9,31.2,435.9,23.1,418.3,23.1L418.3,23.1z M239.7,24.8v91h19v-91
		C258.6,24.8,239.7,24.8,239.7,24.8z M154.4,69.4v24c-3.2,4.6-7.4,8.4-12.7,8.4c-5.6,0-8.8-2.4-8.8-8.4
		C133,85.5,137.2,79.2,154.4,69.4z M426.9,69.4v24c-3.2,4.6-7.4,8.4-12.7,8.4c-5.7,0-8.8-2.4-8.8-8.4
		C405.5,85.5,409.7,79.2,426.9,69.4z"/>
	<path id="path4517" class="st0" d="M486.8,0c-1.1,0-2.1,0.4-2.9,1.2c-0.8,0.8-1.2,1.8-1.2,2.9v74.5h0.6c0,0,17.7-0.3,25.2-4.3
		c6.4-3.8,12-8.9,16.3-14.9l4.4-6.2l1.4-2c0.2-0.2,0.9-1.3,1.3-1.9c0.4-0.6,2.2-3.2,4-5.8c6.9-9.5,15.6-17.4,25.8-23.2
		c16.3-8.4,38-7.6,38-7.6h0.3V4.4c0.1-1.1-0.3-2.2-1.1-3.1c-0.8-0.8-1.9-1.3-3-1.3H486.8z M600,38.9c-0.3,0.1-0.7,0.1-1.1,0.1
		c0,0-17.6,0.3-25.2,4.3c-6.4,3.8-12,8.8-16.3,14.9l-4.3,6.3c-0.6,0.9-1.3,1.8-1.4,2l-1.3,1.9l-4,5.8c0,0-10.7,15.4-25.8,23.2
		c-15.7,8.1-36.2,7.6-37.8,7.5v8.4c0,1.1,0.4,2.2,1.2,2.9c0.8,0.8,1.8,1.2,2.9,1.2h109.1c1.1,0,2.1-0.4,2.9-1.2
		c0.8-0.8,1.2-1.8,1.2-2.9V38.9z"/>
</g>
</svg>
