<svg id="Layer_2" data-name="Layer 2" xmlns="http://www.w3.org/2000/svg" viewBox="0 0 272.1 477.8"><defs><style>.cls-1,.cls-2{fill:#fff;}.cls-1{fill-rule:evenodd;}</style></defs><path class="cls-1" d="M118.9,48.5a4.3,4.3,0,0,1,4.2,4.1,4.5,4.5,0,0,1-4.2,4.3,4.3,4.3,0,0,1-4.1-4.3,4.1,4.1,0,0,1,4.1-4.1Zm99.9,67.8,16.7-48-11.6,5.9-.8,7.4c-1.2-2.4-3.9-7-7.2-6.9-8.7-.1-8.2,12.1-5.3,19.2h4c.1-3.3-1.5-8.5,2.1-8.5s3.8,12.2-6.9,12.1c-5.6,0-9.3-4.9-7.3-16.4h3.9l.8-5.2h-3.8l1.9-11.6h-5.7L198,75.7h-3.3a34.8,34.8,0,0,0-.7,5.4,21.6,21.6,0,0,0,3.6,0c-1,6.7-2.5,17.1-12.1,16.4s-7.3-12.6-2.7-12.3c2.9-.1,1.4,5.3,0,8.5h5c4.6-7.6,6.3-19.3-1.2-19-3.2,0-4.9,2.3-6.6,3.8l1.1-10-5.6-5.9L169,68.3l1.5,10.2c-1.8-1.6-4.1-4.1-7.2-3.8-6.6.4-4.6,11.2-1.2,19h5.2c-1.3-3.2-2.3-7.9.5-8,6.6-.9,5.5,11.8-3.5,12.1s-9.5-10.1-10.5-16.7a24,24,0,0,0,3.8,0c-.2-1.8-.5-3.3-.7-5.2h-3.8l-1.9-11.4h-5.5l1.7,11.6h-3.8l.7,5h4c2,11.8-2.4,16.7-7.8,16.7-10.2,0-9.7-12.5-6.6-12.4s2.3,5.4,2.3,8.8h4.3c3.9-7.2,2.7-19.1-6-19.1-3.3,0-4.4,4.5-5.7,7l-.9-7.4-12.6-6.4,17.8,48ZM175,38.7c21.8,0,43.7,9.3,58.4,26.2l-9.8,4.9V65.6c-8.8-9.8-28.9-18.5-40.4-18.2l-1.8,15.9-5.9-6-6.7,6.8-2.6-17c-11.4,0-30,10.1-38.6,19.3v3.8l-10.4-4.8A76.9,76.9,0,0,1,175,38.7ZM190.4,29a4.1,4.1,0,0,1,4,4.1,4.2,4.2,0,0,1-4,4.3,4.4,4.4,0,0,1-4.3-4.3,4.3,4.3,0,0,1,4.3-4.1Zm10.9,2.9a4.2,4.2,0,0,1,4.2,4,4.3,4.3,0,0,1-4.2,4.3,4.1,4.1,0,0,1-4-4.3,3.9,3.9,0,0,1,4-4Zm10.6,4.5a4.5,4.5,0,0,1,4.4,4.2,4.4,4.4,0,0,1-4.4,4.2,4.2,4.2,0,0,1-4-4.2,4.3,4.3,0,0,1,4-4.2Zm10.5,5.5a4.3,4.3,0,0,1,4.3,4,4.5,4.5,0,0,1-4.3,4.3,4.1,4.1,0,0,1-4-4.3,3.9,3.9,0,0,1,4-4Zm9.1,7.1a4.2,4.2,0,0,1,4,4.1,4.3,4.3,0,0,1-4,4.2,4.4,4.4,0,0,1-4.4-4.2,4.3,4.3,0,0,1,4.4-4.1ZM176.2,17.1a8.7,8.7,0,0,1,7,8.9,8.9,8.9,0,0,1-8.9,9.2A9.2,9.2,0,0,1,165,26a9.3,9.3,0,0,1,6.9-8.9V11.6h-5v-4h5V0h4.3V7.6h4.9v4.2h-4.9v5.3ZM158,29a3.9,3.9,0,0,1,4.1,4.1,3.9,3.9,0,0,1-4.1,4.1,4,4,0,0,1-4-4.1,4,4,0,0,1,4-4.1Zm-10.6,3.1a4.2,4.2,0,0,1,4,4.3,4,4,0,0,1-4,4,4.1,4.1,0,0,1-4.2-4,4.3,4.3,0,0,1,4.2-4.3Zm-10,4.5a4.1,4.1,0,0,1,4.1,4,4.3,4.3,0,0,1-4.1,4.4,4.6,4.6,0,0,1-4.3-4.4,4.4,4.4,0,0,1,4.3-4Zm-9.5,6a4.1,4.1,0,0,1,4.1,4,4.3,4.3,0,0,1-4.1,4.3,4.1,4.1,0,0,1-4-4.3,3.9,3.9,0,0,1,4-4Z" transform="translate(0)"/><path class="cls-1" d="M193.5,258.7c28.6-12.7,55.4-31.2,68.5-55.8,6-9.6,9-19.6,8.9-29.6-.3-20.4-14.9-31.3-38.6-31-12.9.1-26,3.4-38.8,8.9-33.4,14.5-64.6,44.9-82.4,78.9l-.6-.3c-9.5-5.2-26.6-17.2-42.7-36.5-.2-.1-.2-.5-.5-.6-3.4-4.1-7.3-8.4-10.6-13l-3.1-4.1c-2.3-2.9-4.1-6.1-6.2-9s-5.7-8.6-8.6-12.7c-3.8-6.4-7.9-12.7-11.4-19.1-.6-.9-1.4-2.4-1.4-2.4-3-5.6-5.7-11.4-8.5-16.8-.5-.8-.8-1.7-1.3-2.4A22.7,22.7,0,0,1,14,110c-1.8-1.9-3.4-4.4-5.9-5.3a2.5,2.5,0,0,0-2,.7,17.5,17.5,0,0,0-1.4,5.1,41.1,41.1,0,0,0,.2,8.6c0,1.2.4,2.3.5,3.4s.7,2.6.8,3.9c1.1,7.1,8.2,23.3,8.2,23.3,1.8,3.5,3.6,7,5.7,10.3a186.3,186.3,0,0,0,10.2,16.4c6,7.9,12.6,15.9,19.1,23.3l-.9-.7c-3.1-2.4-8.9-7.3-10.5-9.2-4.1-4.6-9.1-8.4-13.3-12.9-.2-.3-10-9.6-13.7-13.2-.7-1.1-5.7-5-7.5-5.7s-2.4-.6-3.1.6-.4.4-.4.6A6.4,6.4,0,0,0,.3,162a38,38,0,0,0,1.3,5.1c.3,1.6,1.5,3.2,1.8,4.9,2.1,4,4.3,7.9,6.9,12a74.1,74.1,0,0,0,8.6,10.8c7.6,9.1,16.5,16.1,25.4,23,4.5,3,8.7,6.4,13.4,9.1l2.3,1.4c.4.5,1.1.6,1.4,1h-.2c-9.8-4-18.6-9.3-28-13.9-4.5-2.3-8.7-5.3-13.1-7.8-.3-.4-5.6-3-7.6-4.5s-3-2.2-5-1.9-1.1,4.3-.6,5.3A43.5,43.5,0,0,0,9.3,211c1.7,3.4,4.7,6.2,7.4,8.9s2.6,2.8,4.2,3.8a54.9,54.9,0,0,0,8.1,6.5c4.1,2.6,8,5.3,12.1,7.5l4.5,2.6a88.4,88.4,0,0,0,13.2,6.2l9.7,4c.3.1,4.2,1.6,5.9,2v.2c-1.6-.1-3.1-.6-4.8-.6s-1.5,0-2.2-.4-3.7-.6-5.4-1.1c-4.1-.6-7.7-1.3-11.7-2S41,245.8,36,245.5c-1.9.1-3.9-.9-5.6,0-.2.4-.8.3-1,.7a3.9,3.9,0,0,0,1.3,4.1c2.4,2.7,5.5,4.1,8.2,6.1,1.1.5,1.9,1.5,3.1,1.7a36.2,36.2,0,0,0,4.3,2.4,21.1,21.1,0,0,1,3.3,1.8c1.6.4,3.1,1.3,4.8,1.6a24.3,24.3,0,0,0,7.8,2.2c2.9.9,5.8,1.1,8.5,1.9a101,101,0,0,0,15.1,2,18.6,18.6,0,0,0-4.7,1.9c-.3.3-.4.9-.7,1.2s.2,1.5.4,2c2.1,1.8,7.6,2.8,7.8,2.9a19,19,0,0,0,7.1,1.9c-.3,3.1-.4,6.1-.4,9,.5,29.3,15.8,65.4,64.8,64.7,11.6-.1,22.9-3,33.4-7.3,31.5-12.8,55.9-38.6,59.6-44.3l-5.6-5.5c-18.7,15.9-35,29.5-54,34.2a57.7,57.7,0,0,1-13.3,1.8c-19.6.2-43.9-10.2-44.3-41.8a76.4,76.4,0,0,1,1.2-14.2A283,283,0,0,0,193.5,258.7Zm-42.6-27.4c10.3-25.7,26.1-49.3,42.6-63.8,10.1-8.8,20.5-14.2,30.1-14.4,25.8-.7,24.6,50.6-27.1,79.4-1.1.4-2,1-3,1.4a83.9,83.9,0,0,1-46.4,7.7Zm-19.7,42.1-3.5.8a42.8,42.8,0,0,1-5.4,1.2c-1.3.3-2.8.4-4.2.6l-2.4.4h-9.2a65.1,65.1,0,0,1-12.1-1l5-.4a130.3,130.3,0,0,0,15.2-1.5l6.3-.8c3.3-.6,5.3-1.1,8.7-1.9,1-.2,2.9-1.1,2.7-1.7s-4,0-4.6.1l-7.3,1.2c-5.5.7-10.6,1.4-12.6,1.5s-4.5.2-7.6.4-9,0-9-.5,6.3-1.5,8.6-1.5l5.4-.4a44.8,44.8,0,0,0,6.3-.6l5.7-.5a144.1,144.1,0,0,0,15.9-3.6l6.7-1.8,5.4-1.6,2-.6,5.9-2.1,1-.3,1.4-.7h.2a.8.8,0,0,0-.1-.9l-.5-.3-2.2.5-1.2.3-2.6.7a21.6,21.6,0,0,0-4.3,1.4c-4.6,1-9.1,2-13.9,2.8s-8.8,1.6-13.2,2.2h-.1l-2.2.3h-1.1c-3.3.3-6.8.6-10.3.6l-1.6.3h-10l-7.1-.4c-5.3-.3-6.8-.3-7.1-.2s-6-1.2-7.3-1.3l-7.3-1.6-2-.5-3-.9a13.6,13.6,0,0,1-3.9-1.2l-2.1-.7a37.4,37.4,0,0,1-8-3.3l-2.3-1.1c1.6.3,4.3,1.1,4.3,1.1l4.4,1.1a209.8,209.8,0,0,0,23.1,4.7l2.5.5v-.2a1.1,1.1,0,0,0,.7.2c6.1.6,11.7,1.1,17.6,1.5h8.3c2,.1,4,0,6-.1a47.7,47.7,0,0,0,5.4-.3c1.3-.2,1.8-.8,1.5-1.4s-5.2-.6-5.2-.6h-7.6c-3.5,0-6.8-.4-10.3-.7l-5.2-.3a188.5,188.5,0,0,1-22.6-3c-5.5-.8-11.7-2.9-17.7-4.9,0,0-2.8-1.1-2.4-1.7s4.3,1.2,6.7,1.5l8,1.6,11.6,2.1,6.1.9a91.5,91.5,0,0,0,10,1,12.7,12.7,0,0,0,2.8.3l2.6.3a180.4,180.4,0,0,0,20.6.6h9.6l6.3-1.1,7.1-1.3,1.8-.8v-1l-.2-.2h-1.4c-3.7.7-7.4,1-10.6,1.3a38,38,0,0,1-5.9.6h-7.4a48.5,48.5,0,0,1-6.4-.5,58.5,58.5,0,0,1-6-.4L99,255l-1.4-.3-1.8-.4h-.4l-1.5-.2-.9-.2c-2.4-.5-4.5-1.2-6.6-1.8a29.6,29.6,0,0,0-5.8-1.7c-7-2.4-8.7-3-9.1-3v-.2l-4.4-1.5a70.5,70.5,0,0,1-8.6-3.5l-6.4-2.9-2.7-1.2-2-1L43,234.6l-1.1-.7a10.3,10.3,0,0,1-2.7-1.5c-7.5-4.5-13.5-8.7-18.8-14.3l-.6-.9a103.7,103.7,0,0,0,8.9,6.2l6.3,4.1a146.7,146.7,0,0,0,17.2,8.8l2.2,1,8.3,3.6,7.8,3.1.6.3.5.3c4.3,1.5,8.7,2.9,13,4.1l4.2,1.1,6.6,1.8,5.3,1.1s1.4-.2,1-1.1-4.2-2-4.2-2c-8.5-2.1-13.8-4.1-17.7-5.4a266.8,266.8,0,0,1-34.5-15l-3.2-1.7-2-1.1a107.2,107.2,0,0,1-11.3-7.7l-1.7-1.2h0l-4-3.5L21.8,213l5.1,3.1c7.2,4.4,12.7,7.5,18,10.3,1.9,1.1,4.1,2,6.2,3s3.8,1.7,5.7,2.8l.8.4a97.4,97.4,0,0,0,9.9,4c5.3,2.2,12.2,5,13.3,5.2l-.2-.2,9.9,3.2,13.8,4.2,4.8,1.3,7.6,1.6c1.4.3,3.9,0,3.9-1s-4.2-1.8-5-2a122.4,122.4,0,0,1-17.9-5.5l-2.1-.6a7,7,0,0,0-2.3-.8l-3.4-1.6-1.5-.5L84,238l-.6-.5-.6-.3A66.7,66.7,0,0,1,72.2,231c-6-3.7-12.1-7.7-18.2-12l-3.5-2.5c-2.6-2.1-3.7-2.7-4-3a4,4,0,0,0-1.6-1.3l-1.3-1.1h-.2l-1.5-1.1-.2-.3a196.4,196.4,0,0,1-18.9-16.7c-3.3-2.7-6-6.4-8.4-9.8l-3-4.4h.1l-.6-.7a28.4,28.4,0,0,0-1.8-2.8h.1l-.4-.8a16.4,16.4,0,0,0-.7-1.5c4.9,6.3,9.2,11.4,13.2,15.7,8.9,8.8,17,15.4,27.5,23.5l2.1,1.5,2.7,2.4c2.9,2.3,4.9,3.1,7.9,5.4s4.5,3,6.5,4.4a86.1,86.1,0,0,0,8.3,4.9l5.2,3c1.7,1,5.1,1.8,4.7.7s-4.3-3.4-6.3-4.5c-4.6-2.7-6.2-4.3-6.6-4.4h.2c-3.5-2.2-7.6-5-11.6-7.8l-.5-.4a29.7,29.7,0,0,0-4.6-3.3l-1.2-1-.6-.5-2.1-1.5c-1.9-1.4-3.8-2.8-5.7-4.5l-3-2.5-1.7-1.3c-3.6-3.2-4.6-4.1-5.1-4.3h.2l-5.4-5L30.7,192c-5-5-10.1-10.6-16.3-18.1l-.2-.4-2.6-4,1.8,1.5,5.2,4.8c9.2,8.9,11,10.5,11.3,10.8h-.1c2,2.1,4.3,4.2,6.5,6.1l3.2,2.9,8.9,8,2.8,2.4c4.2,3.5,8.2,6.6,12.1,9.4l5.5,4.2a51,51,0,0,0,4.6,3.2h-.1c2.6,2,5.2,3.7,7.9,5.4l3.9,2.5.6.3,2.7,1.4,1.1.5h-.1a64.8,64.8,0,0,0,13.9,6.6,76.8,76.8,0,0,0,9.6,3.6l.4.2a3.2,3.2,0,0,0,2,.6h.8l.3-.6h0a2.3,2.3,0,0,1-.1-.4,7,7,0,0,0-1.6-.9l-1.3-.6a6.1,6.1,0,0,0-1.8-.9,12.6,12.6,0,0,1-4.7-2.1,46.5,46.5,0,0,1-6.3-3.2l-.9-.4-.7-.3a21.6,21.6,0,0,0-3.3-1.9l-3.4-2.2-2.9-1.9-4.1-2.7h.1l-1.4-1c-2.4-1.7-4.9-3.3-7.1-5.2l-3.7-2.9c-2.8-2.4-3.4-2.8-3.5-3h0c-11.5-10.9-23.6-22.5-33.5-35.4a81.9,81.9,0,0,1-4.7-6.8l-1.7-2.5-2.2-3.6c-1.6-2.5-3.1-5.1-4.4-7.6l-1.8-3.4a65.8,65.8,0,0,1-4.2-8.4l-.8-1.8-.8-1.7a29.9,29.9,0,0,0-1-3.2l-.9-2.7c-1.8-5.1-3-9.5-4.1-13.7a28.6,28.6,0,0,0-.6-3.5L8.8,118v-.9h0a7.3,7.3,0,0,0,.6,2.1l.7,2.4,2.5,6.6,1.3,3.1a29.4,29.4,0,0,0,2.6,5.7l1.4,2.8,2.4,4.6,1.7,3.2,2.4,4.3L25,153l3.8,6.1h-.1a44.6,44.6,0,0,0,3.1,5.2l2.1,3.3c3.2,4.8,6.5,9.2,10.4,14.5l.5.8.8.9,1.2,1.4,1.6,1.8a3.8,3.8,0,0,0,.9,1.2l.8.9h.1l.2.3.4.5,1,1a27.4,27.4,0,0,0,2.2,2.3h-.1a5.6,5.6,0,0,0,1.6,1.5v.2a31.8,31.8,0,0,0,3,3.3l1.3,1.2,3.8,4.2c3.6,3.3,3.4,4.2,7.7,7.3,0,0,4.2,3.9,4.8,3.1s-.6-2.5-2.5-4.4l-4.5-4.3a140.5,140.5,0,0,1-12.8-13.9l-3.5-4.4a52.6,52.6,0,0,1-4.8-6,50.7,50.7,0,0,0-3.3-4.2h.1l-1.2-1.8a160.6,160.6,0,0,1-11.8-18.3L22,138.7a33.5,33.5,0,0,1-1.8-3.8v-.3c-.2-.5-4.7-11.9-5.1-12.3l-.3-1a19.1,19.1,0,0,1-1.3-4.4c.9,1.3,1.6,2.5,2.2,3.5l1.2,2.8,1,2.2,2.3,4.2c1.6,3.1,3.2,6.3,5,9.4l.6,1.1.3.4,2,3.4a23.6,23.6,0,0,1,2.4,4l4.2,7.1,5.8,9.2s2.5,4.1,2.6,4.1l6.5,8.8,2.3,3.2,1,1.3a13.1,13.1,0,0,1,1.7,2.4l1.6,2.1c1.3,1.7,2.5,3.4,3.9,4.9a140,140,0,0,0,10.8,12.5l3.3,3.4,8.2,8.1a24.9,24.9,0,0,0,4.2,3.8l.3.3,3.5,2.8c1.8,1.5,3.6,3.1,5.5,4.4l3.1,2,2.6,1.8,3,1.8h-.1l.8.3.4.4,1.7.9a69.7,69.7,0,0,0,13.3,6.1l2.4.8a38.1,38.1,0,0,0,4.4,1.5c44.5,16.7,86.9-12.7,98.8-22.1h.3l3.5-3.1,4.5-3.8a102.3,102.3,0,0,1-7.9,9.7c-3.3,3.7-25.1,24.9-50,37.5l-1,.2.6-.4.5-.5s2.1-1.3,2.1-1.4c2-1.4,4.1-2.8,6.1-4.4l.8-.7a15.5,15.5,0,0,0,3.2-2.6l6.3-5.3s1.7-1.5,1.6-2v-.4h-.2a1.3,1.3,0,0,0-1.4.3c-.2,0-9.5,6.8-10.3,7l-1.3.9-6.2,3.9h0l-1.2.7-1.5.8-1.1.6a6.6,6.6,0,0,1-1.5.7h-.2a8,8,0,0,1-2.2,1.3l-.4.2-.7.4a2.9,2.9,0,0,0-1.4.5H167c-2.8,1.4-5.8,2.8-9.2,4.2l-6.5,2.6a64.1,64.1,0,0,1-8.6,3.4l-3.4,1.2-2.6.8A37,37,0,0,1,131.2,273.4Z" transform="translate(0)"/><path class="cls-2" d="M37.6,403.3V390.9H33.1v-2.5H45.3v2.5H40.7v12.4Z" transform="translate(0)"/><path class="cls-2" d="M47,403.3V388.4h3.1v5.9h6v-5.9h3.1v14.9H56.1v-6.5h-6v6.5Z" transform="translate(0)"/><path class="cls-2" d="M62.2,403.3V388.4H73.5v2.5H65.2v3.3h7.7v2.6H65.2v4h8.6v2.5Z" transform="translate(0)"/><path class="cls-2" d="M94.1,401.4a8.5,8.5,0,0,0,2.5,1.3l-1.1,2.1-1.4-.5L92,403a8.8,8.8,0,0,1-3.3.6,7.6,7.6,0,0,1-5.5-2,8.1,8.1,0,0,1-2-5.7,7.7,7.7,0,0,1,2-5.7,8,8,0,0,1,10.8,0,7.7,7.7,0,0,1,2,5.7,11.6,11.6,0,0,1-.5,3.4A8.5,8.5,0,0,1,94.1,401.4Zm-2.5-1.7a4.2,4.2,0,0,0,.9-1.6,7.8,7.8,0,0,0,.3-2.2,6,6,0,0,0-1.1-3.9,4.3,4.3,0,0,0-6.2,0,6,6,0,0,0-1.1,3.9,6.2,6.2,0,0,0,1.1,3.9,3.8,3.8,0,0,0,3,1.3l1.3-.2-1.9-1,.8-1.7A15.9,15.9,0,0,1,91.6,399.7Z" transform="translate(0)"/><path class="cls-2" d="M98.1,388.4h3.1v8.1c0,1.3.1,2.1.1,2.5a3.1,3.1,0,0,0,1,1.5,3.9,3.9,0,0,0,2,.5,3.4,3.4,0,0,0,2-.5,2,2,0,0,0,.8-1.3,16.3,16.3,0,0,0,.1-2.5v-8.3h3.1v7.8a29.2,29.2,0,0,1-.2,3.8,4.8,4.8,0,0,1-.9,1.9,5.7,5.7,0,0,1-1.8,1.2,8.5,8.5,0,0,1-3,.5,9.5,9.5,0,0,1-3.3-.5,4.9,4.9,0,0,1-1.8-1.3,6.5,6.5,0,0,1-.9-1.6,18.7,18.7,0,0,1-.3-3.8Z" transform="translate(0)"/><path class="cls-2" d="M113.3,403.3V388.4h11.4v2.5h-8.3v3.3h7.7v2.6h-7.7v4H125v2.5Z" transform="translate(0)"/><path class="cls-2" d="M127.3,403.3V388.4h11.3v2.5h-8.2v3.3h7.7v2.6h-7.7v4h8.5v2.5Z" transform="translate(0)"/><path class="cls-2" d="M141.3,403.3V388.4h3l6.3,10v-10h2.9v14.9h-3.1l-6.2-9.7v9.7Z" transform="translate(0)"/><path class="cls-2" d="M156.4,388.4h2.9v2.1a8.4,8.4,0,0,1-.2,1.9,2.9,2.9,0,0,1-.8,1.3,5.1,5.1,0,0,1-1.6.9l-.6-1.1a3.2,3.2,0,0,0,1.3-.8,2.9,2.9,0,0,0,.4-1.4h-1.4Z" transform="translate(0)"/><path class="cls-2" d="M161.4,398.5l3-.3a3.1,3.1,0,0,0,1.1,2.2,3.6,3.6,0,0,0,2.2.7,3.4,3.4,0,0,0,2.2-.7,1.9,1.9,0,0,0,.8-1.4,1.2,1.2,0,0,0-.3-.9,2.3,2.3,0,0,0-1.1-.7l-2.5-.6a8.3,8.3,0,0,1-3.5-1.5,3.9,3.9,0,0,1-1.4-3,3.1,3.1,0,0,1,.7-2.1,3.2,3.2,0,0,1,1.9-1.5,7.8,7.8,0,0,1,7.3.7,4,4,0,0,1,1.5,3.3h-3a3.4,3.4,0,0,0-.9-1.7,3.3,3.3,0,0,0-1.9-.5,3.8,3.8,0,0,0-2.2.6,1.2,1.2,0,0,0,0,1.8,8.3,8.3,0,0,0,2.9,1,15.6,15.6,0,0,1,3.3,1.1,5,5,0,0,1,1.7,1.5,4.3,4.3,0,0,1,.6,2.4,5.5,5.5,0,0,1-.7,2.4,5.1,5.1,0,0,1-2.1,1.7,10.4,10.4,0,0,1-3.3.5,6.5,6.5,0,0,1-4.5-1.3A5.9,5.9,0,0,1,161.4,398.5Z" transform="translate(0)"/><path class="cls-2" d="M194.8,403.3h-3.4l-1.3-3.4H184l-1.3,3.4h-3.2l5.9-14.9h3.3Zm-5.7-5.9-2.1-5.5-2.1,5.5Z" transform="translate(0)"/><path class="cls-2" d="M197.4,403.3l-3.6-14.9h3.1l2.3,10.3,2.8-10.3h3.7l2.7,10.4,2.3-10.4h3.1l-3.7,14.9h-3.3l-3-11.1-3,11.1Z" transform="translate(0)"/><path class="cls-2" d="M228,403.3h-3.4l-1.3-3.4h-6.1l-1.3,3.4h-3.2l5.9-14.9h3.3Zm-5.7-5.9-2.1-5.5-2,5.5Z" transform="translate(0)"/><path class="cls-2" d="M229.7,403.3V388.4h6.4a10.4,10.4,0,0,1,3.6.4,4,4,0,0,1,1.8,1.4,4.8,4.8,0,0,1,.7,2.4,4.1,4.1,0,0,1-1.1,2.8,4.2,4.2,0,0,1-3,1.3,7.6,7.6,0,0,1,1.7,1.3,27.5,27.5,0,0,1,1.7,2.4l1.9,2.9h-3.7l-2.2-3.2a15.4,15.4,0,0,0-1.7-2.2,1.8,1.8,0,0,0-.9-.6l-1.5-.2h-.7v6.2Zm3-8.6H235a8.7,8.7,0,0,0,2.8-.2,1.5,1.5,0,0,0,.9-.6,2,2,0,0,0,.3-1.1,2.1,2.1,0,0,0-.4-1.2,2.3,2.3,0,0,0-1.2-.6h-4.7Z" transform="translate(0)"/><path class="cls-2" d="M245.1,388.4h5.6a10.7,10.7,0,0,1,2.9.3,4.3,4.3,0,0,1,2.3,1.4,7,7,0,0,1,1.5,2.4,11.3,11.3,0,0,1,.5,3.5,10.2,10.2,0,0,1-.5,3.2,6.1,6.1,0,0,1-1.6,2.6,6.6,6.6,0,0,1-2.2,1.2,10.1,10.1,0,0,1-2.7.3h-5.8Zm3,2.5v9.9h4.2a5.2,5.2,0,0,0,1.3-.6,3.5,3.5,0,0,0,.8-1.5,10.1,10.1,0,0,0,.3-2.7,9.1,9.1,0,0,0-.3-2.7,2.8,2.8,0,0,0-.9-1.4,2.7,2.7,0,0,0-1.4-.7,13.4,13.4,0,0,0-2.6-.2Z" transform="translate(0)"/><path class="cls-2" d="M259.7,398.5l3-.3a3.6,3.6,0,0,0,1.1,2.2,3.8,3.8,0,0,0,2.2.7,3.7,3.7,0,0,0,2.3-.7,1.7,1.7,0,0,0,.7-1.4,1.2,1.2,0,0,0-.3-.9,2.3,2.3,0,0,0-1.1-.7l-2.5-.6a7.7,7.7,0,0,1-3.4-1.5,3.6,3.6,0,0,1-1.4-3,3.7,3.7,0,0,1,.6-2.1,4,4,0,0,1,1.9-1.5,7.3,7.3,0,0,1,3-.6,7,7,0,0,1,4.4,1.3,4.7,4.7,0,0,1,1.5,3.3h-3.1a2.7,2.7,0,0,0-.8-1.7,3.7,3.7,0,0,0-2-.5,3.3,3.3,0,0,0-2.1.6,1.1,1.1,0,0,0,0,1.8,6.8,6.8,0,0,0,2.8,1,15.6,15.6,0,0,1,3.3,1.1,5,5,0,0,1,1.7,1.5,4.3,4.3,0,0,1,.6,2.4,4.4,4.4,0,0,1-.7,2.4,5.1,5.1,0,0,1-2.1,1.7,10.4,10.4,0,0,1-3.3.5,6.4,6.4,0,0,1-4.4-1.3A5.6,5.6,0,0,1,259.7,398.5Z" transform="translate(0)"/><path class="cls-2" d="M59.3,428V413.1H69.5v2.5H62.3v3.5h6.2v2.6H62.3V428Z" transform="translate(0)"/><path class="cls-2" d="M71.4,420.6a8.6,8.6,0,0,1,.7-3.8,7.4,7.4,0,0,1,1.3-2.1,6.3,6.3,0,0,1,2-1.3,7.9,7.9,0,0,1,3.2-.6,6.9,6.9,0,0,1,5.3,2.1,7.7,7.7,0,0,1,2,5.7,7.7,7.7,0,0,1-2,5.6,7.7,7.7,0,0,1-10.6,0A7.6,7.6,0,0,1,71.4,420.6Zm3.1-.1a5.7,5.7,0,0,0,1.2,3.9,3.8,3.8,0,0,0,2.9,1.3,4.2,4.2,0,0,0,3-1.3,7.5,7.5,0,0,0,0-7.8,4.2,4.2,0,0,0-6,.1A5.7,5.7,0,0,0,74.5,420.5Z" transform="translate(0)"/><path class="cls-2" d="M88.2,428V413.1h6.4a10.4,10.4,0,0,1,3.5.4,2.9,2.9,0,0,1,1.7,1.4,4.8,4.8,0,0,1,.6,2.4,4,4,0,0,1-.9,2.7,4.7,4.7,0,0,1-3,1.4,5.3,5.3,0,0,1,1.6,1.3,12.7,12.7,0,0,1,1.7,2.4l1.9,2.9H98.1l-2.2-3.3-1.6-2.1a2.8,2.8,0,0,0-.9-.7H91.2V428Zm3-8.6h2.3a13.1,13.1,0,0,0,2.7-.2,1.6,1.6,0,0,0,.8-.6,2.1,2.1,0,0,0,.3-1.2,1.6,1.6,0,0,0-.4-1.2,1.7,1.7,0,0,0-1.1-.6H91.2Z" transform="translate(0)"/><path class="cls-2" d="M109.1,428V413.1h11.1v2.5h-8.1v3.3h7.5v2.5h-7.5v4.1h8.3V428Z" transform="translate(0)"/><path class="cls-2" d="M123,428V413.1h3l6.1,9.9v-9.9h2.8V428h-3l-6.1-9.7V428Z" transform="translate(0)"/><path class="cls-2" d="M141.4,428V415.6H137v-2.5h11.9v2.5h-4.4V428Z" transform="translate(0)"/><path class="cls-2" d="M150.8,428V413.1h11.1v2.5h-8.1v3.3h7.5v2.5h-7.5v4.1h8.4V428Z" transform="translate(0)"/><path class="cls-2" d="M164.8,428V413.1h6.3a10.1,10.1,0,0,1,3.5.4,2.9,2.9,0,0,1,1.7,1.4,4,4,0,0,1,.7,2.4,4.1,4.1,0,0,1-1,2.7,4.7,4.7,0,0,1-3,1.4,5.3,5.3,0,0,1,1.6,1.3,12,12,0,0,1,1.8,2.4l1.8,2.9h-3.6l-2.2-3.3-1.6-2.1a2.8,2.8,0,0,0-.9-.7h-2.1V428Zm3-8.6H170a11.6,11.6,0,0,0,2.7-.2,1.5,1.5,0,0,0,.9-.6,2.2,2.2,0,0,0-.1-2.4,2.3,2.3,0,0,0-1.2-.6h-4.5Z" transform="translate(0)"/><path class="cls-2" d="M179.8,428V413.1h4.9a13.9,13.9,0,0,1,3.5.2,4,4,0,0,1,2.2,1.4,4.9,4.9,0,0,1,.9,3,5.6,5.6,0,0,1-.5,2.3,4.4,4.4,0,0,1-1.3,1.4,4.8,4.8,0,0,1-1.6.8l-3.1.2h-2V428Zm3-12.4v4.2h1.7a6.9,6.9,0,0,0,2.4-.2,2.2,2.2,0,0,0,.9-.7,2.8,2.8,0,0,0,.4-1.2,1.9,1.9,0,0,0-.5-1.3,2.1,2.1,0,0,0-1.2-.7h-3.7Z" transform="translate(0)"/><path class="cls-2" d="M193.7,428V413.1h6.4a10.1,10.1,0,0,1,3.5.4,2.9,2.9,0,0,1,1.7,1.4,4.8,4.8,0,0,1,.7,2.4,4.1,4.1,0,0,1-1,2.7,4.7,4.7,0,0,1-3,1.4,5.3,5.3,0,0,1,1.6,1.3,12,12,0,0,1,1.8,2.4l1.8,2.9h-3.6l-2.2-3.3-1.6-2.1a2.8,2.8,0,0,0-.9-.7h-2.1V428Zm3.1-8.6H199a13.1,13.1,0,0,0,2.7-.2,1.8,1.8,0,0,0,.9-.6,2.2,2.2,0,0,0-.1-2.4,2.3,2.3,0,0,0-1.2-.6h-4.5Z" transform="translate(0)"/><path class="cls-2" d="M208.7,428V413.1h3V428Z" transform="translate(0)"/><path class="cls-2" d="M213.8,423.1l3-.2a3.3,3.3,0,0,0,1.1,2.1,2.8,2.8,0,0,0,2.1.7,3.4,3.4,0,0,0,2.2-.6,1.9,1.9,0,0,0,.8-1.4,1.2,1.2,0,0,0-.3-.9,2.3,2.3,0,0,0-1.1-.7l-2.4-.6a7.2,7.2,0,0,1-3.4-1.5,3.6,3.6,0,0,1-1.4-3,4.3,4.3,0,0,1,.6-2.2,5.8,5.8,0,0,1,1.9-1.5,8.4,8.4,0,0,1,2.9-.5,6.7,6.7,0,0,1,4.3,1.2,5.1,5.1,0,0,1,1.5,3.3l-3.1.2a2.5,2.5,0,0,0-.8-1.7,3.1,3.1,0,0,0-1.9-.5,4.1,4.1,0,0,0-2.1.5,1.3,1.3,0,0,0-.4,1,1.2,1.2,0,0,0,.4.9,10,10,0,0,0,2.8,1,10.6,10.6,0,0,1,3.2,1.1,3.5,3.5,0,0,1,1.7,1.5,4.1,4.1,0,0,1,.6,2.3,4.2,4.2,0,0,1-2.7,4.1,8.1,8.1,0,0,1-3.3.6,6.7,6.7,0,0,1-4.3-1.3A5.6,5.6,0,0,1,213.8,423.1Z" transform="translate(0)"/><path class="cls-2" d="M228.5,428V413.1h11.1v2.5h-8.1v3.3H239v2.5h-7.5v4.1h8.4V428Z" transform="translate(0)"/><path class="cls-2" d="M243,420v-2.8h2.8V420Zm0,8v-2.9h2.8V428Z" transform="translate(0)"/><path class="cls-2" d="M90.3,452.9V438h3v14.9Z" transform="translate(0)"/><path class="cls-2" d="M96.2,452.9V438h2.9l6.1,10V438H108v14.9h-3l-6-9.7v9.7Z" transform="translate(0)"/><path class="cls-2" d="M111.3,452.9V438h2.9l6.1,10V438h2.8v14.9h-3l-6-9.7v9.7Z" transform="translate(0)"/><path class="cls-2" d="M125.7,445.6a9.1,9.1,0,0,1,.7-3.9,6.6,6.6,0,0,1,1.4-2,5.2,5.2,0,0,1,1.9-1.4,7.9,7.9,0,0,1,3.2-.6,6.9,6.9,0,0,1,5.3,2.1,7.7,7.7,0,0,1,2,5.7,7.7,7.7,0,0,1-2,5.6,6.9,6.9,0,0,1-5.2,2.1,7.1,7.1,0,0,1-5.3-2A7.6,7.6,0,0,1,125.7,445.6Zm3.1-.2a5.7,5.7,0,0,0,1.2,3.9,3.5,3.5,0,0,0,2.9,1.3,3.8,3.8,0,0,0,3-1.3,5.7,5.7,0,0,0,1.2-3.9,5.2,5.2,0,0,0-1.2-3.8,3.5,3.5,0,0,0-3-1.3,3.8,3.8,0,0,0-3,1.3A5.7,5.7,0,0,0,128.8,445.4Z" transform="translate(0)"/><path class="cls-2" d="M146.3,452.9,141,438h3.3l3.8,11,3.6-11h3.2l-5.3,14.9Z" transform="translate(0)"/><path class="cls-2" d="M168.4,452.9h-3.3l-1.3-3.4h-6l-1.2,3.4h-3.2l5.8-14.9h3.2Zm-5.6-5.9-2-5.5-2.1,5.5Z" transform="translate(0)"/><path class="cls-2" d="M171.8,452.9V440.5h-4.4V438h11.8v2.5h-4.4v12.4Z" transform="translate(0)"/><path class="cls-2" d="M181.1,452.9V438h3v14.9Z" transform="translate(0)"/><path class="cls-2" d="M186.4,445.6a11,11,0,0,1,.6-3.9,9,9,0,0,1,1.4-2,6.6,6.6,0,0,1,2-1.4,7.9,7.9,0,0,1,3.2-.6,7.1,7.1,0,0,1,5.3,2.1c1.3,1.3,1.9,3.2,1.9,5.7a7.6,7.6,0,0,1-1.9,5.6,6.9,6.9,0,0,1-5.3,2.1,7.2,7.2,0,0,1-5.3-2A7.9,7.9,0,0,1,186.4,445.6Zm3.1-.2a6.2,6.2,0,0,0,1.1,3.9,4.1,4.1,0,0,0,6,0,6.2,6.2,0,0,0,1.1-3.9,5.2,5.2,0,0,0-1.1-3.8,3.5,3.5,0,0,0-3-1.3,3.8,3.8,0,0,0-3,1.3A5.2,5.2,0,0,0,189.5,445.4Z" transform="translate(0)"/><path class="cls-2" d="M203.2,452.9V438h3l6.1,10V438h2.8v14.9h-3l-6.1-9.7v9.7Z" transform="translate(0)"/><path class="cls-2" d="M139.8,474.8v2.7h-10a7.5,7.5,0,0,1,.9-2.9,18.3,18.3,0,0,1,3.2-3.5,22.2,22.2,0,0,0,2.4-2.5,3.2,3.2,0,0,0,.6-1.7,2.1,2.1,0,0,0-.5-1.5,2.2,2.2,0,0,0-2.8,0,3,3,0,0,0-.7,1.8l-2.8-.3a4.8,4.8,0,0,1,1.6-3.4,5.2,5.2,0,0,1,3.3-1,4.8,4.8,0,0,1,3.5,1.2,3.8,3.8,0,0,1,1.3,3,4.3,4.3,0,0,1-.4,1.9,7.7,7.7,0,0,1-1.1,1.9c-.4.4-1,1.1-1.9,1.9l-1.7,1.6-.6.8Z" transform="translate(0)"/><path class="cls-2" d="M146.6,462.5A4.3,4.3,0,0,1,150,464c.9,1.3,1.4,3.3,1.4,6.1s-.5,4.9-1.5,6.1a4,4,0,0,1-3.3,1.5,4.4,4.4,0,0,1-3.6-1.6c-.8-1.1-1.3-3.1-1.3-6s.5-4.8,1.5-6.1A4.1,4.1,0,0,1,146.6,462.5Zm0,2.4a1.7,1.7,0,0,0-1,.3,3.3,3.3,0,0,0-.6,1.2,15.8,15.8,0,0,0-.3,3.7,13.7,13.7,0,0,0,.3,3.6,3.1,3.1,0,0,0,.6,1.3,1.3,1.3,0,0,0,1,.4,1.2,1.2,0,0,0,.9-.4,1.7,1.7,0,0,0,.6-1.1,16.8,16.8,0,0,0,.3-3.8,26.7,26.7,0,0,0-.2-3.6,2.6,2.6,0,0,0-.7-1.3A1.6,1.6,0,0,0,146.6,464.9Z" transform="translate(0)"/><path class="cls-2" d="M160.7,477.5h-2.9V466.7a10.7,10.7,0,0,1-3.7,2.2v-2.6a8.7,8.7,0,0,0,2.4-1.4,5.1,5.1,0,0,0,1.8-2.4h2.4Z" transform="translate(0)"/><path class="cls-2" d="M167.4,469.4a3,3,0,0,1-1.6-1.3,2.7,2.7,0,0,1-.5-1.8,3.7,3.7,0,0,1,1.1-2.7,5,5,0,0,1,3.4-1.1,4.9,4.9,0,0,1,3.3,1.1,3.7,3.7,0,0,1,1.1,2.7,3,3,0,0,1-.5,1.9,4.4,4.4,0,0,1-1.5,1.2,5.8,5.8,0,0,1,1.9,1.5,4,4,0,0,1,.6,2.2,4.5,4.5,0,0,1-1.3,3.4,5,5,0,0,1-3.5,1.3,5.3,5.3,0,0,1-3.4-1.1,4.2,4.2,0,0,1-1.6-3.5,4.3,4.3,0,0,1,.6-2.2A3.8,3.8,0,0,1,167.4,469.4Zm.3,3.6a2.6,2.6,0,0,0,.6,1.8,2,2,0,0,0,3,0,2.4,2.4,0,0,0,.6-1.8,2.4,2.4,0,0,0-.6-1.7,2,2,0,0,0-1.5-.6,1.9,1.9,0,0,0-1.6.7A3,3,0,0,0,167.7,473Zm.3-6.4a1.5,1.5,0,0,0,.5,1.3,1.7,1.7,0,0,0,1.3.5,2.1,2.1,0,0,0,1.3-.5,2,2,0,0,0,.5-1.4,1.7,1.7,0,0,0-1.8-1.7,1.7,1.7,0,0,0-1.8,1.8Z" transform="translate(0)"/></svg>