<?xml version="1.0"?>
<svg xmlns="http://www.w3.org/2000/svg" viewBox="0 0 266.06 476.65">
  <defs>
    <style>.cls-1,.cls-2,.cls-6{fill:#0047bb;}.cls-1{fill-rule:evenodd;}.cls-2,.cls-6{font-size:20.5px;font-family:Arial-BoldMT, Arial;font-weight:700;}.cls-2,.cls-8{letter-spacing:-0.02em;}.cls-3{letter-spacing:-0.06em;}.cls-4{letter-spacing:-0.08em;}.cls-5,.cls-6{letter-spacing:-0.03em;}.cls-7{letter-spacing:-0.1em;}</style>
  </defs>
  <title>the-queen-s-award-for-enterprise-BJSS-blue (RGB)</title>
  <g id="Layer_1">
    <path class="cls-1" d="M121.6,50.85a4.23,4.23,0,0,1,4.18,4.06,4.41,4.41,0,0,1-4.18,4.18,4.21,4.21,0,0,1-4-4.18,4,4,0,0,1,4-4.06Zm98.2,66.64,16.39-47.18-11.44,5.83L224,83.4c-1.21-2.42-3.85-6.93-7-6.82-8.58-.11-8.13,11.88-5.28,18.91h4c.12-3.3-1.42-8.35,2.09-8.35s3.74,12-6.81,11.87c-5.5,0-9.13-4.84-7.15-16.16h3.85l.76-5.06h-3.73l1.87-11.44h-5.61l-1.54,11.22h-3.3a46.14,46.14,0,0,0-.66,5.28,18.81,18.81,0,0,0,3.52,0c-1,6.6-2.42,16.82-11.88,16.16-8.9-.55-7.14-12.42-2.64-12.09,2.86-.11,1.43,5.16,0,8.35h5c4.51-7.47,6.16-19-1.21-18.69-3.19,0-4.83,2.31-6.49,3.74l1.1-9.79-5.49-5.83-6.38,5.61,1.43,10c-1.76-1.54-4-4.07-7-3.74-6.49.44-4.51,11-1.21,18.69h5.17c-1.32-3.19-2.31-7.8.44-7.91,6.48-.88,5.38,11.65-3.41,11.87-9,.11-9.35-9.89-10.34-16.38a21.19,21.19,0,0,0,3.74,0c-.22-1.76-.44-3.19-.66-5.06h-3.74l-1.87-11.22H148L149.64,78H145.9l.66,4.84h4c2,11.65-2.31,16.38-7.7,16.38-10,0-9.45-12.2-6.48-12.09,3.3,0,2.31,5.28,2.31,8.57h4.17c3.86-7,2.65-18.69-5.82-18.69-3.3,0-4.4,4.4-5.61,6.82l-.88-7.26-12.43-6.27,17.49,47.18ZM176.7,41.28c21.44,0,43,9.13,57.4,25.73l-9.68,4.73V67.67c-8.57-9.68-28.37-18.14-39.59-17.92l-1.75,15.61-5.83-5.83-6.6,6.6-2.53-16.6c-11.22,0-29.47,9.89-37.94,18.91v3.74L120,67.45A75.61,75.61,0,0,1,176.7,41.28Zm15.17-9.57a4,4,0,0,1,4,4.07,4.14,4.14,0,0,1-4,4.18,4.25,4.25,0,0,1-4.18-4.18,4.16,4.16,0,0,1,4.18-4.07Zm10.67,2.86a4.14,4.14,0,0,1,4.18,4,4.25,4.25,0,0,1-4.18,4.18,4,4,0,0,1-3.85-4.18,3.85,3.85,0,0,1,3.85-4ZM213,39a4.51,4.51,0,0,1,4.29,4.18A4.33,4.33,0,0,1,213,47.22,4.11,4.11,0,0,1,209,43.15,4.29,4.29,0,0,1,213,39Zm10.34,5.39a4.21,4.21,0,0,1,4.18,4,4.41,4.41,0,0,1-4.18,4.18,4.06,4.06,0,0,1-4-4.18,3.88,3.88,0,0,1,4-4Zm8.91,7a4.09,4.09,0,0,1,4,4,4.29,4.29,0,0,1-4,4.17,4.35,4.35,0,0,1-4.29-4.17,4.16,4.16,0,0,1,4.29-4ZM177.91,20.06a8.55,8.55,0,0,1,6.92,8.68,8.8,8.8,0,0,1-8.79,9,9,9,0,0,1-9.13-9,9.17,9.17,0,0,1,6.81-8.68V14.67h-4.94v-4h4.94V3.23h4.19v7.48h4.83v4.07h-4.83v5.28ZM160.09,31.71a3.78,3.78,0,0,1,4,4.07,3.81,3.81,0,0,1-4,4,3.94,3.94,0,0,1-4-4,3.9,3.9,0,0,1,4-4.07Zm-10.45,3.08a4.14,4.14,0,0,1,4,4.18,3.94,3.94,0,0,1-4,4,4.06,4.06,0,0,1-4.17-4,4.24,4.24,0,0,1,4.17-4.18Zm-9.79,4.4a4,4,0,0,1,4,4,4.16,4.16,0,0,1-4,4.29,4.52,4.52,0,0,1-4.28-4.29,4.4,4.4,0,0,1,4.28-4ZM130.51,45a4,4,0,0,1,4,4,4.24,4.24,0,0,1-4,4.29,4.09,4.09,0,0,1-4-4.29,3.87,3.87,0,0,1,4-4Z" transform="translate(-4.88 -3.23)"/>
    <path class="cls-1" d="M195,257.26c28-12.43,54.33-30.57,67.19-54.77,5.94-9.45,8.91-19.24,8.8-29-.33-20.12-14.63-30.79-37.94-30.46-12.65.11-25.51,3.3-38.05,8.69C162.07,166,131.5,195.79,114,229.22l-.66-.33c-9.24-5.06-26.06-16.83-41.9-35.85-.22-.11-.22-.44-.43-.55-3.41-4.07-7.26-8.25-10.45-12.76,0,0-2.09-2.64-3.08-4.07-2.2-2.86-4-5.94-6.05-8.8-3.19-4-5.61-8.46-8.47-12.53-3.73-6.27-7.69-12.43-11.21-18.7-.55-.88-1.32-2.42-1.32-2.42-3-5.5-5.61-11.1-8.36-16.49-.55-.77-.77-1.65-1.32-2.31-.66-1.1-1.65-2-2.09-3.19-1.76-1.87-3.41-4.29-5.83-5.17a2.57,2.57,0,0,0-2,.66,16.38,16.38,0,0,0-1.32,5.06,43.48,43.48,0,0,0,.11,8.47c0,1.1.44,2.2.55,3.3.11,1.32.66,2.53.77,3.85,1.1,6.92,8,22.87,8,22.87,1.76,3.41,3.52,6.82,5.61,10.12a187.64,187.64,0,0,0,10,16.05c5.94,7.81,12.42,15.62,18.8,22.87a1.71,1.71,0,0,1-.88-.66c-3.08-2.31-8.8-7.14-10.34-9-4.06-4.51-8.9-8.25-13.08-12.65-.22-.33-9.79-9.46-13.42-13-.66-1.1-5.61-4.94-7.37-5.6-1-.23-2.42-.55-3.08.55a1.81,1.81,0,0,0-.33.65,7.56,7.56,0,0,0,.22,2.75,32.21,32.21,0,0,0,1.32,5c.33,1.65,1.43,3.19,1.76,4.84A129.67,129.67,0,0,0,15,183.91a77.59,77.59,0,0,0,8.36,10.67c7.48,8.9,16.27,15.72,25,22.54,4.4,3,8.58,6.27,13.2,8.91a24.89,24.89,0,0,0,2.2,1.43c.44.43,1.1.55,1.43,1H65c-9.57-4-18.26-9.13-27.5-13.64-4.39-2.31-8.57-5.28-12.86-7.7-.33-.44-5.5-3-7.48-4.4-1.65-.66-3-2.2-4.84-1.87-2.09.77-1.1,4.18-.66,5.17a39.71,39.71,0,0,0,2.42,4.4c1.65,3.41,4.62,6.16,7.26,8.8,1.43,1.21,2.53,2.75,4.07,3.74a62.75,62.75,0,0,0,8,6.38c4,2.52,7.8,5.16,11.87,7.36,1.43.77,3,1.76,4.4,2.53a87.33,87.33,0,0,0,13,6.05c.44.33,6.82,2.86,9.46,4,.32.11,4.18,1.54,5.82,2l.11.22c-1.54-.11-3.07-.66-4.73-.66-.77-.22-1.42,0-2.19-.33-1.76-.55-3.63-.66-5.28-1.1-4-.55-7.59-1.32-11.44-2-4.73-1-9.24-2.75-14.18-3.08-1.87.11-3.85-.88-5.5,0-.22.44-.77.33-1,.77a3.86,3.86,0,0,0,1.32,4c2.31,2.64,5.38,4.07,8,6.05,1.1.44,1.87,1.43,3.08,1.65A31,31,0,0,0,50.34,259a31.35,31.35,0,0,1,3.3,1.76c1.54.44,3,1.32,4.62,1.65a25.15,25.15,0,0,0,7.7,2.09c2.86.88,5.72,1.09,8.35,1.86a86.38,86.38,0,0,0,14.85,2,18.94,18.94,0,0,0-4.62,1.88c-.33.32-.44.87-.66,1.2-.44.77.11,1.43.33,2,2.09,1.76,7.48,2.75,7.7,2.86a18.86,18.86,0,0,0,6.93,1.87c-.22,3-.33,5.94-.33,8.8.44,28.81,15.5,64.22,63.56,63.56,11.44-.11,22.54-3,32.88-7.14,30.9-12.65,54.87-37.94,58.51-43.56l-5.5-5.38C229.59,310,213.53,323.35,195,328a56.9,56.9,0,0,1-13.08,1.76c-19.25.22-43.11-10-43.55-41a75.55,75.55,0,0,1,1.21-14A279.18,279.18,0,0,0,195,257.26Zm-41.9-26.84c10.12-25.29,25.63-48.49,41.9-62.68,9.9-8.68,20.12-14,29.47-14.18,25.4-.66,24.2,49.7-26.61,78-1,.45-1.87,1-2.86,1.43a83.63,83.63,0,0,1-45.64,7.59ZM133.7,271.77l-3.41.77a37.29,37.29,0,0,1-5.28,1.1c-1.32.33-2.75.44-4.18.66l-2.31.33-4.62.12-4.39.1a64.89,64.89,0,0,1-11.88-1c2-.11,4.84-.33,4.84-.33a138,138,0,0,0,15-1.54l6.16-.77c3.3-.54,5.28-1.09,8.58-1.87,1-.22,2.86-1.09,2.64-1.65s-4,0-4.51.11c-1,.22-7.15,1.21-7.15,1.21-5.39.67-10.45,1.32-12.43,1.43s-4.4.23-7.47.44c-2.42.22-8.8,0-8.8-.55s6.16-1.42,8.47-1.42c1.76-.12,3.63-.22,5.27-.45a58.29,58.29,0,0,0,6.16-.54l5.61-.56a143.51,143.51,0,0,0,15.62-3.51l6.6-1.76,5.27-1.54,2-.66,5.83-2,1-.33,1.32-.66h.11l.11-.11v-.11c.22-.33.11-.55-.11-.88l-.44-.33-2.2.55-1.21.22-2.53.77a18.48,18.48,0,0,0-4.18,1.32c-4.51,1-9,2-13.63,2.75-4.29.88-8.69,1.54-13,2.2l-.11.11-2.2.22-1.1.11a100.69,100.69,0,0,1-10.12.65l-1.53.23a3.36,3.36,0,0,0-1.21.1v-.1H99.72l-4.07-.11-7-.34c-5.17-.32-6.6-.32-6.93-.22,0-.1-5.93-1.21-7.15-1.31l-7.14-1.54a11.47,11.47,0,0,0-2-.45l-3-.87a15.67,15.67,0,0,1-3.85-1.21l-2.09-.66a32.68,32.68,0,0,1-7.81-3.3,14.91,14.91,0,0,1-2.31-1.1c1.65.33,4.29,1.1,4.29,1.1l4.29,1.1a211.77,211.77,0,0,0,22.66,4.62l2.52.44v-.12a1.29,1.29,0,0,0,.66.12c5.94.66,11.44,1.1,17.27,1.54l1.43.11,2.42.11c1.54,0,3,0,4.29-.11a53.39,53.39,0,0,0,5.93-.11,41.73,41.73,0,0,0,5.28-.33c1.32-.22,1.76-.77,1.43-1.33-.77-1.2-5.06-.65-5.06-.65h-7.48c-3.4,0-6.7-.33-10.11-.66L91.14,259a189.38,189.38,0,0,1-22.21-2.86,115.3,115.3,0,0,1-17.38-4.84s-2.75-1.1-2.42-1.65,4.29,1.1,6.6,1.43c.55,0,4.18.77,7.92,1.54C74.86,254.73,75,254.73,75,254.73l6,.88a77.7,77.7,0,0,0,9.79,1,11.08,11.08,0,0,0,2.75.33l2.53.22a158.59,158.59,0,0,0,20.23.66h1.43l1-.11,2.09-.11a15.65,15.65,0,0,0,1.65-.11h1.65l1.65-.11,6.16-1.1c6.93-1.21,7-1.21,7-1.21l1.75-.77.11-.33-.11-.66-.21-.22-1.43-.11c-3.63.66-7.26,1-10.34,1.32a49.87,49.87,0,0,1-5.83.55h-2.2l-5.06-.11a62.21,62.21,0,0,1-6.27-.44,51.83,51.83,0,0,1-5.93-.44c-.77-.11-1.1-.22-1.32-.22l-1.43-.22L99,253h-.33a8.63,8.63,0,0,1-1.54-.22l-.88-.22a55.88,55.88,0,0,1-6.49-1.76A34.06,34.06,0,0,0,84,249.12c-6.82-2.31-8.47-3-8.91-3l.11-.11-4.28-1.54a80.1,80.1,0,0,1-8.47-3.41l-6.27-2.86L53.53,237l-2-1-4.4-2.42-1.1-.66a9,9,0,0,1-2.64-1.54c-7.36-4.39-13.3-8.46-18.47-14,0,0-.44-.55-.66-.88,3,2.31,6,4.29,8.8,6.05l6.16,4.07a143,143,0,0,0,16.93,8.57l2.09,1,8.25,3.52,7.58,3.08s.77.33.66.33l.44.22c4.18,1.54,8.58,2.86,12.76,4.07l4.18,1.1,6.49,1.76,5.17,1.1s1.32-.22,1-1.1-4.18-2-4.18-2c-8.36-2.09-13.53-4.07-17.38-5.28a269.58,269.58,0,0,1-33.87-14.73l-3.08-1.65-2-1.1A109.79,109.79,0,0,1,33.19,218c-1.21-.88-1.54-1.1-1.65-1.21v.11l-4-3.41-1.32-1.1c1.43.77,5.06,3.08,5.06,3.08,7,4.29,12.42,7.37,17.7,10.12,1.87,1.1,4,2,6,3,1.87.87,3.74,1.65,5.61,2.75l.77.33a96.1,96.1,0,0,0,9.68,4c5.27,2.2,12,4.95,13.08,5.06l-.22-.11,9.79,3.08c13.41,4.18,13.41,4.18,13.52,4.18L112,249c2.42.55,5,1.1,7.48,1.65,1.32.22,3.85,0,3.85-1,0-.77-4.18-1.76-5-2a133.77,133.77,0,0,1-17.59-5.39l-2.09-.66a8.76,8.76,0,0,0-2.2-.77l-3.41-1.54-1.43-.55-4.29-1.87-.66-.44a2.4,2.4,0,0,0-.55-.33,70,70,0,0,1-10.44-6c-5.83-3.62-11.88-7.58-17.82-11.76l-3.41-2.53c-2.64-2-3.63-2.64-4-2.86A4.31,4.31,0,0,0,49,211.62a11.65,11.65,0,0,1-1.32-1.1v-.11l-.11-.11h-.11a8.47,8.47,0,0,1-1.43-1l-.22-.33A216.9,216.9,0,0,1,27.25,192.6c-3.19-2.64-5.83-6.27-8.25-9.68-2.09-3.08-2.75-4-3-4.29h.11l-.55-.66a19.62,19.62,0,0,0-1.76-2.75h.11l-.44-.77a12.58,12.58,0,0,0-.66-1.54c4.84,6.16,9,11.22,13,15.4,8.69,8.69,16.71,15.17,26.94,23.09l2.09,1.54,2.64,2.31c2.86,2.31,4.84,3.08,7.81,5.28,1.87,1.43,4.4,3,6.38,4.4a73.56,73.56,0,0,0,8.13,4.72l5.06,3c1.76,1,5.06,1.75,4.62.65-.33-.88-4.18-3.3-6.16-4.39-4.51-2.64-6-4.18-6.49-4.29h.22c-3.41-2.2-7.47-4.95-11.43-7.7l-.44-.33a31.48,31.48,0,0,0-4.51-3.3l-1.21-1-.55-.44-2.09-1.54a65.27,65.27,0,0,1-5.61-4.4l-3-2.42c-1-.77-1.43-1.1-1.65-1.32a54,54,0,0,0-5-4.18h.11L36.49,193l-1.43-1.21c-5-5-9.9-10.45-16.06-17.82l-.22-.44s-1.54-2.31-2.53-3.85c.88.66,1.76,1.43,1.76,1.43l5.17,4.73c9,8.69,10.78,10.34,11.11,10.56h-.11a81.12,81.12,0,0,0,6.38,6.05l3.07,2.85,8.8,7.81,2.75,2.42q6.1,5.12,11.88,9.24l5.38,4.07c3.63,2.64,4.29,3.08,4.51,3.19h-.11a88.49,88.49,0,0,0,7.81,5.28l3.85,2.41.55.33,2.64,1.32c.66.33.88.56,1.1.56h-.11a67.23,67.23,0,0,0,13.63,6.48,95.37,95.37,0,0,0,9.46,3.52l.33.22a3.8,3.8,0,0,0,2,.55l.77-.11.33-.55V242a2.5,2.5,0,0,1-.11-.44,8.26,8.26,0,0,0-1.54-.88,6.73,6.73,0,0,1-1.32-.55,4.42,4.42,0,0,0-1.76-.88,13.43,13.43,0,0,1-4.61-2.09,64.33,64.33,0,0,1-6.16-3.08l-.88-.44-.66-.33a31.75,31.75,0,0,0-3.3-1.87l-3.3-2.08-2.86-1.87a41.86,41.86,0,0,0-4.07-2.64h.11l-1.32-1a82.74,82.74,0,0,1-7-5.17l-3.63-2.86c-2.75-2.31-3.3-2.75-3.41-2.86s0,0,0,0l.1.09a.12.12,0,0,1-.1-.09C62,202.32,50.2,190.91,40.44,178.19a70.58,70.58,0,0,1-4.61-6.6l-1.65-2.53L32,165.54a72.61,72.61,0,0,1-4.29-7.47l-1.76-3.3a58.05,58.05,0,0,1-4.18-8.25L21,144.76c-.44-1-.66-1.43-.77-1.65a27,27,0,0,0-1-3.19l-.88-2.64c-1.76-5.06-3-9.34-4.07-13.41a25.31,25.31,0,0,0-.55-3.52l-.22-1.21-.11-.88v-.11a7.67,7.67,0,0,0,.66,2.09l.66,2.31L17.13,129l1.32,3.08A28.37,28.37,0,0,0,21,137.72l1.43,2.75L24.72,145l1.65,3.08,2.42,4.29.66,1.1,3.67,6.06a.09.09,0,0,1,.07.09l-.07-.09h0a39.69,39.69,0,0,0,3.07,5.05l2,3.3c3.19,4.73,6.37,9,10.22,14.19l.55.77.77.88,1.21,1.43s1.54,1.87,1.54,1.76a4.88,4.88,0,0,0,.88,1.21s.66.77.77.88l.11.11.22.22a2.4,2.4,0,0,1,.33.55l1,1a18.74,18.74,0,0,0,2.2,2.2h-.11a5.24,5.24,0,0,0,1.54,1.54v.11a27.81,27.81,0,0,0,3,3.29l1.32,1.21,3.74,4.07c3.52,3.3,3.3,4.18,7.47,7.15,0,0,4.18,3.85,4.74,3.08.43-.55-.56-2.42-2.43-4.29l-4.39-4.29a124.66,124.66,0,0,1-12.65-13.63L56.72,187A58.88,58.88,0,0,1,52,181.05,49,49,0,0,0,48.8,177h.11l-1.21-1.76a154.8,154.8,0,0,1-11.55-18C33,151.47,30,146,26.48,139.48a38.93,38.93,0,0,1-1.76-3.74l-.11-.33c-.22-.44-4.62-11.65-4.95-12.1l-.33-1A20.71,20.71,0,0,1,18,118c.88,1.32,1.65,2.42,2.2,3.4l1.21,2.75,1,2.2,2.2,4.07c1.54,3.08,3.19,6.27,4.95,9.24l.55,1.1c.11.11.22.33.33.44l2,3.3a20.64,20.64,0,0,1,2.31,4l4.17,6.93,5.61,9s2.53,4.07,2.64,4.07l6.38,8.69,2.2,3.08,1,1.32a11.1,11.1,0,0,1,1.65,2.31L60,186c1.21,1.65,2.42,3.3,3.74,4.84A140.38,140.38,0,0,0,74.42,203l3.2,3.41c2.52,2.31,7.8,7.59,8.13,7.92a26.06,26.06,0,0,0,4.07,3.74l.33.33s3.3,2.75,3.41,2.75c1.76,1.43,3.52,3,5.39,4.28l3.08,2,2.53,1.76c2.09,1.2,2.74,1.64,3,1.76h-.11a5.71,5.71,0,0,0,.76.33l.44.33,1.65.88a68.08,68.08,0,0,0,13.09,6l2.31.77a32.69,32.69,0,0,0,4.29,1.43c43.76,16.39,85.33-12.42,97.1-21.66a.38.38,0,0,1,.22-.11l3.52-3.08c1.43-1.21,3.19-2.75,4.4-3.74-.88,1.43-3,4.07-7.81,9.57-3.19,3.63-24.63,24.41-49,36.84a3.34,3.34,0,0,1-1,.22,2.48,2.48,0,0,1,.56-.44l.55-.44a22.2,22.2,0,0,0,2-1.43c2-1.32,4.07-2.75,6-4.29l.77-.66a16.06,16.06,0,0,0,3.19-2.64l6.16-5.17s1.65-1.43,1.54-2l-.11-.33-.22-.11a1.29,1.29,0,0,0-1.32.22c-.22,0-9.35,6.71-10.12,6.93l-1.32.88c-4.24,2.63-5.6,3.49-6.05,3.78a.11.11,0,0,1-.11.07l.11-.07a.1.1,0,0,1,0,0l-1.21.66-1.44.77-1.1.66a15.24,15.24,0,0,1-1.42.66h-.12l-.1.11a7.08,7.08,0,0,1-2.2,1.21,1.58,1.58,0,0,1-.33.22,6.31,6.31,0,0,0-.77.44,2.33,2.33,0,0,0-1.32.44l-.11.11c-2.75,1.43-5.72,2.75-9,4.18l-6.38,2.52a70,70,0,0,1-8.46,3.3l-3.3,1.22s-2.53.76-2.64.76A44.72,44.72,0,0,1,133.7,271.77Z" transform="translate(-4.88 -3.23)"/>
  </g>
  <g id="Layer_2">
    <text class="cls-2" transform="translate(32.07 396.1) scale(1.02 1)">THE QUEEN&#x2019;S<tspan class="cls-3" x="133.33" y="0"> </tspan><tspan class="cls-4" x="137.75" y="0">AW</tspan><tspan class="cls-5" x="168.62" y="0">ARDS</tspan></text>
    <text class="cls-2" transform="translate(56.68 420.32) scale(1.02 1)">FOR ENTERPRISE:</text>
    <text class="cls-6" transform="translate(87.24 444.8) scale(1.02 1)">INNO<tspan class="cls-7" x="49.2" y="0">VA</tspan><tspan class="cls-8" x="73.61" y="0">TION</tspan></text>
    <text class="cls-6" transform="translate(126.91 468.93) scale(1.02 1)">2018</text>
  </g>
</svg>
