<svg xmlns="http://www.w3.org/2000/svg" width="1271.406" height="271.56" viewBox="0 0 1271.406 271.56">
  <g id="waitrose-logo-black" transform="translate(0 0.009)" opacity="0.999">
    <path id="Path_1" data-name="Path 1" d="M265.46.5V139.186H346.2v-17.9H285.375v-43.1h57.008v-17.9H285.375V18.4H344.4V.5Z" transform="translate(925.211 1.775)" fill="#fff"/>
    <path id="Path_2" data-name="Path 2" d="M191.971.5,154.115,96.082,115.5.5H96.569L58.174,96.082,19.915.5H0L56.111,140.442h3.857L105.943,26.963l45.571,113.478h3.857L211.707.5Z" transform="translate(0 1.775)" fill="#fff"/>
    <rect id="Rectangle_1" data-name="Rectangle 1" width="19.915" height="138.686" transform="translate(429.558 2.275)" fill="#fff"/>
    <path id="Path_3" data-name="Path 3" d="M274.874,82.648l-15.116-9.195a73.337,73.337,0,0,1-19.511-16.91A30.77,30.77,0,0,1,233.519,36.9a34.088,34.088,0,0,1,11.214-26.6A43.059,43.059,0,0,1,274.471.029a53.106,53.106,0,0,1,31.846,9.778V32.233a45.84,45.84,0,0,0-32.25-14.263,26.912,26.912,0,0,0-15.878,4.485,13.86,13.86,0,0,0-6.279,11.617,16.1,16.1,0,0,0,4.082,11.213,63.205,63.205,0,0,0,15.34,11.886l15.743,8.971c16.865,10.137,24.938,23.054,24.938,38.663a35.882,35.882,0,0,1-11.258,27.226,39.919,39.919,0,0,1-29.11,10.451A61.808,61.808,0,0,1,234.192,129.7V104.492c10.72,13.456,23.144,20.094,37.228,20.094a23.324,23.324,0,0,0,15.564-4.934,16.461,16.461,0,0,0,6.369-13.007C293.309,98.212,287.029,90.228,274.874,82.648Z" transform="translate(813.801 0.004)" fill="#fff"/>
    <path id="Path_4" data-name="Path 4" d="M112.43.32h13.994l62.166,139.493H168.272L149.793,98.728H90.632L73.274,139.813H53Zm29.2,80.736L119.2,30.82,98.436,81.056Z" transform="translate(184.721 1.148)" fill="#fff"/>
    <path id="Path_5" data-name="Path 5" d="M113.4.5H229.659V18.172H181.532v121.1H161.617V18.172H113.4Z" transform="translate(395.234 1.775)" fill="#fff"/>
    <path id="Path_6" data-name="Path 6" d="M152.63,139.241V.555h35.165a50.056,50.056,0,0,1,33.371,10.451,34.9,34.9,0,0,1,12.379,28.168A36.107,36.107,0,0,1,227.49,60.12a35.03,35.03,0,0,1-17,13.456A61.852,61.852,0,0,1,223.5,85.462a253.565,253.565,0,0,1,17.627,26.329c4.844,7.894,8.97,13.815,11.841,17.941l7.356,9.913H236.416s-6.369-10-6.952-10.81l-10.047-15.609-7.4-10.81a109.581,109.581,0,0,0-11.258-13.77,42.3,42.3,0,0,0-8.971-7.132,33.506,33.506,0,0,0-14.263-2.2h-5.158v59.924ZM178.824,17.465H172.9V61.107h7.535a55.125,55.125,0,0,0,20.677-2.6,18.973,18.973,0,0,0,8.746-7.8A22.426,22.426,0,0,0,213,38.86a21.215,21.215,0,0,0-3.5-11.886,18.524,18.524,0,0,0-9.778-7.49,71.361,71.361,0,0,0-20.9-2.018Z" transform="translate(531.963 1.72)" fill="#fff"/>
    <path id="Path_7" data-name="Path 7" d="M261.071.032A74.367,74.367,0,0,1,314.581,20.4a67.279,67.279,0,0,1,21.395,51A66.382,66.382,0,0,1,314.4,122.167a76.654,76.654,0,0,1-54.407,20.094,72.393,72.393,0,0,1-52.254-20.094A67.28,67.28,0,0,1,186.884,71.8,68.356,68.356,0,0,1,207.92,20.4,73.155,73.155,0,0,1,261.071.032Zm.807,18.883a53.824,53.824,0,0,0-39.112,14.846A50.774,50.774,0,0,0,207.426,71.8a49.652,49.652,0,0,0,15.385,37.318A57.1,57.1,0,0,0,300,108.846,50.773,50.773,0,0,0,315.522,70.99,49.338,49.338,0,0,0,300,33.941a52.613,52.613,0,0,0-38.125-15.026Z" transform="translate(651.241 0)" fill="#fff"/>
    <path id="Path_8" data-name="Path 8" d="M88.6,103.537V48.009h17.941a18.389,18.389,0,0,1,12.693,4.485,14.891,14.891,0,0,1,4.485,11.572,15.25,15.25,0,0,1-2.377,8.657,13.949,13.949,0,0,1-6.683,5.338,31.4,31.4,0,0,1-12.11,1.7H96.584v24.086Zm16.371-48.531H96.584V72.364h8.971c6.01,0,10.137-2.646,10.137-8.971S112.013,55.006,104.971,55.006Z" transform="translate(308.799 167.318)" fill="#fff"/>
    <path id="Path_9" data-name="Path 9" d="M126.352,47.92h5.607l24.893,55.887h-8.163l-7.4-16.461H117.606l-6.952,16.461H102.49Zm11.662,32.339-8.971-20.094L120.7,80.259Z" transform="translate(357.21 167.048)" fill="#fff"/>
    <path id="Path_10" data-name="Path 10" d="M139,48h46.6v7.087H166.316v48.441h-7.984V55H139Z" transform="translate(484.458 167.327)" fill="#fff"/>
    <path id="Path_11" data-name="Path 11" d="M202.655,48h7.535v55.528h-6.818l-37.587-42.79v42.79H158.34V48h6.414L202.52,91.194Z" transform="translate(551.864 167.327)" fill="#fff"/>
    <path id="Path_12" data-name="Path 12" d="M179.98,48h31.4v7.087H187.829V72.041H210.57v7.132H187.829V96.441h24.31v7.042H179.89Z" transform="translate(626.973 167.327)" fill="#fff"/>
    <path id="Path_13" data-name="Path 13" d="M123.18,103.551V48.023h14.084a20.139,20.139,0,0,1,13.456,4.216A13.9,13.9,0,0,1,155.654,63.5a14.352,14.352,0,0,1-2.422,8.388,13.86,13.86,0,0,1-6.818,5.293,23.374,23.374,0,0,1,5.2,4.8A92.631,92.631,0,0,1,158.7,92.517c1.929,3.14,3.588,5.517,4.754,7.087l2.915,3.992H156.82l-2.781-4.485L150,92.876l-2.96-4.485a45.973,45.973,0,0,0-4.485-5.517,14.934,14.934,0,0,0-3.543-2.826,13.455,13.455,0,0,0-5.7-.9h-1.974v24.176Zm10.5-48.8h-2.332V72.288h3.005a21.933,21.933,0,0,0,8.3-1.032,8.388,8.388,0,0,0,4.754-7.849,7.984,7.984,0,0,0-5.338-7.76,27.72,27.72,0,0,0-8.388-.9Z" transform="translate(429.321 167.304)" fill="#fff"/>
    <path id="Path_14" data-name="Path 14" d="M196.38,103.55V48.022h14.084a20.184,20.184,0,0,1,13.456,4.216A14.039,14.039,0,0,1,228.854,63.5a14.353,14.353,0,0,1-2.422,8.388,14.039,14.039,0,0,1-6.818,5.293,24.356,24.356,0,0,1,5.2,4.8,99.112,99.112,0,0,1,7.087,10.54c1.929,3.14,3.543,5.517,4.71,7.087l2.96,3.992H230.02s-2.557-3.992-2.826-4.485l-4.037-6.235L220.2,88.39a50.742,50.742,0,0,0-4.485-5.517,14.938,14.938,0,0,0-3.544-2.826,13.456,13.456,0,0,0-5.7-.9h-2.063v24.176Zm10.5-48.8H204.5V72.288h3.05a21.664,21.664,0,0,0,8.253-1.032,8.3,8.3,0,0,0,4.754-7.849,7.894,7.894,0,0,0-5.293-7.76A28.3,28.3,0,0,0,206.876,54.75Z" transform="translate(684.445 167.305)" fill="#fff"/>
    <path id="Path_15" data-name="Path 15" d="M230.577,80.82l-6.055-3.678a26.912,26.912,0,0,1-8.118-6.818,13.456,13.456,0,0,1-2.377-7.76,13.725,13.725,0,0,1,4.485-10.63,17.044,17.044,0,0,1,11.841-4.082,22.426,22.426,0,0,1,12.783,3.9v8.971a18.48,18.48,0,0,0-12.918-5.786,10.944,10.944,0,0,0-6.414,1.794,5.517,5.517,0,0,0-2.512,4.485,7.133,7.133,0,0,0,1.839,4.485,22.963,22.963,0,0,0,5.921,4.485l6.1,3.633A17.941,17.941,0,0,1,245.334,89.7a14.263,14.263,0,0,1-4.485,10.854,16.461,16.461,0,0,1-11.662,4.171A24.49,24.49,0,0,1,214.206,99.7V89.566a18.7,18.7,0,0,0,14.981,8.343,9.285,9.285,0,0,0,6.19-2.063,6.548,6.548,0,0,0,2.512-5.2C237.888,87.055,235.421,83.87,230.577,80.82Z" transform="translate(745.92 166.757)" fill="#fff"/>
    <path id="Path_16" data-name="Path 16" d="M100.21,90.715a47.679,47.679,0,0,0,6.952-15.385H100.3a51.493,51.493,0,0,1-4.485,10.451l-10-10.944a17.582,17.582,0,0,0,9.733-14.308,11.572,11.572,0,0,0-4.082-8.971,14.577,14.577,0,0,0-10-3.454,13.68,13.68,0,0,0-9.913,3.543,11.034,11.034,0,0,0-3.812,9.509A21.709,21.709,0,0,0,74.554,73.94a48.5,48.5,0,0,0-5.248,3.5,15.115,15.115,0,0,0-6.638,15.115,13.77,13.77,0,0,0,13.725,11.3,24.893,24.893,0,0,0,19.242-7.042l6.19,6.5h10.047ZM81.551,54.832a6.1,6.1,0,0,1,6.683,4.485,8.3,8.3,0,0,1-3.095,7.311,28.164,28.164,0,0,1-4.127,3.185A19.826,19.826,0,0,1,76.8,64.745a9.6,9.6,0,0,1-1.48-4.889,5.741,5.741,0,0,1,6.235-4.844Zm9.285,36.824c-5.113,5.831-16.551,7.625-19.242,1.7-3.229-6.952,2.781-11.527,7.625-14.4Z" transform="translate(217.709 167.627)" fill="#fff"/>
  </g>
</svg>
