<?xml version="1.0" encoding="utf-8"?>
<!-- Generator: Adobe Illustrator 24.2.0, SVG Export Plug-In . SVG Version: 6.00 Build 0)  -->
<svg xmlns="http://www.w3.org/2000/svg" xmlns:xlink="http://www.w3.org/1999/xlink" version="1.1" x="0px" y="0px" viewBox="0 0 635.2 111.5" style="enable-background:new 0 0 635.2 111.5;" xml:space="preserve">
<style type="text/css">
	.st0{fill:#0000FF;}
	.st1{fill-rule:evenodd;clip-rule:evenodd;fill:#E20A17;}
</style>
<g id="xdh">
</g>
<g id="Layer_1">
	<g>
		<path class="st0" d="M200.3,58c-3.1-2.2-7.4-4.6-12.6-7.3c-4.9-2.5-8.5-4.4-10.8-5.7c-2.2-1.3-4-2.7-5.3-4.4    c-1.3-1.5-1.9-3.3-1.9-5.3c0-2.8,1.1-4.8,3.5-6.2c2.5-1.5,5.8-2.3,9.8-2.3c3.2,0,6.1,0.4,8.6,1.2c2.6,0.8,5.4,1.9,8.4,3.3l1,0.5    l5.5-12.8l-0.9-0.5c-3.4-1.7-7.2-3.2-11.2-4.3c-4-1.1-8-1.7-11.9-1.7c-5.8,0-10.9,1-15.2,2.9c-4.3,2-7.7,4.7-10,8.1    c-2.3,3.4-3.5,7.4-3.5,11.7c0,6,2,11.1,6.1,15.1c3.9,3.9,9.8,7.9,17.5,11.8c4.5,2.3,8,4.1,10.3,5.4c2.3,1.3,4.2,2.8,5.6,4.4    c1.4,1.6,2,3.2,2,5c0,2.9-1.2,5.2-3.7,6.8c-2.6,1.7-6.6,2.6-11.7,2.6c-3.2,0-6.7-0.6-10.4-1.7c-3.7-1.1-7-2.3-9.7-3.7l-1.2-0.6    l-3.6,12.9l0.6,0.4c2.2,1.6,5.9,3.1,11.2,4.6c5.2,1.4,9.6,2.2,13.2,2.2c6.5,0,12.2-1,16.9-2.9c4.7-2,8.4-4.8,10.9-8.3    c2.5-3.6,3.7-7.7,3.7-12.3c0-4.2-1.1-8-3.2-11.2C206.2,62.9,203.5,60.2,200.3,58"/>
		<path class="st0" d="M414.7,28.1h9.7c5.5,0,9.7,1,12.6,3.1c2.8,2,4.2,5.2,4.2,9.9c0,4.4-1.5,7.5-4.5,9.5    c-3.1,2.1-7.3,3.1-12.5,3.1h-9.5V28.1z M453.6,54.4c2.7-3.9,4.1-8.6,4.1-13.8c0-8.6-3.1-15.2-9.3-19.5c-6.1-4.3-14-6.4-23.7-6.4    h-25.7v85.1h15.8V67.1h8.9c2.5,0,4.5-0.1,6.1-0.3l17.9,32.8h17.2l-20.9-36.9C447.9,60.7,451.1,57.9,453.6,54.4"/>
		<path class="st0" d="M272.8,52.8c-3,2.3-7.1,3.4-12.3,3.4h-9.5v-28h9.7c5.5,0,9.8,1.1,12.6,3.3c2.7,2.1,4.1,5.8,4.1,11    C277.3,47.1,275.8,50.5,272.8,52.8 M284.8,21.1c-6-4.4-14-6.6-23.8-6.6h-25.7v85.1h15.8v-30h8.9c6.1,0,11.8-1,16.8-3    c5.1-2,9.3-5.2,12.5-9.3c3.2-4.2,4.8-9.5,4.8-15.6C294,32.5,290.9,25.6,284.8,21.1"/>
		<path class="st0" d="M536.6,83.6c-5.6,2.4-11.5,3.7-17.6,3.7c-4.7,0-8.7-1.3-12.1-4c-3.4-2.7-6.1-6.3-7.9-10.8    c-1.8-4.5-2.8-9.7-2.8-15.2c0-6.1,1.1-11.6,3.2-16.2c2.1-4.6,5-8.2,8.6-10.7c3.6-2.5,7.6-3.7,12.1-3.7c3.2,0,5.9,0.2,7.8,0.6    c2,0.4,5.2,1.3,9.4,2.7l0.9,0.3l4.9-11.6l-0.9-0.5c-3-1.7-6.7-3-11-3.9c-4.3-0.9-7.9-1.4-10.9-1.4c-8.1,0-15.3,1.9-21.4,5.7    c-6.1,3.8-10.9,9.2-14.2,15.9c-3.3,6.7-5,14.4-5,22.9c0,8.1,1.5,15.5,4.5,22c3,6.6,7.6,11.9,13.6,15.8c6,3.9,13.3,5.8,21.7,5.8    c3.6,0,7.7-0.5,12.1-1.5c4.4-1,8.1-2.2,11.1-3.7l1-0.5l-6.2-12.1L536.6,83.6z"/>
		<polygon class="st0" points="581.8,49.4 581.8,14.6 566,14.6 566,99.7 581.8,99.7 581.8,71.4 589.1,63.6 615.7,99.7 635.2,99.7     600,52.3 628.9,21.6 617.4,12.4   "/>
		<path class="st0" d="M327.2,65.3l10.5-28l10.8,28H327.2z M331.2,14.6l-32.4,85.1h15.8l7.9-21.2h30.9l8.1,21.2H379l-34.3-85.1    H331.2z"/>
		<polygon class="st1" points="44.8,0 44.8,43 7.4,21.5 0,34.3 37.4,55.8 0,77.2 7.4,90 44.8,68.5 44.8,111.5 59.7,111.5 59.7,68.5     97.1,90 104.5,77.2 67.1,55.8 104.5,34.3 97.1,21.5 59.7,43 59.7,0   "/>
	</g>
</g>
</svg>
